G04*
G04 #@! TF.GenerationSoftware,Altium Limited,Altium Designer,18.0.7 (293)*
G04*
G04 Layer_Color=16711935*
%FSLAX23Y23*%
%MOIN*%
G70*
G01*
G75*
%ADD99C,0.004*%
D99*
X337Y-584D02*
X374D01*
X337Y-517D02*
X374D01*
X337Y-584D02*
Y-517D01*
X374Y-584D02*
Y-517D01*
X2242Y-953D02*
Y-807D01*
X1978Y-953D02*
Y-807D01*
X2242D01*
X1978Y-953D02*
X2242D01*
X1281Y-2593D02*
X1319D01*
X1281Y-2527D02*
X1319D01*
X1281Y-2593D02*
Y-2527D01*
X1319Y-2593D02*
Y-2527D01*
X1389Y-2593D02*
Y-2527D01*
X1351Y-2593D02*
Y-2527D01*
X1389D01*
X1351Y-2593D02*
X1389D01*
X1141Y-1608D02*
Y-1552D01*
X1259Y-1608D02*
Y-1552D01*
X1141Y-1608D02*
X1259D01*
X1141Y-1552D02*
X1259D01*
X2663Y-2759D02*
Y-2721D01*
X2597Y-2759D02*
Y-2721D01*
Y-2759D02*
X2663D01*
X2597Y-2721D02*
X2663D01*
X2663Y-2429D02*
Y-2391D01*
X2596Y-2429D02*
Y-2391D01*
Y-2429D02*
X2663D01*
X2596Y-2391D02*
X2663D01*
X3607Y-1479D02*
X3673D01*
X3607Y-1441D02*
X3673D01*
Y-1479D02*
Y-1441D01*
X3607Y-1479D02*
Y-1441D01*
X3588Y-1588D02*
X3672D01*
X3588Y-1532D02*
X3672D01*
Y-1588D02*
Y-1532D01*
X3588Y-1588D02*
Y-1532D01*
X3349Y-633D02*
Y-567D01*
X3311Y-633D02*
Y-567D01*
X3349D01*
X3311Y-633D02*
X3349D01*
X2237Y-659D02*
Y-621D01*
X2303Y-659D02*
Y-621D01*
X2237D02*
X2303D01*
X2237Y-659D02*
X2303D01*
X2107Y-621D02*
X2173D01*
X2107Y-659D02*
X2173D01*
X2107D02*
Y-621D01*
X2173Y-659D02*
Y-621D01*
X1839Y-1093D02*
Y-1027D01*
X1801Y-1093D02*
Y-1027D01*
X1839D01*
X1801Y-1093D02*
X1839D01*
X2197Y-1129D02*
X2263D01*
X2197Y-1091D02*
X2263D01*
Y-1129D02*
Y-1091D01*
X2197Y-1129D02*
Y-1091D01*
X1881Y-1093D02*
Y-1027D01*
X1919Y-1093D02*
Y-1027D01*
X1881Y-1093D02*
X1919D01*
X1881Y-1027D02*
X1919D01*
X1069Y-2263D02*
Y-2197D01*
X1031Y-2263D02*
Y-2197D01*
X1069D01*
X1031Y-2263D02*
X1069D01*
X1469D02*
Y-2197D01*
X1431Y-2263D02*
Y-2197D01*
X1469D01*
X1431Y-2263D02*
X1469D01*
X1431Y-1803D02*
Y-1737D01*
X1469Y-1803D02*
Y-1737D01*
X1431Y-1803D02*
X1469D01*
X1431Y-1737D02*
X1469D01*
X421Y-1683D02*
Y-1617D01*
X459Y-1683D02*
Y-1617D01*
X421Y-1683D02*
X459D01*
X421Y-1617D02*
X459D01*
X71Y-304D02*
X109D01*
X71Y-237D02*
X109D01*
X71Y-304D02*
Y-237D01*
X109Y-304D02*
Y-237D01*
X1287Y-819D02*
X1353D01*
X1287Y-781D02*
X1353D01*
Y-819D02*
Y-781D01*
X1287Y-819D02*
Y-781D01*
Y-919D02*
X1353D01*
X1287Y-881D02*
X1353D01*
Y-919D02*
Y-881D01*
X1287Y-919D02*
Y-881D01*
X1287Y-1019D02*
X1354D01*
X1287Y-981D02*
X1354D01*
Y-1019D02*
Y-981D01*
X1287Y-1019D02*
Y-981D01*
X1417Y-819D02*
X1483D01*
X1417Y-781D02*
X1483D01*
Y-819D02*
Y-781D01*
X1417Y-819D02*
Y-781D01*
X1416Y-919D02*
X1483D01*
X1416Y-881D02*
X1483D01*
Y-919D02*
Y-881D01*
X1416Y-919D02*
Y-881D01*
X1417Y-1019D02*
X1483D01*
X1417Y-981D02*
X1483D01*
Y-1019D02*
Y-981D01*
X1417Y-1019D02*
Y-981D01*
X136Y-1951D02*
X203D01*
X136Y-1989D02*
X203D01*
X136D02*
Y-1951D01*
X203Y-1989D02*
Y-1951D01*
X929Y-2323D02*
Y-2257D01*
X891Y-2323D02*
Y-2257D01*
X929D01*
X891Y-2323D02*
X929D01*
X889Y-2417D02*
Y-2362D01*
X771Y-2417D02*
Y-2362D01*
X889D01*
X771Y-2417D02*
X889D01*
X731Y-2323D02*
Y-2257D01*
X769Y-2323D02*
Y-2257D01*
X731Y-2323D02*
X769D01*
X731Y-2257D02*
X769D01*
X293Y-1549D02*
X359D01*
X293Y-1511D02*
X359D01*
Y-1549D02*
Y-1511D01*
X293Y-1549D02*
Y-1511D01*
X228Y-1699D02*
Y-1592D01*
X361Y-1699D02*
Y-1592D01*
X228D02*
X361D01*
X228Y-1699D02*
X361D01*
X771Y-2228D02*
Y-2172D01*
X889Y-2228D02*
Y-2172D01*
X771Y-2228D02*
X889D01*
X771Y-2172D02*
X889D01*
X477Y-2366D02*
X543D01*
X477Y-2404D02*
X543D01*
X477D02*
Y-2366D01*
X543Y-2404D02*
Y-2366D01*
X424Y-2448D02*
Y-2382D01*
X386Y-2448D02*
Y-2382D01*
X424D01*
X386Y-2448D02*
X424D01*
X477Y-2436D02*
X543D01*
X477Y-2474D02*
X543D01*
X477D02*
Y-2436D01*
X543Y-2474D02*
Y-2436D01*
X1431Y-1463D02*
X1469D01*
X1431Y-1397D02*
X1469D01*
X1431Y-1463D02*
Y-1397D01*
X1469Y-1463D02*
Y-1397D01*
X649Y-293D02*
Y-227D01*
X611Y-293D02*
Y-227D01*
X649D01*
X611Y-293D02*
X649D01*
X611Y-173D02*
Y-107D01*
X649Y-173D02*
Y-107D01*
X611Y-173D02*
X649D01*
X611Y-107D02*
X649D01*
X481Y-1683D02*
Y-1617D01*
X519Y-1683D02*
Y-1617D01*
X481Y-1683D02*
X519D01*
X481Y-1617D02*
X519D01*
X1154Y-869D02*
Y-802D01*
X1117Y-869D02*
Y-802D01*
X1154D01*
X1117Y-869D02*
X1154D01*
X501Y-227D02*
X539D01*
X501Y-293D02*
X539D01*
Y-227D01*
X501Y-293D02*
Y-227D01*
X539Y-173D02*
Y-107D01*
X501Y-173D02*
Y-107D01*
X539D01*
X501Y-173D02*
X539D01*
X187Y-429D02*
X253D01*
X187Y-391D02*
X253D01*
Y-429D02*
Y-391D01*
X187Y-429D02*
Y-391D01*
X397Y-101D02*
X463D01*
X397Y-139D02*
X463D01*
X397D02*
Y-101D01*
X463Y-139D02*
Y-101D01*
X282Y-288D02*
Y-233D01*
X164Y-288D02*
Y-233D01*
X282D01*
X164Y-288D02*
X282D01*
X277Y-101D02*
X343D01*
X277Y-139D02*
X343D01*
X277D02*
Y-101D01*
X343Y-139D02*
Y-101D01*
X459Y-287D02*
Y-232D01*
X341Y-287D02*
Y-232D01*
X459D01*
X341Y-287D02*
X459D01*
X1329Y-1563D02*
Y-1497D01*
X1291Y-1563D02*
Y-1497D01*
X1329D01*
X1291Y-1563D02*
X1329D01*
X1081Y-1663D02*
Y-1596D01*
X1119Y-1663D02*
Y-1596D01*
X1081Y-1663D02*
X1119D01*
X1081Y-1596D02*
X1119D01*
X1591Y-3697D02*
Y-3642D01*
X1709Y-3697D02*
Y-3642D01*
X1591Y-3697D02*
X1709D01*
X1591Y-3642D02*
X1709D01*
X3591Y-3697D02*
Y-3642D01*
X3709Y-3697D02*
Y-3642D01*
X3591Y-3697D02*
X3709D01*
X3591Y-3642D02*
X3709D01*
X1831Y-3633D02*
Y-3566D01*
X1869Y-3633D02*
Y-3566D01*
X1831Y-3633D02*
X1869D01*
X1831Y-3566D02*
X1869D01*
X1701Y-2987D02*
X1739D01*
X1701Y-3053D02*
X1739D01*
Y-2987D01*
X1701Y-3053D02*
Y-2987D01*
X1391D02*
X1429D01*
X1391Y-3053D02*
X1429D01*
Y-2987D01*
X1391Y-3053D02*
Y-2987D01*
X1081D02*
X1119D01*
X1081Y-3053D02*
X1119D01*
Y-2987D01*
X1081Y-3053D02*
Y-2987D01*
X1541Y-3028D02*
Y-2973D01*
X1659Y-3028D02*
Y-2973D01*
X1541Y-3028D02*
X1659D01*
X1541Y-2973D02*
X1659D01*
X1231Y-3028D02*
Y-2972D01*
X1349Y-3028D02*
Y-2972D01*
X1231Y-3028D02*
X1349D01*
X1231Y-2972D02*
X1349D01*
X921Y-3027D02*
Y-2972D01*
X1039Y-3027D02*
Y-2972D01*
X921Y-3027D02*
X1039D01*
X921Y-2972D02*
X1039D01*
X239Y-3027D02*
Y-2972D01*
X121Y-3027D02*
Y-2972D01*
X239D01*
X121Y-3027D02*
X239D01*
X509D02*
Y-2972D01*
X391Y-3027D02*
Y-2972D01*
X509D01*
X391Y-3027D02*
X509D01*
X779D02*
Y-2972D01*
X661Y-3027D02*
Y-2972D01*
X779D01*
X661Y-3027D02*
X779D01*
X1829Y-3153D02*
Y-3087D01*
X1791Y-3153D02*
Y-3087D01*
X1829D01*
X1791Y-3153D02*
X1829D01*
X1739Y-2933D02*
Y-2867D01*
X1701Y-2933D02*
Y-2867D01*
X1739D01*
X1701Y-2933D02*
X1739D01*
X1519Y-3153D02*
Y-3087D01*
X1481Y-3153D02*
Y-3087D01*
X1519D01*
X1481Y-3153D02*
X1519D01*
X1429Y-2933D02*
Y-2867D01*
X1391Y-2933D02*
Y-2867D01*
X1429D01*
X1391Y-2933D02*
X1429D01*
X1209Y-3153D02*
Y-3087D01*
X1171Y-3153D02*
Y-3087D01*
X1209D01*
X1171Y-3153D02*
X1209D01*
X1119Y-2933D02*
Y-2867D01*
X1081Y-2933D02*
Y-2867D01*
X1119D01*
X1081Y-2933D02*
X1119D01*
X1771Y-3633D02*
Y-3566D01*
X1809Y-3633D02*
Y-3566D01*
X1771Y-3633D02*
X1809D01*
X1771Y-3566D02*
X1809D01*
X1787Y-3671D02*
X1853D01*
X1787Y-3709D02*
X1853D01*
X1787D02*
Y-3671D01*
X1853Y-3709D02*
Y-3671D01*
X1577Y-2879D02*
X1643D01*
X1577Y-2841D02*
X1643D01*
Y-2879D02*
Y-2841D01*
X1577Y-2879D02*
Y-2841D01*
X1267Y-2889D02*
X1333D01*
X1267Y-2851D02*
X1333D01*
Y-2889D02*
Y-2851D01*
X1267Y-2889D02*
Y-2851D01*
X957Y-2889D02*
X1023D01*
X957Y-2851D02*
X1023D01*
Y-2889D02*
Y-2851D01*
X957Y-2889D02*
Y-2851D01*
X147Y-2581D02*
X213D01*
X147Y-2619D02*
X213D01*
X147D02*
Y-2581D01*
X213Y-2619D02*
Y-2581D01*
X437Y-2581D02*
X504D01*
X437Y-2619D02*
X504D01*
X437D02*
Y-2581D01*
X504Y-2619D02*
Y-2581D01*
X121Y-3203D02*
Y-3136D01*
X159Y-3203D02*
Y-3136D01*
X121Y-3203D02*
X159D01*
X121Y-3136D02*
X159D01*
X391Y-3203D02*
Y-3136D01*
X429Y-3203D02*
Y-3136D01*
X391Y-3203D02*
X429D01*
X391Y-3136D02*
X429D01*
X661Y-3203D02*
Y-3136D01*
X699Y-3203D02*
Y-3136D01*
X661Y-3203D02*
X699D01*
X661Y-3136D02*
X699D01*
X201Y-3202D02*
Y-3135D01*
X239Y-3202D02*
Y-3135D01*
X201Y-3202D02*
X239D01*
X201Y-3135D02*
X239D01*
X471Y-3203D02*
Y-3136D01*
X509Y-3203D02*
Y-3136D01*
X471Y-3203D02*
X509D01*
X471Y-3136D02*
X509D01*
X741Y-3203D02*
Y-3136D01*
X779Y-3203D02*
Y-3136D01*
X741Y-3203D02*
X779D01*
X741Y-3136D02*
X779D01*
X2302Y-3024D02*
Y-2969D01*
X2184Y-3024D02*
Y-2969D01*
X2302D01*
X2184Y-3024D02*
X2302D01*
X2572D02*
Y-2969D01*
X2454Y-3024D02*
Y-2969D01*
X2572D01*
X2454Y-3024D02*
X2572D01*
X2842D02*
Y-2969D01*
X2724Y-3024D02*
Y-2969D01*
X2842D01*
X2724Y-3024D02*
X2842D01*
X1961Y-3403D02*
Y-3337D01*
X1999Y-3403D02*
Y-3337D01*
X1961Y-3403D02*
X1999D01*
X1961Y-3337D02*
X1999D01*
X2804Y-3200D02*
Y-3133D01*
X2842Y-3200D02*
Y-3133D01*
X2804Y-3200D02*
X2842D01*
X2804Y-3133D02*
X2842D01*
X2534Y-3200D02*
Y-3133D01*
X2572Y-3200D02*
Y-3133D01*
X2534Y-3200D02*
X2572D01*
X2534Y-3133D02*
X2572D01*
X2724Y-3200D02*
Y-3133D01*
X2762Y-3200D02*
Y-3133D01*
X2724Y-3200D02*
X2762D01*
X2724Y-3133D02*
X2762D01*
X2454Y-3200D02*
Y-3133D01*
X2492Y-3200D02*
Y-3133D01*
X2454Y-3200D02*
X2492D01*
X2454Y-3133D02*
X2492D01*
X2264Y-3199D02*
Y-3132D01*
X2302Y-3199D02*
Y-3132D01*
X2264Y-3199D02*
X2302D01*
X2264Y-3132D02*
X2302D01*
X2184Y-3200D02*
Y-3133D01*
X2222Y-3200D02*
Y-3133D01*
X2184Y-3200D02*
X2222D01*
X2184Y-3133D02*
X2222D01*
X1889Y-2853D02*
Y-2787D01*
X1851Y-2853D02*
Y-2787D01*
X1889D01*
X1851Y-2853D02*
X1889D01*
X2921Y-3027D02*
Y-2972D01*
X3039Y-3027D02*
Y-2972D01*
X2921Y-3027D02*
X3039D01*
X2921Y-2972D02*
X3039D01*
X2957Y-2889D02*
X3023D01*
X2957Y-2851D02*
X3023D01*
Y-2889D02*
Y-2851D01*
X2957Y-2889D02*
Y-2851D01*
X3209Y-3153D02*
Y-3087D01*
X3171Y-3153D02*
Y-3087D01*
X3209D01*
X3171Y-3153D02*
X3209D01*
X3081Y-2987D02*
X3119D01*
X3081Y-3053D02*
X3119D01*
Y-2987D01*
X3081Y-3053D02*
Y-2987D01*
X3119Y-2933D02*
Y-2867D01*
X3081Y-2933D02*
Y-2867D01*
X3119D01*
X3081Y-2933D02*
X3119D01*
X3267Y-2889D02*
X3333D01*
X3267Y-2851D02*
X3333D01*
Y-2889D02*
Y-2851D01*
X3267Y-2889D02*
Y-2851D01*
X3391Y-2987D02*
X3429D01*
X3391Y-3053D02*
X3429D01*
Y-2987D01*
X3391Y-3053D02*
Y-2987D01*
X3519Y-3153D02*
Y-3087D01*
X3481Y-3153D02*
Y-3087D01*
X3519D01*
X3481Y-3153D02*
X3519D01*
X3429Y-2933D02*
Y-2867D01*
X3391Y-2933D02*
Y-2867D01*
X3429D01*
X3391Y-2933D02*
X3429D01*
X3231Y-3028D02*
Y-2972D01*
X3349Y-3028D02*
Y-2972D01*
X3231Y-3028D02*
X3349D01*
X3231Y-2972D02*
X3349D01*
X3701Y-2987D02*
X3739D01*
X3701Y-3053D02*
X3739D01*
Y-2987D01*
X3701Y-3053D02*
Y-2987D01*
X3787Y-3671D02*
X3853D01*
X3787Y-3709D02*
X3853D01*
X3787D02*
Y-3671D01*
X3853Y-3709D02*
Y-3671D01*
X3831Y-3633D02*
Y-3566D01*
X3869Y-3633D02*
Y-3566D01*
X3831Y-3633D02*
X3869D01*
X3831Y-3566D02*
X3869D01*
X3771Y-3633D02*
Y-3566D01*
X3809Y-3633D02*
Y-3566D01*
X3771Y-3633D02*
X3809D01*
X3771Y-3566D02*
X3809D01*
X3577Y-2879D02*
X3643D01*
X3577Y-2841D02*
X3643D01*
Y-2879D02*
Y-2841D01*
X3577Y-2879D02*
Y-2841D01*
X3739Y-2933D02*
Y-2867D01*
X3701Y-2933D02*
Y-2867D01*
X3739D01*
X3701Y-2933D02*
X3739D01*
X3829Y-3153D02*
Y-3087D01*
X3791Y-3153D02*
Y-3087D01*
X3829D01*
X3791Y-3153D02*
X3829D01*
X3541Y-3028D02*
Y-2973D01*
X3659Y-3028D02*
Y-2973D01*
X3541Y-3028D02*
X3659D01*
X3541Y-2973D02*
X3659D01*
X1031Y-453D02*
Y-387D01*
X1069Y-453D02*
Y-387D01*
X1031Y-453D02*
X1069D01*
X1031Y-387D02*
X1069D01*
X823Y-358D02*
X878D01*
X823Y-476D02*
X878D01*
X823D02*
Y-358D01*
X878Y-476D02*
Y-358D01*
X961Y-453D02*
Y-387D01*
X999Y-453D02*
Y-387D01*
X961Y-453D02*
X999D01*
X961Y-387D02*
X999D01*
X1731Y-453D02*
Y-387D01*
X1769Y-453D02*
Y-387D01*
X1731Y-453D02*
X1769D01*
X1731Y-387D02*
X1769D01*
X1523Y-358D02*
X1578D01*
X1523Y-476D02*
X1578D01*
X1523D02*
Y-358D01*
X1578Y-476D02*
Y-358D01*
X1661Y-453D02*
Y-387D01*
X1699Y-453D02*
Y-387D01*
X1661Y-453D02*
X1699D01*
X1661Y-387D02*
X1699D01*
X2431Y-453D02*
Y-387D01*
X2469Y-453D02*
Y-387D01*
X2431Y-453D02*
X2469D01*
X2431Y-387D02*
X2469D01*
X2223Y-358D02*
X2278D01*
X2223Y-476D02*
X2278D01*
X2223D02*
Y-358D01*
X2278Y-476D02*
Y-358D01*
X2361Y-453D02*
Y-387D01*
X2399Y-453D02*
Y-387D01*
X2361Y-453D02*
X2399D01*
X2361Y-387D02*
X2399D01*
X2923Y-358D02*
X2978D01*
X2923Y-476D02*
X2978D01*
X2923D02*
Y-358D01*
X2978Y-476D02*
Y-358D01*
X3131Y-453D02*
Y-387D01*
X3169Y-453D02*
Y-387D01*
X3131Y-453D02*
X3169D01*
X3131Y-387D02*
X3169D01*
X3061Y-453D02*
Y-387D01*
X3099Y-453D02*
Y-387D01*
X3061Y-453D02*
X3099D01*
X3061Y-387D02*
X3099D01*
M02*
