G04*
G04 #@! TF.GenerationSoftware,Altium Limited,Altium Designer,18.0.7 (293)*
G04*
G04 Layer_Color=32768*
%FSLAX23Y23*%
%MOIN*%
G70*
G01*
G75*
%ADD99C,0.004*%
D99*
X334Y-598D02*
X377D01*
X334Y-503D02*
X377D01*
X334Y-598D02*
Y-503D01*
X377Y-598D02*
Y-503D01*
X356Y-569D02*
Y-532D01*
X337Y-550D02*
X374D01*
X2090Y-880D02*
X2130D01*
X2110Y-900D02*
Y-860D01*
X2262Y-1069D02*
Y-691D01*
X1958Y-1069D02*
Y-691D01*
X2262D01*
X1958Y-1069D02*
X2262D01*
X1278Y-2607D02*
X1322D01*
X1278Y-2513D02*
X1322D01*
X1278Y-2607D02*
Y-2513D01*
X1322Y-2607D02*
Y-2513D01*
X1300Y-2579D02*
Y-2541D01*
X1281Y-2560D02*
X1319D01*
X1351D02*
X1389D01*
X1370Y-2579D02*
Y-2541D01*
X1392Y-2607D02*
Y-2513D01*
X1348Y-2607D02*
Y-2513D01*
X1392D01*
X1348Y-2607D02*
X1392D01*
X1180Y-1580D02*
X1220D01*
X1200Y-1600D02*
Y-1560D01*
X1121Y-1674D02*
Y-1486D01*
X1279Y-1674D02*
Y-1486D01*
X1121Y-1674D02*
X1279D01*
X1121Y-1486D02*
X1279D01*
X2677Y-2762D02*
Y-2718D01*
X2583Y-2762D02*
Y-2718D01*
Y-2762D02*
X2677D01*
X2583Y-2718D02*
X2677D01*
X2611Y-2740D02*
X2649D01*
X2630Y-2759D02*
Y-2721D01*
X2677Y-2432D02*
Y-2388D01*
X2582Y-2432D02*
Y-2388D01*
Y-2432D02*
X2677D01*
X2582Y-2388D02*
X2677D01*
X2611Y-2410D02*
X2648D01*
X2630Y-2429D02*
Y-2391D01*
X3640Y-1479D02*
Y-1441D01*
X3621Y-1460D02*
X3659D01*
X3593Y-1482D02*
X3687D01*
X3593Y-1438D02*
X3687D01*
Y-1482D02*
Y-1438D01*
X3593Y-1482D02*
Y-1438D01*
X3630Y-1580D02*
Y-1540D01*
X3610Y-1560D02*
X3650D01*
X3543Y-1609D02*
X3717D01*
X3543Y-1511D02*
X3717D01*
Y-1609D02*
Y-1511D01*
X3543Y-1609D02*
Y-1511D01*
X3311Y-600D02*
X3349D01*
X3330Y-619D02*
Y-581D01*
X3352Y-647D02*
Y-553D01*
X3308Y-647D02*
Y-553D01*
X3352D01*
X3308Y-647D02*
X3352D01*
X2223Y-662D02*
Y-618D01*
X2317Y-662D02*
Y-618D01*
X2223D02*
X2317D01*
X2223Y-662D02*
X2317D01*
X2251Y-640D02*
X2289D01*
X2270Y-659D02*
Y-621D01*
X2140Y-659D02*
Y-621D01*
X2121Y-640D02*
X2159D01*
X2093Y-618D02*
X2187D01*
X2093Y-662D02*
X2187D01*
X2093D02*
Y-618D01*
X2187Y-662D02*
Y-618D01*
X1801Y-1060D02*
X1839D01*
X1820Y-1079D02*
Y-1041D01*
X1842Y-1107D02*
Y-1013D01*
X1798Y-1107D02*
Y-1013D01*
X1842D01*
X1798Y-1107D02*
X1842D01*
X2230Y-1129D02*
Y-1091D01*
X2211Y-1110D02*
X2249D01*
X2183Y-1132D02*
X2277D01*
X2183Y-1088D02*
X2277D01*
Y-1132D02*
Y-1088D01*
X2183Y-1132D02*
Y-1088D01*
X1881Y-1060D02*
X1919D01*
X1900Y-1079D02*
Y-1041D01*
X1878Y-1107D02*
Y-1013D01*
X1922Y-1107D02*
Y-1013D01*
X1878Y-1107D02*
X1922D01*
X1878Y-1013D02*
X1922D01*
X1031Y-2230D02*
X1069D01*
X1050Y-2249D02*
Y-2211D01*
X1072Y-2277D02*
Y-2183D01*
X1028Y-2277D02*
Y-2183D01*
X1072D01*
X1028Y-2277D02*
X1072D01*
X1431Y-2230D02*
X1469D01*
X1450Y-2249D02*
Y-2211D01*
X1472Y-2277D02*
Y-2183D01*
X1428Y-2277D02*
Y-2183D01*
X1472D01*
X1428Y-2277D02*
X1472D01*
X1431Y-1770D02*
X1469D01*
X1450Y-1789D02*
Y-1751D01*
X1428Y-1817D02*
Y-1723D01*
X1472Y-1817D02*
Y-1723D01*
X1428Y-1817D02*
X1472D01*
X1428Y-1723D02*
X1472D01*
X421Y-1650D02*
X459D01*
X440Y-1669D02*
Y-1631D01*
X418Y-1697D02*
Y-1603D01*
X462Y-1697D02*
Y-1603D01*
X418Y-1697D02*
X462D01*
X418Y-1603D02*
X462D01*
X68Y-318D02*
X112D01*
X68Y-223D02*
X112D01*
X68Y-318D02*
Y-223D01*
X112Y-318D02*
Y-223D01*
X90Y-289D02*
Y-252D01*
X71Y-270D02*
X109D01*
X1320Y-819D02*
Y-781D01*
X1301Y-800D02*
X1339D01*
X1273Y-822D02*
X1367D01*
X1273Y-778D02*
X1367D01*
Y-822D02*
Y-778D01*
X1273Y-822D02*
Y-778D01*
X1320Y-919D02*
Y-881D01*
X1301Y-900D02*
X1339D01*
X1273Y-922D02*
X1367D01*
X1273Y-878D02*
X1367D01*
Y-922D02*
Y-878D01*
X1273Y-922D02*
Y-878D01*
X1320Y-1019D02*
Y-981D01*
X1302Y-1000D02*
X1339D01*
X1273Y-1022D02*
X1368D01*
X1273Y-978D02*
X1368D01*
Y-1022D02*
Y-978D01*
X1273Y-1022D02*
Y-978D01*
X1450Y-819D02*
Y-781D01*
X1431Y-800D02*
X1469D01*
X1403Y-822D02*
X1497D01*
X1403Y-778D02*
X1497D01*
Y-822D02*
Y-778D01*
X1403Y-822D02*
Y-778D01*
X1450Y-919D02*
Y-881D01*
X1431Y-900D02*
X1468D01*
X1402Y-922D02*
X1497D01*
X1402Y-878D02*
X1497D01*
Y-922D02*
Y-878D01*
X1402Y-922D02*
Y-878D01*
X1450Y-1019D02*
Y-981D01*
X1431Y-1000D02*
X1469D01*
X1403Y-1022D02*
X1497D01*
X1403Y-978D02*
X1497D01*
Y-1022D02*
Y-978D01*
X1403Y-1022D02*
Y-978D01*
X170Y-1989D02*
Y-1951D01*
X151Y-1970D02*
X188D01*
X122Y-1948D02*
X217D01*
X122Y-1992D02*
X217D01*
X122D02*
Y-1948D01*
X217Y-1992D02*
Y-1948D01*
X891Y-2290D02*
X929D01*
X910Y-2309D02*
Y-2271D01*
X932Y-2337D02*
Y-2243D01*
X888Y-2337D02*
Y-2243D01*
X932D01*
X888Y-2337D02*
X932D01*
X810Y-2389D02*
X850D01*
X830Y-2409D02*
Y-2370D01*
X909Y-2484D02*
Y-2295D01*
X751Y-2484D02*
Y-2295D01*
X909D01*
X751Y-2484D02*
X909D01*
X731Y-2290D02*
X769D01*
X750Y-2309D02*
Y-2271D01*
X728Y-2337D02*
Y-2243D01*
X772Y-2337D02*
Y-2243D01*
X728Y-2337D02*
X772D01*
X728Y-2243D02*
X772D01*
X326Y-1549D02*
Y-1511D01*
X307Y-1530D02*
X345D01*
X279Y-1552D02*
X373D01*
X279Y-1508D02*
X373D01*
Y-1552D02*
Y-1508D01*
X279Y-1552D02*
Y-1508D01*
X184Y-1720D02*
Y-1571D01*
X405Y-1720D02*
Y-1571D01*
X184D02*
X405D01*
X184Y-1720D02*
X405D01*
X275Y-1646D02*
X314D01*
X294Y-1665D02*
Y-1626D01*
X810Y-2200D02*
X850D01*
X830Y-2220D02*
Y-2180D01*
X751Y-2294D02*
Y-2106D01*
X909Y-2294D02*
Y-2106D01*
X751Y-2294D02*
X909D01*
X751Y-2106D02*
X909D01*
X510Y-2404D02*
Y-2366D01*
X491Y-2385D02*
X529D01*
X463Y-2363D02*
X557D01*
X463Y-2407D02*
X557D01*
X463D02*
Y-2363D01*
X557Y-2407D02*
Y-2363D01*
X386Y-2415D02*
X424D01*
X405Y-2434D02*
Y-2396D01*
X427Y-2462D02*
Y-2368D01*
X383Y-2462D02*
Y-2368D01*
X427D01*
X383Y-2462D02*
X427D01*
X510Y-2474D02*
Y-2436D01*
X491Y-2455D02*
X529D01*
X463Y-2433D02*
X557D01*
X463Y-2477D02*
X557D01*
X463D02*
Y-2433D01*
X557Y-2477D02*
Y-2433D01*
X1428Y-1477D02*
X1472D01*
X1428Y-1383D02*
X1472D01*
X1428Y-1477D02*
Y-1383D01*
X1472Y-1477D02*
Y-1383D01*
X1450Y-1449D02*
Y-1411D01*
X1431Y-1430D02*
X1469D01*
X611Y-260D02*
X649D01*
X630Y-279D02*
Y-241D01*
X652Y-307D02*
Y-213D01*
X608Y-307D02*
Y-213D01*
X652D01*
X608Y-307D02*
X652D01*
X611Y-140D02*
X649D01*
X630Y-159D02*
Y-121D01*
X608Y-187D02*
Y-93D01*
X652Y-187D02*
Y-93D01*
X608Y-187D02*
X652D01*
X608Y-93D02*
X652D01*
X481Y-1650D02*
X519D01*
X500Y-1669D02*
Y-1631D01*
X478Y-1697D02*
Y-1603D01*
X522Y-1697D02*
Y-1603D01*
X478Y-1697D02*
X522D01*
X478Y-1603D02*
X522D01*
X1117Y-836D02*
X1154D01*
X1136Y-854D02*
Y-817D01*
X1157Y-883D02*
Y-789D01*
X1114Y-883D02*
Y-789D01*
X1157D01*
X1114Y-883D02*
X1157D01*
X498Y-213D02*
X542D01*
X498Y-307D02*
X542D01*
Y-213D01*
X498Y-307D02*
Y-213D01*
X520Y-279D02*
Y-241D01*
X501Y-260D02*
X539D01*
X501Y-140D02*
X539D01*
X520Y-159D02*
Y-121D01*
X542Y-187D02*
Y-93D01*
X498Y-187D02*
Y-93D01*
X542D01*
X498Y-187D02*
X542D01*
X220Y-429D02*
Y-391D01*
X201Y-410D02*
X239D01*
X173Y-432D02*
X267D01*
X173Y-388D02*
X267D01*
Y-432D02*
Y-388D01*
X173Y-432D02*
Y-388D01*
X430Y-139D02*
Y-101D01*
X411Y-120D02*
X449D01*
X383Y-98D02*
X477D01*
X383Y-142D02*
X477D01*
X383D02*
Y-98D01*
X477Y-142D02*
Y-98D01*
X203Y-261D02*
X242D01*
X223Y-280D02*
Y-241D01*
X301Y-355D02*
Y-166D01*
X144Y-355D02*
Y-166D01*
X301D01*
X144Y-355D02*
X301D01*
X310Y-139D02*
Y-101D01*
X291Y-120D02*
X329D01*
X263Y-98D02*
X357D01*
X263Y-142D02*
X357D01*
X263D02*
Y-98D01*
X357Y-142D02*
Y-98D01*
X380Y-259D02*
X420D01*
X400Y-279D02*
Y-240D01*
X479Y-354D02*
Y-165D01*
X321Y-354D02*
Y-165D01*
X479D01*
X321Y-354D02*
X479D01*
X1291Y-1530D02*
X1329D01*
X1310Y-1549D02*
Y-1511D01*
X1332Y-1577D02*
Y-1483D01*
X1288Y-1577D02*
Y-1483D01*
X1332D01*
X1288Y-1577D02*
X1332D01*
X1081Y-1630D02*
X1119D01*
X1100Y-1648D02*
Y-1611D01*
X1078Y-1677D02*
Y-1582D01*
X1122Y-1677D02*
Y-1582D01*
X1078Y-1677D02*
X1122D01*
X1078Y-1582D02*
X1122D01*
X1630Y-3669D02*
X1670D01*
X1650Y-3689D02*
Y-3650D01*
X1571Y-3764D02*
Y-3575D01*
X1729Y-3764D02*
Y-3575D01*
X1571Y-3764D02*
X1729D01*
X1571Y-3575D02*
X1729D01*
X3630Y-3669D02*
X3670D01*
X3650Y-3689D02*
Y-3650D01*
X3571Y-3764D02*
Y-3575D01*
X3729Y-3764D02*
Y-3575D01*
X3571Y-3764D02*
X3729D01*
X3571Y-3575D02*
X3729D01*
X1831Y-3599D02*
X1869D01*
X1850Y-3618D02*
Y-3581D01*
X1828Y-3647D02*
Y-3552D01*
X1872Y-3647D02*
Y-3552D01*
X1828Y-3647D02*
X1872D01*
X1828Y-3552D02*
X1872D01*
X1698Y-2973D02*
X1742D01*
X1698Y-3067D02*
X1742D01*
Y-2973D01*
X1698Y-3067D02*
Y-2973D01*
X1720Y-3039D02*
Y-3001D01*
X1701Y-3020D02*
X1739D01*
X1388Y-2973D02*
X1432D01*
X1388Y-3067D02*
X1432D01*
Y-2973D01*
X1388Y-3067D02*
Y-2973D01*
X1410Y-3039D02*
Y-3001D01*
X1391Y-3020D02*
X1429D01*
X1078Y-2973D02*
X1122D01*
X1078Y-3067D02*
X1122D01*
Y-2973D01*
X1078Y-3067D02*
Y-2973D01*
X1100Y-3039D02*
Y-3001D01*
X1081Y-3020D02*
X1119D01*
X1580Y-3001D02*
X1620D01*
X1600Y-3020D02*
Y-2981D01*
X1521Y-3095D02*
Y-2906D01*
X1679Y-3095D02*
Y-2906D01*
X1521Y-3095D02*
X1679D01*
X1521Y-2906D02*
X1679D01*
X1270Y-3000D02*
X1310D01*
X1290Y-3020D02*
Y-2980D01*
X1211Y-3094D02*
Y-2906D01*
X1369Y-3094D02*
Y-2906D01*
X1211Y-3094D02*
X1369D01*
X1211Y-2906D02*
X1369D01*
X960Y-2999D02*
X1000D01*
X980Y-3019D02*
Y-2980D01*
X901Y-3094D02*
Y-2905D01*
X1059Y-3094D02*
Y-2905D01*
X901Y-3094D02*
X1059D01*
X901Y-2905D02*
X1059D01*
X160Y-2999D02*
X200D01*
X180Y-3019D02*
Y-2980D01*
X259Y-3094D02*
Y-2905D01*
X101Y-3094D02*
Y-2905D01*
X259D01*
X101Y-3094D02*
X259D01*
X430Y-2999D02*
X470D01*
X450Y-3019D02*
Y-2980D01*
X529Y-3094D02*
Y-2905D01*
X371Y-3094D02*
Y-2905D01*
X529D01*
X371Y-3094D02*
X529D01*
X700Y-2999D02*
X740D01*
X720Y-3019D02*
Y-2980D01*
X799Y-3094D02*
Y-2905D01*
X641Y-3094D02*
Y-2905D01*
X799D01*
X641Y-3094D02*
X799D01*
X1791Y-3120D02*
X1829D01*
X1810Y-3139D02*
Y-3101D01*
X1832Y-3167D02*
Y-3073D01*
X1788Y-3167D02*
Y-3073D01*
X1832D01*
X1788Y-3167D02*
X1832D01*
X1701Y-2900D02*
X1739D01*
X1720Y-2919D02*
Y-2881D01*
X1742Y-2947D02*
Y-2853D01*
X1698Y-2947D02*
Y-2853D01*
X1742D01*
X1698Y-2947D02*
X1742D01*
X1481Y-3120D02*
X1519D01*
X1500Y-3139D02*
Y-3101D01*
X1522Y-3167D02*
Y-3073D01*
X1478Y-3167D02*
Y-3073D01*
X1522D01*
X1478Y-3167D02*
X1522D01*
X1391Y-2900D02*
X1429D01*
X1410Y-2919D02*
Y-2881D01*
X1432Y-2947D02*
Y-2853D01*
X1388Y-2947D02*
Y-2853D01*
X1432D01*
X1388Y-2947D02*
X1432D01*
X1171Y-3120D02*
X1209D01*
X1190Y-3139D02*
Y-3101D01*
X1212Y-3167D02*
Y-3073D01*
X1168Y-3167D02*
Y-3073D01*
X1212D01*
X1168Y-3167D02*
X1212D01*
X1081Y-2900D02*
X1119D01*
X1100Y-2919D02*
Y-2881D01*
X1122Y-2947D02*
Y-2853D01*
X1078Y-2947D02*
Y-2853D01*
X1122D01*
X1078Y-2947D02*
X1122D01*
X1771Y-3599D02*
X1809D01*
X1790Y-3618D02*
Y-3581D01*
X1768Y-3647D02*
Y-3552D01*
X1812Y-3647D02*
Y-3552D01*
X1768Y-3647D02*
X1812D01*
X1768Y-3552D02*
X1812D01*
X1820Y-3709D02*
Y-3671D01*
X1801Y-3690D02*
X1839D01*
X1773Y-3668D02*
X1867D01*
X1773Y-3712D02*
X1867D01*
X1773D02*
Y-3668D01*
X1867Y-3712D02*
Y-3668D01*
X1610Y-2879D02*
Y-2841D01*
X1591Y-2860D02*
X1629D01*
X1563Y-2882D02*
X1657D01*
X1563Y-2838D02*
X1657D01*
Y-2882D02*
Y-2838D01*
X1563Y-2882D02*
Y-2838D01*
X1300Y-2889D02*
Y-2851D01*
X1281Y-2870D02*
X1319D01*
X1253Y-2892D02*
X1347D01*
X1253Y-2848D02*
X1347D01*
Y-2892D02*
Y-2848D01*
X1253Y-2892D02*
Y-2848D01*
X990Y-2889D02*
Y-2851D01*
X971Y-2870D02*
X1009D01*
X943Y-2892D02*
X1037D01*
X943Y-2848D02*
X1037D01*
Y-2892D02*
Y-2848D01*
X943Y-2892D02*
Y-2848D01*
X180Y-2619D02*
Y-2581D01*
X161Y-2600D02*
X199D01*
X133Y-2578D02*
X227D01*
X133Y-2622D02*
X227D01*
X133D02*
Y-2578D01*
X227Y-2622D02*
Y-2578D01*
X470Y-2619D02*
Y-2581D01*
X452Y-2600D02*
X489D01*
X423Y-2578D02*
X518D01*
X423Y-2622D02*
X518D01*
X423D02*
Y-2578D01*
X518Y-2622D02*
Y-2578D01*
X121Y-3170D02*
X159D01*
X140Y-3189D02*
Y-3151D01*
X118Y-3217D02*
Y-3123D01*
X162Y-3217D02*
Y-3123D01*
X118Y-3217D02*
X162D01*
X118Y-3123D02*
X162D01*
X391Y-3169D02*
X429D01*
X410Y-3188D02*
Y-3151D01*
X388Y-3217D02*
Y-3122D01*
X432Y-3217D02*
Y-3122D01*
X388Y-3217D02*
X432D01*
X388Y-3122D02*
X432D01*
X661Y-3169D02*
X699D01*
X680Y-3188D02*
Y-3151D01*
X658Y-3217D02*
Y-3122D01*
X702Y-3217D02*
Y-3122D01*
X658Y-3217D02*
X702D01*
X658Y-3122D02*
X702D01*
X201Y-3169D02*
X239D01*
X220Y-3188D02*
Y-3150D01*
X198Y-3216D02*
Y-3122D01*
X242Y-3216D02*
Y-3122D01*
X198Y-3216D02*
X242D01*
X198Y-3122D02*
X242D01*
X471Y-3169D02*
X509D01*
X490Y-3188D02*
Y-3151D01*
X468Y-3217D02*
Y-3122D01*
X512Y-3217D02*
Y-3122D01*
X468Y-3217D02*
X512D01*
X468Y-3122D02*
X512D01*
X741Y-3169D02*
X779D01*
X760Y-3188D02*
Y-3151D01*
X738Y-3217D02*
Y-3122D01*
X782Y-3217D02*
Y-3122D01*
X738Y-3217D02*
X782D01*
X738Y-3122D02*
X782D01*
X2224Y-2996D02*
X2263D01*
X2243Y-3016D02*
Y-2976D01*
X2322Y-3091D02*
Y-2902D01*
X2164Y-3091D02*
Y-2902D01*
X2322D01*
X2164Y-3091D02*
X2322D01*
X2494Y-2996D02*
X2533D01*
X2513Y-3016D02*
Y-2976D01*
X2592Y-3091D02*
Y-2902D01*
X2434Y-3091D02*
Y-2902D01*
X2592D01*
X2434Y-3091D02*
X2592D01*
X2764Y-2996D02*
X2803D01*
X2783Y-3016D02*
Y-2976D01*
X2862Y-3091D02*
Y-2902D01*
X2704Y-3091D02*
Y-2902D01*
X2862D01*
X2704Y-3091D02*
X2862D01*
X1961Y-3370D02*
X1999D01*
X1980Y-3389D02*
Y-3351D01*
X1958Y-3417D02*
Y-3323D01*
X2002Y-3417D02*
Y-3323D01*
X1958Y-3417D02*
X2002D01*
X1958Y-3323D02*
X2002D01*
X2804Y-3166D02*
X2842D01*
X2823Y-3185D02*
Y-3147D01*
X2802Y-3213D02*
Y-3119D01*
X2845Y-3213D02*
Y-3119D01*
X2802Y-3213D02*
X2845D01*
X2802Y-3119D02*
X2845D01*
X2534Y-3166D02*
X2572D01*
X2553Y-3185D02*
Y-3147D01*
X2532Y-3213D02*
Y-3119D01*
X2575Y-3213D02*
Y-3119D01*
X2532Y-3213D02*
X2575D01*
X2532Y-3119D02*
X2575D01*
X2724Y-3166D02*
X2762D01*
X2743Y-3185D02*
Y-3147D01*
X2722Y-3213D02*
Y-3119D01*
X2765Y-3213D02*
Y-3119D01*
X2722Y-3213D02*
X2765D01*
X2722Y-3119D02*
X2765D01*
X2454Y-3166D02*
X2492D01*
X2473Y-3185D02*
Y-3147D01*
X2452Y-3213D02*
Y-3119D01*
X2495Y-3213D02*
Y-3119D01*
X2452Y-3213D02*
X2495D01*
X2452Y-3119D02*
X2495D01*
X2264Y-3166D02*
X2302D01*
X2283Y-3184D02*
Y-3147D01*
X2262Y-3213D02*
Y-3118D01*
X2305Y-3213D02*
Y-3118D01*
X2262Y-3213D02*
X2305D01*
X2262Y-3118D02*
X2305D01*
X2184Y-3167D02*
X2222D01*
X2203Y-3185D02*
Y-3148D01*
X2182Y-3214D02*
Y-3119D01*
X2225Y-3214D02*
Y-3119D01*
X2182Y-3214D02*
X2225D01*
X2182Y-3119D02*
X2225D01*
X1851Y-2820D02*
X1889D01*
X1870Y-2839D02*
Y-2801D01*
X1892Y-2867D02*
Y-2773D01*
X1848Y-2867D02*
Y-2773D01*
X1892D01*
X1848Y-2867D02*
X1892D01*
X2960Y-2999D02*
X3000D01*
X2980Y-3019D02*
Y-2980D01*
X2901Y-3094D02*
Y-2905D01*
X3059Y-3094D02*
Y-2905D01*
X2901Y-3094D02*
X3059D01*
X2901Y-2905D02*
X3059D01*
X2990Y-2889D02*
Y-2851D01*
X2971Y-2870D02*
X3009D01*
X2943Y-2892D02*
X3037D01*
X2943Y-2848D02*
X3037D01*
Y-2892D02*
Y-2848D01*
X2943Y-2892D02*
Y-2848D01*
X3171Y-3120D02*
X3209D01*
X3190Y-3139D02*
Y-3101D01*
X3212Y-3167D02*
Y-3073D01*
X3168Y-3167D02*
Y-3073D01*
X3212D01*
X3168Y-3167D02*
X3212D01*
X3078Y-2973D02*
X3122D01*
X3078Y-3067D02*
X3122D01*
Y-2973D01*
X3078Y-3067D02*
Y-2973D01*
X3100Y-3039D02*
Y-3001D01*
X3081Y-3020D02*
X3119D01*
X3081Y-2900D02*
X3119D01*
X3100Y-2919D02*
Y-2881D01*
X3122Y-2947D02*
Y-2853D01*
X3078Y-2947D02*
Y-2853D01*
X3122D01*
X3078Y-2947D02*
X3122D01*
X3300Y-2889D02*
Y-2851D01*
X3281Y-2870D02*
X3319D01*
X3253Y-2892D02*
X3347D01*
X3253Y-2848D02*
X3347D01*
Y-2892D02*
Y-2848D01*
X3253Y-2892D02*
Y-2848D01*
X3388Y-2973D02*
X3432D01*
X3388Y-3067D02*
X3432D01*
Y-2973D01*
X3388Y-3067D02*
Y-2973D01*
X3410Y-3039D02*
Y-3001D01*
X3391Y-3020D02*
X3429D01*
X3481Y-3120D02*
X3519D01*
X3500Y-3139D02*
Y-3101D01*
X3522Y-3167D02*
Y-3073D01*
X3478Y-3167D02*
Y-3073D01*
X3522D01*
X3478Y-3167D02*
X3522D01*
X3391Y-2900D02*
X3429D01*
X3410Y-2919D02*
Y-2881D01*
X3432Y-2947D02*
Y-2853D01*
X3388Y-2947D02*
Y-2853D01*
X3432D01*
X3388Y-2947D02*
X3432D01*
X3270Y-3000D02*
X3310D01*
X3290Y-3020D02*
Y-2980D01*
X3211Y-3094D02*
Y-2906D01*
X3369Y-3094D02*
Y-2906D01*
X3211Y-3094D02*
X3369D01*
X3211Y-2906D02*
X3369D01*
X3698Y-2973D02*
X3742D01*
X3698Y-3067D02*
X3742D01*
Y-2973D01*
X3698Y-3067D02*
Y-2973D01*
X3720Y-3039D02*
Y-3001D01*
X3701Y-3020D02*
X3739D01*
X3820Y-3709D02*
Y-3671D01*
X3801Y-3690D02*
X3839D01*
X3773Y-3668D02*
X3867D01*
X3773Y-3712D02*
X3867D01*
X3773D02*
Y-3668D01*
X3867Y-3712D02*
Y-3668D01*
X3831Y-3599D02*
X3869D01*
X3850Y-3618D02*
Y-3581D01*
X3828Y-3647D02*
Y-3552D01*
X3872Y-3647D02*
Y-3552D01*
X3828Y-3647D02*
X3872D01*
X3828Y-3552D02*
X3872D01*
X3771Y-3599D02*
X3809D01*
X3790Y-3618D02*
Y-3581D01*
X3768Y-3647D02*
Y-3552D01*
X3812Y-3647D02*
Y-3552D01*
X3768Y-3647D02*
X3812D01*
X3768Y-3552D02*
X3812D01*
X3610Y-2879D02*
Y-2841D01*
X3591Y-2860D02*
X3629D01*
X3563Y-2882D02*
X3657D01*
X3563Y-2838D02*
X3657D01*
Y-2882D02*
Y-2838D01*
X3563Y-2882D02*
Y-2838D01*
X3701Y-2900D02*
X3739D01*
X3720Y-2919D02*
Y-2881D01*
X3742Y-2947D02*
Y-2853D01*
X3698Y-2947D02*
Y-2853D01*
X3742D01*
X3698Y-2947D02*
X3742D01*
X3791Y-3120D02*
X3829D01*
X3810Y-3139D02*
Y-3101D01*
X3832Y-3167D02*
Y-3073D01*
X3788Y-3167D02*
Y-3073D01*
X3832D01*
X3788Y-3167D02*
X3832D01*
X3580Y-3001D02*
X3620D01*
X3600Y-3020D02*
Y-2981D01*
X3521Y-3095D02*
Y-2906D01*
X3679Y-3095D02*
Y-2906D01*
X3521Y-3095D02*
X3679D01*
X3521Y-2906D02*
X3679D01*
X1031Y-420D02*
X1069D01*
X1050Y-439D02*
Y-401D01*
X1028Y-467D02*
Y-373D01*
X1072Y-467D02*
Y-373D01*
X1028Y-467D02*
X1072D01*
X1028Y-373D02*
X1072D01*
X851Y-437D02*
Y-398D01*
X831Y-417D02*
X870D01*
X756Y-339D02*
X945D01*
X756Y-496D02*
X945D01*
X756D02*
Y-339D01*
X945Y-496D02*
Y-339D01*
X961Y-420D02*
X999D01*
X980Y-439D02*
Y-401D01*
X958Y-467D02*
Y-373D01*
X1002Y-467D02*
Y-373D01*
X958Y-467D02*
X1002D01*
X958Y-373D02*
X1002D01*
X1731Y-420D02*
X1769D01*
X1750Y-439D02*
Y-401D01*
X1728Y-467D02*
Y-373D01*
X1772Y-467D02*
Y-373D01*
X1728Y-467D02*
X1772D01*
X1728Y-373D02*
X1772D01*
X1551Y-437D02*
Y-398D01*
X1531Y-417D02*
X1570D01*
X1456Y-339D02*
X1645D01*
X1456Y-496D02*
X1645D01*
X1456D02*
Y-339D01*
X1645Y-496D02*
Y-339D01*
X1661Y-420D02*
X1699D01*
X1680Y-439D02*
Y-401D01*
X1658Y-467D02*
Y-373D01*
X1702Y-467D02*
Y-373D01*
X1658Y-467D02*
X1702D01*
X1658Y-373D02*
X1702D01*
X2431Y-420D02*
X2469D01*
X2450Y-439D02*
Y-401D01*
X2428Y-467D02*
Y-373D01*
X2472Y-467D02*
Y-373D01*
X2428Y-467D02*
X2472D01*
X2428Y-373D02*
X2472D01*
X2251Y-437D02*
Y-398D01*
X2231Y-417D02*
X2270D01*
X2156Y-339D02*
X2345D01*
X2156Y-496D02*
X2345D01*
X2156D02*
Y-339D01*
X2345Y-496D02*
Y-339D01*
X2361Y-420D02*
X2399D01*
X2380Y-439D02*
Y-401D01*
X2358Y-467D02*
Y-373D01*
X2402Y-467D02*
Y-373D01*
X2358Y-467D02*
X2402D01*
X2358Y-373D02*
X2402D01*
X2951Y-437D02*
Y-398D01*
X2931Y-417D02*
X2970D01*
X2856Y-339D02*
X3045D01*
X2856Y-496D02*
X3045D01*
X2856D02*
Y-339D01*
X3045Y-496D02*
Y-339D01*
X3131Y-420D02*
X3169D01*
X3150Y-439D02*
Y-401D01*
X3128Y-467D02*
Y-373D01*
X3172Y-467D02*
Y-373D01*
X3128Y-467D02*
X3172D01*
X3128Y-373D02*
X3172D01*
X3061Y-420D02*
X3099D01*
X3080Y-439D02*
Y-401D01*
X3058Y-467D02*
Y-373D01*
X3102Y-467D02*
Y-373D01*
X3058Y-467D02*
X3102D01*
X3058Y-373D02*
X3102D01*
M02*
