G04*
G04 #@! TF.GenerationSoftware,Altium Limited,Altium Designer,18.0.7 (293)*
G04*
G04 Layer_Color=255*
%FSLAX23Y23*%
%MOIN*%
G70*
G01*
G75*
%ADD90C,0.071*%
%ADD91C,0.055*%
%ADD92R,0.059X0.059*%
%ADD93C,0.059*%
%ADD94C,0.138*%
%ADD95R,0.059X0.059*%
D90*
X135Y-2438D02*
D03*
Y-2163D02*
D03*
D91*
X241Y-2399D02*
D03*
Y-2202D02*
D03*
D92*
X200Y-550D02*
D03*
X1850Y-600D02*
D03*
X1100Y-1800D02*
D03*
X100Y-1850D02*
D03*
X1500Y-2550D02*
D03*
X2300Y-3400D02*
D03*
Y-3700D02*
D03*
X3400D02*
D03*
X1400D02*
D03*
X300Y-3400D02*
D03*
Y-3700D02*
D03*
X1200Y-200D02*
D03*
X1900D02*
D03*
X2600D02*
D03*
X3300D02*
D03*
D93*
X100Y-550D02*
D03*
X1950Y-600D02*
D03*
X1300Y-1800D02*
D03*
X1200D02*
D03*
X3700Y-630D02*
D03*
X1250Y-2100D02*
D03*
Y-2200D02*
D03*
X1650Y-2100D02*
D03*
Y-2200D02*
D03*
Y-1700D02*
D03*
Y-1800D02*
D03*
Y-1000D02*
D03*
Y-900D02*
D03*
Y-800D02*
D03*
Y-700D02*
D03*
Y-1400D02*
D03*
Y-1300D02*
D03*
X200Y-1850D02*
D03*
X300D02*
D03*
X400D02*
D03*
X500D02*
D03*
X600D02*
D03*
X1600Y-2550D02*
D03*
X2400Y-3400D02*
D03*
X2500D02*
D03*
X2600D02*
D03*
X2700D02*
D03*
X2400Y-3700D02*
D03*
X2500D02*
D03*
X2600D02*
D03*
X2700D02*
D03*
X3300D02*
D03*
X3200D02*
D03*
X3100D02*
D03*
X3000D02*
D03*
X1300D02*
D03*
X1200D02*
D03*
X1100D02*
D03*
X1000D02*
D03*
X400Y-3400D02*
D03*
X500D02*
D03*
X600D02*
D03*
X700D02*
D03*
X400Y-3700D02*
D03*
X500D02*
D03*
X600D02*
D03*
X700D02*
D03*
X1100Y-200D02*
D03*
X1000D02*
D03*
X900D02*
D03*
X800D02*
D03*
X1800D02*
D03*
X1700D02*
D03*
X1600D02*
D03*
X1500D02*
D03*
X2500D02*
D03*
X2400D02*
D03*
X2300D02*
D03*
X2200D02*
D03*
X3200D02*
D03*
X3100D02*
D03*
X3000D02*
D03*
X2900D02*
D03*
D94*
X3300Y-800D02*
D03*
X3500D02*
D03*
X2950Y-1400D02*
D03*
X2750D02*
D03*
X2950Y-1100D02*
D03*
X2750D02*
D03*
X2950Y-800D02*
D03*
X2750D02*
D03*
D95*
X3700Y-530D02*
D03*
X1250Y-2300D02*
D03*
X1650D02*
D03*
Y-1900D02*
D03*
Y-1100D02*
D03*
Y-1500D02*
D03*
M02*
