G04*
G04 #@! TF.GenerationSoftware,Altium Limited,Altium Designer,18.0.7 (293)*
G04*
G04 Layer_Color=65535*
%FSLAX23Y23*%
%MOIN*%
G70*
G01*
G75*
%ADD10C,0.005*%
%ADD11C,0.010*%
%ADD12C,0.010*%
%ADD13C,0.020*%
%ADD14C,0.008*%
%ADD15C,0.006*%
D10*
X48Y-2395D02*
G03*
X64Y-2411I16J0D01*
G01*
X52Y-2423D02*
G03*
X21Y-2454I0J-31D01*
G01*
X52Y-2438D02*
G03*
X33Y-2458I0J-20D01*
G01*
X64Y-2190D02*
G03*
X48Y-2206I0J-16D01*
G01*
X21Y-2147D02*
G03*
X52Y-2179I31J0D01*
G01*
X33Y-2143D02*
G03*
X52Y-2163I20J0D01*
G01*
X48Y-2391D02*
Y-2206D01*
Y-2395D02*
Y-2387D01*
X64Y-2423D02*
Y-2411D01*
X52Y-2423D02*
X64D01*
X21Y-2454D02*
X33Y-2458D01*
X50Y-2438D02*
X52D01*
X86D01*
X64Y-2190D02*
Y-2179D01*
X52D02*
X64D01*
X21Y-2147D02*
X33Y-2143D01*
X78Y-2493D02*
Y-2109D01*
X184Y-2438D02*
X243D01*
X50D02*
X86D01*
X50Y-2163D02*
X52D01*
X86D01*
X184D02*
X243D01*
D11*
X1983Y-996D02*
G03*
X1983Y-996I-5J0D01*
G01*
X1276Y-1541D02*
G03*
X1276Y-1541I-5J0D01*
G01*
X764Y-2429D02*
G03*
X764Y-2429I-5J0D01*
G01*
X906Y-2161D02*
G03*
X906Y-2161I-5J0D01*
G01*
X157Y-300D02*
G03*
X157Y-300I-5J0D01*
G01*
X334Y-299D02*
G03*
X334Y-299I-5J0D01*
G01*
X1726Y-3630D02*
G03*
X1726Y-3630I-5J0D01*
G01*
X3726D02*
G03*
X3726Y-3630I-5J0D01*
G01*
X1676Y-2961D02*
G03*
X1676Y-2961I-5J0D01*
G01*
X1366Y-2961D02*
G03*
X1366Y-2961I-5J0D01*
G01*
X1056Y-2960D02*
G03*
X1056Y-2960I-5J0D01*
G01*
X114Y-3039D02*
G03*
X114Y-3039I-5J0D01*
G01*
X384D02*
G03*
X384Y-3039I-5J0D01*
G01*
X654D02*
G03*
X654Y-3039I-5J0D01*
G01*
X2177Y-3035D02*
G03*
X2177Y-3035I-5J0D01*
G01*
X2447D02*
G03*
X2447Y-3035I-5J0D01*
G01*
X2717D02*
G03*
X2717Y-3035I-5J0D01*
G01*
X3056Y-2960D02*
G03*
X3056Y-2960I-5J0D01*
G01*
X3366Y-2961D02*
G03*
X3366Y-2961I-5J0D01*
G01*
X3676Y-2961D02*
G03*
X3676Y-2961I-5J0D01*
G01*
X895Y-488D02*
G03*
X895Y-488I-5J0D01*
G01*
X1595D02*
G03*
X1595Y-488I-5J0D01*
G01*
X2295D02*
G03*
X2295Y-488I-5J0D01*
G01*
X2995D02*
G03*
X2995Y-488I-5J0D01*
G01*
D12*
X1286Y-2622D02*
G03*
X1286Y-2622I-1J0D01*
G01*
X2754Y-1917D02*
G03*
X2754Y-1917I-4J0D01*
G01*
X2209Y-624D02*
G03*
X2209Y-624I-1J0D01*
G01*
X445Y-2107D02*
G03*
X445Y-2107I-4J0D01*
G01*
X537Y-198D02*
G03*
X537Y-198I-1J0D01*
G01*
X1737Y-2958D02*
G03*
X1737Y-2958I-1J0D01*
G01*
X1427D02*
G03*
X1427Y-2958I-1J0D01*
G01*
X1117D02*
G03*
X1117Y-2958I-1J0D01*
G01*
X3117D02*
G03*
X3117Y-2958I-1J0D01*
G01*
X3427D02*
G03*
X3427Y-2958I-1J0D01*
G01*
X3737D02*
G03*
X3737Y-2958I-1J0D01*
G01*
D13*
X1769Y-3160D02*
G03*
X1769Y-3160I-0J0D01*
G01*
X1459Y-3159D02*
G03*
X1459Y-3159I-0J0D01*
G01*
X1149D02*
G03*
X1149Y-3159I-0J0D01*
G01*
X147Y-2641D02*
G03*
X147Y-2641I-0J0D01*
G01*
X1911Y-3200D02*
G03*
X1911Y-3200I-0J0D01*
G01*
X3149Y-3159D02*
G03*
X3149Y-3159I-0J0D01*
G01*
X3459D02*
G03*
X3459Y-3159I-0J0D01*
G01*
X3769Y-3160D02*
G03*
X3769Y-3160I-0J0D01*
G01*
D14*
X50Y-600D02*
Y-500D01*
X250D01*
Y-600D02*
Y-500D01*
X50Y-600D02*
X250D01*
X342Y-558D02*
Y-543D01*
X369Y-558D02*
Y-543D01*
X1800Y-550D02*
X2000D01*
X1800Y-650D02*
Y-550D01*
Y-650D02*
X2000D01*
Y-550D01*
X2242Y-931D02*
Y-829D01*
X1978Y-931D02*
Y-829D01*
X2242D01*
X1978Y-931D02*
X2242D01*
X1286Y-2568D02*
Y-2552D01*
X1314Y-2568D02*
Y-2552D01*
X1384Y-2568D02*
Y-2552D01*
X1356Y-2568D02*
Y-2552D01*
X1050Y-1850D02*
Y-1750D01*
X1350D01*
Y-1850D02*
Y-1750D01*
X1050Y-1850D02*
X1350D01*
X1141Y-1608D02*
X1172D01*
X1141D02*
Y-1592D01*
X1228Y-1608D02*
X1259D01*
Y-1592D01*
X3750Y-680D02*
Y-480D01*
X3650D02*
X3750D01*
X3650Y-680D02*
Y-480D01*
Y-680D02*
X3750D01*
X2622Y-2754D02*
X2638D01*
X2622Y-2726D02*
X2638D01*
X2622Y-2424D02*
X2637D01*
X2622Y-2396D02*
X2637D01*
X3632Y-1474D02*
X3648D01*
X3632Y-1446D02*
X3648D01*
X3630Y-1586D02*
Y-1534D01*
X3344Y-608D02*
Y-592D01*
X3316Y-608D02*
Y-592D01*
X2262Y-626D02*
X2278D01*
X2262Y-654D02*
X2278D01*
X2132Y-626D02*
X2148D01*
X2132Y-654D02*
X2148D01*
X1834Y-1068D02*
Y-1052D01*
X1806Y-1068D02*
Y-1052D01*
X2222Y-1124D02*
X2238D01*
X2222Y-1096D02*
X2238D01*
X1886Y-1068D02*
Y-1052D01*
X1914Y-1068D02*
Y-1052D01*
X1064Y-2238D02*
Y-2222D01*
X1036Y-2238D02*
Y-2222D01*
X1200Y-2350D02*
X1300D01*
X1200D02*
Y-2050D01*
X1300D01*
Y-2350D02*
Y-2050D01*
X1464Y-2238D02*
Y-2222D01*
X1436Y-2238D02*
Y-2222D01*
X1600Y-2350D02*
X1700D01*
X1600D02*
Y-2050D01*
X1700D01*
Y-2350D02*
Y-2050D01*
X1436Y-1778D02*
Y-1762D01*
X1464Y-1778D02*
Y-1762D01*
X1600Y-1950D02*
X1700D01*
X1600D02*
Y-1650D01*
X1700D01*
Y-1950D02*
Y-1650D01*
X426Y-1658D02*
Y-1642D01*
X454Y-1658D02*
Y-1642D01*
X76Y-278D02*
Y-263D01*
X104Y-278D02*
Y-263D01*
X1600Y-650D02*
X1700D01*
Y-1150D02*
Y-650D01*
X1600Y-1150D02*
Y-650D01*
Y-1150D02*
X1700D01*
X1312Y-814D02*
X1328D01*
X1312Y-786D02*
X1328D01*
X1312Y-914D02*
X1328D01*
X1312Y-886D02*
X1328D01*
X1313Y-1014D02*
X1328D01*
X1313Y-986D02*
X1328D01*
X1442Y-814D02*
X1458D01*
X1442Y-786D02*
X1458D01*
X1442Y-914D02*
X1457D01*
X1442Y-886D02*
X1457D01*
X1442Y-1014D02*
X1458D01*
X1442Y-986D02*
X1458D01*
X162Y-1956D02*
X177D01*
X162Y-1984D02*
X177D01*
X924Y-2298D02*
Y-2282D01*
X896Y-2298D02*
Y-2282D01*
X858Y-2362D02*
X889D01*
Y-2378D02*
Y-2362D01*
X771D02*
X802D01*
X771Y-2378D02*
Y-2362D01*
X736Y-2298D02*
Y-2282D01*
X764Y-2298D02*
Y-2282D01*
X318Y-1544D02*
X334D01*
X318Y-1516D02*
X334D01*
X279Y-1594D02*
X310D01*
X279Y-1697D02*
X310D01*
X771Y-2228D02*
X802D01*
X771D02*
Y-2212D01*
X858Y-2228D02*
X889D01*
Y-2212D01*
X502Y-2371D02*
X518D01*
X502Y-2399D02*
X518D01*
X419Y-2423D02*
Y-2407D01*
X391Y-2423D02*
Y-2407D01*
X502Y-2441D02*
X518D01*
X502Y-2469D02*
X518D01*
X1700Y-1550D02*
Y-1250D01*
X1600D02*
X1700D01*
X1600Y-1550D02*
Y-1250D01*
Y-1550D02*
X1700D01*
X1436Y-1438D02*
Y-1422D01*
X1464Y-1438D02*
Y-1422D01*
X644Y-268D02*
Y-252D01*
X616Y-268D02*
Y-252D01*
X616Y-148D02*
Y-132D01*
X644Y-148D02*
Y-132D01*
X486Y-1658D02*
Y-1642D01*
X514Y-1658D02*
Y-1642D01*
X1150Y-844D02*
Y-828D01*
X1122Y-844D02*
Y-828D01*
X534Y-268D02*
Y-252D01*
X506Y-268D02*
Y-252D01*
X534Y-148D02*
Y-132D01*
X506Y-148D02*
Y-132D01*
X650Y-1900D02*
Y-1800D01*
X50Y-1900D02*
Y-1800D01*
X650D01*
X50Y-1900D02*
X650D01*
X1650Y-2600D02*
Y-2500D01*
X1450Y-2600D02*
X1650D01*
X1450D02*
Y-2500D01*
X1650D01*
X212Y-424D02*
X228D01*
X212Y-396D02*
X228D01*
X422Y-106D02*
X438D01*
X422Y-134D02*
X438D01*
X250Y-233D02*
X282D01*
Y-249D02*
Y-233D01*
X164D02*
X195D01*
X164Y-249D02*
Y-233D01*
X302Y-106D02*
X318D01*
X302Y-134D02*
X318D01*
X428Y-232D02*
X459D01*
Y-248D02*
Y-232D01*
X341D02*
X372D01*
X341Y-248D02*
Y-232D01*
X1324Y-1538D02*
Y-1522D01*
X1296Y-1538D02*
Y-1522D01*
X1086Y-1637D02*
Y-1622D01*
X1114Y-1637D02*
Y-1622D01*
X2750Y-3450D02*
Y-3350D01*
X2250Y-3450D02*
X2750D01*
X2250Y-3350D02*
X2750D01*
X2250Y-3450D02*
Y-3350D01*
X2750Y-3750D02*
Y-3650D01*
X2250Y-3750D02*
X2750D01*
X2250Y-3650D02*
X2750D01*
X2250Y-3750D02*
Y-3650D01*
X2950Y-3750D02*
Y-3650D01*
X3450D01*
X2950Y-3750D02*
X3450D01*
Y-3650D01*
X950Y-3750D02*
Y-3650D01*
X1450D01*
X950Y-3750D02*
X1450D01*
Y-3650D01*
X750Y-3450D02*
Y-3350D01*
X250Y-3450D02*
X750D01*
X250Y-3350D02*
X750D01*
X250Y-3450D02*
Y-3350D01*
X750Y-3750D02*
Y-3650D01*
X250Y-3750D02*
X750D01*
X250Y-3650D02*
X750D01*
X250Y-3750D02*
Y-3650D01*
X1591Y-3697D02*
X1622D01*
X1591D02*
Y-3681D01*
X1678Y-3697D02*
X1709D01*
Y-3681D01*
X3591Y-3697D02*
X3622D01*
X3591D02*
Y-3681D01*
X3678Y-3697D02*
X3709D01*
Y-3681D01*
X1836Y-3607D02*
Y-3591D01*
X1864Y-3607D02*
Y-3591D01*
X1734Y-3028D02*
Y-3012D01*
X1706Y-3028D02*
Y-3012D01*
X1424Y-3028D02*
Y-3012D01*
X1396Y-3028D02*
Y-3012D01*
X1114Y-3028D02*
Y-3012D01*
X1086Y-3028D02*
Y-3012D01*
X1541Y-3028D02*
X1572D01*
X1541D02*
Y-3012D01*
X1628Y-3028D02*
X1659D01*
Y-3012D01*
X1231Y-3028D02*
X1262D01*
X1231D02*
Y-3012D01*
X1318Y-3028D02*
X1349D01*
Y-3012D01*
X921Y-3027D02*
X952D01*
X921D02*
Y-3011D01*
X1008Y-3027D02*
X1039D01*
Y-3011D01*
X208Y-2972D02*
X239D01*
Y-2988D02*
Y-2972D01*
X121D02*
X152D01*
X121Y-2988D02*
Y-2972D01*
X478D02*
X509D01*
Y-2988D02*
Y-2972D01*
X391D02*
X422D01*
X391Y-2988D02*
Y-2972D01*
X748D02*
X779D01*
Y-2988D02*
Y-2972D01*
X661D02*
X692D01*
X661Y-2988D02*
Y-2972D01*
X1824Y-3128D02*
Y-3112D01*
X1796Y-3128D02*
Y-3112D01*
X1734Y-2908D02*
Y-2892D01*
X1706Y-2908D02*
Y-2892D01*
X1514Y-3128D02*
Y-3112D01*
X1486Y-3128D02*
Y-3112D01*
X1424Y-2908D02*
Y-2892D01*
X1396Y-2908D02*
Y-2892D01*
X1204Y-3128D02*
Y-3112D01*
X1176Y-3128D02*
Y-3112D01*
X1114Y-2908D02*
Y-2892D01*
X1086Y-2908D02*
Y-2892D01*
X1776Y-3607D02*
Y-3591D01*
X1804Y-3607D02*
Y-3591D01*
X1812Y-3676D02*
X1828D01*
X1812Y-3704D02*
X1828D01*
X1602Y-2874D02*
X1618D01*
X1602Y-2846D02*
X1618D01*
X1292Y-2884D02*
X1308D01*
X1292Y-2856D02*
X1308D01*
X982Y-2884D02*
X998D01*
X982Y-2856D02*
X998D01*
X172Y-2586D02*
X188D01*
X172Y-2614D02*
X188D01*
X463Y-2586D02*
X478D01*
X463Y-2614D02*
X478D01*
X126Y-3178D02*
Y-3162D01*
X154Y-3178D02*
Y-3162D01*
X396Y-3177D02*
Y-3161D01*
X424Y-3177D02*
Y-3161D01*
X666Y-3177D02*
Y-3161D01*
X694Y-3177D02*
Y-3161D01*
X206Y-3177D02*
Y-3161D01*
X234Y-3177D02*
Y-3161D01*
X476Y-3177D02*
Y-3161D01*
X504Y-3177D02*
Y-3161D01*
X746Y-3177D02*
Y-3161D01*
X774Y-3177D02*
Y-3161D01*
X2271Y-2969D02*
X2302D01*
Y-2984D02*
Y-2969D01*
X2184D02*
X2216D01*
X2184Y-2984D02*
Y-2969D01*
X2541D02*
X2572D01*
Y-2984D02*
Y-2969D01*
X2454D02*
X2486D01*
X2454Y-2984D02*
Y-2969D01*
X2811D02*
X2842D01*
Y-2984D02*
Y-2969D01*
X2724D02*
X2756D01*
X2724Y-2984D02*
Y-2969D01*
X1966Y-3378D02*
Y-3362D01*
X1994Y-3378D02*
Y-3362D01*
X2809Y-3174D02*
Y-3158D01*
X2837Y-3174D02*
Y-3158D01*
X2539Y-3174D02*
Y-3158D01*
X2567Y-3174D02*
Y-3158D01*
X2729Y-3174D02*
Y-3158D01*
X2757Y-3174D02*
Y-3158D01*
X2459Y-3174D02*
Y-3158D01*
X2487Y-3174D02*
Y-3158D01*
X2269Y-3173D02*
Y-3158D01*
X2297Y-3173D02*
Y-3158D01*
X2189Y-3174D02*
Y-3159D01*
X2217Y-3174D02*
Y-3159D01*
X1884Y-2828D02*
Y-2812D01*
X1856Y-2828D02*
Y-2812D01*
X2921Y-3027D02*
X2952D01*
X2921D02*
Y-3011D01*
X3008Y-3027D02*
X3039D01*
Y-3011D01*
X2982Y-2884D02*
X2998D01*
X2982Y-2856D02*
X2998D01*
X3204Y-3128D02*
Y-3112D01*
X3176Y-3128D02*
Y-3112D01*
X3114Y-3028D02*
Y-3012D01*
X3086Y-3028D02*
Y-3012D01*
X3114Y-2908D02*
Y-2892D01*
X3086Y-2908D02*
Y-2892D01*
X3292Y-2884D02*
X3308D01*
X3292Y-2856D02*
X3308D01*
X3424Y-3028D02*
Y-3012D01*
X3396Y-3028D02*
Y-3012D01*
X3514Y-3128D02*
Y-3112D01*
X3486Y-3128D02*
Y-3112D01*
X3424Y-2908D02*
Y-2892D01*
X3396Y-2908D02*
Y-2892D01*
X3231Y-3028D02*
X3262D01*
X3231D02*
Y-3012D01*
X3318Y-3028D02*
X3349D01*
Y-3012D01*
X3734Y-3028D02*
Y-3012D01*
X3706Y-3028D02*
Y-3012D01*
X3812Y-3676D02*
X3828D01*
X3812Y-3704D02*
X3828D01*
X3836Y-3607D02*
Y-3591D01*
X3864Y-3607D02*
Y-3591D01*
X3776Y-3607D02*
Y-3591D01*
X3804Y-3607D02*
Y-3591D01*
X3602Y-2874D02*
X3618D01*
X3602Y-2846D02*
X3618D01*
X3734Y-2908D02*
Y-2892D01*
X3706Y-2908D02*
Y-2892D01*
X3824Y-3128D02*
Y-3112D01*
X3796Y-3128D02*
Y-3112D01*
X3541Y-3028D02*
X3572D01*
X3541D02*
Y-3012D01*
X3628Y-3028D02*
X3659D01*
Y-3012D01*
X1036Y-428D02*
Y-412D01*
X1064Y-428D02*
Y-412D01*
X823Y-390D02*
Y-358D01*
X839D01*
X823Y-476D02*
Y-445D01*
Y-476D02*
X839D01*
X966Y-428D02*
Y-412D01*
X994Y-428D02*
Y-412D01*
X750Y-250D02*
Y-150D01*
X1250D01*
X750Y-250D02*
X1250D01*
Y-150D01*
X1736Y-428D02*
Y-412D01*
X1764Y-428D02*
Y-412D01*
X1523Y-390D02*
Y-358D01*
X1539D01*
X1523Y-476D02*
Y-445D01*
Y-476D02*
X1539D01*
X1666Y-428D02*
Y-412D01*
X1694Y-428D02*
Y-412D01*
X1450Y-250D02*
Y-150D01*
X1950D01*
X1450Y-250D02*
X1950D01*
Y-150D01*
X2436Y-428D02*
Y-412D01*
X2464Y-428D02*
Y-412D01*
X2223Y-390D02*
Y-358D01*
X2239D01*
X2223Y-476D02*
Y-445D01*
Y-476D02*
X2239D01*
X2366Y-428D02*
Y-412D01*
X2394Y-428D02*
Y-412D01*
X2150Y-250D02*
Y-150D01*
X2650D01*
X2150Y-250D02*
X2650D01*
Y-150D01*
X2850Y-250D02*
Y-150D01*
X3350D01*
X2850Y-250D02*
X3350D01*
Y-150D01*
X2923Y-390D02*
Y-358D01*
X2939D01*
X2923Y-476D02*
Y-445D01*
Y-476D02*
X2939D01*
X3136Y-428D02*
Y-412D01*
X3164Y-428D02*
Y-412D01*
X3066Y-428D02*
Y-412D01*
X3094Y-428D02*
Y-412D01*
X1924Y-1219D02*
Y-1261D01*
X1921Y-1268D01*
X1919Y-1271D01*
X1914Y-1274D01*
X1908D01*
X1903Y-1271D01*
X1900Y-1268D01*
X1898Y-1261D01*
Y-1255D01*
X1938Y-1237D02*
Y-1263D01*
X1941Y-1271D01*
X1946Y-1274D01*
X1954D01*
X1959Y-1271D01*
X1967Y-1263D01*
Y-1237D02*
Y-1274D01*
X2010Y-1245D02*
X2008Y-1240D01*
X2000Y-1237D01*
X1992D01*
X1984Y-1240D01*
X1982Y-1245D01*
X1984Y-1250D01*
X1989Y-1253D01*
X2003Y-1255D01*
X2008Y-1258D01*
X2010Y-1263D01*
Y-1266D01*
X2008Y-1271D01*
X2000Y-1274D01*
X1992D01*
X1984Y-1271D01*
X1982Y-1266D01*
X2030Y-1219D02*
Y-1263D01*
X2032Y-1271D01*
X2038Y-1274D01*
X2043D01*
X2022Y-1237D02*
X2040D01*
X2056Y-1219D02*
X2059Y-1221D01*
X2061Y-1219D01*
X2059Y-1216D01*
X2056Y-1219D01*
X2059Y-1237D02*
Y-1274D01*
X2071Y-1237D02*
Y-1274D01*
Y-1247D02*
X2079Y-1240D01*
X2084Y-1237D01*
X2092D01*
X2097Y-1240D01*
X2100Y-1247D01*
Y-1274D01*
X2173Y-1219D02*
X2168Y-1221D01*
X2163Y-1226D01*
X2160Y-1232D01*
X2158Y-1240D01*
Y-1253D01*
X2160Y-1261D01*
X2163Y-1266D01*
X2168Y-1271D01*
X2173Y-1274D01*
X2184D01*
X2189Y-1271D01*
X2194Y-1266D01*
X2197Y-1261D01*
X2200Y-1253D01*
Y-1240D01*
X2197Y-1232D01*
X2194Y-1226D01*
X2189Y-1221D01*
X2184Y-1219D01*
X2173D01*
X2213Y-1237D02*
Y-1274D01*
Y-1247D02*
X2220Y-1240D01*
X2226Y-1237D01*
X2233D01*
X2239Y-1240D01*
X2241Y-1247D01*
Y-1274D01*
X2287Y-1237D02*
Y-1279D01*
X2285Y-1287D01*
X2282Y-1289D01*
X2277Y-1292D01*
X2269D01*
X2264Y-1289D01*
X2287Y-1245D02*
X2282Y-1240D01*
X2277Y-1237D01*
X2269D01*
X2264Y-1240D01*
X2258Y-1245D01*
X2256Y-1253D01*
Y-1258D01*
X2258Y-1266D01*
X2264Y-1271D01*
X2269Y-1274D01*
X2277D01*
X2282Y-1271D01*
X2287Y-1266D01*
X1914Y-1322D02*
X1908Y-1325D01*
X1903Y-1330D01*
X1900Y-1335D01*
X1898Y-1343D01*
Y-1356D01*
X1900Y-1364D01*
X1903Y-1369D01*
X1908Y-1374D01*
X1914Y-1377D01*
X1924D01*
X1929Y-1374D01*
X1935Y-1369D01*
X1937Y-1364D01*
X1940Y-1356D01*
Y-1343D01*
X1937Y-1335D01*
X1935Y-1330D01*
X1929Y-1325D01*
X1924Y-1322D01*
X1914D01*
X1984Y-1348D02*
X1979Y-1343D01*
X1974Y-1340D01*
X1966D01*
X1961Y-1343D01*
X1955Y-1348D01*
X1953Y-1356D01*
Y-1361D01*
X1955Y-1369D01*
X1961Y-1374D01*
X1966Y-1377D01*
X1974D01*
X1979Y-1374D01*
X1984Y-1369D01*
X2004Y-1322D02*
Y-1367D01*
X2007Y-1374D01*
X2012Y-1377D01*
X2017D01*
X1996Y-1340D02*
X2014D01*
X2071Y-1335D02*
Y-1332D01*
X2073Y-1327D01*
X2076Y-1325D01*
X2081Y-1322D01*
X2092D01*
X2097Y-1325D01*
X2100Y-1327D01*
X2102Y-1332D01*
Y-1338D01*
X2100Y-1343D01*
X2094Y-1351D01*
X2068Y-1377D01*
X2105D01*
X2133Y-1322D02*
X2125Y-1325D01*
X2120Y-1332D01*
X2117Y-1346D01*
Y-1353D01*
X2120Y-1367D01*
X2125Y-1374D01*
X2133Y-1377D01*
X2138D01*
X2146Y-1374D01*
X2151Y-1367D01*
X2154Y-1353D01*
Y-1346D01*
X2151Y-1332D01*
X2146Y-1325D01*
X2138Y-1322D01*
X2133D01*
X2166Y-1332D02*
X2172Y-1330D01*
X2179Y-1322D01*
Y-1377D01*
X2220Y-1322D02*
X2212Y-1325D01*
X2209Y-1330D01*
Y-1335D01*
X2212Y-1340D01*
X2217Y-1343D01*
X2228Y-1346D01*
X2236Y-1348D01*
X2241Y-1353D01*
X2243Y-1359D01*
Y-1367D01*
X2241Y-1372D01*
X2238Y-1374D01*
X2230Y-1377D01*
X2220D01*
X2212Y-1374D01*
X2209Y-1372D01*
X2207Y-1367D01*
Y-1359D01*
X2209Y-1353D01*
X2215Y-1348D01*
X2222Y-1346D01*
X2233Y-1343D01*
X2238Y-1340D01*
X2241Y-1335D01*
Y-1330D01*
X2238Y-1325D01*
X2230Y-1322D01*
X2220D01*
X1935Y-1415D02*
X1929Y-1410D01*
X1921Y-1407D01*
X1911D01*
X1903Y-1410D01*
X1898Y-1415D01*
Y-1420D01*
X1900Y-1425D01*
X1903Y-1428D01*
X1908Y-1431D01*
X1924Y-1436D01*
X1929Y-1439D01*
X1932Y-1441D01*
X1935Y-1446D01*
Y-1454D01*
X1929Y-1460D01*
X1921Y-1462D01*
X1911D01*
X1903Y-1460D01*
X1898Y-1454D01*
X1947Y-1425D02*
Y-1452D01*
X1950Y-1460D01*
X1955Y-1462D01*
X1963D01*
X1968Y-1460D01*
X1976Y-1452D01*
Y-1425D02*
Y-1462D01*
X1990Y-1425D02*
Y-1462D01*
Y-1436D02*
X1998Y-1428D01*
X2003Y-1425D01*
X2011D01*
X2016Y-1428D01*
X2019Y-1436D01*
Y-1462D01*
Y-1436D02*
X2027Y-1428D01*
X2032Y-1425D01*
X2040D01*
X2045Y-1428D01*
X2048Y-1436D01*
Y-1462D01*
X2078Y-1425D02*
X2073Y-1428D01*
X2068Y-1433D01*
X2065Y-1441D01*
Y-1446D01*
X2068Y-1454D01*
X2073Y-1460D01*
X2078Y-1462D01*
X2086D01*
X2092Y-1460D01*
X2097Y-1454D01*
X2099Y-1446D01*
Y-1441D01*
X2097Y-1433D01*
X2092Y-1428D01*
X2086Y-1425D01*
X2078D01*
X2194Y-1420D02*
X2192Y-1415D01*
X2186Y-1410D01*
X2181Y-1407D01*
X2171D01*
X2165Y-1410D01*
X2160Y-1415D01*
X2157Y-1420D01*
X2155Y-1428D01*
Y-1441D01*
X2157Y-1449D01*
X2160Y-1454D01*
X2165Y-1460D01*
X2171Y-1462D01*
X2181D01*
X2186Y-1460D01*
X2192Y-1454D01*
X2194Y-1449D01*
X2223Y-1425D02*
X2217Y-1428D01*
X2212Y-1433D01*
X2210Y-1441D01*
Y-1446D01*
X2212Y-1454D01*
X2217Y-1460D01*
X2223Y-1462D01*
X2231D01*
X2236Y-1460D01*
X2241Y-1454D01*
X2244Y-1446D01*
Y-1441D01*
X2241Y-1433D01*
X2236Y-1428D01*
X2231Y-1425D01*
X2223D01*
X2256D02*
Y-1462D01*
Y-1436D02*
X2264Y-1428D01*
X2269Y-1425D01*
X2277D01*
X2282Y-1428D01*
X2285Y-1436D01*
Y-1462D01*
X2307Y-1407D02*
Y-1452D01*
X2310Y-1460D01*
X2315Y-1462D01*
X2320D01*
X2299Y-1425D02*
X2317D01*
X2328D02*
Y-1462D01*
Y-1441D02*
X2331Y-1433D01*
X2336Y-1428D01*
X2341Y-1425D01*
X2349D01*
X2367D02*
X2362Y-1428D01*
X2357Y-1433D01*
X2354Y-1441D01*
Y-1446D01*
X2357Y-1454D01*
X2362Y-1460D01*
X2367Y-1462D01*
X2375D01*
X2380Y-1460D01*
X2385Y-1454D01*
X2388Y-1446D01*
Y-1441D01*
X2385Y-1433D01*
X2380Y-1428D01*
X2375Y-1425D01*
X2367D01*
X2400Y-1407D02*
Y-1462D01*
X2412Y-1407D02*
Y-1462D01*
X2423Y-1441D02*
X2455D01*
Y-1436D01*
X2452Y-1431D01*
X2449Y-1428D01*
X2444Y-1425D01*
X2436D01*
X2431Y-1428D01*
X2426Y-1433D01*
X2423Y-1441D01*
Y-1446D01*
X2426Y-1454D01*
X2431Y-1460D01*
X2436Y-1462D01*
X2444D01*
X2449Y-1460D01*
X2455Y-1454D01*
X2467Y-1425D02*
Y-1462D01*
Y-1441D02*
X2469Y-1433D01*
X2474Y-1428D01*
X2480Y-1425D01*
X2488D01*
X2536Y-1407D02*
Y-1462D01*
Y-1407D02*
X2559D01*
X2567Y-1410D01*
X2570Y-1412D01*
X2573Y-1418D01*
Y-1423D01*
X2570Y-1428D01*
X2567Y-1431D01*
X2559Y-1433D01*
X2536D01*
X2554D02*
X2573Y-1462D01*
X2585Y-1418D02*
X2590Y-1415D01*
X2598Y-1407D01*
Y-1462D01*
D15*
X3411Y-595D02*
X3521D01*
X3452Y-606D02*
Y-604D01*
X3452Y-656D02*
Y-654D01*
X3432Y-630D02*
X3452D01*
Y-606D01*
X3452Y-654D02*
X3452Y-654D01*
Y-630D01*
X3476D02*
X3491D01*
X3476Y-654D02*
Y-630D01*
Y-606D01*
X3452Y-630D02*
X3476Y-654D01*
X3452Y-630D02*
X3476Y-606D01*
X3452Y-604D02*
X3452D01*
X3446Y-599D02*
X3452Y-604D01*
Y-656D02*
X3452D01*
X3458Y-661D01*
X3411Y-665D02*
X3521D01*
X2428Y-2106D02*
Y-1826D01*
X2550Y-1995D02*
Y-1976D01*
X2526D02*
X2550D01*
X2574Y-1976D02*
X2574Y-1976D01*
X2550D02*
X2574D01*
X2550Y-1952D02*
Y-1936D01*
Y-1952D02*
X2574D01*
X2526D02*
X2550D01*
Y-1976D02*
X2574Y-1952D01*
X2526D02*
X2550Y-1976D01*
X2672Y-2106D02*
Y-1826D01*
X2629Y-2106D02*
X2672D01*
X2629Y-1826D02*
X2672D01*
X2428Y-2106D02*
X2471D01*
X2428Y-1826D02*
X2471D01*
X3200Y-700D02*
X3600D01*
Y-900D02*
Y-700D01*
X3200Y-900D02*
X3600D01*
X3200D02*
Y-700D01*
X3150Y-725D02*
Y-700D01*
Y-750D02*
Y-725D01*
X3125D02*
X3175D01*
X2786Y-2701D02*
Y-2612D01*
Y-2542D02*
Y-2453D01*
X2564D02*
X2786D01*
X2527Y-2490D02*
X2564Y-2453D01*
X2527Y-2542D02*
Y-2490D01*
X2564Y-2701D02*
X2786D01*
X2527Y-2664D02*
X2564Y-2701D01*
X2527Y-2664D02*
Y-2612D01*
X2048Y-1924D02*
X2145D01*
X1977Y-1853D02*
X2048Y-1924D01*
X1977Y-1853D02*
Y-1519D01*
X2145D01*
X2215Y-1519D02*
X2383D01*
Y-1853D02*
Y-1519D01*
X2312Y-1924D02*
X2383Y-1853D01*
X2215Y-1924D02*
X2312D01*
X2809Y-2261D02*
X3006D01*
X2809Y-1946D02*
X3006D01*
X1924Y-2120D02*
X2081D01*
X1924Y-2613D02*
X2081D01*
X2239D02*
X2396D01*
X2239Y-2120D02*
X2396D01*
Y-2613D02*
Y-2120D01*
X1924Y-2613D02*
Y-2120D01*
X630Y-2635D02*
Y-2615D01*
X606D02*
X630D01*
X654Y-2615D02*
X654Y-2615D01*
X630D02*
X654D01*
X630Y-2591D02*
Y-2576D01*
Y-2591D02*
X654D01*
X606D02*
X630D01*
Y-2615D02*
X654Y-2591D01*
X606D02*
X630Y-2615D01*
X1749Y-3465D02*
Y-3189D01*
X1552Y-3465D02*
X1749D01*
X1552D02*
Y-3189D01*
X1749D01*
X1439Y-3464D02*
Y-3189D01*
X1242Y-3464D02*
X1439D01*
X1242D02*
Y-3189D01*
X1439D01*
X1129Y-3464D02*
Y-3189D01*
X932Y-3464D02*
X1129D01*
X932D02*
Y-3189D01*
X1129D01*
X176Y-2661D02*
X451D01*
Y-2858D02*
Y-2661D01*
X176Y-2858D02*
X451D01*
X176D02*
Y-2661D01*
X1931Y-3171D02*
Y-2895D01*
X2128D01*
Y-3171D02*
Y-2895D01*
X1931Y-3171D02*
X2128D01*
X3129Y-3464D02*
Y-3189D01*
X2932Y-3464D02*
X3129D01*
X2932D02*
Y-3189D01*
X3129D01*
X3439Y-3464D02*
Y-3189D01*
X3242Y-3464D02*
X3439D01*
X3242D02*
Y-3189D01*
X3439D01*
X3749Y-3465D02*
Y-3189D01*
X3552Y-3465D02*
X3749D01*
X3552D02*
Y-3189D01*
X3749D01*
X986Y-676D02*
X1016D01*
X11D02*
X276D01*
X986Y-1386D02*
X1016D01*
X11D02*
X276D01*
X11D02*
Y-676D01*
X246Y-1386D02*
Y-676D01*
X1016Y-1386D02*
Y-1286D01*
Y-776D02*
Y-676D01*
X2575Y-1325D02*
X2625D01*
X2600Y-1350D02*
Y-1325D01*
Y-1300D01*
X2650Y-1500D02*
Y-1300D01*
Y-1500D02*
X3050D01*
Y-1300D01*
X2650D02*
X3050D01*
X2575Y-1025D02*
X2625D01*
X2600Y-1050D02*
Y-1025D01*
Y-1000D01*
X2650Y-1200D02*
Y-1000D01*
Y-1200D02*
X3050D01*
Y-1000D01*
X2650D02*
X3050D01*
X2575Y-725D02*
X2625D01*
X2600Y-750D02*
Y-725D01*
Y-700D01*
X2650Y-900D02*
Y-700D01*
Y-900D02*
X3050D01*
Y-700D01*
X2650D02*
X3050D01*
X3352Y-3924D02*
X3384Y-3912D01*
X3352Y-3900D02*
X3384Y-3912D01*
X3360Y-3873D02*
X3357Y-3874D01*
X3354Y-3877D01*
X3352Y-3880D01*
Y-3886D01*
X3354Y-3889D01*
X3357Y-3892D01*
X3360Y-3894D01*
X3364Y-3896D01*
X3372D01*
X3376Y-3894D01*
X3379Y-3892D01*
X3382Y-3889D01*
X3384Y-3886D01*
Y-3880D01*
X3382Y-3877D01*
X3379Y-3874D01*
X3376Y-3873D01*
X3360Y-3841D02*
X3357Y-3842D01*
X3354Y-3845D01*
X3352Y-3848D01*
Y-3855D01*
X3354Y-3858D01*
X3357Y-3861D01*
X3360Y-3862D01*
X3364Y-3864D01*
X3372D01*
X3376Y-3862D01*
X3379Y-3861D01*
X3382Y-3858D01*
X3384Y-3855D01*
Y-3848D01*
X3382Y-3845D01*
X3379Y-3842D01*
X3376Y-3841D01*
X3000Y-3851D02*
X2997Y-3853D01*
X2994Y-3856D01*
X2992Y-3859D01*
Y-3865D01*
X2994Y-3868D01*
X2997Y-3871D01*
X3000Y-3872D01*
X3004Y-3874D01*
X3012D01*
X3016Y-3872D01*
X3019Y-3871D01*
X3022Y-3868D01*
X3024Y-3865D01*
Y-3859D01*
X3022Y-3856D01*
X3019Y-3853D01*
X3016Y-3851D01*
X3012D01*
Y-3859D02*
Y-3851D01*
X2992Y-3844D02*
X3024D01*
X2992D02*
X3024Y-3823D01*
X2992D02*
X3024D01*
X2992Y-3814D02*
X3024D01*
X2992D02*
Y-3803D01*
X2994Y-3798D01*
X2997Y-3795D01*
X3000Y-3794D01*
X3004Y-3792D01*
X3012D01*
X3016Y-3794D01*
X3019Y-3795D01*
X3022Y-3798D01*
X3024Y-3803D01*
Y-3814D01*
X3272Y-3913D02*
X3304D01*
X3272Y-3924D02*
Y-3903D01*
Y-3899D02*
X3304D01*
X3272Y-3878D02*
X3304D01*
X3287Y-3899D02*
Y-3878D01*
X3272Y-3869D02*
X3304D01*
X3272D02*
Y-3855D01*
X3274Y-3850D01*
X3275Y-3849D01*
X3278Y-3847D01*
X3281D01*
X3284Y-3849D01*
X3286Y-3850D01*
X3287Y-3855D01*
Y-3869D01*
Y-3858D02*
X3304Y-3847D01*
X3192Y-3924D02*
X3224D01*
X3192D02*
Y-3913D01*
X3194Y-3909D01*
X3197Y-3906D01*
X3200Y-3904D01*
X3204Y-3903D01*
X3212D01*
X3216Y-3904D01*
X3219Y-3906D01*
X3222Y-3909D01*
X3224Y-3913D01*
Y-3924D01*
X3192Y-3896D02*
X3224D01*
X3192Y-3889D02*
X3224D01*
X3192D02*
Y-3875D01*
X3194Y-3871D01*
X3195Y-3869D01*
X3198Y-3867D01*
X3201D01*
X3204Y-3869D01*
X3206Y-3871D01*
X3207Y-3875D01*
Y-3889D01*
Y-3878D02*
X3224Y-3867D01*
X3072Y-3874D02*
X3104D01*
X3072D02*
Y-3860D01*
X3074Y-3856D01*
X3075Y-3854D01*
X3078Y-3853D01*
X3081D01*
X3084Y-3854D01*
X3086Y-3856D01*
X3087Y-3860D01*
Y-3874D02*
Y-3860D01*
X3089Y-3856D01*
X3090Y-3854D01*
X3093Y-3853D01*
X3098D01*
X3101Y-3854D01*
X3102Y-3856D01*
X3104Y-3860D01*
Y-3874D01*
X3072Y-3846D02*
X3104D01*
X3072D02*
Y-3832D01*
X3074Y-3827D01*
X3075Y-3826D01*
X3078Y-3824D01*
X3081D01*
X3084Y-3826D01*
X3086Y-3827D01*
X3087Y-3832D01*
Y-3846D01*
Y-3835D02*
X3104Y-3824D01*
X2950Y-2708D02*
Y-2740D01*
X2966D01*
X2971Y-2735D01*
Y-2729D01*
X2966Y-2724D01*
X2950D01*
X2966D01*
X2971Y-2719D01*
Y-2713D01*
X2966Y-2708D01*
X2950D01*
X2982Y-2719D02*
Y-2740D01*
Y-2729D01*
X2987Y-2724D01*
X2993Y-2719D01*
X2998D01*
X3019D02*
X3030D01*
X3035Y-2724D01*
Y-2740D01*
X3019D01*
X3014Y-2735D01*
X3019Y-2729D01*
X3035D01*
X3046Y-2740D02*
Y-2708D01*
Y-2729D02*
X3062Y-2719D01*
X3046Y-2729D02*
X3062Y-2740D01*
X3094D02*
X3083D01*
X3078Y-2735D01*
Y-2724D01*
X3083Y-2719D01*
X3094D01*
X3099Y-2724D01*
Y-2729D01*
X3078D01*
X3270Y-2708D02*
Y-2740D01*
X3286D01*
X3291Y-2735D01*
Y-2713D01*
X3286Y-2708D01*
X3270D01*
X3302D02*
X3313D01*
X3307D01*
Y-2740D01*
X3302D01*
X3313D01*
X3329D02*
Y-2708D01*
X3345D01*
X3350Y-2713D01*
Y-2724D01*
X3345Y-2729D01*
X3329D01*
X3339D02*
X3350Y-2740D01*
X3520Y-2708D02*
X3541D01*
X3531D01*
Y-2740D01*
X3552Y-2708D02*
Y-2740D01*
Y-2724D01*
X3573D01*
Y-2708D01*
Y-2740D01*
X3584D02*
Y-2708D01*
X3600D01*
X3605Y-2713D01*
Y-2724D01*
X3600Y-2729D01*
X3584D01*
X3595D02*
X3605Y-2740D01*
X3632Y-2708D02*
X3621D01*
X3616Y-2713D01*
Y-2735D01*
X3621Y-2740D01*
X3632D01*
X3637Y-2735D01*
Y-2713D01*
X3632Y-2708D01*
X3648D02*
X3669D01*
X3659D01*
Y-2740D01*
X3680Y-2708D02*
X3701D01*
X3691D01*
Y-2740D01*
X3712Y-2708D02*
Y-2740D01*
X3733D01*
X3765Y-2708D02*
X3744D01*
Y-2740D01*
X3765D01*
X3744Y-2724D02*
X3755D01*
X1520Y-2708D02*
X1541D01*
X1531D01*
Y-2740D01*
X1552Y-2708D02*
Y-2740D01*
Y-2724D01*
X1573D01*
Y-2708D01*
Y-2740D01*
X1584D02*
Y-2708D01*
X1600D01*
X1605Y-2713D01*
Y-2724D01*
X1600Y-2729D01*
X1584D01*
X1595D02*
X1605Y-2740D01*
X1632Y-2708D02*
X1621D01*
X1616Y-2713D01*
Y-2735D01*
X1621Y-2740D01*
X1632D01*
X1637Y-2735D01*
Y-2713D01*
X1632Y-2708D01*
X1648D02*
X1669D01*
X1659D01*
Y-2740D01*
X1680Y-2708D02*
X1701D01*
X1691D01*
Y-2740D01*
X1712Y-2708D02*
Y-2740D01*
X1733D01*
X1765Y-2708D02*
X1744D01*
Y-2740D01*
X1765D01*
X1744Y-2724D02*
X1755D01*
X1270Y-2708D02*
Y-2740D01*
X1286D01*
X1291Y-2735D01*
Y-2713D01*
X1286Y-2708D01*
X1270D01*
X1302D02*
X1313D01*
X1307D01*
Y-2740D01*
X1302D01*
X1313D01*
X1329D02*
Y-2708D01*
X1345D01*
X1350Y-2713D01*
Y-2724D01*
X1345Y-2729D01*
X1329D01*
X1339D02*
X1350Y-2740D01*
X950Y-2708D02*
Y-2740D01*
X966D01*
X971Y-2735D01*
Y-2729D01*
X966Y-2724D01*
X950D01*
X966D01*
X971Y-2719D01*
Y-2713D01*
X966Y-2708D01*
X950D01*
X982Y-2719D02*
Y-2740D01*
Y-2729D01*
X987Y-2724D01*
X993Y-2719D01*
X998D01*
X1019D02*
X1030D01*
X1035Y-2724D01*
Y-2740D01*
X1019D01*
X1014Y-2735D01*
X1019Y-2729D01*
X1035D01*
X1046Y-2740D02*
Y-2708D01*
Y-2729D02*
X1062Y-2719D01*
X1046Y-2729D02*
X1062Y-2740D01*
X1094D02*
X1083D01*
X1078Y-2735D01*
Y-2724D01*
X1083Y-2719D01*
X1094D01*
X1099Y-2724D01*
Y-2729D01*
X1078D01*
X52Y-470D02*
Y-438D01*
X68D01*
X74Y-444D01*
Y-454D01*
X68Y-460D01*
X52D01*
X106Y-470D02*
X84D01*
X106Y-449D01*
Y-444D01*
X100Y-438D01*
X90D01*
X84Y-444D01*
X338Y-476D02*
Y-444D01*
X354D01*
X359Y-449D01*
Y-460D01*
X354Y-465D01*
X338D01*
X348D02*
X359Y-476D01*
X370Y-449D02*
X375Y-444D01*
X386D01*
X391Y-449D01*
Y-454D01*
X386Y-460D01*
X380D01*
X386D01*
X391Y-465D01*
Y-470D01*
X386Y-476D01*
X375D01*
X370Y-470D01*
X402D02*
X407Y-476D01*
X418D01*
X423Y-470D01*
Y-449D01*
X418Y-444D01*
X407D01*
X402Y-449D01*
Y-454D01*
X407Y-460D01*
X423D01*
X2511Y-2733D02*
X2506Y-2728D01*
X2495D01*
X2490Y-2733D01*
Y-2755D01*
X2495Y-2760D01*
X2506D01*
X2511Y-2755D01*
X2522Y-2760D02*
X2533D01*
X2527D01*
Y-2728D01*
X2522Y-2733D01*
X2570Y-2728D02*
X2549D01*
Y-2744D01*
X2559Y-2739D01*
X2565D01*
X2570Y-2744D01*
Y-2755D01*
X2565Y-2760D01*
X2554D01*
X2549Y-2755D01*
X2511Y-2403D02*
X2506Y-2398D01*
X2495D01*
X2490Y-2403D01*
Y-2425D01*
X2495Y-2430D01*
X2506D01*
X2511Y-2425D01*
X2522Y-2430D02*
X2533D01*
X2527D01*
Y-2398D01*
X2522Y-2403D01*
X2565Y-2430D02*
Y-2398D01*
X2549Y-2414D01*
X2570D01*
X50Y-311D02*
X18D01*
Y-295D01*
X23Y-290D01*
X34D01*
X39Y-295D01*
Y-311D01*
Y-300D02*
X50Y-290D01*
X23Y-279D02*
X18Y-274D01*
Y-263D01*
X23Y-258D01*
X29D01*
X34Y-263D01*
Y-268D01*
Y-263D01*
X39Y-258D01*
X45D01*
X50Y-263D01*
Y-274D01*
X45Y-279D01*
X23Y-247D02*
X18Y-242D01*
Y-231D01*
X23Y-226D01*
X29D01*
X34Y-231D01*
X39Y-226D01*
X45D01*
X50Y-231D01*
Y-242D01*
X45Y-247D01*
X39D01*
X34Y-242D01*
X29Y-247D01*
X23D01*
X34Y-242D02*
Y-231D01*
X34Y-2048D02*
X23D01*
X28D01*
Y-2075D01*
X23Y-2080D01*
X18D01*
X12Y-2075D01*
X44Y-2080D02*
X55D01*
X50D01*
Y-2048D01*
X44Y-2054D01*
X1400Y-1498D02*
X1411D01*
X1405D01*
Y-1530D01*
X1400D01*
X1411D01*
X1427D02*
Y-1498D01*
X1443D01*
X1448Y-1503D01*
Y-1514D01*
X1443Y-1519D01*
X1427D01*
X1437D02*
X1448Y-1530D01*
X1459Y-1535D02*
X1480D01*
X1507Y-1530D02*
Y-1498D01*
X1491Y-1514D01*
X1512D01*
X1400Y-1898D02*
X1411D01*
X1405D01*
Y-1930D01*
X1400D01*
X1411D01*
X1427D02*
Y-1898D01*
X1443D01*
X1448Y-1903D01*
Y-1914D01*
X1443Y-1919D01*
X1427D01*
X1437D02*
X1448Y-1930D01*
X1459Y-1935D02*
X1480D01*
X1491Y-1903D02*
X1496Y-1898D01*
X1507D01*
X1512Y-1903D01*
Y-1909D01*
X1507Y-1914D01*
X1501D01*
X1507D01*
X1512Y-1919D01*
Y-1925D01*
X1507Y-1930D01*
X1496D01*
X1491Y-1925D01*
X1400Y-2298D02*
X1411D01*
X1405D01*
Y-2330D01*
X1400D01*
X1411D01*
X1427D02*
Y-2298D01*
X1443D01*
X1448Y-2303D01*
Y-2314D01*
X1443Y-2319D01*
X1427D01*
X1437D02*
X1448Y-2330D01*
X1459Y-2335D02*
X1480D01*
X1512Y-2330D02*
X1491D01*
X1512Y-2309D01*
Y-2303D01*
X1507Y-2298D01*
X1496D01*
X1491Y-2303D01*
X1000Y-2298D02*
X1011D01*
X1005D01*
Y-2330D01*
X1000D01*
X1011D01*
X1027D02*
Y-2298D01*
X1043D01*
X1048Y-2303D01*
Y-2314D01*
X1043Y-2319D01*
X1027D01*
X1037D02*
X1048Y-2330D01*
X1059Y-2335D02*
X1080D01*
X1091Y-2330D02*
X1101D01*
X1096D01*
Y-2298D01*
X1091Y-2303D01*
X1411Y-1273D02*
X1406Y-1268D01*
X1395D01*
X1390Y-1273D01*
Y-1295D01*
X1395Y-1300D01*
X1406D01*
X1411Y-1295D01*
X1422Y-1300D02*
X1433D01*
X1427D01*
Y-1268D01*
X1422Y-1273D01*
X1449D02*
X1454Y-1268D01*
X1465D01*
X1470Y-1273D01*
Y-1279D01*
X1465Y-1284D01*
X1459D01*
X1465D01*
X1470Y-1289D01*
Y-1295D01*
X1465Y-1300D01*
X1454D01*
X1449Y-1295D01*
X1481Y-1305D02*
X1502D01*
X1529Y-1300D02*
Y-1268D01*
X1513Y-1284D01*
X1534D01*
X1391Y-1673D02*
X1386Y-1668D01*
X1375D01*
X1370Y-1673D01*
Y-1695D01*
X1375Y-1700D01*
X1386D01*
X1391Y-1695D01*
X1402Y-1700D02*
X1413D01*
X1407D01*
Y-1668D01*
X1402Y-1673D01*
X1429D02*
X1434Y-1668D01*
X1445D01*
X1450Y-1673D01*
Y-1679D01*
X1445Y-1684D01*
X1439D01*
X1445D01*
X1450Y-1689D01*
Y-1695D01*
X1445Y-1700D01*
X1434D01*
X1429Y-1695D01*
X1461Y-1705D02*
X1482D01*
X1493Y-1673D02*
X1498Y-1668D01*
X1509D01*
X1514Y-1673D01*
Y-1679D01*
X1509Y-1684D01*
X1503D01*
X1509D01*
X1514Y-1689D01*
Y-1695D01*
X1509Y-1700D01*
X1498D01*
X1493Y-1695D01*
X1411Y-2073D02*
X1406Y-2068D01*
X1395D01*
X1390Y-2073D01*
Y-2095D01*
X1395Y-2100D01*
X1406D01*
X1411Y-2095D01*
X1422Y-2100D02*
X1433D01*
X1427D01*
Y-2068D01*
X1422Y-2073D01*
X1449D02*
X1454Y-2068D01*
X1465D01*
X1470Y-2073D01*
Y-2079D01*
X1465Y-2084D01*
X1459D01*
X1465D01*
X1470Y-2089D01*
Y-2095D01*
X1465Y-2100D01*
X1454D01*
X1449Y-2095D01*
X1481Y-2105D02*
X1502D01*
X1534Y-2100D02*
X1513D01*
X1534Y-2079D01*
Y-2073D01*
X1529Y-2068D01*
X1518D01*
X1513Y-2073D01*
X1011D02*
X1006Y-2068D01*
X995D01*
X990Y-2073D01*
Y-2095D01*
X995Y-2100D01*
X1006D01*
X1011Y-2095D01*
X1022Y-2100D02*
X1033D01*
X1027D01*
Y-2068D01*
X1022Y-2073D01*
X1049D02*
X1054Y-2068D01*
X1065D01*
X1070Y-2073D01*
Y-2079D01*
X1065Y-2084D01*
X1059D01*
X1065D01*
X1070Y-2089D01*
Y-2095D01*
X1065Y-2100D01*
X1054D01*
X1049Y-2095D01*
X1081Y-2105D02*
X1102D01*
X1113Y-2100D02*
X1123D01*
X1118D01*
Y-2068D01*
X1113Y-2073D01*
X3780Y-518D02*
Y-539D01*
X3791Y-550D01*
X3801Y-539D01*
Y-518D01*
X3812D02*
Y-550D01*
X3828D01*
X3833Y-545D01*
Y-539D01*
X3828Y-534D01*
X3812D01*
X3828D01*
X3833Y-529D01*
Y-523D01*
X3828Y-518D01*
X3812D01*
X3844Y-550D02*
Y-529D01*
X3855Y-518D01*
X3865Y-529D01*
Y-550D01*
Y-534D01*
X3844D01*
X3876Y-518D02*
X3897D01*
X3887D01*
Y-550D01*
X590Y-180D02*
X558D01*
Y-164D01*
X563Y-159D01*
X574D01*
X579Y-164D01*
Y-180D01*
Y-169D02*
X590Y-159D01*
Y-132D02*
X558D01*
X574Y-148D01*
Y-127D01*
X558Y-116D02*
Y-95D01*
X563D01*
X585Y-116D01*
X590D01*
X1390Y-2500D02*
X1358D01*
Y-2484D01*
X1363Y-2479D01*
X1374D01*
X1379Y-2484D01*
Y-2500D01*
Y-2489D02*
X1390Y-2479D01*
Y-2452D02*
X1358D01*
X1374Y-2468D01*
Y-2447D01*
X1358Y-2415D02*
X1363Y-2425D01*
X1374Y-2436D01*
X1385D01*
X1390Y-2431D01*
Y-2420D01*
X1385Y-2415D01*
X1379D01*
X1374Y-2420D01*
Y-2436D01*
X2100Y-600D02*
Y-568D01*
X2116D01*
X2121Y-573D01*
Y-584D01*
X2116Y-589D01*
X2100D01*
X2111D02*
X2121Y-600D01*
X2148D02*
Y-568D01*
X2132Y-584D01*
X2153D01*
X2185Y-568D02*
X2164D01*
Y-584D01*
X2175Y-579D01*
X2180D01*
X2185Y-584D01*
Y-595D01*
X2180Y-600D01*
X2169D01*
X2164Y-595D01*
X52Y-1770D02*
Y-1738D01*
X68D01*
X74Y-1744D01*
Y-1754D01*
X68Y-1760D01*
X52D01*
X84Y-1770D02*
Y-1738D01*
X100D01*
X106Y-1744D01*
Y-1754D01*
X100Y-1760D01*
X84D01*
X95D02*
X106Y-1770D01*
X132Y-1738D02*
X122D01*
X116Y-1744D01*
Y-1765D01*
X122Y-1770D01*
X132D01*
X138Y-1765D01*
Y-1744D01*
X132Y-1738D01*
X170Y-1744D02*
X164Y-1738D01*
X154D01*
X148Y-1744D01*
Y-1765D01*
X154Y-1770D01*
X164D01*
X170Y-1765D01*
Y-1754D01*
X159D01*
X558Y-300D02*
X590D01*
Y-284D01*
X585Y-279D01*
X563D01*
X558Y-284D01*
Y-300D01*
X585Y-268D02*
X590Y-263D01*
Y-252D01*
X585Y-247D01*
X563D01*
X558Y-252D01*
Y-263D01*
X563Y-268D01*
X569D01*
X574Y-263D01*
Y-247D01*
X1288Y-2500D02*
X1320D01*
Y-2484D01*
X1315Y-2479D01*
X1293D01*
X1288Y-2484D01*
Y-2500D01*
X1293Y-2468D02*
X1288Y-2463D01*
Y-2452D01*
X1293Y-2447D01*
X1299D01*
X1304Y-2452D01*
X1309Y-2447D01*
X1315D01*
X1320Y-2452D01*
Y-2463D01*
X1315Y-2468D01*
X1309D01*
X1304Y-2463D01*
X1299Y-2468D01*
X1293D01*
X1304Y-2463D02*
Y-2452D01*
X2230Y-568D02*
Y-600D01*
X2246D01*
X2251Y-595D01*
Y-573D01*
X2246Y-568D01*
X2230D01*
X2262D02*
X2283D01*
Y-573D01*
X2262Y-595D01*
Y-600D01*
X1474Y-2438D02*
X1452D01*
Y-2454D01*
X1463Y-2449D01*
X1468D01*
X1474Y-2454D01*
Y-2465D01*
X1468Y-2470D01*
X1458D01*
X1452Y-2465D01*
X1484Y-2438D02*
Y-2460D01*
X1495Y-2470D01*
X1506Y-2460D01*
Y-2438D01*
X1823Y-800D02*
X1818Y-795D01*
Y-784D01*
X1823Y-779D01*
X1829D01*
X1834Y-784D01*
Y-789D01*
Y-784D01*
X1839Y-779D01*
X1845D01*
X1850Y-784D01*
Y-795D01*
X1845Y-800D01*
X1818Y-768D02*
X1839D01*
X1850Y-757D01*
X1839Y-747D01*
X1818D01*
X1823Y-736D02*
X1818Y-731D01*
Y-720D01*
X1823Y-715D01*
X1829D01*
X1834Y-720D01*
Y-725D01*
Y-720D01*
X1839Y-715D01*
X1845D01*
X1850Y-720D01*
Y-731D01*
X1845Y-736D01*
X338Y-2439D02*
X333Y-2444D01*
Y-2455D01*
X338Y-2460D01*
X360D01*
X365Y-2455D01*
Y-2444D01*
X360Y-2439D01*
X365Y-2428D02*
Y-2417D01*
Y-2423D01*
X333D01*
X338Y-2428D01*
X365Y-2401D02*
Y-2391D01*
Y-2396D01*
X333D01*
X338Y-2401D01*
X596Y-2443D02*
X591Y-2438D01*
X580D01*
X575Y-2443D01*
Y-2465D01*
X580Y-2470D01*
X591D01*
X596Y-2465D01*
X607Y-2470D02*
X618D01*
X612D01*
Y-2438D01*
X607Y-2443D01*
X634D02*
X639Y-2438D01*
X650D01*
X655Y-2443D01*
Y-2465D01*
X650Y-2470D01*
X639D01*
X634Y-2465D01*
Y-2443D01*
X1908Y-890D02*
X1929D01*
X1940Y-879D01*
X1929Y-869D01*
X1908D01*
X1940Y-858D02*
X1908D01*
Y-842D01*
X1913Y-837D01*
X1924D01*
X1929Y-842D01*
Y-858D01*
Y-847D02*
X1940Y-837D01*
Y-826D02*
Y-815D01*
Y-821D01*
X1908D01*
X1913Y-826D01*
X434Y-2020D02*
Y-2047D01*
X440Y-2052D01*
X450D01*
X456Y-2047D01*
Y-2020D01*
X466D02*
X488D01*
Y-2026D01*
X466Y-2047D01*
Y-2052D01*
X1878Y-3170D02*
X1905D01*
X1910Y-3165D01*
Y-3154D01*
X1905Y-3149D01*
X1878D01*
Y-3117D02*
X1883Y-3127D01*
X1894Y-3138D01*
X1905D01*
X1910Y-3133D01*
Y-3122D01*
X1905Y-3117D01*
X1899D01*
X1894Y-3122D01*
Y-3138D01*
X1915Y-3106D02*
Y-3085D01*
X1910Y-3053D02*
Y-3074D01*
X1889Y-3053D01*
X1883D01*
X1878Y-3058D01*
Y-3069D01*
X1883Y-3074D01*
X550Y-2818D02*
Y-2845D01*
X555Y-2850D01*
X566D01*
X571Y-2845D01*
Y-2818D01*
X603D02*
X593Y-2823D01*
X582Y-2834D01*
Y-2845D01*
X587Y-2850D01*
X598D01*
X603Y-2845D01*
Y-2839D01*
X598Y-2834D01*
X582D01*
X614Y-2855D02*
X635D01*
X646Y-2850D02*
X657D01*
X651D01*
Y-2818D01*
X646Y-2823D01*
X3148Y-3470D02*
X3175D01*
X3180Y-3465D01*
Y-3454D01*
X3175Y-3449D01*
X3148D01*
Y-3417D02*
Y-3438D01*
X3164D01*
X3159Y-3427D01*
Y-3422D01*
X3164Y-3417D01*
X3175D01*
X3180Y-3422D01*
Y-3433D01*
X3175Y-3438D01*
X3185Y-3406D02*
Y-3385D01*
X3180Y-3353D02*
Y-3374D01*
X3159Y-3353D01*
X3153D01*
X3148Y-3358D01*
Y-3369D01*
X3153Y-3374D01*
X1148Y-3470D02*
X1175D01*
X1180Y-3465D01*
Y-3454D01*
X1175Y-3449D01*
X1148D01*
Y-3417D02*
Y-3438D01*
X1164D01*
X1159Y-3427D01*
Y-3422D01*
X1164Y-3417D01*
X1175D01*
X1180Y-3422D01*
Y-3433D01*
X1175Y-3438D01*
X1185Y-3406D02*
Y-3385D01*
X1180Y-3374D02*
Y-3363D01*
Y-3369D01*
X1148D01*
X1153Y-3374D01*
X3458Y-3470D02*
X3485D01*
X3490Y-3465D01*
Y-3454D01*
X3485Y-3449D01*
X3458D01*
X3490Y-3422D02*
X3458D01*
X3474Y-3438D01*
Y-3417D01*
X3495Y-3406D02*
Y-3385D01*
X3490Y-3353D02*
Y-3374D01*
X3469Y-3353D01*
X3463D01*
X3458Y-3358D01*
Y-3369D01*
X3463Y-3374D01*
X1458Y-3470D02*
X1485D01*
X1490Y-3465D01*
Y-3454D01*
X1485Y-3449D01*
X1458D01*
X1490Y-3422D02*
X1458D01*
X1474Y-3438D01*
Y-3417D01*
X1495Y-3406D02*
Y-3385D01*
X1490Y-3374D02*
Y-3363D01*
Y-3369D01*
X1458D01*
X1463Y-3374D01*
X3768Y-3310D02*
X3795D01*
X3800Y-3305D01*
Y-3294D01*
X3795Y-3289D01*
X3768D01*
X3773Y-3278D02*
X3768Y-3273D01*
Y-3262D01*
X3773Y-3257D01*
X3779D01*
X3784Y-3262D01*
Y-3267D01*
Y-3262D01*
X3789Y-3257D01*
X3795D01*
X3800Y-3262D01*
Y-3273D01*
X3795Y-3278D01*
X3805Y-3246D02*
Y-3225D01*
X3800Y-3193D02*
Y-3214D01*
X3779Y-3193D01*
X3773D01*
X3768Y-3198D01*
Y-3209D01*
X3773Y-3214D01*
X1768Y-3300D02*
X1795D01*
X1800Y-3295D01*
Y-3284D01*
X1795Y-3279D01*
X1768D01*
X1773Y-3268D02*
X1768Y-3263D01*
Y-3252D01*
X1773Y-3247D01*
X1779D01*
X1784Y-3252D01*
Y-3257D01*
Y-3252D01*
X1789Y-3247D01*
X1795D01*
X1800Y-3252D01*
Y-3263D01*
X1795Y-3268D01*
X1805Y-3236D02*
Y-3215D01*
X1800Y-3204D02*
Y-3193D01*
Y-3199D01*
X1768D01*
X1773Y-3204D01*
X2940Y-1868D02*
Y-1895D01*
X2945Y-1900D01*
X2956D01*
X2961Y-1895D01*
Y-1868D01*
X2993Y-1900D02*
X2972D01*
X2993Y-1879D01*
Y-1873D01*
X2988Y-1868D01*
X2977D01*
X2972Y-1873D01*
X13Y-585D02*
Y-612D01*
X19Y-617D01*
X29D01*
X35Y-612D01*
Y-585D01*
X45Y-617D02*
X56D01*
X51D01*
Y-585D01*
X45Y-591D01*
X3310Y-358D02*
X3331D01*
X3321D01*
Y-390D01*
X3358Y-358D02*
X3347D01*
X3342Y-363D01*
Y-385D01*
X3347Y-390D01*
X3358D01*
X3363Y-385D01*
Y-363D01*
X3358Y-358D01*
X3395D02*
X3374D01*
Y-374D01*
X3385D01*
X3374D01*
Y-390D01*
X3406Y-395D02*
X3427D01*
X3454Y-390D02*
Y-358D01*
X3438Y-374D01*
X3459D01*
X2610Y-358D02*
X2631D01*
X2621D01*
Y-390D01*
X2658Y-358D02*
X2647D01*
X2642Y-363D01*
Y-385D01*
X2647Y-390D01*
X2658D01*
X2663Y-385D01*
Y-363D01*
X2658Y-358D01*
X2695D02*
X2674D01*
Y-374D01*
X2685D01*
X2674D01*
Y-390D01*
X2706Y-395D02*
X2727D01*
X2738Y-363D02*
X2743Y-358D01*
X2754D01*
X2759Y-363D01*
Y-369D01*
X2754Y-374D01*
X2749D01*
X2754D01*
X2759Y-379D01*
Y-385D01*
X2754Y-390D01*
X2743D01*
X2738Y-385D01*
X1910Y-358D02*
X1931D01*
X1921D01*
Y-390D01*
X1958Y-358D02*
X1947D01*
X1942Y-363D01*
Y-385D01*
X1947Y-390D01*
X1958D01*
X1963Y-385D01*
Y-363D01*
X1958Y-358D01*
X1995D02*
X1974D01*
Y-374D01*
X1985D01*
X1974D01*
Y-390D01*
X2006Y-395D02*
X2027D01*
X2059Y-390D02*
X2038D01*
X2059Y-369D01*
Y-363D01*
X2054Y-358D01*
X2043D01*
X2038Y-363D01*
X1220Y-358D02*
X1241D01*
X1231D01*
Y-390D01*
X1268Y-358D02*
X1257D01*
X1252Y-363D01*
Y-385D01*
X1257Y-390D01*
X1268D01*
X1273Y-385D01*
Y-363D01*
X1268Y-358D01*
X1305D02*
X1284D01*
Y-374D01*
X1295D01*
X1284D01*
Y-390D01*
X1316Y-395D02*
X1337D01*
X1348Y-390D02*
X1359D01*
X1353D01*
Y-358D01*
X1348Y-363D01*
X1280Y-700D02*
Y-668D01*
X1296D01*
X1301Y-673D01*
Y-684D01*
X1296Y-689D01*
X1280D01*
X1291D02*
X1301Y-700D01*
X1328D02*
X1317D01*
X1312Y-695D01*
Y-684D01*
X1317Y-679D01*
X1328D01*
X1333Y-684D01*
Y-689D01*
X1312D01*
X1365Y-679D02*
X1349D01*
X1344Y-684D01*
Y-695D01*
X1349Y-700D01*
X1365D01*
X1392D02*
X1381D01*
X1376Y-695D01*
Y-684D01*
X1381Y-679D01*
X1392D01*
X1397Y-684D01*
Y-689D01*
X1376D01*
X1408Y-700D02*
X1419D01*
X1413D01*
Y-679D01*
X1408D01*
X1435D02*
X1445Y-700D01*
X1456Y-679D01*
X1483Y-700D02*
X1472D01*
X1467Y-695D01*
Y-684D01*
X1472Y-679D01*
X1483D01*
X1488Y-684D01*
Y-689D01*
X1467D01*
X1499Y-679D02*
Y-700D01*
Y-689D01*
X1504Y-684D01*
X1509Y-679D01*
X1515D01*
X1080Y-1480D02*
X1112D01*
Y-1496D01*
X1107Y-1501D01*
X1096D01*
X1091Y-1496D01*
Y-1480D01*
Y-1490D02*
X1080Y-1501D01*
Y-1528D02*
X1112D01*
X1096Y-1512D01*
Y-1533D01*
X1080Y-1560D02*
X1112D01*
X1096Y-1544D01*
Y-1565D01*
X1270Y-1460D02*
Y-1428D01*
X1286D01*
X1291Y-1433D01*
Y-1444D01*
X1286Y-1449D01*
X1270D01*
X1281D02*
X1291Y-1460D01*
X1318D02*
Y-1428D01*
X1302Y-1444D01*
X1323D01*
X1334Y-1433D02*
X1339Y-1428D01*
X1350D01*
X1355Y-1433D01*
Y-1439D01*
X1350Y-1444D01*
X1345D01*
X1350D01*
X1355Y-1449D01*
Y-1455D01*
X1350Y-1460D01*
X1339D01*
X1334Y-1455D01*
X390Y-80D02*
Y-48D01*
X406D01*
X411Y-53D01*
Y-64D01*
X406Y-69D01*
X390D01*
X401D02*
X411Y-80D01*
X438D02*
Y-48D01*
X422Y-64D01*
X443D01*
X475Y-80D02*
X454D01*
X475Y-59D01*
Y-53D01*
X470Y-48D01*
X459D01*
X454Y-53D01*
X80Y-420D02*
Y-388D01*
X96D01*
X102Y-393D01*
Y-404D01*
X96Y-409D01*
X80D01*
X91D02*
X102Y-420D01*
X128D02*
Y-388D01*
X112Y-404D01*
X134D01*
X144Y-420D02*
X155D01*
X150D01*
Y-388D01*
X144Y-393D01*
X270Y-80D02*
Y-48D01*
X286D01*
X291Y-53D01*
Y-64D01*
X286Y-69D01*
X270D01*
X281D02*
X291Y-80D01*
X318D02*
Y-48D01*
X302Y-64D01*
X323D01*
X334Y-53D02*
X339Y-48D01*
X350D01*
X355Y-53D01*
Y-75D01*
X350Y-80D01*
X339D01*
X334Y-75D01*
Y-53D01*
X3222Y-470D02*
X3190D01*
Y-454D01*
X3195Y-449D01*
X3206D01*
X3211Y-454D01*
Y-470D01*
Y-460D02*
X3222Y-449D01*
X3195Y-438D02*
X3190Y-433D01*
Y-422D01*
X3195Y-417D01*
X3200D01*
X3206Y-422D01*
Y-428D01*
Y-422D01*
X3211Y-417D01*
X3216D01*
X3222Y-422D01*
Y-433D01*
X3216Y-438D01*
X3190Y-406D02*
Y-385D01*
X3195D01*
X3216Y-406D01*
X3222D01*
X3227Y-374D02*
Y-353D01*
X3222Y-326D02*
X3190D01*
X3206Y-342D01*
Y-321D01*
X2522Y-470D02*
X2490D01*
Y-454D01*
X2495Y-449D01*
X2506D01*
X2511Y-454D01*
Y-470D01*
Y-460D02*
X2522Y-449D01*
X2495Y-438D02*
X2490Y-433D01*
Y-422D01*
X2495Y-417D01*
X2500D01*
X2506Y-422D01*
Y-428D01*
Y-422D01*
X2511Y-417D01*
X2516D01*
X2522Y-422D01*
Y-433D01*
X2516Y-438D01*
X2490Y-406D02*
Y-385D01*
X2495D01*
X2516Y-406D01*
X2522D01*
X2527Y-374D02*
Y-353D01*
X2495Y-342D02*
X2490Y-337D01*
Y-326D01*
X2495Y-321D01*
X2500D01*
X2506Y-326D01*
Y-332D01*
Y-326D01*
X2511Y-321D01*
X2516D01*
X2522Y-326D01*
Y-337D01*
X2516Y-342D01*
X1822Y-470D02*
X1790D01*
Y-454D01*
X1795Y-449D01*
X1806D01*
X1811Y-454D01*
Y-470D01*
Y-460D02*
X1822Y-449D01*
X1795Y-438D02*
X1790Y-433D01*
Y-422D01*
X1795Y-417D01*
X1800D01*
X1806Y-422D01*
Y-428D01*
Y-422D01*
X1811Y-417D01*
X1816D01*
X1822Y-422D01*
Y-433D01*
X1816Y-438D01*
X1790Y-406D02*
Y-385D01*
X1795D01*
X1816Y-406D01*
X1822D01*
X1827Y-374D02*
Y-353D01*
X1822Y-321D02*
Y-342D01*
X1800Y-321D01*
X1795D01*
X1790Y-326D01*
Y-337D01*
X1795Y-342D01*
X1120Y-470D02*
X1088D01*
Y-454D01*
X1093Y-449D01*
X1104D01*
X1109Y-454D01*
Y-470D01*
Y-459D02*
X1120Y-449D01*
X1093Y-438D02*
X1088Y-433D01*
Y-422D01*
X1093Y-417D01*
X1099D01*
X1104Y-422D01*
Y-427D01*
Y-422D01*
X1109Y-417D01*
X1115D01*
X1120Y-422D01*
Y-433D01*
X1115Y-438D01*
X1088Y-406D02*
Y-385D01*
X1093D01*
X1115Y-406D01*
X1120D01*
X1125Y-374D02*
Y-353D01*
X1120Y-342D02*
Y-331D01*
Y-337D01*
X1088D01*
X1093Y-342D01*
X1280Y-970D02*
Y-938D01*
X1296D01*
X1301Y-943D01*
Y-954D01*
X1296Y-959D01*
X1280D01*
X1291D02*
X1301Y-970D01*
X1312Y-943D02*
X1317Y-938D01*
X1328D01*
X1333Y-943D01*
Y-949D01*
X1328Y-954D01*
X1323D01*
X1328D01*
X1333Y-959D01*
Y-965D01*
X1328Y-970D01*
X1317D01*
X1312Y-965D01*
X1365Y-938D02*
X1355Y-943D01*
X1344Y-954D01*
Y-965D01*
X1349Y-970D01*
X1360D01*
X1365Y-965D01*
Y-959D01*
X1360Y-954D01*
X1344D01*
X1280Y-870D02*
Y-838D01*
X1296D01*
X1301Y-843D01*
Y-854D01*
X1296Y-859D01*
X1280D01*
X1291D02*
X1301Y-870D01*
X1312Y-843D02*
X1317Y-838D01*
X1328D01*
X1333Y-843D01*
Y-849D01*
X1328Y-854D01*
X1323D01*
X1328D01*
X1333Y-859D01*
Y-865D01*
X1328Y-870D01*
X1317D01*
X1312Y-865D01*
X1365Y-838D02*
X1344D01*
Y-854D01*
X1355Y-849D01*
X1360D01*
X1365Y-854D01*
Y-865D01*
X1360Y-870D01*
X1349D01*
X1344Y-865D01*
X1280Y-770D02*
Y-738D01*
X1296D01*
X1301Y-743D01*
Y-754D01*
X1296Y-759D01*
X1280D01*
X1291D02*
X1301Y-770D01*
X1312Y-743D02*
X1317Y-738D01*
X1328D01*
X1333Y-743D01*
Y-749D01*
X1328Y-754D01*
X1323D01*
X1328D01*
X1333Y-759D01*
Y-765D01*
X1328Y-770D01*
X1317D01*
X1312Y-765D01*
X1360Y-770D02*
Y-738D01*
X1344Y-754D01*
X1365D01*
X1410Y-970D02*
Y-938D01*
X1426D01*
X1431Y-943D01*
Y-954D01*
X1426Y-959D01*
X1410D01*
X1421D02*
X1431Y-970D01*
X1442Y-943D02*
X1447Y-938D01*
X1458D01*
X1463Y-943D01*
Y-949D01*
X1458Y-954D01*
X1453D01*
X1458D01*
X1463Y-959D01*
Y-965D01*
X1458Y-970D01*
X1447D01*
X1442Y-965D01*
X1474Y-943D02*
X1479Y-938D01*
X1490D01*
X1495Y-943D01*
Y-949D01*
X1490Y-954D01*
X1485D01*
X1490D01*
X1495Y-959D01*
Y-965D01*
X1490Y-970D01*
X1479D01*
X1474Y-965D01*
X1410Y-870D02*
Y-838D01*
X1426D01*
X1431Y-843D01*
Y-854D01*
X1426Y-859D01*
X1410D01*
X1420D02*
X1431Y-870D01*
X1442Y-843D02*
X1447Y-838D01*
X1458D01*
X1463Y-843D01*
Y-849D01*
X1458Y-854D01*
X1452D01*
X1458D01*
X1463Y-859D01*
Y-865D01*
X1458Y-870D01*
X1447D01*
X1442Y-865D01*
X1495Y-870D02*
X1474D01*
X1495Y-849D01*
Y-843D01*
X1490Y-838D01*
X1479D01*
X1474Y-843D01*
X1410Y-770D02*
Y-738D01*
X1426D01*
X1431Y-743D01*
Y-754D01*
X1426Y-759D01*
X1410D01*
X1421D02*
X1431Y-770D01*
X1442Y-743D02*
X1447Y-738D01*
X1458D01*
X1463Y-743D01*
Y-749D01*
X1458Y-754D01*
X1453D01*
X1458D01*
X1463Y-759D01*
Y-765D01*
X1458Y-770D01*
X1447D01*
X1442Y-765D01*
X1474Y-770D02*
X1485D01*
X1479D01*
Y-738D01*
X1474Y-743D01*
X710Y-2330D02*
X678D01*
Y-2314D01*
X683Y-2309D01*
X694D01*
X699Y-2314D01*
Y-2330D01*
Y-2319D02*
X710Y-2309D01*
X683Y-2298D02*
X678Y-2293D01*
Y-2282D01*
X683Y-2277D01*
X689D01*
X694Y-2282D01*
Y-2287D01*
Y-2282D01*
X699Y-2277D01*
X705D01*
X710Y-2282D01*
Y-2293D01*
X705Y-2298D01*
X683Y-2266D02*
X678Y-2261D01*
Y-2250D01*
X683Y-2245D01*
X705D01*
X710Y-2250D01*
Y-2261D01*
X705Y-2266D01*
X683D01*
X960Y-2230D02*
X928D01*
Y-2214D01*
X933Y-2209D01*
X944D01*
X949Y-2214D01*
Y-2230D01*
Y-2219D02*
X960Y-2209D01*
Y-2177D02*
Y-2198D01*
X939Y-2177D01*
X933D01*
X928Y-2182D01*
Y-2193D01*
X933Y-2198D01*
X955Y-2166D02*
X960Y-2161D01*
Y-2150D01*
X955Y-2145D01*
X933D01*
X928Y-2150D01*
Y-2161D01*
X933Y-2166D01*
X939D01*
X944Y-2161D01*
Y-2145D01*
X575Y-2400D02*
Y-2368D01*
X591D01*
X596Y-2373D01*
Y-2384D01*
X591Y-2389D01*
X575D01*
X586D02*
X596Y-2400D01*
X628D02*
X607D01*
X628Y-2379D01*
Y-2373D01*
X623Y-2368D01*
X612D01*
X607Y-2373D01*
X639D02*
X644Y-2368D01*
X655D01*
X660Y-2373D01*
Y-2379D01*
X655Y-2384D01*
X660Y-2389D01*
Y-2395D01*
X655Y-2400D01*
X644D01*
X639Y-2395D01*
Y-2389D01*
X644Y-2384D01*
X639Y-2379D01*
Y-2373D01*
X644Y-2384D02*
X655D01*
X2750Y-3260D02*
Y-3228D01*
X2766D01*
X2771Y-3233D01*
Y-3244D01*
X2766Y-3249D01*
X2750D01*
X2761D02*
X2771Y-3260D01*
X2803D02*
X2782D01*
X2803Y-3239D01*
Y-3233D01*
X2798Y-3228D01*
X2787D01*
X2782Y-3233D01*
X2814Y-3228D02*
X2835D01*
Y-3233D01*
X2814Y-3255D01*
Y-3260D01*
X2846Y-3265D02*
X2867D01*
X2899Y-3260D02*
X2878D01*
X2899Y-3239D01*
Y-3233D01*
X2894Y-3228D01*
X2883D01*
X2878Y-3233D01*
X740Y-3260D02*
Y-3228D01*
X756D01*
X761Y-3233D01*
Y-3244D01*
X756Y-3249D01*
X740D01*
X751D02*
X761Y-3260D01*
X793D02*
X772D01*
X793Y-3239D01*
Y-3233D01*
X788Y-3228D01*
X777D01*
X772Y-3233D01*
X804Y-3228D02*
X825D01*
Y-3233D01*
X804Y-3255D01*
Y-3260D01*
X836Y-3265D02*
X857D01*
X868Y-3260D02*
X879D01*
X873D01*
Y-3228D01*
X868Y-3233D01*
X2533Y-3257D02*
Y-3225D01*
X2549D01*
X2555Y-3230D01*
Y-3241D01*
X2549Y-3246D01*
X2533D01*
X2544D02*
X2555Y-3257D01*
X2587D02*
X2565D01*
X2587Y-3235D01*
Y-3230D01*
X2581Y-3225D01*
X2571D01*
X2565Y-3230D01*
X2618Y-3225D02*
X2608Y-3230D01*
X2597Y-3241D01*
Y-3251D01*
X2602Y-3257D01*
X2613D01*
X2618Y-3251D01*
Y-3246D01*
X2613Y-3241D01*
X2597D01*
X2629Y-3262D02*
X2650D01*
X2682Y-3257D02*
X2661D01*
X2682Y-3235D01*
Y-3230D01*
X2677Y-3225D01*
X2666D01*
X2661Y-3230D01*
X470Y-3260D02*
Y-3228D01*
X486D01*
X491Y-3233D01*
Y-3244D01*
X486Y-3249D01*
X470D01*
X481D02*
X491Y-3260D01*
X523D02*
X502D01*
X523Y-3239D01*
Y-3233D01*
X518Y-3228D01*
X507D01*
X502Y-3233D01*
X555Y-3228D02*
X545Y-3233D01*
X534Y-3244D01*
Y-3255D01*
X539Y-3260D01*
X550D01*
X555Y-3255D01*
Y-3249D01*
X550Y-3244D01*
X534D01*
X566Y-3265D02*
X587D01*
X598Y-3260D02*
X609D01*
X603D01*
Y-3228D01*
X598Y-3233D01*
X2263Y-3257D02*
Y-3225D01*
X2279D01*
X2285Y-3230D01*
Y-3241D01*
X2279Y-3246D01*
X2263D01*
X2274D02*
X2285Y-3257D01*
X2317D02*
X2295D01*
X2317Y-3235D01*
Y-3230D01*
X2311Y-3225D01*
X2301D01*
X2295Y-3230D01*
X2348Y-3225D02*
X2327D01*
Y-3241D01*
X2338Y-3235D01*
X2343D01*
X2348Y-3241D01*
Y-3251D01*
X2343Y-3257D01*
X2332D01*
X2327Y-3251D01*
X2359Y-3262D02*
X2380D01*
X2412Y-3257D02*
X2391D01*
X2412Y-3235D01*
Y-3230D01*
X2407Y-3225D01*
X2396D01*
X2391Y-3230D01*
X200Y-3260D02*
Y-3228D01*
X216D01*
X221Y-3233D01*
Y-3244D01*
X216Y-3249D01*
X200D01*
X211D02*
X221Y-3260D01*
X253D02*
X232D01*
X253Y-3239D01*
Y-3233D01*
X248Y-3228D01*
X237D01*
X232Y-3233D01*
X285Y-3228D02*
X264D01*
Y-3244D01*
X275Y-3239D01*
X280D01*
X285Y-3244D01*
Y-3255D01*
X280Y-3260D01*
X269D01*
X264Y-3255D01*
X296Y-3265D02*
X317D01*
X328Y-3260D02*
X339D01*
X333D01*
Y-3228D01*
X328Y-3233D01*
X2683Y-3206D02*
X2651D01*
Y-3190D01*
X2657Y-3185D01*
X2667D01*
X2673Y-3190D01*
Y-3206D01*
Y-3195D02*
X2683Y-3185D01*
Y-3153D02*
Y-3174D01*
X2662Y-3153D01*
X2657D01*
X2651Y-3158D01*
Y-3169D01*
X2657Y-3174D01*
X2683Y-3126D02*
X2651D01*
X2667Y-3142D01*
Y-3121D01*
X2689Y-3110D02*
Y-3089D01*
X2683Y-3057D02*
Y-3078D01*
X2662Y-3057D01*
X2657D01*
X2651Y-3062D01*
Y-3073D01*
X2657Y-3078D01*
X620Y-3209D02*
X588D01*
Y-3193D01*
X593Y-3188D01*
X604D01*
X609Y-3193D01*
Y-3209D01*
Y-3199D02*
X620Y-3188D01*
Y-3156D02*
Y-3177D01*
X599Y-3156D01*
X593D01*
X588Y-3161D01*
Y-3172D01*
X593Y-3177D01*
X620Y-3129D02*
X588D01*
X604Y-3145D01*
Y-3124D01*
X625Y-3113D02*
Y-3092D01*
X620Y-3081D02*
Y-3071D01*
Y-3076D01*
X588D01*
X593Y-3081D01*
X2413Y-3206D02*
X2381D01*
Y-3190D01*
X2387Y-3185D01*
X2397D01*
X2403Y-3190D01*
Y-3206D01*
Y-3195D02*
X2413Y-3185D01*
Y-3153D02*
Y-3174D01*
X2392Y-3153D01*
X2387D01*
X2381Y-3158D01*
Y-3169D01*
X2387Y-3174D01*
Y-3142D02*
X2381Y-3137D01*
Y-3126D01*
X2387Y-3121D01*
X2392D01*
X2397Y-3126D01*
Y-3131D01*
Y-3126D01*
X2403Y-3121D01*
X2408D01*
X2413Y-3126D01*
Y-3137D01*
X2408Y-3142D01*
X2419Y-3110D02*
Y-3089D01*
X2413Y-3057D02*
Y-3078D01*
X2392Y-3057D01*
X2387D01*
X2381Y-3062D01*
Y-3073D01*
X2387Y-3078D01*
X350Y-3209D02*
X318D01*
Y-3193D01*
X323Y-3188D01*
X334D01*
X339Y-3193D01*
Y-3209D01*
Y-3199D02*
X350Y-3188D01*
Y-3156D02*
Y-3177D01*
X329Y-3156D01*
X323D01*
X318Y-3161D01*
Y-3172D01*
X323Y-3177D01*
Y-3145D02*
X318Y-3140D01*
Y-3129D01*
X323Y-3124D01*
X329D01*
X334Y-3129D01*
Y-3135D01*
Y-3129D01*
X339Y-3124D01*
X345D01*
X350Y-3129D01*
Y-3140D01*
X345Y-3145D01*
X355Y-3113D02*
Y-3092D01*
X350Y-3081D02*
Y-3071D01*
Y-3076D01*
X318D01*
X323Y-3081D01*
X2173Y-3307D02*
Y-3275D01*
X2189D01*
X2195Y-3280D01*
Y-3291D01*
X2189Y-3296D01*
X2173D01*
X2184D02*
X2195Y-3307D01*
X2227D02*
X2205D01*
X2227Y-3285D01*
Y-3280D01*
X2221Y-3275D01*
X2211D01*
X2205Y-3280D01*
X2258Y-3307D02*
X2237D01*
X2258Y-3285D01*
Y-3280D01*
X2253Y-3275D01*
X2243D01*
X2237Y-3280D01*
X2269Y-3312D02*
X2290D01*
X2322Y-3307D02*
X2301D01*
X2322Y-3285D01*
Y-3280D01*
X2317Y-3275D01*
X2306D01*
X2301Y-3280D01*
X80Y-3209D02*
X48D01*
Y-3193D01*
X53Y-3188D01*
X64D01*
X69Y-3193D01*
Y-3209D01*
Y-3199D02*
X80Y-3188D01*
Y-3156D02*
Y-3177D01*
X59Y-3156D01*
X53D01*
X48Y-3161D01*
Y-3172D01*
X53Y-3177D01*
X80Y-3124D02*
Y-3145D01*
X59Y-3124D01*
X53D01*
X48Y-3129D01*
Y-3140D01*
X53Y-3145D01*
X85Y-3113D02*
Y-3092D01*
X80Y-3081D02*
Y-3071D01*
Y-3076D01*
X48D01*
X53Y-3081D01*
X1900Y-3030D02*
X1868D01*
Y-3014D01*
X1873Y-3009D01*
X1884D01*
X1889Y-3014D01*
Y-3030D01*
Y-3019D02*
X1900Y-3009D01*
Y-2977D02*
Y-2998D01*
X1879Y-2977D01*
X1873D01*
X1868Y-2982D01*
Y-2993D01*
X1873Y-2998D01*
X1900Y-2966D02*
Y-2955D01*
Y-2961D01*
X1868D01*
X1873Y-2966D01*
X1905Y-2939D02*
Y-2918D01*
X1900Y-2886D02*
Y-2907D01*
X1879Y-2886D01*
X1873D01*
X1868Y-2891D01*
Y-2902D01*
X1873Y-2907D01*
X409Y-2550D02*
Y-2518D01*
X425D01*
X431Y-2523D01*
Y-2534D01*
X425Y-2539D01*
X409D01*
X420D02*
X431Y-2550D01*
X463D02*
X441D01*
X463Y-2529D01*
Y-2523D01*
X457Y-2518D01*
X447D01*
X441Y-2523D01*
X473Y-2550D02*
X484D01*
X479D01*
Y-2518D01*
X473Y-2523D01*
X500Y-2555D02*
X521D01*
X532Y-2550D02*
X543D01*
X537D01*
Y-2518D01*
X532Y-2523D01*
X1960Y-3470D02*
Y-3438D01*
X1976D01*
X1981Y-3443D01*
Y-3454D01*
X1976Y-3459D01*
X1960D01*
X1971D02*
X1981Y-3470D01*
X2013D02*
X1992D01*
X2013Y-3449D01*
Y-3443D01*
X2008Y-3438D01*
X1997D01*
X1992Y-3443D01*
X2024D02*
X2029Y-3438D01*
X2040D01*
X2045Y-3443D01*
Y-3465D01*
X2040Y-3470D01*
X2029D01*
X2024Y-3465D01*
Y-3443D01*
X2056Y-3475D02*
X2077D01*
X2109Y-3470D02*
X2088D01*
X2109Y-3449D01*
Y-3443D01*
X2104Y-3438D01*
X2093D01*
X2088Y-3443D01*
X120Y-2550D02*
Y-2518D01*
X136D01*
X141Y-2523D01*
Y-2534D01*
X136Y-2539D01*
X120D01*
X131D02*
X141Y-2550D01*
X173D02*
X152D01*
X173Y-2529D01*
Y-2523D01*
X168Y-2518D01*
X157D01*
X152Y-2523D01*
X184D02*
X189Y-2518D01*
X200D01*
X205Y-2523D01*
Y-2545D01*
X200Y-2550D01*
X189D01*
X184Y-2545D01*
Y-2523D01*
X216Y-2555D02*
X237D01*
X248Y-2550D02*
X259D01*
X253D01*
Y-2518D01*
X248Y-2523D01*
X2950Y-2830D02*
Y-2798D01*
X2966D01*
X2971Y-2803D01*
Y-2814D01*
X2966Y-2819D01*
X2950D01*
X2961D02*
X2971Y-2830D01*
X2982D02*
X2993D01*
X2987D01*
Y-2798D01*
X2982Y-2803D01*
X3009Y-2825D02*
X3014Y-2830D01*
X3025D01*
X3030Y-2825D01*
Y-2803D01*
X3025Y-2798D01*
X3014D01*
X3009Y-2803D01*
Y-2809D01*
X3014Y-2814D01*
X3030D01*
X3041Y-2835D02*
X3062D01*
X3094Y-2830D02*
X3073D01*
X3094Y-2809D01*
Y-2803D01*
X3089Y-2798D01*
X3078D01*
X3073Y-2803D01*
X950Y-2830D02*
Y-2798D01*
X966D01*
X971Y-2803D01*
Y-2814D01*
X966Y-2819D01*
X950D01*
X961D02*
X971Y-2830D01*
X982D02*
X993D01*
X987D01*
Y-2798D01*
X982Y-2803D01*
X1009Y-2825D02*
X1014Y-2830D01*
X1025D01*
X1030Y-2825D01*
Y-2803D01*
X1025Y-2798D01*
X1014D01*
X1009Y-2803D01*
Y-2809D01*
X1014Y-2814D01*
X1030D01*
X1041Y-2835D02*
X1062D01*
X1073Y-2830D02*
X1083D01*
X1078D01*
Y-2798D01*
X1073Y-2803D01*
X3260Y-2830D02*
Y-2798D01*
X3276D01*
X3281Y-2803D01*
Y-2814D01*
X3276Y-2819D01*
X3260D01*
X3271D02*
X3281Y-2830D01*
X3292D02*
X3303D01*
X3297D01*
Y-2798D01*
X3292Y-2803D01*
X3319D02*
X3324Y-2798D01*
X3335D01*
X3340Y-2803D01*
Y-2809D01*
X3335Y-2814D01*
X3340Y-2819D01*
Y-2825D01*
X3335Y-2830D01*
X3324D01*
X3319Y-2825D01*
Y-2819D01*
X3324Y-2814D01*
X3319Y-2809D01*
Y-2803D01*
X3324Y-2814D02*
X3335D01*
X3351Y-2835D02*
X3372D01*
X3404Y-2830D02*
X3383D01*
X3404Y-2809D01*
Y-2803D01*
X3399Y-2798D01*
X3388D01*
X3383Y-2803D01*
X1260Y-2830D02*
Y-2798D01*
X1276D01*
X1281Y-2803D01*
Y-2814D01*
X1276Y-2819D01*
X1260D01*
X1271D02*
X1281Y-2830D01*
X1292D02*
X1303D01*
X1297D01*
Y-2798D01*
X1292Y-2803D01*
X1319D02*
X1324Y-2798D01*
X1335D01*
X1340Y-2803D01*
Y-2809D01*
X1335Y-2814D01*
X1340Y-2819D01*
Y-2825D01*
X1335Y-2830D01*
X1324D01*
X1319Y-2825D01*
Y-2819D01*
X1324Y-2814D01*
X1319Y-2809D01*
Y-2803D01*
X1324Y-2814D02*
X1335D01*
X1351Y-2835D02*
X1372D01*
X1383Y-2830D02*
X1393D01*
X1388D01*
Y-2798D01*
X1383Y-2803D01*
X3580Y-2820D02*
Y-2788D01*
X3596D01*
X3601Y-2793D01*
Y-2804D01*
X3596Y-2809D01*
X3580D01*
X3591D02*
X3601Y-2820D01*
X3612D02*
X3623D01*
X3617D01*
Y-2788D01*
X3612Y-2793D01*
X3639Y-2788D02*
X3660D01*
Y-2793D01*
X3639Y-2815D01*
Y-2820D01*
X3671Y-2825D02*
X3692D01*
X3724Y-2820D02*
X3703D01*
X3724Y-2799D01*
Y-2793D01*
X3719Y-2788D01*
X3708D01*
X3703Y-2793D01*
X1580Y-2820D02*
Y-2788D01*
X1596D01*
X1601Y-2793D01*
Y-2804D01*
X1596Y-2809D01*
X1580D01*
X1591D02*
X1601Y-2820D01*
X1612D02*
X1623D01*
X1617D01*
Y-2788D01*
X1612Y-2793D01*
X1639Y-2788D02*
X1660D01*
Y-2793D01*
X1639Y-2815D01*
Y-2820D01*
X1671Y-2825D02*
X1692D01*
X1703Y-2820D02*
X1713D01*
X1708D01*
Y-2788D01*
X1703Y-2793D01*
X3720Y-3760D02*
Y-3728D01*
X3736D01*
X3741Y-3733D01*
Y-3744D01*
X3736Y-3749D01*
X3720D01*
X3731D02*
X3741Y-3760D01*
X3752D02*
X3763D01*
X3757D01*
Y-3728D01*
X3752Y-3733D01*
X3800Y-3728D02*
X3789Y-3733D01*
X3779Y-3744D01*
Y-3755D01*
X3784Y-3760D01*
X3795D01*
X3800Y-3755D01*
Y-3749D01*
X3795Y-3744D01*
X3779D01*
X3811Y-3765D02*
X3832D01*
X3864Y-3760D02*
X3843D01*
X3864Y-3739D01*
Y-3733D01*
X3859Y-3728D01*
X3848D01*
X3843Y-3733D01*
X1720Y-3760D02*
Y-3728D01*
X1736D01*
X1741Y-3733D01*
Y-3744D01*
X1736Y-3749D01*
X1720D01*
X1731D02*
X1741Y-3760D01*
X1752D02*
X1763D01*
X1757D01*
Y-3728D01*
X1752Y-3733D01*
X1800Y-3728D02*
X1789Y-3733D01*
X1779Y-3744D01*
Y-3755D01*
X1784Y-3760D01*
X1795D01*
X1800Y-3755D01*
Y-3749D01*
X1795Y-3744D01*
X1779D01*
X1811Y-3765D02*
X1832D01*
X1843Y-3760D02*
X1853D01*
X1848D01*
Y-3728D01*
X1843Y-3733D01*
X3810Y-3540D02*
X3778D01*
Y-3524D01*
X3783Y-3519D01*
X3794D01*
X3799Y-3524D01*
Y-3540D01*
Y-3529D02*
X3810Y-3519D01*
Y-3508D02*
Y-3497D01*
Y-3503D01*
X3778D01*
X3783Y-3508D01*
X3778Y-3460D02*
Y-3481D01*
X3794D01*
X3789Y-3471D01*
Y-3465D01*
X3794Y-3460D01*
X3805D01*
X3810Y-3465D01*
Y-3476D01*
X3805Y-3481D01*
X3815Y-3449D02*
Y-3428D01*
X3810Y-3396D02*
Y-3417D01*
X3789Y-3396D01*
X3783D01*
X3778Y-3401D01*
Y-3412D01*
X3783Y-3417D01*
X1810Y-3540D02*
X1778D01*
Y-3524D01*
X1783Y-3519D01*
X1794D01*
X1799Y-3524D01*
Y-3540D01*
Y-3529D02*
X1810Y-3519D01*
Y-3508D02*
Y-3497D01*
Y-3503D01*
X1778D01*
X1783Y-3508D01*
X1778Y-3460D02*
Y-3481D01*
X1794D01*
X1789Y-3471D01*
Y-3465D01*
X1794Y-3460D01*
X1805D01*
X1810Y-3465D01*
Y-3476D01*
X1805Y-3481D01*
X1815Y-3449D02*
Y-3428D01*
X1810Y-3417D02*
Y-3407D01*
Y-3412D01*
X1778D01*
X1783Y-3417D01*
X3170Y-2920D02*
X3138D01*
Y-2904D01*
X3143Y-2899D01*
X3154D01*
X3159Y-2904D01*
Y-2920D01*
Y-2909D02*
X3170Y-2899D01*
Y-2888D02*
Y-2877D01*
Y-2883D01*
X3138D01*
X3143Y-2888D01*
X3170Y-2845D02*
X3138D01*
X3154Y-2861D01*
Y-2840D01*
X3175Y-2829D02*
Y-2808D01*
X3170Y-2776D02*
Y-2797D01*
X3149Y-2776D01*
X3143D01*
X3138Y-2781D01*
Y-2792D01*
X3143Y-2797D01*
X1170Y-2920D02*
X1138D01*
Y-2904D01*
X1143Y-2899D01*
X1154D01*
X1159Y-2904D01*
Y-2920D01*
Y-2909D02*
X1170Y-2899D01*
Y-2888D02*
Y-2877D01*
Y-2883D01*
X1138D01*
X1143Y-2888D01*
X1170Y-2845D02*
X1138D01*
X1154Y-2861D01*
Y-2840D01*
X1175Y-2829D02*
Y-2808D01*
X1170Y-2797D02*
Y-2787D01*
Y-2792D01*
X1138D01*
X1143Y-2797D01*
X3200Y-3330D02*
X3168D01*
Y-3314D01*
X3173Y-3309D01*
X3184D01*
X3189Y-3314D01*
Y-3330D01*
Y-3319D02*
X3200Y-3309D01*
Y-3298D02*
Y-3287D01*
Y-3293D01*
X3168D01*
X3173Y-3298D01*
Y-3271D02*
X3168Y-3266D01*
Y-3255D01*
X3173Y-3250D01*
X3179D01*
X3184Y-3255D01*
Y-3261D01*
Y-3255D01*
X3189Y-3250D01*
X3195D01*
X3200Y-3255D01*
Y-3266D01*
X3195Y-3271D01*
X3205Y-3239D02*
Y-3218D01*
X3200Y-3186D02*
Y-3207D01*
X3179Y-3186D01*
X3173D01*
X3168Y-3191D01*
Y-3202D01*
X3173Y-3207D01*
X1200Y-3330D02*
X1168D01*
Y-3314D01*
X1173Y-3309D01*
X1184D01*
X1189Y-3314D01*
Y-3330D01*
Y-3319D02*
X1200Y-3309D01*
Y-3298D02*
Y-3287D01*
Y-3293D01*
X1168D01*
X1173Y-3298D01*
Y-3271D02*
X1168Y-3266D01*
Y-3255D01*
X1173Y-3250D01*
X1179D01*
X1184Y-3255D01*
Y-3261D01*
Y-3255D01*
X1189Y-3250D01*
X1195D01*
X1200Y-3255D01*
Y-3266D01*
X1195Y-3271D01*
X1205Y-3239D02*
Y-3218D01*
X1200Y-3207D02*
Y-3197D01*
Y-3202D01*
X1168D01*
X1173Y-3207D01*
X3480Y-2920D02*
X3448D01*
Y-2904D01*
X3453Y-2899D01*
X3464D01*
X3469Y-2904D01*
Y-2920D01*
Y-2909D02*
X3480Y-2899D01*
Y-2888D02*
Y-2877D01*
Y-2883D01*
X3448D01*
X3453Y-2888D01*
X3480Y-2840D02*
Y-2861D01*
X3459Y-2840D01*
X3453D01*
X3448Y-2845D01*
Y-2856D01*
X3453Y-2861D01*
X3485Y-2829D02*
Y-2808D01*
X3480Y-2776D02*
Y-2797D01*
X3459Y-2776D01*
X3453D01*
X3448Y-2781D01*
Y-2792D01*
X3453Y-2797D01*
X1480Y-2920D02*
X1448D01*
Y-2904D01*
X1453Y-2899D01*
X1464D01*
X1469Y-2904D01*
Y-2920D01*
Y-2909D02*
X1480Y-2899D01*
Y-2888D02*
Y-2877D01*
Y-2883D01*
X1448D01*
X1453Y-2888D01*
X1480Y-2840D02*
Y-2861D01*
X1459Y-2840D01*
X1453D01*
X1448Y-2845D01*
Y-2856D01*
X1453Y-2861D01*
X1485Y-2829D02*
Y-2808D01*
X1480Y-2797D02*
Y-2787D01*
Y-2792D01*
X1448D01*
X1453Y-2797D01*
X3510Y-3320D02*
X3478D01*
Y-3304D01*
X3483Y-3299D01*
X3494D01*
X3499Y-3304D01*
Y-3320D01*
Y-3309D02*
X3510Y-3299D01*
Y-3288D02*
Y-3277D01*
Y-3283D01*
X3478D01*
X3483Y-3288D01*
X3510Y-3261D02*
Y-3251D01*
Y-3256D01*
X3478D01*
X3483Y-3261D01*
X3515Y-3235D02*
Y-3213D01*
X3510Y-3181D02*
Y-3203D01*
X3489Y-3181D01*
X3483D01*
X3478Y-3187D01*
Y-3197D01*
X3483Y-3203D01*
X1510Y-3320D02*
X1478D01*
Y-3304D01*
X1483Y-3299D01*
X1494D01*
X1499Y-3304D01*
Y-3320D01*
Y-3309D02*
X1510Y-3299D01*
Y-3288D02*
Y-3277D01*
Y-3283D01*
X1478D01*
X1483Y-3288D01*
X1510Y-3261D02*
Y-3251D01*
Y-3256D01*
X1478D01*
X1483Y-3261D01*
X1515Y-3235D02*
Y-3213D01*
X1510Y-3203D02*
Y-3192D01*
Y-3197D01*
X1478D01*
X1483Y-3203D01*
X3790Y-2920D02*
X3758D01*
Y-2904D01*
X3763Y-2899D01*
X3774D01*
X3779Y-2904D01*
Y-2920D01*
Y-2909D02*
X3790Y-2899D01*
Y-2888D02*
Y-2877D01*
Y-2883D01*
X3758D01*
X3763Y-2888D01*
Y-2861D02*
X3758Y-2856D01*
Y-2845D01*
X3763Y-2840D01*
X3785D01*
X3790Y-2845D01*
Y-2856D01*
X3785Y-2861D01*
X3763D01*
X3795Y-2829D02*
Y-2808D01*
X3790Y-2776D02*
Y-2797D01*
X3769Y-2776D01*
X3763D01*
X3758Y-2781D01*
Y-2792D01*
X3763Y-2797D01*
X1790Y-2920D02*
X1758D01*
Y-2904D01*
X1763Y-2899D01*
X1774D01*
X1779Y-2904D01*
Y-2920D01*
Y-2909D02*
X1790Y-2899D01*
Y-2888D02*
Y-2877D01*
Y-2883D01*
X1758D01*
X1763Y-2888D01*
Y-2861D02*
X1758Y-2856D01*
Y-2845D01*
X1763Y-2840D01*
X1785D01*
X1790Y-2845D01*
Y-2856D01*
X1785Y-2861D01*
X1763D01*
X1795Y-2829D02*
Y-2808D01*
X1790Y-2797D02*
Y-2787D01*
Y-2792D01*
X1758D01*
X1763Y-2797D01*
X3880Y-3210D02*
X3848D01*
Y-3194D01*
X3853Y-3189D01*
X3864D01*
X3869Y-3194D01*
Y-3210D01*
Y-3199D02*
X3880Y-3189D01*
X3875Y-3178D02*
X3880Y-3173D01*
Y-3162D01*
X3875Y-3157D01*
X3853D01*
X3848Y-3162D01*
Y-3173D01*
X3853Y-3178D01*
X3859D01*
X3864Y-3173D01*
Y-3157D01*
X3885Y-3146D02*
Y-3125D01*
X3880Y-3093D02*
Y-3114D01*
X3859Y-3093D01*
X3853D01*
X3848Y-3098D01*
Y-3109D01*
X3853Y-3114D01*
X1860Y-3300D02*
X1828D01*
Y-3284D01*
X1833Y-3279D01*
X1844D01*
X1849Y-3284D01*
Y-3300D01*
Y-3289D02*
X1860Y-3279D01*
X1855Y-3268D02*
X1860Y-3263D01*
Y-3252D01*
X1855Y-3247D01*
X1833D01*
X1828Y-3252D01*
Y-3263D01*
X1833Y-3268D01*
X1839D01*
X1844Y-3263D01*
Y-3247D01*
X1865Y-3236D02*
Y-3215D01*
X1860Y-3204D02*
Y-3193D01*
Y-3199D01*
X1828D01*
X1833Y-3204D01*
X1120Y-930D02*
Y-898D01*
X1136D01*
X1141Y-903D01*
Y-914D01*
X1136Y-919D01*
X1120D01*
X1131D02*
X1141Y-930D01*
X1152Y-903D02*
X1157Y-898D01*
X1168D01*
X1173Y-903D01*
Y-909D01*
X1168Y-914D01*
X1173Y-919D01*
Y-925D01*
X1168Y-930D01*
X1157D01*
X1152Y-925D01*
Y-919D01*
X1157Y-914D01*
X1152Y-909D01*
Y-903D01*
X1157Y-914D02*
X1168D01*
X230Y-1990D02*
Y-1958D01*
X246D01*
X251Y-1963D01*
Y-1974D01*
X246Y-1979D01*
X230D01*
X241D02*
X251Y-1990D01*
X262Y-1958D02*
X283D01*
Y-1963D01*
X262Y-1985D01*
Y-1990D01*
X480Y-1750D02*
Y-1718D01*
X496D01*
X501Y-1723D01*
Y-1734D01*
X496Y-1739D01*
X480D01*
X491D02*
X501Y-1750D01*
X533Y-1718D02*
X523Y-1723D01*
X512Y-1734D01*
Y-1745D01*
X517Y-1750D01*
X528D01*
X533Y-1745D01*
Y-1739D01*
X528Y-1734D01*
X512D01*
X700Y-300D02*
X668D01*
Y-284D01*
X673Y-279D01*
X684D01*
X689Y-284D01*
Y-300D01*
Y-289D02*
X700Y-279D01*
X668Y-247D02*
Y-268D01*
X684D01*
X679Y-257D01*
Y-252D01*
X684Y-247D01*
X695D01*
X700Y-252D01*
Y-263D01*
X695Y-268D01*
X700Y-180D02*
X668D01*
Y-164D01*
X673Y-159D01*
X684D01*
X689Y-164D01*
Y-180D01*
Y-169D02*
X700Y-159D01*
Y-132D02*
X668D01*
X684Y-148D01*
Y-127D01*
X410Y-1750D02*
Y-1718D01*
X426D01*
X431Y-1723D01*
Y-1734D01*
X426Y-1739D01*
X410D01*
X421D02*
X431Y-1750D01*
X442Y-1723D02*
X447Y-1718D01*
X458D01*
X463Y-1723D01*
Y-1729D01*
X458Y-1734D01*
X453D01*
X458D01*
X463Y-1739D01*
Y-1745D01*
X458Y-1750D01*
X447D01*
X442Y-1745D01*
X3710Y-1480D02*
Y-1448D01*
X3726D01*
X3731Y-1453D01*
Y-1464D01*
X3726Y-1469D01*
X3710D01*
X3721D02*
X3731Y-1480D01*
X3763D02*
X3742D01*
X3763Y-1459D01*
Y-1453D01*
X3758Y-1448D01*
X3747D01*
X3742Y-1453D01*
X3250Y-640D02*
Y-608D01*
X3266D01*
X3271Y-613D01*
Y-624D01*
X3266Y-629D01*
X3250D01*
X3261D02*
X3271Y-640D01*
X3282D02*
X3293D01*
X3287D01*
Y-608D01*
X3282Y-613D01*
X1251Y-1655D02*
Y-1633D01*
X1246Y-1628D01*
X1235D01*
X1230Y-1633D01*
Y-1655D01*
X1235Y-1660D01*
X1246D01*
X1241Y-1649D02*
X1251Y-1660D01*
X1246D02*
X1251Y-1655D01*
X1262Y-1660D02*
X1273D01*
X1267D01*
Y-1628D01*
X1262Y-1633D01*
X1310Y-1628D02*
X1289D01*
Y-1644D01*
X1299Y-1639D01*
X1305D01*
X1310Y-1644D01*
Y-1655D01*
X1305Y-1660D01*
X1294D01*
X1289Y-1655D01*
X121Y-205D02*
Y-183D01*
X116Y-178D01*
X105D01*
X100Y-183D01*
Y-205D01*
X105Y-210D01*
X116D01*
X111Y-199D02*
X121Y-210D01*
X116D02*
X121Y-205D01*
X132Y-210D02*
X143D01*
X137D01*
Y-178D01*
X132Y-183D01*
X175Y-210D02*
Y-178D01*
X159Y-194D01*
X180D01*
X341Y-395D02*
Y-373D01*
X336Y-368D01*
X325D01*
X320Y-373D01*
Y-395D01*
X325Y-400D01*
X336D01*
X331Y-389D02*
X341Y-400D01*
X336D02*
X341Y-395D01*
X352Y-400D02*
X363D01*
X357D01*
Y-368D01*
X352Y-373D01*
X379D02*
X384Y-368D01*
X395D01*
X400Y-373D01*
Y-379D01*
X395Y-384D01*
X389D01*
X395D01*
X400Y-389D01*
Y-395D01*
X395Y-400D01*
X384D01*
X379Y-395D01*
X2861Y-525D02*
Y-503D01*
X2856Y-498D01*
X2845D01*
X2840Y-503D01*
Y-525D01*
X2845Y-530D01*
X2856D01*
X2851Y-519D02*
X2861Y-530D01*
X2856D02*
X2861Y-525D01*
X2872Y-530D02*
X2883D01*
X2877D01*
Y-498D01*
X2872Y-503D01*
X2920Y-530D02*
X2899D01*
X2920Y-509D01*
Y-503D01*
X2915Y-498D01*
X2904D01*
X2899Y-503D01*
X2931Y-535D02*
X2952D01*
X2979Y-530D02*
Y-498D01*
X2963Y-514D01*
X2984D01*
X2161Y-525D02*
Y-503D01*
X2156Y-498D01*
X2145D01*
X2140Y-503D01*
Y-525D01*
X2145Y-530D01*
X2156D01*
X2151Y-519D02*
X2161Y-530D01*
X2156D02*
X2161Y-525D01*
X2172Y-530D02*
X2183D01*
X2177D01*
Y-498D01*
X2172Y-503D01*
X2220Y-530D02*
X2199D01*
X2220Y-509D01*
Y-503D01*
X2215Y-498D01*
X2204D01*
X2199Y-503D01*
X2231Y-535D02*
X2252D01*
X2263Y-503D02*
X2268Y-498D01*
X2279D01*
X2284Y-503D01*
Y-509D01*
X2279Y-514D01*
X2273D01*
X2279D01*
X2284Y-519D01*
Y-525D01*
X2279Y-530D01*
X2268D01*
X2263Y-525D01*
X1461D02*
Y-503D01*
X1456Y-498D01*
X1445D01*
X1440Y-503D01*
Y-525D01*
X1445Y-530D01*
X1456D01*
X1451Y-519D02*
X1461Y-530D01*
X1456D02*
X1461Y-525D01*
X1472Y-530D02*
X1483D01*
X1477D01*
Y-498D01*
X1472Y-503D01*
X1520Y-530D02*
X1499D01*
X1520Y-509D01*
Y-503D01*
X1515Y-498D01*
X1504D01*
X1499Y-503D01*
X1531Y-535D02*
X1552D01*
X1584Y-530D02*
X1563D01*
X1584Y-509D01*
Y-503D01*
X1579Y-498D01*
X1568D01*
X1563Y-503D01*
X745Y-459D02*
X723D01*
X718Y-464D01*
Y-475D01*
X723Y-480D01*
X745D01*
X750Y-475D01*
Y-464D01*
X739Y-469D02*
X750Y-459D01*
Y-464D02*
X745Y-459D01*
X750Y-448D02*
Y-437D01*
Y-443D01*
X718D01*
X723Y-448D01*
X750Y-400D02*
Y-421D01*
X729Y-400D01*
X723D01*
X718Y-405D01*
Y-416D01*
X723Y-421D01*
X755Y-389D02*
Y-368D01*
X750Y-357D02*
Y-347D01*
Y-352D01*
X718D01*
X723Y-357D01*
X711Y-2475D02*
Y-2453D01*
X706Y-2448D01*
X695D01*
X690Y-2453D01*
Y-2475D01*
X695Y-2480D01*
X706D01*
X701Y-2469D02*
X711Y-2480D01*
X706D02*
X711Y-2475D01*
X722Y-2480D02*
X733D01*
X727D01*
Y-2448D01*
X722Y-2453D01*
X749Y-2480D02*
X759D01*
X754D01*
Y-2448D01*
X749Y-2453D01*
X701Y-2115D02*
Y-2093D01*
X696Y-2088D01*
X685D01*
X680Y-2093D01*
Y-2115D01*
X685Y-2120D01*
X696D01*
X691Y-2109D02*
X701Y-2120D01*
X696D02*
X701Y-2115D01*
X712Y-2120D02*
X723D01*
X717D01*
Y-2088D01*
X712Y-2093D01*
X739D02*
X744Y-2088D01*
X755D01*
X760Y-2093D01*
Y-2115D01*
X755Y-2120D01*
X744D01*
X739Y-2115D01*
Y-2093D01*
X2898Y-2995D02*
X2877D01*
X2871Y-3001D01*
Y-3011D01*
X2877Y-3017D01*
X2898D01*
X2903Y-3011D01*
Y-3001D01*
X2893Y-3006D02*
X2903Y-2995D01*
Y-3001D02*
X2898Y-2995D01*
Y-2985D02*
X2903Y-2979D01*
Y-2969D01*
X2898Y-2963D01*
X2877D01*
X2871Y-2969D01*
Y-2979D01*
X2877Y-2985D01*
X2882D01*
X2887Y-2979D01*
Y-2963D01*
X2909Y-2953D02*
Y-2931D01*
X2903Y-2899D02*
Y-2921D01*
X2882Y-2899D01*
X2877D01*
X2871Y-2905D01*
Y-2915D01*
X2877Y-2921D01*
X835Y-2999D02*
X813D01*
X808Y-3004D01*
Y-3015D01*
X813Y-3020D01*
X835D01*
X840Y-3015D01*
Y-3004D01*
X829Y-3009D02*
X840Y-2999D01*
Y-3004D02*
X835Y-2999D01*
Y-2988D02*
X840Y-2983D01*
Y-2972D01*
X835Y-2967D01*
X813D01*
X808Y-2972D01*
Y-2983D01*
X813Y-2988D01*
X819D01*
X824Y-2983D01*
Y-2967D01*
X845Y-2956D02*
Y-2935D01*
X840Y-2924D02*
Y-2913D01*
Y-2919D01*
X808D01*
X813Y-2924D01*
X2628Y-2995D02*
X2607D01*
X2601Y-3001D01*
Y-3011D01*
X2607Y-3017D01*
X2628D01*
X2633Y-3011D01*
Y-3001D01*
X2623Y-3006D02*
X2633Y-2995D01*
Y-3001D02*
X2628Y-2995D01*
X2607Y-2985D02*
X2601Y-2979D01*
Y-2969D01*
X2607Y-2963D01*
X2612D01*
X2617Y-2969D01*
X2623Y-2963D01*
X2628D01*
X2633Y-2969D01*
Y-2979D01*
X2628Y-2985D01*
X2623D01*
X2617Y-2979D01*
X2612Y-2985D01*
X2607D01*
X2617Y-2979D02*
Y-2969D01*
X2639Y-2953D02*
Y-2931D01*
X2633Y-2899D02*
Y-2921D01*
X2612Y-2899D01*
X2607D01*
X2601Y-2905D01*
Y-2915D01*
X2607Y-2921D01*
X565Y-2999D02*
X543D01*
X538Y-3004D01*
Y-3015D01*
X543Y-3020D01*
X565D01*
X570Y-3015D01*
Y-3004D01*
X559Y-3009D02*
X570Y-2999D01*
Y-3004D02*
X565Y-2999D01*
X543Y-2988D02*
X538Y-2983D01*
Y-2972D01*
X543Y-2967D01*
X549D01*
X554Y-2972D01*
X559Y-2967D01*
X565D01*
X570Y-2972D01*
Y-2983D01*
X565Y-2988D01*
X559D01*
X554Y-2983D01*
X549Y-2988D01*
X543D01*
X554Y-2983D02*
Y-2972D01*
X575Y-2956D02*
Y-2935D01*
X570Y-2924D02*
Y-2913D01*
Y-2919D01*
X538D01*
X543Y-2924D01*
X2358Y-2995D02*
X2337D01*
X2331Y-3001D01*
Y-3011D01*
X2337Y-3017D01*
X2358D01*
X2363Y-3011D01*
Y-3001D01*
X2353Y-3006D02*
X2363Y-2995D01*
Y-3001D02*
X2358Y-2995D01*
X2331Y-2985D02*
Y-2963D01*
X2337D01*
X2358Y-2985D01*
X2363D01*
X2369Y-2953D02*
Y-2931D01*
X2363Y-2899D02*
Y-2921D01*
X2342Y-2899D01*
X2337D01*
X2331Y-2905D01*
Y-2915D01*
X2337Y-2921D01*
X295Y-2999D02*
X273D01*
X268Y-3004D01*
Y-3015D01*
X273Y-3020D01*
X295D01*
X300Y-3015D01*
Y-3004D01*
X289Y-3009D02*
X300Y-2999D01*
Y-3004D02*
X295Y-2999D01*
X268Y-2988D02*
Y-2967D01*
X273D01*
X295Y-2988D01*
X300D01*
X305Y-2956D02*
Y-2935D01*
X300Y-2924D02*
Y-2913D01*
Y-2919D01*
X268D01*
X273Y-2924D01*
X2915Y-2869D02*
X2893D01*
X2888Y-2874D01*
Y-2885D01*
X2893Y-2890D01*
X2915D01*
X2920Y-2885D01*
Y-2874D01*
X2909Y-2879D02*
X2920Y-2869D01*
Y-2874D02*
X2915Y-2869D01*
X2888Y-2837D02*
X2893Y-2847D01*
X2904Y-2858D01*
X2915D01*
X2920Y-2853D01*
Y-2842D01*
X2915Y-2837D01*
X2909D01*
X2904Y-2842D01*
Y-2858D01*
X2925Y-2826D02*
Y-2805D01*
X2920Y-2773D02*
Y-2794D01*
X2899Y-2773D01*
X2893D01*
X2888Y-2778D01*
Y-2789D01*
X2893Y-2794D01*
X915Y-2869D02*
X893D01*
X888Y-2874D01*
Y-2885D01*
X893Y-2890D01*
X915D01*
X920Y-2885D01*
Y-2874D01*
X909Y-2879D02*
X920Y-2869D01*
Y-2874D02*
X915Y-2869D01*
X888Y-2837D02*
X893Y-2847D01*
X904Y-2858D01*
X915D01*
X920Y-2853D01*
Y-2842D01*
X915Y-2837D01*
X909D01*
X904Y-2842D01*
Y-2858D01*
X925Y-2826D02*
Y-2805D01*
X920Y-2794D02*
Y-2783D01*
Y-2789D01*
X888D01*
X893Y-2794D01*
X3225Y-2869D02*
X3203D01*
X3198Y-2874D01*
Y-2885D01*
X3203Y-2890D01*
X3225D01*
X3230Y-2885D01*
Y-2874D01*
X3219Y-2879D02*
X3230Y-2869D01*
Y-2874D02*
X3225Y-2869D01*
X3198Y-2837D02*
Y-2858D01*
X3214D01*
X3209Y-2847D01*
Y-2842D01*
X3214Y-2837D01*
X3225D01*
X3230Y-2842D01*
Y-2853D01*
X3225Y-2858D01*
X3235Y-2826D02*
Y-2805D01*
X3230Y-2773D02*
Y-2794D01*
X3209Y-2773D01*
X3203D01*
X3198Y-2778D01*
Y-2789D01*
X3203Y-2794D01*
X1225Y-2869D02*
X1203D01*
X1198Y-2874D01*
Y-2885D01*
X1203Y-2890D01*
X1225D01*
X1230Y-2885D01*
Y-2874D01*
X1219Y-2879D02*
X1230Y-2869D01*
Y-2874D02*
X1225Y-2869D01*
X1198Y-2837D02*
Y-2858D01*
X1214D01*
X1209Y-2847D01*
Y-2842D01*
X1214Y-2837D01*
X1225D01*
X1230Y-2842D01*
Y-2853D01*
X1225Y-2858D01*
X1235Y-2826D02*
Y-2805D01*
X1230Y-2794D02*
Y-2783D01*
Y-2789D01*
X1198D01*
X1203Y-2794D01*
X3535Y-2869D02*
X3513D01*
X3508Y-2874D01*
Y-2885D01*
X3513Y-2890D01*
X3535D01*
X3540Y-2885D01*
Y-2874D01*
X3529Y-2879D02*
X3540Y-2869D01*
Y-2874D02*
X3535Y-2869D01*
X3540Y-2842D02*
X3508D01*
X3524Y-2858D01*
Y-2837D01*
X3545Y-2826D02*
Y-2805D01*
X3540Y-2773D02*
Y-2794D01*
X3519Y-2773D01*
X3513D01*
X3508Y-2778D01*
Y-2789D01*
X3513Y-2794D01*
X1535Y-2869D02*
X1513D01*
X1508Y-2874D01*
Y-2885D01*
X1513Y-2890D01*
X1535D01*
X1540Y-2885D01*
Y-2874D01*
X1529Y-2879D02*
X1540Y-2869D01*
Y-2874D02*
X1535Y-2869D01*
X1540Y-2842D02*
X1508D01*
X1524Y-2858D01*
Y-2837D01*
X1545Y-2826D02*
Y-2805D01*
X1540Y-2794D02*
Y-2783D01*
Y-2789D01*
X1508D01*
X1513Y-2794D01*
X3545Y-3699D02*
X3523D01*
X3518Y-3704D01*
Y-3715D01*
X3523Y-3720D01*
X3545D01*
X3550Y-3715D01*
Y-3704D01*
X3539Y-3709D02*
X3550Y-3699D01*
Y-3704D02*
X3545Y-3699D01*
X3523Y-3688D02*
X3518Y-3683D01*
Y-3672D01*
X3523Y-3667D01*
X3529D01*
X3534Y-3672D01*
Y-3677D01*
Y-3672D01*
X3539Y-3667D01*
X3545D01*
X3550Y-3672D01*
Y-3683D01*
X3545Y-3688D01*
X3555Y-3656D02*
Y-3635D01*
X3550Y-3603D02*
Y-3624D01*
X3529Y-3603D01*
X3523D01*
X3518Y-3608D01*
Y-3619D01*
X3523Y-3624D01*
X1545Y-3699D02*
X1523D01*
X1518Y-3704D01*
Y-3715D01*
X1523Y-3720D01*
X1545D01*
X1550Y-3715D01*
Y-3704D01*
X1539Y-3709D02*
X1550Y-3699D01*
Y-3704D02*
X1545Y-3699D01*
X1523Y-3688D02*
X1518Y-3683D01*
Y-3672D01*
X1523Y-3667D01*
X1529D01*
X1534Y-3672D01*
Y-3677D01*
Y-3672D01*
X1539Y-3667D01*
X1545D01*
X1550Y-3672D01*
Y-3683D01*
X1545Y-3688D01*
X1555Y-3656D02*
Y-3635D01*
X1550Y-3624D02*
Y-3613D01*
Y-3619D01*
X1518D01*
X1523Y-3624D01*
X3031Y-955D02*
Y-933D01*
X3026Y-928D01*
X3015D01*
X3010Y-933D01*
Y-955D01*
X3015Y-960D01*
X3026D01*
X3021Y-949D02*
X3031Y-960D01*
X3026D02*
X3031Y-955D01*
X3063Y-960D02*
X3042D01*
X3063Y-939D01*
Y-933D01*
X3058Y-928D01*
X3047D01*
X3042Y-933D01*
X3041Y-1255D02*
Y-1233D01*
X3036Y-1228D01*
X3025D01*
X3020Y-1233D01*
Y-1255D01*
X3025Y-1260D01*
X3036D01*
X3031Y-1249D02*
X3041Y-1260D01*
X3036D02*
X3041Y-1255D01*
X3052Y-1260D02*
X3063D01*
X3057D01*
Y-1228D01*
X3052Y-1233D01*
X960Y-1820D02*
Y-1788D01*
X976D01*
X981Y-1793D01*
Y-1804D01*
X976Y-1809D01*
X960D01*
X992Y-1820D02*
X1003D01*
X997D01*
Y-1788D01*
X992Y-1793D01*
X2910Y-3770D02*
X2878D01*
X2889Y-3759D01*
X2878Y-3749D01*
X2910D01*
Y-3733D02*
Y-3722D01*
X2905Y-3717D01*
X2894D01*
X2889Y-3722D01*
Y-3733D01*
X2894Y-3738D01*
X2905D01*
X2910Y-3733D01*
X2883Y-3701D02*
X2889D01*
Y-3706D01*
Y-3695D01*
Y-3701D01*
X2905D01*
X2910Y-3695D01*
Y-3674D02*
Y-3663D01*
X2905Y-3658D01*
X2894D01*
X2889Y-3663D01*
Y-3674D01*
X2894Y-3679D01*
X2905D01*
X2910Y-3674D01*
X2889Y-3647D02*
X2910D01*
X2899D01*
X2894Y-3642D01*
X2889Y-3637D01*
Y-3631D01*
X2915Y-3615D02*
Y-3594D01*
X2910Y-3562D02*
Y-3583D01*
X2889Y-3562D01*
X2883D01*
X2878Y-3567D01*
Y-3578D01*
X2883Y-3583D01*
X910Y-3770D02*
X878D01*
X889Y-3759D01*
X878Y-3749D01*
X910D01*
Y-3733D02*
Y-3722D01*
X905Y-3717D01*
X894D01*
X889Y-3722D01*
Y-3733D01*
X894Y-3738D01*
X905D01*
X910Y-3733D01*
X883Y-3701D02*
X889D01*
Y-3706D01*
Y-3695D01*
Y-3701D01*
X905D01*
X910Y-3695D01*
Y-3674D02*
Y-3663D01*
X905Y-3658D01*
X894D01*
X889Y-3663D01*
Y-3674D01*
X894Y-3679D01*
X905D01*
X910Y-3674D01*
X889Y-3647D02*
X910D01*
X899D01*
X894Y-3642D01*
X889Y-3637D01*
Y-3631D01*
X915Y-3615D02*
Y-3594D01*
X910Y-3583D02*
Y-3573D01*
Y-3578D01*
X878D01*
X883Y-3583D01*
X1926Y-2037D02*
Y-2069D01*
X1948D01*
X1958D02*
X1969D01*
X1964D01*
Y-2037D01*
X1958Y-2043D01*
X2818Y-3880D02*
X2850D01*
X2834D01*
Y-3859D01*
X2818D01*
X2850D01*
X2829Y-3843D02*
Y-3832D01*
X2834Y-3827D01*
X2850D01*
Y-3843D01*
X2845Y-3848D01*
X2839Y-3843D01*
Y-3827D01*
X2850Y-3816D02*
Y-3805D01*
Y-3811D01*
X2818D01*
Y-3816D01*
X2850Y-3789D02*
Y-3779D01*
Y-3784D01*
X2818D01*
Y-3789D01*
Y-3715D02*
Y-3725D01*
X2823Y-3731D01*
X2845D01*
X2850Y-3725D01*
Y-3715D01*
X2845Y-3709D01*
X2823D01*
X2818Y-3715D01*
X2829Y-3699D02*
X2845D01*
X2850Y-3693D01*
Y-3677D01*
X2829D01*
X2823Y-3661D02*
X2829D01*
Y-3667D01*
Y-3656D01*
Y-3661D01*
X2845D01*
X2850Y-3656D01*
X2855Y-3640D02*
Y-3619D01*
X2850Y-3587D02*
Y-3608D01*
X2829Y-3587D01*
X2823D01*
X2818Y-3592D01*
Y-3603D01*
X2823Y-3608D01*
X128Y-3820D02*
X160D01*
X144D01*
Y-3799D01*
X128D01*
X160D01*
X139Y-3783D02*
Y-3772D01*
X144Y-3767D01*
X160D01*
Y-3783D01*
X155Y-3788D01*
X149Y-3783D01*
Y-3767D01*
X160Y-3756D02*
Y-3745D01*
Y-3751D01*
X128D01*
Y-3756D01*
X160Y-3729D02*
Y-3719D01*
Y-3724D01*
X128D01*
Y-3729D01*
Y-3655D02*
Y-3665D01*
X133Y-3671D01*
X155D01*
X160Y-3665D01*
Y-3655D01*
X155Y-3649D01*
X133D01*
X128Y-3655D01*
X139Y-3639D02*
X155D01*
X160Y-3633D01*
Y-3617D01*
X139D01*
X133Y-3601D02*
X139D01*
Y-3607D01*
Y-3596D01*
Y-3601D01*
X155D01*
X160Y-3596D01*
X165Y-3580D02*
Y-3559D01*
X160Y-3548D02*
Y-3537D01*
Y-3543D01*
X128D01*
X133Y-3548D01*
X2818Y-3540D02*
X2850D01*
X2834D01*
Y-3519D01*
X2818D01*
X2850D01*
X2829Y-3503D02*
Y-3492D01*
X2834Y-3487D01*
X2850D01*
Y-3503D01*
X2845Y-3508D01*
X2839Y-3503D01*
Y-3487D01*
X2850Y-3476D02*
Y-3465D01*
Y-3471D01*
X2818D01*
Y-3476D01*
X2850Y-3449D02*
Y-3439D01*
Y-3444D01*
X2818D01*
Y-3449D01*
Y-3391D02*
Y-3380D01*
Y-3385D01*
X2850D01*
Y-3391D01*
Y-3380D01*
Y-3364D02*
X2829D01*
Y-3348D01*
X2834Y-3343D01*
X2850D01*
X2855Y-3332D02*
Y-3311D01*
X2850Y-3279D02*
Y-3300D01*
X2829Y-3279D01*
X2823D01*
X2818Y-3284D01*
Y-3295D01*
X2823Y-3300D01*
X128Y-3500D02*
X160D01*
X144D01*
Y-3479D01*
X128D01*
X160D01*
X139Y-3463D02*
Y-3452D01*
X144Y-3447D01*
X160D01*
Y-3463D01*
X155Y-3468D01*
X149Y-3463D01*
Y-3447D01*
X160Y-3436D02*
Y-3425D01*
Y-3431D01*
X128D01*
Y-3436D01*
X160Y-3409D02*
Y-3399D01*
Y-3404D01*
X128D01*
Y-3409D01*
Y-3351D02*
Y-3340D01*
Y-3345D01*
X160D01*
Y-3351D01*
Y-3340D01*
Y-3324D02*
X139D01*
Y-3308D01*
X144Y-3303D01*
X160D01*
X165Y-3292D02*
Y-3271D01*
X160Y-3260D02*
Y-3249D01*
Y-3255D01*
X128D01*
X133Y-3260D01*
X690Y-2508D02*
Y-2540D01*
X706D01*
X711Y-2535D01*
Y-2513D01*
X706Y-2508D01*
X690D01*
X743D02*
X733Y-2513D01*
X722Y-2524D01*
Y-2535D01*
X727Y-2540D01*
X738D01*
X743Y-2535D01*
Y-2529D01*
X738Y-2524D01*
X722D01*
X3138Y-3060D02*
X3170D01*
Y-3044D01*
X3165Y-3039D01*
X3143D01*
X3138Y-3044D01*
Y-3060D01*
Y-3007D02*
Y-3028D01*
X3154D01*
X3149Y-3017D01*
Y-3012D01*
X3154Y-3007D01*
X3165D01*
X3170Y-3012D01*
Y-3023D01*
X3165Y-3028D01*
X3175Y-2996D02*
Y-2975D01*
X3170Y-2943D02*
Y-2964D01*
X3149Y-2943D01*
X3143D01*
X3138Y-2948D01*
Y-2959D01*
X3143Y-2964D01*
X1138Y-3060D02*
X1170D01*
Y-3044D01*
X1165Y-3039D01*
X1143D01*
X1138Y-3044D01*
Y-3060D01*
Y-3007D02*
Y-3028D01*
X1154D01*
X1149Y-3017D01*
Y-3012D01*
X1154Y-3007D01*
X1165D01*
X1170Y-3012D01*
Y-3023D01*
X1165Y-3028D01*
X1175Y-2996D02*
Y-2975D01*
X1170Y-2964D02*
Y-2953D01*
Y-2959D01*
X1138D01*
X1143Y-2964D01*
X3448Y-3060D02*
X3480D01*
Y-3044D01*
X3475Y-3039D01*
X3453D01*
X3448Y-3044D01*
Y-3060D01*
X3480Y-3012D02*
X3448D01*
X3464Y-3028D01*
Y-3007D01*
X3485Y-2996D02*
Y-2975D01*
X3480Y-2943D02*
Y-2964D01*
X3459Y-2943D01*
X3453D01*
X3448Y-2948D01*
Y-2959D01*
X3453Y-2964D01*
X1448Y-3060D02*
X1480D01*
Y-3044D01*
X1475Y-3039D01*
X1453D01*
X1448Y-3044D01*
Y-3060D01*
X1480Y-3012D02*
X1448D01*
X1464Y-3028D01*
Y-3007D01*
X1485Y-2996D02*
Y-2975D01*
X1480Y-2964D02*
Y-2953D01*
Y-2959D01*
X1448D01*
X1453Y-2964D01*
X3758Y-3060D02*
X3790D01*
Y-3044D01*
X3785Y-3039D01*
X3763D01*
X3758Y-3044D01*
Y-3060D01*
X3763Y-3028D02*
X3758Y-3023D01*
Y-3012D01*
X3763Y-3007D01*
X3769D01*
X3774Y-3012D01*
Y-3017D01*
Y-3012D01*
X3779Y-3007D01*
X3785D01*
X3790Y-3012D01*
Y-3023D01*
X3785Y-3028D01*
X3795Y-2996D02*
Y-2975D01*
X3790Y-2943D02*
Y-2964D01*
X3769Y-2943D01*
X3763D01*
X3758Y-2948D01*
Y-2959D01*
X3763Y-2964D01*
X1758Y-3060D02*
X1790D01*
Y-3044D01*
X1785Y-3039D01*
X1763D01*
X1758Y-3044D01*
Y-3060D01*
X1763Y-3028D02*
X1758Y-3023D01*
Y-3012D01*
X1763Y-3007D01*
X1769D01*
X1774Y-3012D01*
Y-3017D01*
Y-3012D01*
X1779Y-3007D01*
X1785D01*
X1790Y-3012D01*
Y-3023D01*
X1785Y-3028D01*
X1795Y-2996D02*
Y-2975D01*
X1790Y-2964D02*
Y-2953D01*
Y-2959D01*
X1758D01*
X1763Y-2964D01*
X3570Y-618D02*
Y-650D01*
X3586D01*
X3591Y-645D01*
Y-623D01*
X3586Y-618D01*
X3570D01*
X3623Y-650D02*
X3602D01*
X3623Y-629D01*
Y-623D01*
X3618Y-618D01*
X3607D01*
X3602Y-623D01*
X2487Y-1719D02*
Y-1751D01*
X2503D01*
X2509Y-1746D01*
Y-1724D01*
X2503Y-1719D01*
X2487D01*
X2519Y-1751D02*
X2530D01*
X2525D01*
Y-1719D01*
X2519Y-1724D01*
X2600Y-1245D02*
X2594Y-1239D01*
X2584D01*
X2578Y-1245D01*
Y-1266D01*
X2584Y-1271D01*
X2594D01*
X2600Y-1266D01*
X2616Y-1271D02*
X2626D01*
X2632Y-1266D01*
Y-1255D01*
X2626Y-1250D01*
X2616D01*
X2610Y-1255D01*
Y-1266D01*
X2616Y-1271D01*
X2642D02*
Y-1250D01*
X2658D01*
X2664Y-1255D01*
Y-1271D01*
X2680Y-1245D02*
Y-1250D01*
X2674D01*
X2685D01*
X2680D01*
Y-1266D01*
X2685Y-1271D01*
X2701Y-1250D02*
Y-1271D01*
Y-1261D01*
X2706Y-1255D01*
X2712Y-1250D01*
X2717D01*
X2738Y-1271D02*
X2749D01*
X2754Y-1266D01*
Y-1255D01*
X2749Y-1250D01*
X2738D01*
X2733Y-1255D01*
Y-1266D01*
X2738Y-1271D01*
X2765D02*
X2776D01*
X2770D01*
Y-1239D01*
X2765D01*
X2792Y-1271D02*
X2802D01*
X2797D01*
Y-1239D01*
X2792D01*
X2834Y-1271D02*
X2824D01*
X2818Y-1266D01*
Y-1255D01*
X2824Y-1250D01*
X2834D01*
X2840Y-1255D01*
Y-1261D01*
X2818D01*
X2850Y-1250D02*
Y-1271D01*
Y-1261D01*
X2856Y-1255D01*
X2861Y-1250D01*
X2866D01*
X2936Y-1271D02*
X2914D01*
X2936Y-1250D01*
Y-1245D01*
X2930Y-1239D01*
X2920D01*
X2914Y-1245D01*
X2600Y-945D02*
X2594Y-939D01*
X2584D01*
X2578Y-945D01*
Y-966D01*
X2584Y-971D01*
X2594D01*
X2600Y-966D01*
X2616Y-971D02*
X2626D01*
X2632Y-966D01*
Y-955D01*
X2626Y-950D01*
X2616D01*
X2610Y-955D01*
Y-966D01*
X2616Y-971D01*
X2642D02*
Y-950D01*
X2658D01*
X2664Y-955D01*
Y-971D01*
X2680Y-945D02*
Y-950D01*
X2674D01*
X2685D01*
X2680D01*
Y-966D01*
X2685Y-971D01*
X2701Y-950D02*
Y-971D01*
Y-961D01*
X2706Y-955D01*
X2712Y-950D01*
X2717D01*
X2738Y-971D02*
X2749D01*
X2754Y-966D01*
Y-955D01*
X2749Y-950D01*
X2738D01*
X2733Y-955D01*
Y-966D01*
X2738Y-971D01*
X2765D02*
X2776D01*
X2770D01*
Y-939D01*
X2765D01*
X2792Y-971D02*
X2802D01*
X2797D01*
Y-939D01*
X2792D01*
X2834Y-971D02*
X2824D01*
X2818Y-966D01*
Y-955D01*
X2824Y-950D01*
X2834D01*
X2840Y-955D01*
Y-961D01*
X2818D01*
X2850Y-950D02*
Y-971D01*
Y-961D01*
X2856Y-955D01*
X2861Y-950D01*
X2866D01*
X2914Y-971D02*
X2925D01*
X2920D01*
Y-939D01*
X2914Y-945D01*
X3253Y-449D02*
X3248Y-454D01*
Y-465D01*
X3253Y-470D01*
X3275D01*
X3280Y-465D01*
Y-454D01*
X3275Y-449D01*
X3280Y-438D02*
Y-427D01*
Y-433D01*
X3248D01*
X3253Y-438D01*
X3280Y-390D02*
Y-411D01*
X3259Y-390D01*
X3253D01*
X3248Y-395D01*
Y-406D01*
X3253Y-411D01*
X3285Y-379D02*
Y-358D01*
X3280Y-331D02*
X3248D01*
X3264Y-347D01*
Y-326D01*
X2553Y-449D02*
X2548Y-454D01*
Y-465D01*
X2553Y-470D01*
X2575D01*
X2580Y-465D01*
Y-454D01*
X2575Y-449D01*
X2580Y-438D02*
Y-427D01*
Y-433D01*
X2548D01*
X2553Y-438D01*
X2580Y-390D02*
Y-411D01*
X2559Y-390D01*
X2553D01*
X2548Y-395D01*
Y-406D01*
X2553Y-411D01*
X2585Y-379D02*
Y-358D01*
X2553Y-347D02*
X2548Y-342D01*
Y-331D01*
X2553Y-326D01*
X2559D01*
X2564Y-331D01*
Y-337D01*
Y-331D01*
X2569Y-326D01*
X2575D01*
X2580Y-331D01*
Y-342D01*
X2575Y-347D01*
X1853Y-449D02*
X1848Y-454D01*
Y-465D01*
X1853Y-470D01*
X1875D01*
X1880Y-465D01*
Y-454D01*
X1875Y-449D01*
X1880Y-438D02*
Y-427D01*
Y-433D01*
X1848D01*
X1853Y-438D01*
X1880Y-390D02*
Y-411D01*
X1859Y-390D01*
X1853D01*
X1848Y-395D01*
Y-406D01*
X1853Y-411D01*
X1885Y-379D02*
Y-358D01*
X1880Y-326D02*
Y-347D01*
X1859Y-326D01*
X1853D01*
X1848Y-331D01*
Y-342D01*
X1853Y-347D01*
X1153Y-449D02*
X1148Y-454D01*
Y-465D01*
X1153Y-470D01*
X1175D01*
X1180Y-465D01*
Y-454D01*
X1175Y-449D01*
X1180Y-438D02*
Y-427D01*
Y-433D01*
X1148D01*
X1153Y-438D01*
X1180Y-390D02*
Y-411D01*
X1159Y-390D01*
X1153D01*
X1148Y-395D01*
Y-406D01*
X1153Y-411D01*
X1185Y-379D02*
Y-358D01*
X1180Y-347D02*
Y-337D01*
Y-342D01*
X1148D01*
X1153Y-347D01*
X3843Y-3519D02*
X3838Y-3524D01*
Y-3535D01*
X3843Y-3540D01*
X3865D01*
X3870Y-3535D01*
Y-3524D01*
X3865Y-3519D01*
Y-3508D02*
X3870Y-3503D01*
Y-3492D01*
X3865Y-3487D01*
X3843D01*
X3838Y-3492D01*
Y-3503D01*
X3843Y-3508D01*
X3849D01*
X3854Y-3503D01*
Y-3487D01*
X3875Y-3476D02*
Y-3455D01*
X3870Y-3423D02*
Y-3444D01*
X3849Y-3423D01*
X3843D01*
X3838Y-3428D01*
Y-3439D01*
X3843Y-3444D01*
X1843Y-3519D02*
X1838Y-3524D01*
Y-3535D01*
X1843Y-3540D01*
X1865D01*
X1870Y-3535D01*
Y-3524D01*
X1865Y-3519D01*
Y-3508D02*
X1870Y-3503D01*
Y-3492D01*
X1865Y-3487D01*
X1843D01*
X1838Y-3492D01*
Y-3503D01*
X1843Y-3508D01*
X1849D01*
X1854Y-3503D01*
Y-3487D01*
X1875Y-3476D02*
Y-3455D01*
X1870Y-3444D02*
Y-3433D01*
Y-3439D01*
X1838D01*
X1843Y-3444D01*
X131Y-1633D02*
X126Y-1628D01*
X115D01*
X110Y-1633D01*
Y-1655D01*
X115Y-1660D01*
X126D01*
X131Y-1655D01*
X142Y-1633D02*
X147Y-1628D01*
X158D01*
X163Y-1633D01*
Y-1639D01*
X158Y-1644D01*
X163Y-1649D01*
Y-1655D01*
X158Y-1660D01*
X147D01*
X142Y-1655D01*
Y-1649D01*
X147Y-1644D01*
X142Y-1639D01*
Y-1633D01*
X147Y-1644D02*
X158D01*
X226Y-1523D02*
X221Y-1518D01*
X210D01*
X205Y-1523D01*
Y-1545D01*
X210Y-1550D01*
X221D01*
X226Y-1545D01*
X237Y-1518D02*
X258D01*
Y-1523D01*
X237Y-1545D01*
Y-1550D01*
X3751Y-1553D02*
X3746Y-1548D01*
X3735D01*
X3730Y-1553D01*
Y-1575D01*
X3735Y-1580D01*
X3746D01*
X3751Y-1575D01*
X3783Y-1548D02*
X3773Y-1553D01*
X3762Y-1564D01*
Y-1575D01*
X3767Y-1580D01*
X3778D01*
X3783Y-1575D01*
Y-1569D01*
X3778Y-1564D01*
X3762D01*
X2838Y-2670D02*
X2833Y-2665D01*
X2822D01*
X2817Y-2670D01*
Y-2692D01*
X2822Y-2697D01*
X2833D01*
X2838Y-2692D01*
X2870Y-2665D02*
X2849D01*
Y-2681D01*
X2860Y-2676D01*
X2865D01*
X2870Y-2681D01*
Y-2692D01*
X2865Y-2697D01*
X2854D01*
X2849Y-2692D01*
X1907Y-1536D02*
X1902Y-1531D01*
X1891D01*
X1886Y-1536D01*
Y-1558D01*
X1891Y-1563D01*
X1902D01*
X1907Y-1558D01*
X1934Y-1563D02*
Y-1531D01*
X1918Y-1547D01*
X1939D01*
X1827Y-961D02*
X1832Y-956D01*
Y-945D01*
X1827Y-940D01*
X1805D01*
X1800Y-945D01*
Y-956D01*
X1805Y-961D01*
X1827Y-972D02*
X1832Y-977D01*
Y-988D01*
X1827Y-993D01*
X1821D01*
X1816Y-988D01*
Y-983D01*
Y-988D01*
X1811Y-993D01*
X1805D01*
X1800Y-988D01*
Y-977D01*
X1805Y-972D01*
X1907Y-961D02*
X1912Y-956D01*
Y-945D01*
X1907Y-940D01*
X1885D01*
X1880Y-945D01*
Y-956D01*
X1885Y-961D01*
X1880Y-993D02*
Y-972D01*
X1901Y-993D01*
X1907D01*
X1912Y-988D01*
Y-977D01*
X1907Y-972D01*
X2141Y-1103D02*
X2136Y-1098D01*
X2125D01*
X2120Y-1103D01*
Y-1125D01*
X2125Y-1130D01*
X2136D01*
X2141Y-1125D01*
X2152Y-1130D02*
X2163D01*
X2157D01*
Y-1098D01*
X2152Y-1103D01*
X3120Y-638D02*
Y-670D01*
X3136D01*
X3141Y-665D01*
Y-659D01*
X3136Y-654D01*
X3120D01*
X3136D01*
X3141Y-649D01*
Y-643D01*
X3136Y-638D01*
X3120D01*
X3152D02*
X3173D01*
X3163D01*
Y-670D01*
X3205D02*
X3184D01*
X3205Y-649D01*
Y-643D01*
X3200Y-638D01*
X3189D01*
X3184Y-643D01*
X2578Y-639D02*
Y-671D01*
X2594D01*
X2600Y-666D01*
Y-661D01*
X2594Y-655D01*
X2578D01*
X2594D01*
X2600Y-650D01*
Y-645D01*
X2594Y-639D01*
X2578D01*
X2610D02*
X2632D01*
X2621D01*
Y-671D01*
X2642D02*
X2653D01*
X2648D01*
Y-639D01*
X2642Y-645D01*
M02*
