G04*
G04 #@! TF.GenerationSoftware,Altium Limited,Altium Designer,18.0.7 (293)*
G04*
G04 Layer_Physical_Order=1*
G04 Layer_Color=255*
%FSLAX23Y23*%
%MOIN*%
G70*
G01*
G75*
%ADD12C,0.010*%
%ADD16R,0.061X0.059*%
%ADD17R,0.053X0.018*%
%ADD18R,0.035X0.028*%
%ADD19R,0.130X0.106*%
%ADD20R,0.039X0.106*%
%ADD21R,0.036X0.048*%
%ADD22R,0.130X0.098*%
%ADD23R,0.024X0.071*%
%ADD24R,0.028X0.035*%
%ADD25R,0.276X0.276*%
%ADD26R,0.098X0.059*%
%ADD27R,0.098X0.047*%
%ADD28R,0.055X0.059*%
%ADD29R,0.047X0.126*%
%ADD30R,0.085X0.042*%
%ADD31R,0.275X0.328*%
%ADD32R,0.126X0.102*%
%ADD33R,0.063X0.071*%
%ADD34R,0.059X0.110*%
%ADD35R,0.037X0.012*%
%ADD36R,0.012X0.037*%
%ADD37R,0.124X0.124*%
%ADD38R,0.070X0.060*%
%ADD39R,0.060X0.070*%
%ADD40R,0.071X0.024*%
%ADD41R,0.035X0.047*%
%ADD42R,0.047X0.035*%
%ADD43R,0.157X0.157*%
%ADD44R,0.079X0.425*%
%ADD84C,0.015*%
%ADD85C,0.050*%
%ADD86C,0.030*%
%ADD87C,0.025*%
%ADD88C,0.020*%
%ADD89R,0.060X0.060*%
%ADD90C,0.071*%
%ADD91C,0.055*%
%ADD92R,0.059X0.059*%
%ADD93C,0.059*%
%ADD94C,0.138*%
%ADD95R,0.059X0.059*%
%ADD96C,0.024*%
%ADD97C,0.039*%
G36*
X3930Y-708D02*
X3925Y-709D01*
X3924Y-706D01*
X3920Y-705D01*
X3520D01*
X3518Y-700D01*
X3538Y-680D01*
X3541Y-676D01*
X3541Y-671D01*
Y-659D01*
X3552D01*
Y-643D01*
X3668D01*
X3670Y-647D01*
X3675Y-655D01*
X3683Y-660D01*
X3691Y-664D01*
X3700Y-665D01*
X3709Y-664D01*
X3717Y-660D01*
X3725Y-655D01*
X3730Y-647D01*
X3734Y-639D01*
X3735Y-630D01*
X3734Y-621D01*
X3730Y-613D01*
X3725Y-605D01*
X3717Y-600D01*
X3709Y-596D01*
X3700Y-595D01*
X3691Y-596D01*
X3683Y-600D01*
X3675Y-605D01*
X3670Y-613D01*
X3668Y-617D01*
X3552D01*
Y-601D01*
X3506D01*
Y-659D01*
X3516D01*
Y-666D01*
X3491Y-691D01*
X3488Y-695D01*
X3487Y-700D01*
Y-705D01*
X3420D01*
X3418Y-706D01*
X3413Y-703D01*
Y-659D01*
X3423D01*
Y-601D01*
X3377D01*
Y-617D01*
X3353D01*
Y-611D01*
X3307D01*
Y-633D01*
X3303Y-635D01*
X3294Y-626D01*
X3290Y-625D01*
X3290Y-625D01*
X2850D01*
X2846Y-626D01*
X2845Y-630D01*
Y-691D01*
X2840Y-695D01*
X2763D01*
Y-605D01*
X2785Y-583D01*
X3307D01*
Y-589D01*
X3353D01*
Y-552D01*
X3343D01*
Y-545D01*
X3345Y-543D01*
X3665D01*
Y-565D01*
X3735D01*
Y-495D01*
X3665D01*
Y-517D01*
X3340D01*
X3335Y-518D01*
X3331Y-521D01*
X3321Y-531D01*
X3318Y-535D01*
X3317Y-540D01*
Y-552D01*
X3307D01*
Y-558D01*
X2780D01*
X2775Y-559D01*
X2771Y-561D01*
X2741Y-591D01*
X2738Y-595D01*
X2737Y-600D01*
Y-695D01*
X2300D01*
X2296Y-696D01*
X2295Y-700D01*
X2295Y-1138D01*
X2218Y-1215D01*
X2000Y-1215D01*
X1996Y-1216D01*
X1826Y-1386D01*
X1825Y-1390D01*
X1825Y-1390D01*
Y-2000D01*
X1826Y-2004D01*
X1830Y-2005D01*
X1921D01*
X1925Y-2010D01*
Y-2240D01*
X1926Y-2244D01*
X1930Y-2245D01*
X2570D01*
X2574Y-2244D01*
X2574Y-2244D01*
X2692Y-2125D01*
X2697Y-2128D01*
Y-2131D01*
X2745D01*
Y-2100D01*
Y-2069D01*
X2700D01*
X2697Y-2069D01*
X2695Y-2065D01*
Y-2053D01*
X2702D01*
Y-2059D01*
X2797D01*
Y-2007D01*
X2797D01*
X2795Y-2002D01*
X2795Y-2000D01*
Y-1992D01*
X2797D01*
Y-1940D01*
X2795D01*
Y-1920D01*
X2794Y-1916D01*
X2790Y-1915D01*
X2482D01*
X2354Y-1786D01*
X2350Y-1785D01*
X2350Y-1785D01*
X2025D01*
X2025Y-1505D01*
X2146D01*
Y-1565D01*
X2180D01*
X2214D01*
Y-1505D01*
X2840D01*
X2844Y-1504D01*
X2845Y-1500D01*
Y-919D01*
X2850Y-915D01*
X3380D01*
X3382Y-914D01*
X3387Y-917D01*
Y-1149D01*
X3388Y-1154D01*
X3391Y-1158D01*
X3397Y-1165D01*
X3391Y-1171D01*
X3388Y-1175D01*
X3387Y-1180D01*
Y-1440D01*
X3388Y-1445D01*
X3391Y-1449D01*
X3411Y-1469D01*
X3415Y-1472D01*
X3420Y-1473D01*
X3439D01*
Y-1495D01*
X3548D01*
Y-1473D01*
X3592D01*
Y-1483D01*
X3629D01*
Y-1437D01*
X3592D01*
Y-1447D01*
X3548D01*
Y-1425D01*
X3553Y-1425D01*
X3920D01*
X3924Y-1424D01*
X3925Y-1421D01*
X3930Y-1422D01*
Y-3325D01*
X2865D01*
Y-2890D01*
X2865Y-2889D01*
X2867Y-2886D01*
X2871Y-2883D01*
X2942D01*
Y-2893D01*
X2979D01*
Y-2847D01*
X2942D01*
Y-2857D01*
X2871D01*
X2867Y-2854D01*
X2860Y-2853D01*
X2853Y-2854D01*
X2848Y-2858D01*
X2844Y-2863D01*
X2843Y-2870D01*
X2844Y-2877D01*
X2846Y-2880D01*
X2844Y-2885D01*
X2125D01*
Y-2851D01*
X2080D01*
X2035D01*
Y-2885D01*
X2023D01*
X2020Y-2881D01*
X2020Y-2880D01*
Y-2811D01*
X1940D01*
Y-2837D01*
X1893D01*
Y-2831D01*
X1847D01*
Y-2837D01*
X1821D01*
X1816Y-2834D01*
X1810Y-2832D01*
X1803Y-2834D01*
X1797Y-2837D01*
X1794Y-2843D01*
X1792Y-2850D01*
X1794Y-2856D01*
X1797Y-2862D01*
X1803Y-2865D01*
X1810Y-2867D01*
X1816Y-2865D01*
X1821Y-2862D01*
X1847D01*
Y-2868D01*
X1893D01*
Y-2862D01*
X1940D01*
Y-2880D01*
X1940Y-2881D01*
X1937Y-2885D01*
X1900D01*
X1896Y-2886D01*
X1895Y-2890D01*
Y-3321D01*
X1890Y-3325D01*
X865D01*
Y-2890D01*
X864Y-2886D01*
X860Y-2885D01*
X275D01*
Y-2510D01*
X274Y-2506D01*
X270Y-2505D01*
X10D01*
Y-1392D01*
X11Y-1392D01*
X246D01*
X249Y-1390D01*
X251Y-1386D01*
Y-676D01*
X249Y-672D01*
X246Y-671D01*
X11D01*
X10Y-670D01*
Y-10D01*
X3930D01*
Y-708D01*
D02*
G37*
G36*
X3377Y-659D02*
X3387D01*
Y-713D01*
X3382Y-715D01*
X3321Y-653D01*
X3322Y-648D01*
X3353D01*
Y-642D01*
X3377D01*
Y-659D01*
D02*
G37*
G36*
X3307Y-647D02*
Y-648D01*
X3308D01*
X3380Y-720D01*
Y-910D01*
X2850D01*
Y-630D01*
X3290D01*
X3307Y-647D01*
D02*
G37*
G36*
X3920Y-1420D02*
X3420D01*
Y-1178D01*
X3421Y-1177D01*
X3439D01*
Y-1199D01*
X3548D01*
Y-1130D01*
X3439D01*
Y-1152D01*
X3421D01*
X3420Y-1151D01*
Y-710D01*
X3920D01*
Y-1420D01*
D02*
G37*
G36*
X2840Y-1500D02*
X2020D01*
X2020Y-1790D01*
X2350D01*
X2480Y-1920D01*
X2790D01*
Y-2000D01*
X1830D01*
Y-1390D01*
X2000Y-1220D01*
X2220Y-1220D01*
X2300Y-1140D01*
X2300Y-700D01*
X2840D01*
Y-1500D01*
D02*
G37*
G36*
X2690Y-2120D02*
X2570Y-2240D01*
X1930D01*
Y-2010D01*
X2690D01*
Y-2120D01*
D02*
G37*
G36*
X2860Y-3330D02*
X3930D01*
Y-3930D01*
X1900D01*
Y-2890D01*
X2860D01*
Y-3330D01*
D02*
G37*
G36*
X270Y-2890D02*
X860D01*
Y-3330D01*
X1890D01*
Y-3930D01*
X10D01*
Y-2510D01*
X270D01*
Y-2890D01*
D02*
G37*
%LPC*%
G36*
X950Y-30D02*
X550D01*
X542Y-31D01*
X536Y-36D01*
X536Y-36D01*
X520Y-51D01*
X504Y-36D01*
X498Y-31D01*
X490Y-30D01*
X430D01*
X422Y-31D01*
X416Y-36D01*
X386Y-65D01*
X382Y-72D01*
X380Y-80D01*
X382Y-87D01*
X383Y-89D01*
Y-97D01*
X382D01*
Y-143D01*
X382D01*
Y-220D01*
X383Y-225D01*
Y-251D01*
X383Y-254D01*
X379Y-257D01*
X378Y-257D01*
X375Y-254D01*
Y-213D01*
X374Y-208D01*
X372Y-204D01*
X352Y-184D01*
Y-143D01*
X358D01*
Y-97D01*
X321D01*
Y-143D01*
X327D01*
Y-190D01*
X328Y-194D01*
X331Y-199D01*
X350Y-218D01*
Y-258D01*
X346D01*
Y-339D01*
X379D01*
Y-268D01*
X380Y-263D01*
X383Y-260D01*
X385Y-260D01*
X385Y-260D01*
X415D01*
X417Y-260D01*
X420Y-264D01*
Y-299D01*
Y-435D01*
X415Y-437D01*
X415Y-437D01*
X379Y-401D01*
X375Y-398D01*
X370Y-397D01*
X268D01*
Y-387D01*
X231D01*
Y-433D01*
X268D01*
Y-423D01*
X365D01*
X393Y-451D01*
Y-493D01*
X392Y-494D01*
Y-643D01*
X383D01*
X383Y-643D01*
X378D01*
X378Y-643D01*
X368D01*
Y-599D01*
X378D01*
Y-561D01*
X333D01*
Y-567D01*
X235D01*
X235Y-567D01*
Y-515D01*
X165D01*
Y-585D01*
X217D01*
X221Y-589D01*
X225Y-592D01*
X230Y-593D01*
X333D01*
Y-599D01*
X343D01*
Y-643D01*
X333D01*
Y-638D01*
X311D01*
Y-671D01*
Y-705D01*
X333D01*
Y-700D01*
X378D01*
X378Y-700D01*
X383D01*
X383Y-700D01*
X428D01*
X428Y-700D01*
X433D01*
X433Y-700D01*
X443D01*
Y-724D01*
X440Y-729D01*
X438Y-736D01*
X440Y-742D01*
X443Y-748D01*
X449Y-751D01*
X456Y-753D01*
X462Y-751D01*
X468Y-748D01*
X471Y-742D01*
X473Y-736D01*
X471Y-729D01*
X468Y-724D01*
Y-700D01*
X478D01*
X478Y-700D01*
X483D01*
X483Y-700D01*
X493D01*
Y-724D01*
X490Y-729D01*
X488Y-736D01*
X490Y-742D01*
X493Y-748D01*
X499Y-751D01*
X506Y-753D01*
X512Y-751D01*
X518Y-748D01*
X521Y-742D01*
X523Y-736D01*
X521Y-729D01*
X518Y-724D01*
Y-700D01*
X528D01*
X528Y-700D01*
X533D01*
X533Y-700D01*
X578D01*
X578Y-700D01*
X583D01*
X583Y-700D01*
X628D01*
X628Y-700D01*
X633D01*
X633Y-700D01*
X678D01*
X678Y-700D01*
X683D01*
X683Y-700D01*
X728D01*
X728Y-700D01*
X733D01*
X733Y-700D01*
X778D01*
X778Y-700D01*
X783D01*
X783Y-700D01*
X828D01*
X828Y-700D01*
X833D01*
X833Y-700D01*
X878D01*
X878Y-700D01*
X883D01*
X883Y-700D01*
X893D01*
Y-706D01*
X894Y-710D01*
X896Y-715D01*
X921Y-739D01*
X925Y-742D01*
X930Y-743D01*
X1145D01*
X1177Y-775D01*
Y-980D01*
X1178Y-985D01*
X1181Y-989D01*
X1381Y-1189D01*
X1385Y-1192D01*
X1388Y-1192D01*
X1387Y-1197D01*
X1295D01*
X1113Y-1015D01*
Y-890D01*
X1114Y-889D01*
X1131D01*
Y-870D01*
X1108D01*
Y-873D01*
X1103Y-875D01*
X1075Y-847D01*
X1071Y-844D01*
X1066Y-843D01*
X1049D01*
Y-834D01*
X1049Y-834D01*
Y-829D01*
X1049Y-829D01*
Y-819D01*
X1113D01*
Y-825D01*
X1158D01*
Y-787D01*
X1113D01*
Y-793D01*
X1049D01*
Y-784D01*
X992D01*
Y-829D01*
X992Y-829D01*
Y-834D01*
X992Y-834D01*
Y-879D01*
X992Y-879D01*
Y-884D01*
X992Y-884D01*
Y-929D01*
X992Y-929D01*
Y-934D01*
X992Y-934D01*
Y-979D01*
X992Y-979D01*
Y-984D01*
X992Y-984D01*
Y-1029D01*
X992Y-1029D01*
Y-1034D01*
X992Y-1034D01*
Y-1079D01*
X992Y-1079D01*
Y-1084D01*
X992Y-1084D01*
Y-1129D01*
X992Y-1129D01*
Y-1134D01*
X992Y-1134D01*
Y-1179D01*
X992Y-1179D01*
Y-1184D01*
X992Y-1184D01*
Y-1228D01*
X987D01*
Y-1251D01*
X1021D01*
X1054D01*
Y-1228D01*
X1049D01*
Y-1219D01*
X1231D01*
X1261Y-1249D01*
X1265Y-1252D01*
X1270Y-1253D01*
X1799D01*
X1803Y-1256D01*
X1810Y-1257D01*
X1817Y-1256D01*
X1822Y-1252D01*
X1826Y-1247D01*
X1827Y-1240D01*
X1826Y-1233D01*
X1822Y-1228D01*
X1822Y-1228D01*
X1823Y-1223D01*
X1839D01*
X1843Y-1226D01*
X1850Y-1227D01*
X1857Y-1226D01*
X1862Y-1222D01*
X1866Y-1217D01*
X1867Y-1210D01*
X1866Y-1203D01*
X1862Y-1198D01*
X1862Y-1198D01*
X1863Y-1193D01*
X1889D01*
X1893Y-1196D01*
X1900Y-1197D01*
X1907Y-1196D01*
X1912Y-1192D01*
X1916Y-1187D01*
X1917Y-1180D01*
X1916Y-1173D01*
X1912Y-1168D01*
X1908Y-1165D01*
X1910Y-1160D01*
X1938D01*
X1958Y-1180D01*
X1776Y-1362D01*
X1771Y-1369D01*
X1770Y-1376D01*
Y-2230D01*
X1771Y-2238D01*
X1776Y-2244D01*
X1925Y-2393D01*
Y-2410D01*
X1570D01*
X1562Y-2411D01*
X1555Y-2414D01*
X1549Y-2419D01*
X1544Y-2425D01*
X1541Y-2432D01*
X1540Y-2440D01*
X1541Y-2448D01*
X1544Y-2455D01*
X1549Y-2461D01*
X1555Y-2466D01*
X1562Y-2469D01*
X1570Y-2470D01*
X1925D01*
Y-2570D01*
X1880D01*
X1872Y-2571D01*
X1866Y-2576D01*
X1720Y-2721D01*
X1644Y-2646D01*
X1638Y-2641D01*
X1630Y-2640D01*
X1520D01*
Y-2585D01*
X1535D01*
Y-2515D01*
X1465D01*
Y-2537D01*
X1435D01*
X1419Y-2521D01*
X1415Y-2519D01*
X1410Y-2518D01*
X1393D01*
Y-2512D01*
X1347D01*
Y-2549D01*
X1393D01*
Y-2543D01*
X1405D01*
X1421Y-2559D01*
X1425Y-2562D01*
X1430Y-2563D01*
X1465D01*
Y-2585D01*
X1480D01*
Y-2652D01*
X1410Y-2721D01*
X1354Y-2666D01*
X1348Y-2661D01*
X1340Y-2660D01*
X1170D01*
X1162Y-2661D01*
X1156Y-2666D01*
X1100Y-2721D01*
X1044Y-2666D01*
X1038Y-2661D01*
X1030Y-2660D01*
X666D01*
Y-2640D01*
X594D01*
Y-2720D01*
X666D01*
Y-2700D01*
X1022D01*
X1080Y-2758D01*
Y-2852D01*
X1077D01*
Y-2889D01*
X1092D01*
X1092Y-2889D01*
X1100Y-2891D01*
X1108Y-2889D01*
X1108Y-2889D01*
X1123D01*
Y-2883D01*
X1145D01*
X1177Y-2915D01*
Y-3072D01*
X1167D01*
Y-3109D01*
X1213D01*
Y-3072D01*
X1203D01*
Y-2910D01*
X1202Y-2905D01*
X1199Y-2901D01*
X1159Y-2861D01*
X1155Y-2859D01*
X1150Y-2858D01*
X1123D01*
Y-2852D01*
X1120D01*
Y-2758D01*
X1178Y-2700D01*
X1332D01*
X1390Y-2758D01*
Y-2852D01*
X1387D01*
Y-2889D01*
X1402D01*
X1402Y-2889D01*
X1410Y-2891D01*
X1418Y-2889D01*
X1418Y-2889D01*
X1433D01*
Y-2883D01*
X1455D01*
X1487Y-2915D01*
Y-3072D01*
X1477D01*
Y-3109D01*
X1523D01*
Y-3072D01*
X1513D01*
Y-2910D01*
X1512Y-2905D01*
X1509Y-2901D01*
X1469Y-2861D01*
X1465Y-2859D01*
X1460Y-2858D01*
X1433D01*
Y-2852D01*
X1430D01*
Y-2758D01*
X1508Y-2680D01*
X1622D01*
X1700Y-2758D01*
Y-2852D01*
X1697D01*
Y-2889D01*
X1712D01*
X1712Y-2889D01*
X1720Y-2891D01*
X1728Y-2889D01*
X1728Y-2889D01*
X1743D01*
Y-2883D01*
X1765D01*
X1797Y-2915D01*
Y-3072D01*
X1787D01*
Y-3109D01*
X1833D01*
Y-3072D01*
X1823D01*
Y-2910D01*
X1822Y-2905D01*
X1819Y-2901D01*
X1779Y-2861D01*
X1775Y-2859D01*
X1770Y-2858D01*
X1743D01*
Y-2852D01*
X1740D01*
Y-2758D01*
X1888Y-2610D01*
X1925D01*
Y-2700D01*
Y-2780D01*
X1926Y-2784D01*
X1930Y-2785D01*
X2597D01*
X2601Y-2789D01*
X2605Y-2792D01*
X2610Y-2793D01*
X3087D01*
Y-2852D01*
X3077D01*
Y-2889D01*
X3123D01*
Y-2883D01*
X3145D01*
X3177Y-2915D01*
Y-3072D01*
X3167D01*
Y-3109D01*
X3213D01*
Y-3072D01*
X3203D01*
Y-2910D01*
X3202Y-2905D01*
X3199Y-2901D01*
X3159Y-2861D01*
X3155Y-2859D01*
X3150Y-2858D01*
X3123D01*
Y-2852D01*
X3113D01*
Y-2785D01*
X3155Y-2743D01*
X3257D01*
X3258Y-2748D01*
X3258Y-2748D01*
X3254Y-2753D01*
X3253Y-2760D01*
X3254Y-2767D01*
X3257Y-2771D01*
Y-2847D01*
X3252D01*
Y-2893D01*
X3289D01*
Y-2847D01*
X3283D01*
Y-2771D01*
X3286Y-2767D01*
X3287Y-2760D01*
X3286Y-2753D01*
X3282Y-2748D01*
X3282Y-2748D01*
X3283Y-2743D01*
X3355D01*
X3397Y-2785D01*
Y-2852D01*
X3387D01*
Y-2889D01*
X3433D01*
Y-2883D01*
X3455D01*
X3487Y-2915D01*
Y-3072D01*
X3477D01*
Y-3109D01*
X3523D01*
Y-3072D01*
X3513D01*
Y-2910D01*
X3512Y-2905D01*
X3509Y-2901D01*
X3469Y-2861D01*
X3465Y-2859D01*
X3460Y-2858D01*
X3433D01*
Y-2852D01*
X3423D01*
Y-2785D01*
X3465Y-2743D01*
X3567D01*
X3568Y-2748D01*
X3568Y-2748D01*
X3564Y-2753D01*
X3563Y-2760D01*
X3564Y-2767D01*
X3567Y-2771D01*
Y-2837D01*
X3562D01*
Y-2883D01*
X3599D01*
Y-2837D01*
X3593D01*
Y-2771D01*
X3596Y-2767D01*
X3597Y-2760D01*
X3596Y-2753D01*
X3592Y-2748D01*
X3592Y-2748D01*
X3593Y-2743D01*
X3665D01*
X3707Y-2785D01*
Y-2852D01*
X3697D01*
Y-2889D01*
X3743D01*
Y-2883D01*
X3765D01*
X3797Y-2915D01*
Y-3072D01*
X3787D01*
Y-3109D01*
X3833D01*
Y-3072D01*
X3823D01*
Y-2910D01*
X3822Y-2905D01*
X3819Y-2901D01*
X3779Y-2861D01*
X3775Y-2859D01*
X3770Y-2858D01*
X3743D01*
Y-2852D01*
X3733D01*
Y-2780D01*
X3732Y-2775D01*
X3729Y-2771D01*
X3679Y-2721D01*
X3675Y-2718D01*
X3670Y-2717D01*
X3460D01*
X3455Y-2718D01*
X3451Y-2721D01*
X3410Y-2762D01*
X3369Y-2721D01*
X3365Y-2718D01*
X3360Y-2717D01*
X3150D01*
X3145Y-2718D01*
X3141Y-2721D01*
X3095Y-2767D01*
X2683D01*
Y-2745D01*
X2660D01*
Y-2740D01*
D01*
Y-2745D01*
X2636D01*
Y-2767D01*
X2625D01*
X2624Y-2764D01*
X2620Y-2762D01*
X2619D01*
Y-2718D01*
X2620D01*
X2624Y-2716D01*
X2625Y-2712D01*
Y-2701D01*
X2630Y-2700D01*
X2630Y-2700D01*
X2710Y-2620D01*
Y-2611D01*
X2742D01*
Y-2577D01*
Y-2543D01*
X2710D01*
Y-2530D01*
X2630Y-2450D01*
X2630Y-2450D01*
X2625Y-2449D01*
Y-2438D01*
X2624Y-2434D01*
X2620Y-2432D01*
X2619D01*
Y-2388D01*
X2620D01*
X2624Y-2386D01*
X2625Y-2382D01*
Y-2370D01*
X2624Y-2366D01*
X2620Y-2365D01*
X2618D01*
Y-2267D01*
X2697Y-2188D01*
X2702Y-2190D01*
Y-2193D01*
X2797D01*
Y-2141D01*
X2702D01*
Y-2149D01*
X2693D01*
X2686Y-2150D01*
X2680Y-2154D01*
X2680Y-2154D01*
X2587Y-2247D01*
X2584Y-2253D01*
X2582Y-2260D01*
Y-2365D01*
X1953Y-2365D01*
X1810Y-2222D01*
Y-1385D01*
X1995Y-1200D01*
X2160D01*
X2168Y-1199D01*
X2174Y-1194D01*
X2215Y-1154D01*
X2219Y-1147D01*
X2221Y-1140D01*
X2221Y-1140D01*
Y-1110D01*
X2219Y-1102D01*
X2219Y-1102D01*
Y-1087D01*
X2216D01*
Y-1054D01*
X2225D01*
Y-938D01*
X2176D01*
Y-1054D01*
X2185D01*
Y-1087D01*
X2182D01*
Y-1102D01*
X2182Y-1102D01*
X2180Y-1110D01*
Y-1131D01*
X2152Y-1160D01*
X1995D01*
X1961Y-1126D01*
X1954Y-1121D01*
X1946Y-1120D01*
X1778D01*
X1744Y-1086D01*
X1738Y-1081D01*
X1730Y-1080D01*
X1685D01*
Y-1065D01*
X1615D01*
Y-1135D01*
X1685D01*
Y-1120D01*
X1722D01*
X1756Y-1154D01*
X1762Y-1159D01*
X1770Y-1160D01*
X1887D01*
X1889Y-1165D01*
X1887Y-1167D01*
X1395D01*
X1203Y-975D01*
Y-903D01*
X1208Y-902D01*
X1208Y-905D01*
X1211Y-909D01*
X1261Y-959D01*
X1265Y-962D01*
X1270Y-963D01*
X1325D01*
X1334Y-972D01*
X1332Y-977D01*
X1331D01*
Y-1023D01*
X1369D01*
Y-1013D01*
X1402D01*
Y-1023D01*
X1439D01*
Y-977D01*
X1402D01*
Y-987D01*
X1369D01*
Y-977D01*
X1363D01*
Y-970D01*
X1362Y-965D01*
X1359Y-961D01*
X1339Y-941D01*
X1335Y-938D01*
X1330Y-937D01*
X1275D01*
X1271Y-933D01*
X1273Y-928D01*
X1285D01*
Y-905D01*
X1267D01*
Y-922D01*
X1262Y-924D01*
X1233Y-895D01*
Y-833D01*
X1238Y-832D01*
X1238Y-835D01*
X1241Y-839D01*
X1261Y-859D01*
X1265Y-862D01*
X1270Y-863D01*
X1325D01*
X1334Y-872D01*
X1332Y-877D01*
X1331D01*
Y-923D01*
X1368D01*
Y-913D01*
X1401D01*
Y-923D01*
X1439D01*
Y-877D01*
X1401D01*
Y-887D01*
X1368D01*
Y-877D01*
X1362D01*
Y-870D01*
X1361Y-865D01*
X1359Y-861D01*
X1339Y-841D01*
X1335Y-838D01*
X1330Y-837D01*
X1275D01*
X1271Y-833D01*
X1273Y-828D01*
X1285D01*
Y-800D01*
Y-772D01*
X1268D01*
X1267Y-772D01*
X1263Y-770D01*
Y-680D01*
X1262Y-677D01*
X1267Y-675D01*
X1337Y-745D01*
Y-777D01*
X1331D01*
Y-823D01*
X1368D01*
Y-813D01*
X1402D01*
Y-823D01*
X1439D01*
Y-777D01*
X1402D01*
Y-787D01*
X1368D01*
Y-777D01*
X1362D01*
Y-740D01*
X1361Y-735D01*
X1359Y-731D01*
X1169Y-541D01*
X1165Y-538D01*
X1160Y-537D01*
X790D01*
X785Y-538D01*
X781Y-541D01*
X747Y-575D01*
X744Y-580D01*
X743Y-584D01*
Y-643D01*
X733D01*
X733Y-643D01*
X728D01*
X728Y-643D01*
X683D01*
X683Y-643D01*
X678D01*
X678Y-643D01*
X668D01*
Y-356D01*
X667Y-351D01*
X665Y-347D01*
X643Y-325D01*
Y-308D01*
X653D01*
Y-302D01*
X710D01*
X715Y-301D01*
X719Y-299D01*
X786Y-232D01*
X791Y-234D01*
X800Y-235D01*
X809Y-234D01*
X817Y-230D01*
X825Y-225D01*
X830Y-217D01*
X834Y-209D01*
X835Y-200D01*
X834Y-191D01*
X830Y-183D01*
X825Y-175D01*
X817Y-170D01*
X809Y-166D01*
X800Y-165D01*
X791Y-166D01*
X783Y-170D01*
X775Y-175D01*
X770Y-183D01*
X766Y-191D01*
X765Y-200D01*
X766Y-209D01*
X768Y-214D01*
X705Y-277D01*
X653D01*
Y-271D01*
X607D01*
Y-308D01*
X617D01*
Y-330D01*
X618Y-335D01*
X621Y-339D01*
X643Y-361D01*
Y-643D01*
X633D01*
X633Y-643D01*
X628D01*
X628Y-643D01*
X583D01*
X583Y-643D01*
X578D01*
X578Y-643D01*
X568D01*
Y-360D01*
X579Y-349D01*
X582Y-345D01*
X583Y-340D01*
Y-135D01*
X595Y-123D01*
X607D01*
Y-129D01*
X653D01*
Y-123D01*
X668D01*
X673Y-126D01*
X680Y-128D01*
X686Y-126D01*
X692Y-123D01*
X695Y-117D01*
X697Y-110D01*
X695Y-104D01*
X692Y-98D01*
X686Y-95D01*
X680Y-93D01*
X673Y-95D01*
X668Y-98D01*
X653D01*
Y-92D01*
X607D01*
Y-98D01*
X590D01*
X585Y-99D01*
X581Y-101D01*
X561Y-121D01*
X558Y-125D01*
X557Y-130D01*
Y-335D01*
X547Y-345D01*
X544Y-350D01*
X543Y-354D01*
Y-643D01*
X533D01*
X533Y-643D01*
X528D01*
X528Y-643D01*
X483D01*
X483Y-643D01*
X478D01*
X478Y-643D01*
X433D01*
X433Y-643D01*
X428D01*
X428Y-643D01*
X418D01*
Y-530D01*
X423Y-527D01*
X428Y-531D01*
X437Y-533D01*
X447Y-531D01*
X455Y-525D01*
X461Y-517D01*
X463Y-507D01*
X461Y-498D01*
X455Y-490D01*
Y-299D01*
Y-244D01*
X475Y-224D01*
X480Y-223D01*
X488Y-218D01*
X491Y-213D01*
X492Y-211D01*
X493Y-211D01*
X495Y-211D01*
X497Y-212D01*
X497Y-216D01*
X497Y-217D01*
Y-249D01*
X543D01*
Y-212D01*
X533D01*
Y-188D01*
X543D01*
Y-151D01*
X497D01*
Y-183D01*
X497Y-184D01*
X497Y-184D01*
X497Y-188D01*
X495Y-189D01*
X493Y-189D01*
X492Y-189D01*
X491Y-187D01*
X488Y-182D01*
X480Y-177D01*
X470Y-175D01*
X460Y-177D01*
X452Y-182D01*
X447Y-190D01*
X446Y-195D01*
X423Y-218D01*
X423Y-218D01*
X418Y-217D01*
Y-143D01*
X419D01*
Y-97D01*
X418D01*
Y-91D01*
X438Y-70D01*
X482D01*
X498Y-87D01*
X497Y-92D01*
X497D01*
Y-129D01*
X505D01*
X507Y-133D01*
X513Y-137D01*
X520Y-138D01*
X527Y-137D01*
X533Y-133D01*
X535Y-129D01*
X543D01*
Y-92D01*
X543D01*
X542Y-87D01*
X558Y-70D01*
X942D01*
X1066Y-195D01*
X1065Y-200D01*
X1066Y-209D01*
X1070Y-217D01*
X1075Y-225D01*
X1083Y-230D01*
X1087Y-232D01*
Y-285D01*
X1041Y-331D01*
X1038Y-335D01*
X1037Y-340D01*
Y-372D01*
X1027D01*
Y-409D01*
X1073D01*
Y-372D01*
X1063D01*
Y-345D01*
X1109Y-299D01*
X1112Y-295D01*
X1113Y-290D01*
Y-232D01*
X1117Y-230D01*
X1125Y-225D01*
X1130Y-217D01*
X1134Y-209D01*
X1135Y-200D01*
X1134Y-195D01*
X1160Y-168D01*
X1165Y-170D01*
Y-235D01*
X1235D01*
Y-165D01*
X1170D01*
X1168Y-160D01*
X1188Y-140D01*
X1712D01*
X1766Y-195D01*
X1765Y-200D01*
X1766Y-209D01*
X1770Y-217D01*
X1775Y-225D01*
X1783Y-230D01*
X1787Y-232D01*
Y-275D01*
X1741Y-321D01*
X1738Y-325D01*
X1737Y-330D01*
Y-372D01*
X1727D01*
Y-409D01*
X1773D01*
Y-372D01*
X1763D01*
Y-335D01*
X1809Y-289D01*
X1812Y-285D01*
X1813Y-280D01*
Y-232D01*
X1817Y-230D01*
X1825Y-225D01*
X1830Y-217D01*
X1834Y-209D01*
X1835Y-200D01*
X1834Y-195D01*
X1860Y-168D01*
X1865Y-170D01*
Y-235D01*
X1935D01*
Y-165D01*
X1870D01*
X1868Y-160D01*
X1888Y-140D01*
X2412D01*
X2466Y-195D01*
X2465Y-200D01*
X2466Y-209D01*
X2470Y-217D01*
X2475Y-225D01*
X2483Y-230D01*
X2487Y-232D01*
Y-275D01*
X2441Y-321D01*
X2438Y-325D01*
X2437Y-330D01*
Y-372D01*
X2427D01*
Y-409D01*
X2473D01*
Y-372D01*
X2463D01*
Y-335D01*
X2509Y-289D01*
X2512Y-285D01*
X2513Y-280D01*
Y-232D01*
X2517Y-230D01*
X2525Y-225D01*
X2530Y-217D01*
X2534Y-209D01*
X2535Y-200D01*
X2534Y-195D01*
X2560Y-168D01*
X2565Y-170D01*
Y-235D01*
X2635D01*
Y-165D01*
X2570D01*
X2568Y-160D01*
X2588Y-140D01*
X3112D01*
X3166Y-195D01*
X3165Y-200D01*
X3166Y-209D01*
X3170Y-217D01*
X3175Y-225D01*
X3183Y-230D01*
X3187Y-232D01*
Y-275D01*
X3141Y-321D01*
X3138Y-325D01*
X3137Y-330D01*
Y-372D01*
X3127D01*
Y-409D01*
X3173D01*
Y-372D01*
X3163D01*
Y-335D01*
X3209Y-289D01*
X3212Y-285D01*
X3213Y-280D01*
Y-232D01*
X3217Y-230D01*
X3225Y-225D01*
X3230Y-217D01*
X3234Y-209D01*
X3235Y-200D01*
X3234Y-191D01*
X3230Y-183D01*
X3225Y-175D01*
X3217Y-170D01*
X3209Y-166D01*
X3200Y-165D01*
X3195Y-166D01*
X3134Y-106D01*
X3128Y-101D01*
X3120Y-100D01*
X2580D01*
X2572Y-101D01*
X2566Y-106D01*
X2505Y-166D01*
X2500Y-165D01*
X2495Y-166D01*
X2434Y-106D01*
X2428Y-101D01*
X2420Y-100D01*
X1880D01*
X1872Y-101D01*
X1866Y-106D01*
X1805Y-166D01*
X1800Y-165D01*
X1795Y-166D01*
X1734Y-106D01*
X1728Y-101D01*
X1720Y-100D01*
X1180D01*
X1172Y-101D01*
X1166Y-106D01*
X1105Y-166D01*
X1100Y-165D01*
X1095Y-166D01*
X964Y-36D01*
X958Y-31D01*
X950Y-30D01*
D02*
G37*
G36*
X483Y-92D02*
X465D01*
Y-115D01*
X483D01*
Y-92D01*
D02*
G37*
G36*
X455D02*
X436D01*
Y-115D01*
X455D01*
Y-92D01*
D02*
G37*
G36*
X299Y-97D02*
X262D01*
Y-107D01*
X250D01*
X245Y-108D01*
X241Y-111D01*
X214Y-138D01*
X211Y-143D01*
X210Y-147D01*
Y-181D01*
X206D01*
Y-252D01*
X206Y-257D01*
X202Y-260D01*
X200Y-260D01*
X200Y-260D01*
X168D01*
Y-287D01*
X113D01*
Y-281D01*
X67D01*
Y-319D01*
X113D01*
Y-313D01*
X168D01*
Y-340D01*
X172D01*
Y-387D01*
X172D01*
Y-433D01*
X209D01*
Y-387D01*
X198D01*
Y-340D01*
X202D01*
Y-269D01*
X202Y-264D01*
X206Y-262D01*
X207Y-262D01*
X207Y-262D01*
X238D01*
Y-295D01*
X255D01*
Y-255D01*
X239D01*
Y-181D01*
X235D01*
Y-153D01*
X255Y-133D01*
X262D01*
Y-143D01*
X299D01*
Y-97D01*
D02*
G37*
G36*
X483Y-125D02*
X465D01*
Y-148D01*
X483D01*
Y-125D01*
D02*
G37*
G36*
X455D02*
X436D01*
Y-148D01*
X455D01*
Y-125D01*
D02*
G37*
G36*
X2405Y-161D02*
Y-195D01*
X2439D01*
X2439Y-190D01*
X2435Y-180D01*
X2428Y-172D01*
X2420Y-165D01*
X2410Y-161D01*
X2405Y-161D01*
D02*
G37*
G36*
X3105D02*
Y-195D01*
X3139D01*
X3139Y-190D01*
X3135Y-180D01*
X3128Y-172D01*
X3120Y-165D01*
X3110Y-161D01*
X3105Y-161D01*
D02*
G37*
G36*
X1005D02*
Y-195D01*
X1039D01*
X1039Y-190D01*
X1035Y-180D01*
X1028Y-172D01*
X1020Y-165D01*
X1010Y-161D01*
X1005Y-161D01*
D02*
G37*
G36*
X1705D02*
Y-195D01*
X1739D01*
X1739Y-190D01*
X1735Y-180D01*
X1728Y-172D01*
X1720Y-165D01*
X1710Y-161D01*
X1705Y-161D01*
D02*
G37*
G36*
X2395D02*
X2390Y-161D01*
X2380Y-165D01*
X2372Y-172D01*
X2365Y-180D01*
X2361Y-190D01*
X2361Y-195D01*
X2395D01*
Y-161D01*
D02*
G37*
G36*
X3095D02*
X3090Y-161D01*
X3080Y-165D01*
X3072Y-172D01*
X3065Y-180D01*
X3061Y-190D01*
X3061Y-195D01*
X3095D01*
Y-161D01*
D02*
G37*
G36*
X995D02*
X990Y-161D01*
X980Y-165D01*
X972Y-172D01*
X965Y-180D01*
X961Y-190D01*
X961Y-195D01*
X995D01*
Y-161D01*
D02*
G37*
G36*
X1695D02*
X1690Y-161D01*
X1680Y-165D01*
X1672Y-172D01*
X1665Y-180D01*
X1661Y-190D01*
X1661Y-195D01*
X1695D01*
Y-161D01*
D02*
G37*
G36*
X653Y-151D02*
X607D01*
Y-188D01*
X653D01*
Y-188D01*
X658Y-186D01*
X665Y-193D01*
X664Y-193D01*
X663Y-200D01*
X664Y-207D01*
X665Y-207D01*
X658Y-214D01*
X653Y-212D01*
Y-212D01*
X607D01*
Y-249D01*
X653D01*
Y-243D01*
X660D01*
X664Y-242D01*
X669Y-239D01*
X689Y-219D01*
X692Y-215D01*
X692Y-212D01*
X696Y-207D01*
X697Y-200D01*
X696Y-193D01*
X692Y-188D01*
X692Y-185D01*
X689Y-181D01*
X669Y-161D01*
X664Y-158D01*
X660Y-157D01*
X653D01*
Y-151D01*
D02*
G37*
G36*
X3335Y-165D02*
X3265D01*
Y-235D01*
X3335D01*
Y-165D01*
D02*
G37*
G36*
X2900Y-165D02*
X2891Y-166D01*
X2883Y-170D01*
X2875Y-175D01*
X2870Y-183D01*
X2866Y-191D01*
X2865Y-200D01*
X2866Y-209D01*
X2870Y-217D01*
X2875Y-225D01*
X2883Y-230D01*
X2891Y-234D01*
X2900Y-235D01*
X2909Y-234D01*
X2917Y-230D01*
X2925Y-225D01*
X2930Y-217D01*
X2934Y-209D01*
X2935Y-200D01*
X2934Y-191D01*
X2930Y-183D01*
X2925Y-175D01*
X2917Y-170D01*
X2909Y-166D01*
X2900Y-165D01*
D02*
G37*
G36*
X2200D02*
X2191Y-166D01*
X2183Y-170D01*
X2175Y-175D01*
X2170Y-183D01*
X2166Y-191D01*
X2165Y-200D01*
X2166Y-209D01*
X2170Y-217D01*
X2175Y-225D01*
X2183Y-230D01*
X2191Y-234D01*
X2200Y-235D01*
X2209Y-234D01*
X2217Y-230D01*
X2225Y-225D01*
X2230Y-217D01*
X2234Y-209D01*
X2235Y-200D01*
X2234Y-191D01*
X2230Y-183D01*
X2225Y-175D01*
X2217Y-170D01*
X2209Y-166D01*
X2200Y-165D01*
D02*
G37*
G36*
X1500D02*
X1491Y-166D01*
X1483Y-170D01*
X1475Y-175D01*
X1470Y-183D01*
X1466Y-191D01*
X1465Y-200D01*
X1466Y-209D01*
X1470Y-217D01*
X1475Y-225D01*
X1483Y-230D01*
X1491Y-234D01*
X1500Y-235D01*
X1509Y-234D01*
X1517Y-230D01*
X1525Y-225D01*
X1530Y-217D01*
X1534Y-209D01*
X1535Y-200D01*
X1534Y-191D01*
X1530Y-183D01*
X1525Y-175D01*
X1517Y-170D01*
X1509Y-166D01*
X1500Y-165D01*
D02*
G37*
G36*
X118Y-217D02*
X95D01*
Y-236D01*
X118D01*
Y-217D01*
D02*
G37*
G36*
X85D02*
X62D01*
Y-236D01*
X85D01*
Y-217D01*
D02*
G37*
G36*
X3139Y-205D02*
X3105D01*
Y-239D01*
X3110Y-239D01*
X3120Y-235D01*
X3128Y-228D01*
X3135Y-220D01*
X3139Y-210D01*
X3139Y-205D01*
D02*
G37*
G36*
X2439D02*
X2405D01*
Y-239D01*
X2410Y-239D01*
X2420Y-235D01*
X2428Y-228D01*
X2435Y-220D01*
X2439Y-210D01*
X2439Y-205D01*
D02*
G37*
G36*
X1739D02*
X1705D01*
Y-239D01*
X1710Y-239D01*
X1720Y-235D01*
X1728Y-228D01*
X1735Y-220D01*
X1739Y-210D01*
X1739Y-205D01*
D02*
G37*
G36*
X1039D02*
X1005D01*
Y-239D01*
X1010Y-239D01*
X1020Y-235D01*
X1028Y-228D01*
X1035Y-220D01*
X1039Y-210D01*
X1039Y-205D01*
D02*
G37*
G36*
X3095D02*
X3061D01*
X3061Y-210D01*
X3065Y-220D01*
X3072Y-228D01*
X3080Y-235D01*
X3090Y-239D01*
X3095Y-239D01*
Y-205D01*
D02*
G37*
G36*
X2395D02*
X2361D01*
X2361Y-210D01*
X2365Y-220D01*
X2372Y-228D01*
X2380Y-235D01*
X2390Y-239D01*
X2395Y-239D01*
Y-205D01*
D02*
G37*
G36*
X1695D02*
X1661D01*
X1661Y-210D01*
X1665Y-220D01*
X1672Y-228D01*
X1680Y-235D01*
X1690Y-239D01*
X1695Y-239D01*
Y-205D01*
D02*
G37*
G36*
X995D02*
X961D01*
X961Y-210D01*
X965Y-220D01*
X972Y-228D01*
X980Y-235D01*
X990Y-239D01*
X995Y-239D01*
Y-205D01*
D02*
G37*
G36*
X118Y-246D02*
X95D01*
Y-265D01*
X118D01*
Y-246D01*
D02*
G37*
G36*
X85D02*
X62D01*
Y-265D01*
X85D01*
Y-246D01*
D02*
G37*
G36*
X3740Y-129D02*
X3727Y-130D01*
X3714Y-134D01*
X3702Y-140D01*
X3692Y-149D01*
X3683Y-159D01*
X3677Y-171D01*
X3673Y-184D01*
X3672Y-197D01*
X3673Y-210D01*
X3677Y-223D01*
X3683Y-235D01*
X3692Y-245D01*
X3702Y-254D01*
X3714Y-260D01*
X3727Y-264D01*
X3740Y-265D01*
X3753Y-264D01*
X3766Y-260D01*
X3778Y-254D01*
X3788Y-245D01*
X3797Y-235D01*
X3803Y-223D01*
X3807Y-210D01*
X3808Y-197D01*
X3807Y-184D01*
X3803Y-171D01*
X3797Y-159D01*
X3788Y-149D01*
X3778Y-140D01*
X3766Y-134D01*
X3753Y-130D01*
X3740Y-129D01*
D02*
G37*
G36*
X548Y-266D02*
X525D01*
Y-285D01*
X548D01*
Y-266D01*
D02*
G37*
G36*
X515D02*
X492D01*
Y-285D01*
X515D01*
Y-266D01*
D02*
G37*
G36*
X282Y-255D02*
X265D01*
Y-295D01*
X282D01*
Y-255D01*
D02*
G37*
G36*
X548Y-295D02*
X525D01*
Y-313D01*
X548D01*
Y-295D01*
D02*
G37*
G36*
X515D02*
X492D01*
Y-313D01*
X515D01*
Y-295D01*
D02*
G37*
G36*
X282Y-305D02*
X265D01*
Y-345D01*
X282D01*
Y-305D01*
D02*
G37*
G36*
X255D02*
X238D01*
Y-345D01*
X255D01*
Y-305D01*
D02*
G37*
G36*
X3035Y-358D02*
X2995D01*
Y-375D01*
X3035D01*
Y-358D01*
D02*
G37*
G36*
X2335D02*
X2295D01*
Y-375D01*
X2335D01*
Y-358D01*
D02*
G37*
G36*
X1635D02*
X1595D01*
Y-375D01*
X1635D01*
Y-358D01*
D02*
G37*
G36*
X935D02*
X895D01*
Y-375D01*
X935D01*
Y-358D01*
D02*
G37*
G36*
X2985D02*
X2945D01*
Y-375D01*
X2985D01*
Y-358D01*
D02*
G37*
G36*
X2285D02*
X2245D01*
Y-375D01*
X2285D01*
Y-358D01*
D02*
G37*
G36*
X1585D02*
X1545D01*
Y-375D01*
X1585D01*
Y-358D01*
D02*
G37*
G36*
X885D02*
X845D01*
Y-375D01*
X885D01*
Y-358D01*
D02*
G37*
G36*
X3108Y-367D02*
X3085D01*
Y-385D01*
X3108D01*
Y-367D01*
D02*
G37*
G36*
X3075D02*
X3052D01*
Y-385D01*
X3075D01*
Y-367D01*
D02*
G37*
G36*
X2408D02*
X2385D01*
Y-385D01*
X2408D01*
Y-367D01*
D02*
G37*
G36*
X2375D02*
X2352D01*
Y-385D01*
X2375D01*
Y-367D01*
D02*
G37*
G36*
X1708D02*
X1685D01*
Y-385D01*
X1708D01*
Y-367D01*
D02*
G37*
G36*
X1675D02*
X1652D01*
Y-385D01*
X1675D01*
Y-367D01*
D02*
G37*
G36*
X1008D02*
X985D01*
Y-385D01*
X1008D01*
Y-367D01*
D02*
G37*
G36*
X975D02*
X952D01*
Y-385D01*
X975D01*
Y-367D01*
D02*
G37*
G36*
X3035Y-385D02*
X2995D01*
Y-402D01*
X3035D01*
Y-385D01*
D02*
G37*
G36*
X2335D02*
X2295D01*
Y-402D01*
X2335D01*
Y-385D01*
D02*
G37*
G36*
X1635D02*
X1595D01*
Y-402D01*
X1635D01*
Y-385D01*
D02*
G37*
G36*
X935D02*
X895D01*
Y-402D01*
X935D01*
Y-385D01*
D02*
G37*
G36*
X3108Y-395D02*
X3085D01*
Y-414D01*
X3108D01*
Y-395D01*
D02*
G37*
G36*
X3075D02*
X3052D01*
Y-414D01*
X3075D01*
Y-395D01*
D02*
G37*
G36*
X2408D02*
X2385D01*
Y-414D01*
X2408D01*
Y-395D01*
D02*
G37*
G36*
X2375D02*
X2352D01*
Y-414D01*
X2375D01*
Y-395D01*
D02*
G37*
G36*
X1708D02*
X1685D01*
Y-414D01*
X1708D01*
Y-395D01*
D02*
G37*
G36*
X1675D02*
X1652D01*
Y-414D01*
X1675D01*
Y-395D01*
D02*
G37*
G36*
X1008D02*
X985D01*
Y-414D01*
X1008D01*
Y-395D01*
D02*
G37*
G36*
X975D02*
X952D01*
Y-414D01*
X975D01*
Y-395D01*
D02*
G37*
G36*
X3000Y-165D02*
X2991Y-166D01*
X2983Y-170D01*
X2975Y-175D01*
X2970Y-183D01*
X2966Y-191D01*
X2965Y-200D01*
X2966Y-209D01*
X2970Y-217D01*
X2975Y-225D01*
X2983Y-230D01*
X2987Y-232D01*
Y-265D01*
X2902Y-350D01*
X2899Y-354D01*
X2899Y-359D01*
Y-401D01*
X2871D01*
Y-434D01*
X2942D01*
X2947Y-434D01*
X2950Y-438D01*
X2950Y-440D01*
X2950Y-440D01*
Y-472D01*
X3030D01*
Y-468D01*
X3040D01*
X3045Y-467D01*
X3049Y-464D01*
X3051Y-462D01*
X3057D01*
Y-468D01*
X3103D01*
Y-462D01*
X3127D01*
Y-468D01*
X3173D01*
Y-431D01*
X3127D01*
Y-437D01*
X3103D01*
Y-431D01*
X3057D01*
Y-437D01*
X3045D01*
X3040Y-438D01*
X3036Y-441D01*
X3035Y-441D01*
X3030Y-440D01*
Y-438D01*
X2959D01*
X2954Y-438D01*
X2952Y-434D01*
X2952Y-433D01*
X2952Y-433D01*
Y-402D01*
X2985D01*
Y-385D01*
X2945D01*
Y-401D01*
X2924D01*
Y-364D01*
X3009Y-279D01*
X3012Y-275D01*
X3013Y-270D01*
Y-232D01*
X3017Y-230D01*
X3025Y-225D01*
X3030Y-217D01*
X3034Y-209D01*
X3035Y-200D01*
X3034Y-191D01*
X3030Y-183D01*
X3025Y-175D01*
X3017Y-170D01*
X3009Y-166D01*
X3000Y-165D01*
D02*
G37*
G36*
X2300D02*
X2291Y-166D01*
X2283Y-170D01*
X2275Y-175D01*
X2270Y-183D01*
X2266Y-191D01*
X2265Y-200D01*
X2266Y-209D01*
X2270Y-217D01*
X2275Y-225D01*
X2283Y-230D01*
X2287Y-232D01*
Y-265D01*
X2202Y-350D01*
X2199Y-354D01*
X2199Y-359D01*
Y-401D01*
X2171D01*
Y-434D01*
X2242D01*
X2247Y-434D01*
X2250Y-438D01*
X2250Y-440D01*
X2250Y-440D01*
Y-472D01*
X2330D01*
Y-468D01*
X2340D01*
X2345Y-467D01*
X2349Y-464D01*
X2351Y-462D01*
X2357D01*
Y-468D01*
X2403D01*
Y-462D01*
X2427D01*
Y-468D01*
X2473D01*
Y-431D01*
X2427D01*
Y-437D01*
X2403D01*
Y-431D01*
X2357D01*
Y-437D01*
X2345D01*
X2340Y-438D01*
X2336Y-441D01*
X2335Y-441D01*
X2330Y-440D01*
Y-438D01*
X2259D01*
X2254Y-438D01*
X2252Y-434D01*
X2252Y-433D01*
X2252Y-433D01*
Y-402D01*
X2285D01*
Y-385D01*
X2245D01*
Y-401D01*
X2224D01*
Y-364D01*
X2309Y-279D01*
X2312Y-275D01*
X2313Y-270D01*
Y-232D01*
X2317Y-230D01*
X2325Y-225D01*
X2330Y-217D01*
X2334Y-209D01*
X2335Y-200D01*
X2334Y-191D01*
X2330Y-183D01*
X2325Y-175D01*
X2317Y-170D01*
X2309Y-166D01*
X2300Y-165D01*
D02*
G37*
G36*
X1600D02*
X1591Y-166D01*
X1583Y-170D01*
X1575Y-175D01*
X1570Y-183D01*
X1566Y-191D01*
X1565Y-200D01*
X1566Y-209D01*
X1570Y-217D01*
X1575Y-225D01*
X1583Y-230D01*
X1587Y-232D01*
Y-265D01*
X1502Y-350D01*
X1499Y-354D01*
X1499Y-359D01*
Y-401D01*
X1471D01*
Y-434D01*
X1542D01*
X1547Y-434D01*
X1550Y-438D01*
X1550Y-440D01*
X1550Y-440D01*
Y-472D01*
X1630D01*
Y-468D01*
X1640D01*
X1645Y-467D01*
X1649Y-464D01*
X1651Y-462D01*
X1657D01*
Y-468D01*
X1703D01*
Y-462D01*
X1727D01*
Y-468D01*
X1773D01*
Y-431D01*
X1727D01*
Y-437D01*
X1703D01*
Y-431D01*
X1657D01*
Y-437D01*
X1645D01*
X1640Y-438D01*
X1636Y-441D01*
X1635Y-441D01*
X1630Y-440D01*
Y-438D01*
X1559D01*
X1554Y-438D01*
X1552Y-434D01*
X1552Y-433D01*
X1552Y-433D01*
Y-402D01*
X1585D01*
Y-385D01*
X1545D01*
Y-401D01*
X1524D01*
Y-364D01*
X1609Y-279D01*
X1612Y-275D01*
X1613Y-270D01*
Y-232D01*
X1617Y-230D01*
X1625Y-225D01*
X1630Y-217D01*
X1634Y-209D01*
X1635Y-200D01*
X1634Y-191D01*
X1630Y-183D01*
X1625Y-175D01*
X1617Y-170D01*
X1609Y-166D01*
X1600Y-165D01*
D02*
G37*
G36*
X900D02*
X891Y-166D01*
X883Y-170D01*
X875Y-175D01*
X870Y-183D01*
X866Y-191D01*
X865Y-200D01*
X866Y-209D01*
X870Y-217D01*
X875Y-225D01*
X883Y-230D01*
X887Y-232D01*
Y-265D01*
X802Y-350D01*
X799Y-354D01*
X799Y-359D01*
Y-401D01*
X771D01*
Y-434D01*
X842D01*
X847Y-434D01*
X850Y-438D01*
X850Y-440D01*
X850Y-440D01*
Y-472D01*
X930D01*
Y-468D01*
X940D01*
X945Y-467D01*
X949Y-464D01*
X951Y-462D01*
X957D01*
Y-468D01*
X1003D01*
Y-462D01*
X1027D01*
Y-468D01*
X1073D01*
Y-431D01*
X1027D01*
Y-437D01*
X1003D01*
Y-431D01*
X957D01*
Y-437D01*
X945D01*
X940Y-438D01*
X936Y-441D01*
X935Y-441D01*
X930Y-440D01*
Y-438D01*
X859D01*
X854Y-438D01*
X852Y-434D01*
X852Y-433D01*
X852Y-433D01*
Y-402D01*
X885D01*
Y-385D01*
X845D01*
Y-401D01*
X824D01*
Y-364D01*
X909Y-279D01*
X912Y-275D01*
X913Y-270D01*
Y-232D01*
X917Y-230D01*
X925Y-225D01*
X930Y-217D01*
X934Y-209D01*
X935Y-200D01*
X934Y-191D01*
X930Y-183D01*
X925Y-175D01*
X917Y-170D01*
X909Y-166D01*
X900Y-165D01*
D02*
G37*
G36*
X378Y-502D02*
X333D01*
Y-508D01*
X312D01*
X308Y-505D01*
X301Y-504D01*
X294Y-505D01*
X289Y-509D01*
X285Y-514D01*
X284Y-521D01*
X285Y-528D01*
X289Y-533D01*
X294Y-537D01*
X301Y-538D01*
X308Y-537D01*
X312Y-534D01*
X333D01*
Y-540D01*
X378D01*
Y-502D01*
D02*
G37*
G36*
X105Y-511D02*
Y-545D01*
X139D01*
X139Y-540D01*
X135Y-530D01*
X128Y-522D01*
X120Y-515D01*
X110Y-511D01*
X105Y-511D01*
D02*
G37*
G36*
X95D02*
X90Y-511D01*
X80Y-515D01*
X72Y-522D01*
X65Y-530D01*
X61Y-540D01*
X61Y-545D01*
X95D01*
Y-511D01*
D02*
G37*
G36*
X139Y-555D02*
X105D01*
Y-589D01*
X110Y-589D01*
X120Y-585D01*
X128Y-578D01*
X135Y-570D01*
X139Y-560D01*
X139Y-555D01*
D02*
G37*
G36*
X95D02*
X61D01*
X61Y-560D01*
X65Y-570D01*
X72Y-578D01*
X80Y-585D01*
X90Y-589D01*
X95Y-589D01*
Y-555D01*
D02*
G37*
G36*
X1955Y-561D02*
Y-595D01*
X1989D01*
X1989Y-590D01*
X1985Y-580D01*
X1978Y-572D01*
X1970Y-565D01*
X1960Y-561D01*
X1955Y-561D01*
D02*
G37*
G36*
X1945D02*
X1940Y-561D01*
X1930Y-565D01*
X1922Y-572D01*
X1915Y-580D01*
X1911Y-590D01*
X1911Y-595D01*
X1945D01*
Y-561D01*
D02*
G37*
G36*
X2259Y-617D02*
X2222D01*
Y-627D01*
X2188D01*
Y-617D01*
X2151D01*
Y-663D01*
X2188D01*
Y-653D01*
X2222D01*
Y-663D01*
X2259D01*
Y-617D01*
D02*
G37*
G36*
X2323Y-612D02*
X2305D01*
Y-635D01*
X2323D01*
Y-612D01*
D02*
G37*
G36*
X2295D02*
X2276D01*
Y-635D01*
X2295D01*
Y-612D01*
D02*
G37*
G36*
X1989Y-605D02*
X1955D01*
Y-639D01*
X1960Y-639D01*
X1970Y-635D01*
X1978Y-628D01*
X1985Y-620D01*
X1989Y-610D01*
X1989Y-605D01*
D02*
G37*
G36*
X1945D02*
X1911D01*
X1911Y-610D01*
X1915Y-620D01*
X1922Y-628D01*
X1930Y-635D01*
X1940Y-639D01*
X1945Y-639D01*
Y-605D01*
D02*
G37*
G36*
X301Y-638D02*
X278D01*
Y-666D01*
X301D01*
Y-638D01*
D02*
G37*
G36*
X2323Y-645D02*
X2305D01*
Y-668D01*
X2323D01*
Y-645D01*
D02*
G37*
G36*
X2295D02*
X2276D01*
Y-668D01*
X2295D01*
Y-645D01*
D02*
G37*
G36*
X1655Y-661D02*
Y-695D01*
X1689D01*
X1689Y-690D01*
X1685Y-680D01*
X1678Y-672D01*
X1670Y-665D01*
X1660Y-661D01*
X1655Y-661D01*
D02*
G37*
G36*
X1645Y-661D02*
X1640Y-661D01*
X1630Y-665D01*
X1622Y-672D01*
X1615Y-680D01*
X1611Y-690D01*
X1611Y-695D01*
X1645D01*
Y-661D01*
D02*
G37*
G36*
X301Y-676D02*
X278D01*
Y-705D01*
X301D01*
Y-676D01*
D02*
G37*
G36*
X1689Y-705D02*
X1655D01*
Y-739D01*
X1660Y-739D01*
X1670Y-735D01*
X1678Y-728D01*
X1685Y-720D01*
X1689Y-710D01*
X1689Y-705D01*
D02*
G37*
G36*
X1645D02*
X1611D01*
X1611Y-710D01*
X1615Y-720D01*
X1622Y-728D01*
X1630Y-735D01*
X1640Y-739D01*
X1645Y-739D01*
Y-705D01*
D02*
G37*
G36*
X1650Y-765D02*
X1641Y-766D01*
X1633Y-770D01*
X1625Y-775D01*
X1620Y-783D01*
X1618Y-787D01*
X1498D01*
Y-777D01*
X1461D01*
Y-823D01*
X1498D01*
Y-813D01*
X1618D01*
X1620Y-817D01*
X1625Y-825D01*
X1633Y-830D01*
X1641Y-834D01*
X1650Y-835D01*
X1659Y-834D01*
X1667Y-830D01*
X1675Y-825D01*
X1680Y-817D01*
X1684Y-809D01*
X1685Y-800D01*
X1684Y-791D01*
X1680Y-783D01*
X1675Y-775D01*
X1667Y-770D01*
X1659Y-766D01*
X1650Y-765D01*
D02*
G37*
G36*
X1295Y-772D02*
Y-795D01*
X1314D01*
Y-772D01*
X1295D01*
D02*
G37*
G36*
X1314Y-805D02*
X1295D01*
Y-828D01*
X1314D01*
Y-805D01*
D02*
G37*
G36*
X1163Y-841D02*
X1141D01*
Y-860D01*
X1163D01*
Y-841D01*
D02*
G37*
G36*
X1131D02*
X1108D01*
Y-860D01*
X1131D01*
Y-841D01*
D02*
G37*
G36*
X1650Y-865D02*
X1641Y-866D01*
X1633Y-870D01*
X1625Y-875D01*
X1620Y-883D01*
X1618Y-887D01*
X1498D01*
Y-877D01*
X1460D01*
Y-923D01*
X1498D01*
Y-913D01*
X1618D01*
X1620Y-917D01*
X1625Y-925D01*
X1633Y-930D01*
X1641Y-934D01*
X1650Y-935D01*
X1659Y-934D01*
X1667Y-930D01*
X1675Y-925D01*
X1680Y-917D01*
X1684Y-909D01*
X1685Y-900D01*
X1684Y-891D01*
X1680Y-883D01*
X1675Y-875D01*
X1667Y-870D01*
X1659Y-866D01*
X1650Y-865D01*
D02*
G37*
G36*
X1163Y-870D02*
X1141D01*
Y-889D01*
X1163D01*
Y-870D01*
D02*
G37*
G36*
X1314Y-872D02*
X1295D01*
Y-895D01*
X1314D01*
Y-872D01*
D02*
G37*
G36*
X1285D02*
X1267D01*
Y-895D01*
X1285D01*
Y-872D01*
D02*
G37*
G36*
X1314Y-905D02*
X1295D01*
Y-928D01*
X1314D01*
Y-905D01*
D02*
G37*
G36*
X1650Y-965D02*
X1641Y-966D01*
X1633Y-970D01*
X1625Y-975D01*
X1620Y-983D01*
X1618Y-987D01*
X1498D01*
Y-977D01*
X1461D01*
Y-1023D01*
X1498D01*
Y-1013D01*
X1618D01*
X1620Y-1017D01*
X1625Y-1025D01*
X1633Y-1030D01*
X1641Y-1034D01*
X1650Y-1035D01*
X1659Y-1034D01*
X1667Y-1030D01*
X1675Y-1025D01*
X1680Y-1017D01*
X1684Y-1009D01*
X1685Y-1000D01*
X1684Y-991D01*
X1680Y-983D01*
X1675Y-975D01*
X1667Y-970D01*
X1659Y-966D01*
X1650Y-965D01*
D02*
G37*
G36*
X2049Y-933D02*
X2024D01*
Y-991D01*
X2049D01*
Y-933D01*
D02*
G37*
G36*
X2014D02*
X1990D01*
Y-991D01*
X2014D01*
Y-933D01*
D02*
G37*
G36*
X1315Y-972D02*
X1296D01*
Y-995D01*
X1315D01*
Y-972D01*
D02*
G37*
G36*
X1286D02*
X1267D01*
Y-995D01*
X1286D01*
Y-972D01*
D02*
G37*
G36*
X699Y-931D02*
X615D01*
Y-1015D01*
X699D01*
Y-931D01*
D02*
G37*
G36*
X605D02*
X521D01*
Y-1015D01*
X605D01*
Y-931D01*
D02*
G37*
G36*
X1928Y-1007D02*
X1905D01*
Y-1025D01*
X1928D01*
Y-1007D01*
D02*
G37*
G36*
X1895D02*
X1872D01*
Y-1025D01*
X1895D01*
Y-1007D01*
D02*
G37*
G36*
X1848Y-1007D02*
X1825D01*
Y-1025D01*
X1848D01*
Y-1007D01*
D02*
G37*
G36*
X1815D02*
X1792D01*
Y-1025D01*
X1815D01*
Y-1007D01*
D02*
G37*
G36*
X1315Y-1005D02*
X1296D01*
Y-1028D01*
X1315D01*
Y-1005D01*
D02*
G37*
G36*
X1286D02*
X1267D01*
Y-1028D01*
X1286D01*
Y-1005D01*
D02*
G37*
G36*
X1848Y-1035D02*
X1825D01*
Y-1054D01*
X1848D01*
Y-1035D01*
D02*
G37*
G36*
X1815D02*
X1792D01*
Y-1054D01*
X1815D01*
Y-1035D01*
D02*
G37*
G36*
X1928Y-1035D02*
X1905D01*
Y-1054D01*
X1928D01*
Y-1035D01*
D02*
G37*
G36*
X1895D02*
X1872D01*
Y-1054D01*
X1895D01*
Y-1035D01*
D02*
G37*
G36*
X2049Y-1001D02*
X2024D01*
Y-1059D01*
X2049D01*
Y-1001D01*
D02*
G37*
G36*
X2014D02*
X1990D01*
Y-1059D01*
X2014D01*
Y-1001D01*
D02*
G37*
G36*
X730Y-485D02*
X720Y-487D01*
X712Y-492D01*
X707Y-500D01*
X705Y-510D01*
X707Y-520D01*
X712Y-528D01*
X720Y-533D01*
X730Y-535D01*
X740Y-533D01*
X744Y-530D01*
X1802D01*
X1830Y-558D01*
Y-565D01*
X1815D01*
Y-635D01*
X1830D01*
Y-730D01*
X1831Y-738D01*
X1836Y-744D01*
X1869Y-778D01*
X1876Y-783D01*
X1884Y-784D01*
X1980D01*
X1984Y-787D01*
X1994Y-789D01*
X2003Y-787D01*
X2008Y-784D01*
X2040D01*
Y-822D01*
X2092D01*
Y-938D01*
X2085D01*
Y-1054D01*
X2092D01*
Y-1063D01*
X2083Y-1072D01*
X1923D01*
Y-1071D01*
X1877D01*
Y-1072D01*
X1843D01*
Y-1071D01*
X1797D01*
Y-1108D01*
X1843D01*
Y-1107D01*
X1877D01*
Y-1108D01*
X1923D01*
Y-1107D01*
X2090D01*
X2097Y-1106D01*
X2103Y-1102D01*
X2123Y-1083D01*
X2123Y-1083D01*
X2126Y-1077D01*
X2128Y-1070D01*
X2128Y-1070D01*
Y-1054D01*
X2135D01*
Y-938D01*
X2128D01*
Y-822D01*
X2180D01*
Y-706D01*
X2123D01*
Y-663D01*
X2129D01*
Y-617D01*
X2092D01*
Y-663D01*
X2097D01*
Y-706D01*
X2040D01*
Y-743D01*
X2008D01*
X2003Y-741D01*
X1994Y-739D01*
X1984Y-741D01*
X1980Y-743D01*
X1892D01*
X1870Y-722D01*
Y-635D01*
X1885D01*
Y-565D01*
X1870D01*
Y-550D01*
X1869Y-542D01*
X1864Y-536D01*
X1824Y-496D01*
X1818Y-491D01*
X1810Y-490D01*
X744D01*
X740Y-487D01*
X730Y-485D01*
D02*
G37*
G36*
X2283Y-1082D02*
X2265D01*
Y-1105D01*
X2283D01*
Y-1082D01*
D02*
G37*
G36*
X2255D02*
X2236D01*
Y-1105D01*
X2255D01*
Y-1082D01*
D02*
G37*
G36*
X699Y-1025D02*
X615D01*
Y-1109D01*
X699D01*
Y-1025D01*
D02*
G37*
G36*
X605D02*
X521D01*
Y-1109D01*
X605D01*
Y-1025D01*
D02*
G37*
G36*
X2283Y-1115D02*
X2265D01*
Y-1138D01*
X2283D01*
Y-1115D01*
D02*
G37*
G36*
X2255D02*
X2236D01*
Y-1138D01*
X2255D01*
Y-1115D01*
D02*
G37*
G36*
X1054Y-1261D02*
X1026D01*
Y-1284D01*
X1054D01*
Y-1261D01*
D02*
G37*
G36*
X1016D02*
X987D01*
Y-1284D01*
X1016D01*
Y-1261D01*
D02*
G37*
G36*
X1655Y-1261D02*
Y-1295D01*
X1689D01*
X1689Y-1290D01*
X1685Y-1280D01*
X1678Y-1272D01*
X1670Y-1265D01*
X1660Y-1261D01*
X1655Y-1261D01*
D02*
G37*
G36*
X1645Y-1261D02*
X1640Y-1261D01*
X1630Y-1265D01*
X1622Y-1272D01*
X1615Y-1280D01*
X1611Y-1290D01*
X1611Y-1295D01*
X1645D01*
Y-1261D01*
D02*
G37*
G36*
X1689Y-1305D02*
X1655D01*
Y-1339D01*
X1660Y-1339D01*
X1670Y-1335D01*
X1678Y-1328D01*
X1685Y-1320D01*
X1689Y-1310D01*
X1689Y-1305D01*
D02*
G37*
G36*
X1645D02*
X1611D01*
X1611Y-1310D01*
X1615Y-1320D01*
X1622Y-1328D01*
X1630Y-1335D01*
X1640Y-1339D01*
X1645Y-1339D01*
Y-1305D01*
D02*
G37*
G36*
X301Y-1358D02*
X278D01*
Y-1386D01*
X301D01*
Y-1358D01*
D02*
G37*
G36*
Y-1396D02*
X278D01*
Y-1425D01*
X301D01*
Y-1396D01*
D02*
G37*
G36*
X356Y-1299D02*
X346Y-1301D01*
X338Y-1307D01*
X332Y-1315D01*
X330Y-1324D01*
X332Y-1334D01*
X335Y-1338D01*
Y-1353D01*
X333Y-1358D01*
X311D01*
Y-1391D01*
Y-1425D01*
X333D01*
Y-1425D01*
X338Y-1426D01*
Y-1507D01*
X337D01*
Y-1553D01*
X338D01*
Y-1585D01*
X321D01*
Y-1706D01*
X328D01*
X331Y-1711D01*
X312Y-1730D01*
X130D01*
X122Y-1731D01*
X116Y-1736D01*
X86Y-1766D01*
X81Y-1772D01*
X80Y-1780D01*
Y-1815D01*
X65D01*
Y-1885D01*
X87D01*
Y-1950D01*
X88Y-1955D01*
X91Y-1959D01*
X111Y-1979D01*
X115Y-1982D01*
X120Y-1983D01*
X121D01*
Y-1993D01*
X159D01*
Y-1947D01*
X121D01*
Y-1947D01*
X117Y-1949D01*
X113Y-1945D01*
Y-1885D01*
X135D01*
Y-1815D01*
X120D01*
Y-1788D01*
X138Y-1770D01*
X320D01*
X328Y-1769D01*
X334Y-1764D01*
X370Y-1729D01*
X374Y-1722D01*
X376Y-1714D01*
Y-1706D01*
X390D01*
Y-1692D01*
X417D01*
Y-1698D01*
X463D01*
Y-1692D01*
X477D01*
Y-1698D01*
X523D01*
Y-1661D01*
X477D01*
Y-1667D01*
X463D01*
Y-1661D01*
X417D01*
Y-1667D01*
X390D01*
Y-1585D01*
X373D01*
Y-1553D01*
X374D01*
Y-1507D01*
X373D01*
Y-1421D01*
X378Y-1420D01*
X383D01*
X383Y-1420D01*
X393D01*
Y-1526D01*
X394Y-1530D01*
X396Y-1535D01*
X423Y-1561D01*
X424Y-1567D01*
X427Y-1571D01*
Y-1602D01*
X417D01*
Y-1639D01*
X463D01*
Y-1602D01*
X453D01*
Y-1571D01*
X456Y-1567D01*
X457Y-1560D01*
X456Y-1553D01*
X452Y-1548D01*
X447Y-1544D01*
X441Y-1543D01*
X418Y-1520D01*
Y-1420D01*
X428D01*
X428Y-1420D01*
X433D01*
X433Y-1420D01*
X443D01*
Y-1466D01*
X444Y-1470D01*
X447Y-1475D01*
X1037Y-2065D01*
Y-2182D01*
X1027D01*
Y-2219D01*
X1073D01*
Y-2213D01*
X1218D01*
X1220Y-2217D01*
X1225Y-2225D01*
X1233Y-2230D01*
X1241Y-2234D01*
X1250Y-2235D01*
X1259Y-2234D01*
X1267Y-2230D01*
X1275Y-2225D01*
X1280Y-2217D01*
X1284Y-2209D01*
X1285Y-2200D01*
X1284Y-2191D01*
X1280Y-2183D01*
X1275Y-2175D01*
X1267Y-2170D01*
X1259Y-2166D01*
X1250Y-2165D01*
X1241Y-2166D01*
X1233Y-2170D01*
X1225Y-2175D01*
X1220Y-2183D01*
X1218Y-2187D01*
X1073D01*
Y-2182D01*
X1063D01*
Y-2060D01*
X1062Y-2055D01*
X1059Y-2051D01*
X468Y-1460D01*
Y-1420D01*
X478D01*
X478Y-1420D01*
X483D01*
X483Y-1420D01*
X493D01*
Y-1466D01*
X494Y-1470D01*
X496Y-1475D01*
X1041Y-2019D01*
X1045Y-2022D01*
X1050Y-2023D01*
X1335D01*
X1437Y-2125D01*
Y-2182D01*
X1427D01*
Y-2219D01*
X1473D01*
Y-2213D01*
X1618D01*
X1620Y-2217D01*
X1625Y-2225D01*
X1633Y-2230D01*
X1641Y-2234D01*
X1650Y-2235D01*
X1659Y-2234D01*
X1667Y-2230D01*
X1675Y-2225D01*
X1680Y-2217D01*
X1684Y-2209D01*
X1685Y-2200D01*
X1684Y-2191D01*
X1680Y-2183D01*
X1675Y-2175D01*
X1667Y-2170D01*
X1659Y-2166D01*
X1650Y-2165D01*
X1641Y-2166D01*
X1633Y-2170D01*
X1625Y-2175D01*
X1620Y-2183D01*
X1618Y-2187D01*
X1473D01*
Y-2182D01*
X1463D01*
Y-2120D01*
X1462Y-2115D01*
X1459Y-2111D01*
X1349Y-2001D01*
X1345Y-1998D01*
X1340Y-1997D01*
X1055D01*
X518Y-1460D01*
Y-1420D01*
X528D01*
X528Y-1420D01*
X533D01*
X533Y-1420D01*
X543D01*
Y-1456D01*
X544Y-1460D01*
X547Y-1465D01*
X1011Y-1929D01*
X1015Y-1932D01*
X1020Y-1933D01*
X1320D01*
X1325Y-1932D01*
X1329Y-1929D01*
X1440Y-1818D01*
X1473D01*
Y-1813D01*
X1618D01*
X1620Y-1817D01*
X1625Y-1825D01*
X1633Y-1830D01*
X1641Y-1834D01*
X1650Y-1835D01*
X1659Y-1834D01*
X1667Y-1830D01*
X1675Y-1825D01*
X1680Y-1817D01*
X1684Y-1809D01*
X1685Y-1800D01*
X1684Y-1791D01*
X1680Y-1783D01*
X1675Y-1775D01*
X1667Y-1770D01*
X1659Y-1766D01*
X1650Y-1765D01*
X1641Y-1766D01*
X1633Y-1770D01*
X1625Y-1775D01*
X1620Y-1783D01*
X1618Y-1787D01*
X1473D01*
Y-1781D01*
X1427D01*
Y-1795D01*
X1315Y-1907D01*
X1025D01*
X568Y-1450D01*
Y-1420D01*
X578D01*
X578Y-1420D01*
X583D01*
X583Y-1420D01*
X628D01*
X628Y-1420D01*
X633D01*
X633Y-1420D01*
X678D01*
X678Y-1420D01*
X683D01*
X683Y-1420D01*
X728D01*
X728Y-1420D01*
X733D01*
X733Y-1420D01*
X743D01*
Y-1454D01*
X740Y-1459D01*
X738Y-1466D01*
X740Y-1472D01*
X743Y-1478D01*
X749Y-1481D01*
X756Y-1483D01*
X762Y-1481D01*
X768Y-1478D01*
X771Y-1472D01*
X773Y-1466D01*
X771Y-1459D01*
X768Y-1454D01*
Y-1420D01*
X778D01*
X778Y-1420D01*
X783D01*
X783Y-1420D01*
X793D01*
Y-1454D01*
X790Y-1459D01*
X788Y-1466D01*
X790Y-1472D01*
X793Y-1478D01*
X799Y-1481D01*
X806Y-1483D01*
X812Y-1481D01*
X818Y-1478D01*
X821Y-1472D01*
X823Y-1466D01*
X821Y-1459D01*
X818Y-1454D01*
Y-1420D01*
X828D01*
X828Y-1420D01*
X833D01*
X833Y-1420D01*
X843D01*
Y-1454D01*
X840Y-1459D01*
X838Y-1466D01*
X840Y-1472D01*
X843Y-1478D01*
X849Y-1481D01*
X856Y-1483D01*
X862Y-1481D01*
X868Y-1478D01*
X871Y-1472D01*
X873Y-1466D01*
X871Y-1459D01*
X868Y-1454D01*
Y-1420D01*
X878D01*
X878Y-1420D01*
X883D01*
X883Y-1420D01*
X893D01*
Y-1453D01*
X890Y-1458D01*
X888Y-1464D01*
X890Y-1471D01*
X893Y-1477D01*
X899Y-1480D01*
X906Y-1482D01*
X912Y-1480D01*
X918Y-1477D01*
X921Y-1471D01*
X923Y-1464D01*
X921Y-1458D01*
X918Y-1453D01*
Y-1420D01*
X928D01*
X928Y-1420D01*
X933D01*
X933Y-1420D01*
X943D01*
Y-1454D01*
X940Y-1459D01*
X938Y-1466D01*
X940Y-1472D01*
X943Y-1478D01*
X949Y-1481D01*
X956Y-1483D01*
X962Y-1481D01*
X968Y-1478D01*
X971Y-1472D01*
X973Y-1466D01*
X971Y-1459D01*
X968Y-1454D01*
Y-1420D01*
X978D01*
Y-1363D01*
X933D01*
X933Y-1363D01*
X928D01*
X928Y-1363D01*
X883D01*
X883Y-1363D01*
X878D01*
X878Y-1363D01*
X833D01*
X833Y-1363D01*
X828D01*
X828Y-1363D01*
X783D01*
X783Y-1363D01*
X778D01*
X778Y-1363D01*
X733D01*
X733Y-1363D01*
X728D01*
X728Y-1363D01*
X683D01*
X683Y-1363D01*
X678D01*
X678Y-1363D01*
X633D01*
X633Y-1363D01*
X628D01*
X628Y-1363D01*
X623D01*
X621Y-1358D01*
X635Y-1343D01*
X1375D01*
X1427Y-1395D01*
Y-1419D01*
X1473D01*
Y-1413D01*
X1618D01*
X1620Y-1417D01*
X1625Y-1425D01*
X1633Y-1430D01*
X1641Y-1434D01*
X1650Y-1435D01*
X1659Y-1434D01*
X1667Y-1430D01*
X1675Y-1425D01*
X1680Y-1417D01*
X1684Y-1409D01*
X1685Y-1400D01*
X1684Y-1391D01*
X1680Y-1383D01*
X1675Y-1375D01*
X1667Y-1370D01*
X1659Y-1366D01*
X1650Y-1365D01*
X1641Y-1366D01*
X1633Y-1370D01*
X1625Y-1375D01*
X1620Y-1383D01*
X1618Y-1387D01*
X1473D01*
Y-1382D01*
X1450D01*
X1389Y-1321D01*
X1385Y-1318D01*
X1380Y-1317D01*
X630D01*
X625Y-1318D01*
X621Y-1321D01*
X596Y-1345D01*
X594Y-1350D01*
X593Y-1354D01*
Y-1363D01*
X583D01*
X583Y-1363D01*
X578D01*
X578Y-1363D01*
X533D01*
X533Y-1363D01*
X528D01*
X528Y-1363D01*
X483D01*
X483Y-1363D01*
X478D01*
X478Y-1363D01*
X433D01*
X433Y-1363D01*
X428D01*
X428Y-1363D01*
X383D01*
X383Y-1363D01*
X378D01*
X376Y-1358D01*
Y-1338D01*
X379Y-1334D01*
X381Y-1324D01*
X379Y-1315D01*
X373Y-1307D01*
X365Y-1301D01*
X356Y-1299D01*
D02*
G37*
G36*
X1478Y-1436D02*
X1455D01*
Y-1455D01*
X1478D01*
Y-1436D01*
D02*
G37*
G36*
X1445D02*
X1422D01*
Y-1455D01*
X1445D01*
Y-1436D01*
D02*
G37*
G36*
X1478Y-1465D02*
X1450D01*
X1422D01*
Y-1483D01*
X1422Y-1483D01*
X1421Y-1488D01*
X1333D01*
Y-1482D01*
X1287D01*
Y-1519D01*
X1333D01*
Y-1513D01*
X1615D01*
Y-1535D01*
X1685D01*
Y-1518D01*
X1703D01*
X1722Y-1537D01*
Y-1863D01*
X1703Y-1882D01*
X1685D01*
Y-1865D01*
X1615D01*
Y-1935D01*
X1685D01*
Y-1918D01*
X1703D01*
X1722Y-1937D01*
Y-2263D01*
X1703Y-2282D01*
X1685D01*
Y-2265D01*
X1615D01*
Y-2282D01*
X1478D01*
Y-2265D01*
X1450D01*
X1422D01*
Y-2282D01*
X1285D01*
Y-2265D01*
X1215D01*
Y-2335D01*
X1285D01*
Y-2318D01*
X1615D01*
Y-2335D01*
X1685D01*
Y-2318D01*
X1710D01*
X1717Y-2316D01*
X1723Y-2313D01*
X1753Y-2283D01*
X1756Y-2277D01*
X1758Y-2270D01*
Y-1930D01*
X1756Y-1923D01*
X1753Y-1917D01*
X1735Y-1900D01*
X1753Y-1883D01*
X1756Y-1877D01*
X1758Y-1870D01*
Y-1530D01*
X1756Y-1523D01*
X1753Y-1517D01*
X1723Y-1487D01*
X1717Y-1484D01*
X1710Y-1482D01*
X1685D01*
Y-1465D01*
X1615D01*
Y-1488D01*
X1479D01*
X1478Y-1483D01*
X1478Y-1483D01*
Y-1465D01*
D02*
G37*
G36*
X320Y-1502D02*
X301D01*
Y-1525D01*
X320D01*
Y-1502D01*
D02*
G37*
G36*
X291D02*
X273D01*
Y-1525D01*
X291D01*
Y-1502D01*
D02*
G37*
G36*
X3628Y-1520D02*
X3596D01*
Y-1555D01*
X3628D01*
Y-1520D01*
D02*
G37*
G36*
X3586D02*
X3553D01*
Y-1555D01*
X3586D01*
Y-1520D01*
D02*
G37*
G36*
X320Y-1535D02*
X301D01*
Y-1558D01*
X320D01*
Y-1535D01*
D02*
G37*
G36*
X291D02*
X273D01*
Y-1558D01*
X291D01*
Y-1535D01*
D02*
G37*
G36*
X1163Y-1445D02*
X1156Y-1447D01*
X1150Y-1450D01*
X1147Y-1456D01*
X1145Y-1463D01*
X1147Y-1469D01*
X1150Y-1474D01*
Y-1500D01*
X1146D01*
Y-1581D01*
X1177Y-1581D01*
X1179Y-1583D01*
X1181Y-1586D01*
X1180Y-1588D01*
X1123D01*
Y-1581D01*
X1077D01*
Y-1600D01*
X1077Y-1600D01*
X1077Y-1601D01*
Y-1619D01*
X1123D01*
Y-1613D01*
X1183D01*
Y-1660D01*
X1187D01*
Y-1768D01*
X1183Y-1770D01*
X1175Y-1775D01*
X1170Y-1783D01*
X1166Y-1791D01*
X1165Y-1800D01*
X1166Y-1809D01*
X1170Y-1817D01*
X1175Y-1825D01*
X1183Y-1830D01*
X1191Y-1834D01*
X1200Y-1835D01*
X1209Y-1834D01*
X1217Y-1830D01*
X1225Y-1825D01*
X1230Y-1817D01*
X1234Y-1809D01*
X1235Y-1800D01*
X1234Y-1791D01*
X1230Y-1783D01*
X1225Y-1775D01*
X1217Y-1770D01*
X1213Y-1768D01*
Y-1660D01*
X1217D01*
Y-1588D01*
X1217Y-1584D01*
X1221Y-1581D01*
X1222Y-1581D01*
X1222Y-1581D01*
X1254D01*
Y-1572D01*
X1287D01*
Y-1578D01*
X1333D01*
Y-1541D01*
X1287D01*
Y-1547D01*
X1254D01*
Y-1500D01*
X1221D01*
Y-1572D01*
X1220Y-1576D01*
X1217Y-1579D01*
X1215Y-1579D01*
X1215Y-1579D01*
X1185Y-1579D01*
X1183Y-1579D01*
X1180Y-1576D01*
X1179Y-1572D01*
Y-1500D01*
X1175D01*
Y-1474D01*
X1178Y-1469D01*
X1180Y-1463D01*
X1178Y-1456D01*
X1175Y-1450D01*
X1169Y-1447D01*
X1163Y-1445D01*
D02*
G37*
G36*
X3688Y-1437D02*
X3651D01*
Y-1483D01*
X3657D01*
Y-1525D01*
X3637D01*
Y-1595D01*
X3702D01*
Y-1525D01*
X3682D01*
Y-1483D01*
X3688D01*
Y-1437D01*
D02*
G37*
G36*
X3628Y-1565D02*
X3596D01*
Y-1600D01*
X3628D01*
Y-1565D01*
D02*
G37*
G36*
X3586D02*
X3553D01*
Y-1600D01*
X3586D01*
Y-1565D01*
D02*
G37*
G36*
X500Y-1543D02*
X493Y-1544D01*
X488Y-1548D01*
X484Y-1553D01*
X483Y-1560D01*
X484Y-1567D01*
X487Y-1571D01*
Y-1602D01*
X477D01*
Y-1639D01*
X523D01*
Y-1602D01*
X513D01*
Y-1571D01*
X516Y-1567D01*
X517Y-1560D01*
X516Y-1553D01*
X512Y-1548D01*
X507Y-1544D01*
X500Y-1543D01*
D02*
G37*
G36*
X273Y-1580D02*
X238D01*
Y-1641D01*
X273D01*
Y-1580D01*
D02*
G37*
G36*
X228D02*
X194D01*
Y-1641D01*
X228D01*
Y-1580D01*
D02*
G37*
G36*
X2214Y-1575D02*
X2185D01*
Y-1643D01*
X2214D01*
Y-1575D01*
D02*
G37*
G36*
X2175D02*
X2146D01*
Y-1643D01*
X2175D01*
Y-1575D01*
D02*
G37*
G36*
X1655Y-1661D02*
Y-1695D01*
X1689D01*
X1689Y-1690D01*
X1685Y-1680D01*
X1678Y-1672D01*
X1670Y-1665D01*
X1660Y-1661D01*
X1655Y-1661D01*
D02*
G37*
G36*
X1645D02*
X1640Y-1661D01*
X1630Y-1665D01*
X1622Y-1672D01*
X1615Y-1680D01*
X1611Y-1690D01*
X1611Y-1695D01*
X1645D01*
Y-1661D01*
D02*
G37*
G36*
X273Y-1651D02*
X238D01*
Y-1711D01*
X273D01*
Y-1651D01*
D02*
G37*
G36*
X228D02*
X194D01*
Y-1711D01*
X228D01*
Y-1651D01*
D02*
G37*
G36*
X1478Y-1717D02*
X1455D01*
Y-1735D01*
X1478D01*
Y-1717D01*
D02*
G37*
G36*
X1445D02*
X1422D01*
Y-1735D01*
X1445D01*
Y-1717D01*
D02*
G37*
G36*
X1689Y-1705D02*
X1655D01*
Y-1739D01*
X1660Y-1739D01*
X1670Y-1735D01*
X1678Y-1728D01*
X1685Y-1720D01*
X1689Y-1710D01*
X1689Y-1705D01*
D02*
G37*
G36*
X1645D02*
X1611D01*
X1611Y-1710D01*
X1615Y-1720D01*
X1622Y-1728D01*
X1630Y-1735D01*
X1640Y-1739D01*
X1645Y-1739D01*
Y-1705D01*
D02*
G37*
G36*
X1478Y-1745D02*
X1455D01*
Y-1764D01*
X1478D01*
Y-1745D01*
D02*
G37*
G36*
X1445D02*
X1422D01*
Y-1764D01*
X1445D01*
Y-1745D01*
D02*
G37*
G36*
X1305Y-1761D02*
Y-1795D01*
X1339D01*
X1339Y-1790D01*
X1335Y-1780D01*
X1328Y-1772D01*
X1320Y-1765D01*
X1310Y-1761D01*
X1305Y-1761D01*
D02*
G37*
G36*
X1295D02*
X1290Y-1761D01*
X1280Y-1765D01*
X1272Y-1772D01*
X1265Y-1780D01*
X1261Y-1790D01*
X1261Y-1795D01*
X1295D01*
Y-1761D01*
D02*
G37*
G36*
X2625Y-1771D02*
X2555D01*
Y-1825D01*
X2625D01*
Y-1771D01*
D02*
G37*
G36*
X2545D02*
X2475D01*
Y-1825D01*
X2545D01*
Y-1771D01*
D02*
G37*
G36*
X1123Y-1640D02*
X1077D01*
Y-1659D01*
X1077Y-1660D01*
X1077Y-1660D01*
Y-1678D01*
X1087D01*
Y-1765D01*
X1065D01*
Y-1835D01*
X1135D01*
Y-1765D01*
X1113D01*
Y-1678D01*
X1123D01*
Y-1640D01*
D02*
G37*
G36*
X1339Y-1805D02*
X1305D01*
Y-1839D01*
X1310Y-1839D01*
X1320Y-1835D01*
X1328Y-1828D01*
X1335Y-1820D01*
X1339Y-1810D01*
X1339Y-1805D01*
D02*
G37*
G36*
X1295D02*
X1261D01*
X1261Y-1810D01*
X1265Y-1820D01*
X1272Y-1828D01*
X1280Y-1835D01*
X1290Y-1839D01*
X1295Y-1839D01*
Y-1805D01*
D02*
G37*
G36*
X605Y-1811D02*
Y-1845D01*
X639D01*
X639Y-1840D01*
X635Y-1830D01*
X628Y-1822D01*
X620Y-1815D01*
X610Y-1811D01*
X605Y-1811D01*
D02*
G37*
G36*
X595D02*
X590Y-1811D01*
X580Y-1815D01*
X572Y-1822D01*
X565Y-1830D01*
X561Y-1840D01*
X561Y-1845D01*
X595D01*
Y-1811D01*
D02*
G37*
G36*
X500Y-1815D02*
X491Y-1816D01*
X483Y-1820D01*
X475Y-1825D01*
X470Y-1833D01*
X466Y-1841D01*
X465Y-1850D01*
X466Y-1859D01*
X470Y-1867D01*
X475Y-1875D01*
X483Y-1880D01*
X491Y-1884D01*
X500Y-1885D01*
X509Y-1884D01*
X517Y-1880D01*
X525Y-1875D01*
X530Y-1867D01*
X534Y-1859D01*
X535Y-1850D01*
X534Y-1841D01*
X530Y-1833D01*
X525Y-1825D01*
X517Y-1820D01*
X509Y-1816D01*
X500Y-1815D01*
D02*
G37*
G36*
X300D02*
X291Y-1816D01*
X283Y-1820D01*
X275Y-1825D01*
X270Y-1833D01*
X266Y-1841D01*
X265Y-1850D01*
X266Y-1859D01*
X270Y-1867D01*
X275Y-1875D01*
X283Y-1880D01*
X291Y-1884D01*
X300Y-1885D01*
X309Y-1884D01*
X317Y-1880D01*
X325Y-1875D01*
X330Y-1867D01*
X334Y-1859D01*
X335Y-1850D01*
X334Y-1841D01*
X330Y-1833D01*
X325Y-1825D01*
X317Y-1820D01*
X309Y-1816D01*
X300Y-1815D01*
D02*
G37*
G36*
X595Y-1855D02*
X561D01*
X561Y-1860D01*
X565Y-1870D01*
X572Y-1878D01*
X580Y-1885D01*
X590Y-1889D01*
X595Y-1889D01*
Y-1855D01*
D02*
G37*
G36*
X639D02*
X605D01*
Y-1889D01*
X610Y-1889D01*
X620Y-1885D01*
X628Y-1878D01*
X635Y-1870D01*
X639Y-1860D01*
X639Y-1855D01*
D02*
G37*
G36*
X2625Y-1835D02*
X2555D01*
Y-1889D01*
X2625D01*
Y-1835D01*
D02*
G37*
G36*
X2545D02*
X2475D01*
Y-1889D01*
X2545D01*
Y-1835D01*
D02*
G37*
G36*
X400Y-1815D02*
X391Y-1816D01*
X383Y-1820D01*
X375Y-1825D01*
X370Y-1833D01*
X366Y-1841D01*
X365Y-1850D01*
X366Y-1859D01*
X370Y-1867D01*
X375Y-1875D01*
X383Y-1880D01*
X387Y-1882D01*
Y-1910D01*
X388Y-1915D01*
X391Y-1919D01*
X421Y-1949D01*
X425Y-1952D01*
X428Y-1952D01*
X427Y-1957D01*
X218D01*
Y-1947D01*
X213D01*
Y-1882D01*
X217Y-1880D01*
X225Y-1875D01*
X230Y-1867D01*
X234Y-1859D01*
X235Y-1850D01*
X234Y-1841D01*
X230Y-1833D01*
X225Y-1825D01*
X217Y-1820D01*
X209Y-1816D01*
X200Y-1815D01*
X191Y-1816D01*
X183Y-1820D01*
X175Y-1825D01*
X170Y-1833D01*
X166Y-1841D01*
X165Y-1850D01*
X166Y-1859D01*
X170Y-1867D01*
X175Y-1875D01*
X183Y-1880D01*
X187Y-1882D01*
Y-1947D01*
X180D01*
Y-1993D01*
X218D01*
Y-1983D01*
X287D01*
X288Y-1988D01*
X288Y-1988D01*
X284Y-1993D01*
X283Y-2000D01*
X284Y-2007D01*
X288Y-2012D01*
X293Y-2016D01*
X300Y-2017D01*
X307Y-2016D01*
X311Y-2013D01*
X465D01*
X515Y-2063D01*
Y-2077D01*
X475D01*
Y-2084D01*
X470Y-2086D01*
X467Y-2082D01*
X467Y-2080D01*
X466Y-2073D01*
X462Y-2068D01*
X457Y-2064D01*
X450Y-2063D01*
X443Y-2064D01*
X438Y-2068D01*
X434Y-2073D01*
X433Y-2080D01*
X434Y-2087D01*
X438Y-2092D01*
X443Y-2096D01*
X450Y-2097D01*
X452Y-2097D01*
X464Y-2108D01*
X467Y-2110D01*
X471Y-2111D01*
X475D01*
Y-2123D01*
X473D01*
Y-2125D01*
X427D01*
Y-2160D01*
X422D01*
Y-2171D01*
X451D01*
Y-2181D01*
X422D01*
Y-2185D01*
X370D01*
X366Y-2186D01*
X362Y-2188D01*
X333Y-2218D01*
X331Y-2221D01*
X330Y-2225D01*
Y-2234D01*
X325Y-2235D01*
X322Y-2232D01*
X314Y-2226D01*
X304Y-2224D01*
X295Y-2226D01*
X287Y-2232D01*
X283Y-2237D01*
X272D01*
Y-2236D01*
X268D01*
X266Y-2231D01*
X268Y-2229D01*
X274Y-2221D01*
X278Y-2212D01*
X279Y-2207D01*
X241D01*
X204D01*
X205Y-2212D01*
X208Y-2221D01*
X214Y-2229D01*
X216Y-2231D01*
X215Y-2236D01*
X209D01*
Y-2265D01*
X200D01*
X196Y-2266D01*
X193Y-2268D01*
X178Y-2283D01*
X176Y-2286D01*
X176Y-2286D01*
X171Y-2286D01*
Y-2227D01*
X99D01*
Y-2296D01*
X170D01*
X171Y-2296D01*
X175Y-2297D01*
Y-2304D01*
X171Y-2305D01*
X170Y-2305D01*
X99D01*
Y-2375D01*
X170D01*
X171Y-2375D01*
X175Y-2376D01*
Y-2407D01*
X170Y-2409D01*
X167Y-2406D01*
X158Y-2399D01*
X147Y-2394D01*
X140Y-2393D01*
Y-2438D01*
Y-2484D01*
X147Y-2483D01*
X158Y-2478D01*
X167Y-2471D01*
X175Y-2461D01*
X179Y-2450D01*
X181Y-2439D01*
X182Y-2437D01*
X185Y-2436D01*
X212Y-2462D01*
X215Y-2464D01*
X219Y-2465D01*
X321D01*
X325Y-2464D01*
X328Y-2462D01*
X362Y-2428D01*
X364Y-2425D01*
X365Y-2421D01*
Y-2239D01*
X379Y-2225D01*
X408D01*
X410Y-2230D01*
X403Y-2238D01*
X400Y-2238D01*
X396Y-2241D01*
X393Y-2245D01*
X392Y-2250D01*
Y-2367D01*
X382D01*
Y-2404D01*
X428D01*
Y-2367D01*
X418D01*
Y-2325D01*
X423Y-2324D01*
X424Y-2326D01*
X462Y-2363D01*
Y-2408D01*
X465D01*
Y-2432D01*
X462D01*
Y-2478D01*
X499D01*
Y-2432D01*
X496D01*
Y-2408D01*
X499D01*
Y-2362D01*
X496D01*
Y-2360D01*
X495Y-2355D01*
X491Y-2350D01*
X450Y-2309D01*
Y-2302D01*
X455Y-2299D01*
X456Y-2299D01*
X460Y-2300D01*
X475D01*
Y-2314D01*
X490D01*
X490Y-2314D01*
X494Y-2319D01*
X493Y-2321D01*
X494Y-2326D01*
X497Y-2330D01*
X524Y-2357D01*
X522Y-2362D01*
X521D01*
Y-2408D01*
X558D01*
Y-2362D01*
X552D01*
Y-2355D01*
X551Y-2350D01*
X549Y-2346D01*
X521Y-2318D01*
X523Y-2314D01*
X615D01*
Y-2267D01*
X617D01*
Y-2265D01*
X663D01*
Y-2246D01*
Y-2206D01*
Y-2167D01*
Y-2125D01*
X617D01*
Y-2123D01*
X615D01*
Y-2077D01*
X575D01*
Y-2063D01*
X595Y-2043D01*
X765D01*
X780Y-2058D01*
Y-2120D01*
X776D01*
Y-2201D01*
X780D01*
Y-2240D01*
X778Y-2242D01*
X773Y-2242D01*
Y-2242D01*
X727D01*
Y-2279D01*
X771D01*
X773Y-2282D01*
X774Y-2284D01*
X773Y-2290D01*
X774Y-2296D01*
X773Y-2298D01*
X771Y-2301D01*
X727D01*
Y-2338D01*
X773D01*
Y-2338D01*
X778Y-2338D01*
X780Y-2340D01*
Y-2388D01*
X776D01*
Y-2469D01*
X809D01*
Y-2398D01*
X810Y-2393D01*
X813Y-2390D01*
X815Y-2390D01*
X815Y-2390D01*
X845Y-2390D01*
D01*
X847Y-2390D01*
X849Y-2392D01*
X850Y-2393D01*
X851Y-2398D01*
Y-2469D01*
X884D01*
Y-2388D01*
X880D01*
Y-2344D01*
X883Y-2340D01*
X887Y-2338D01*
X887Y-2338D01*
X887Y-2338D01*
X933D01*
Y-2301D01*
X887D01*
Y-2307D01*
X880D01*
X876Y-2308D01*
X871Y-2311D01*
X866Y-2316D01*
X861Y-2317D01*
X855Y-2320D01*
X852Y-2326D01*
X851Y-2326D01*
X847Y-2323D01*
Y-2310D01*
X828D01*
X807Y-2289D01*
X806Y-2283D01*
X802Y-2278D01*
X797Y-2274D01*
X792Y-2273D01*
X790Y-2268D01*
X790Y-2268D01*
X802Y-2256D01*
X804Y-2252D01*
X805Y-2247D01*
Y-2205D01*
X807Y-2203D01*
X809Y-2202D01*
X813Y-2205D01*
X813Y-2208D01*
Y-2280D01*
X847D01*
Y-2208D01*
X847Y-2205D01*
X851Y-2202D01*
X852Y-2203D01*
X855Y-2205D01*
Y-2247D01*
X856Y-2252D01*
X858Y-2256D01*
X871Y-2269D01*
X876Y-2272D01*
X880Y-2273D01*
X887D01*
Y-2279D01*
X933D01*
Y-2242D01*
X887D01*
Y-2242D01*
X882Y-2242D01*
X880Y-2240D01*
Y-2201D01*
X884D01*
Y-2120D01*
X851D01*
Y-2192D01*
X850Y-2195D01*
X846Y-2198D01*
X845Y-2197D01*
X843Y-2195D01*
Y-1980D01*
X842Y-1975D01*
X839Y-1971D01*
X799Y-1931D01*
X795Y-1928D01*
X790Y-1927D01*
X435D01*
X413Y-1905D01*
Y-1882D01*
X417Y-1880D01*
X425Y-1875D01*
X430Y-1867D01*
X434Y-1859D01*
X435Y-1850D01*
X434Y-1841D01*
X430Y-1833D01*
X425Y-1825D01*
X417Y-1820D01*
X409Y-1816D01*
X400Y-1815D01*
D02*
G37*
G36*
X2755Y-2069D02*
Y-2095D01*
X2802D01*
Y-2069D01*
X2755D01*
D02*
G37*
G36*
X3318Y-1926D02*
X3175D01*
Y-2095D01*
X3318D01*
Y-1926D01*
D02*
G37*
G36*
X1655Y-2061D02*
Y-2095D01*
X1689D01*
X1689Y-2090D01*
X1685Y-2080D01*
X1678Y-2072D01*
X1670Y-2065D01*
X1660Y-2061D01*
X1655Y-2061D01*
D02*
G37*
G36*
X1255D02*
Y-2095D01*
X1289D01*
X1289Y-2090D01*
X1285Y-2080D01*
X1278Y-2072D01*
X1270Y-2065D01*
X1260Y-2061D01*
X1255Y-2061D01*
D02*
G37*
G36*
X1645D02*
X1640Y-2061D01*
X1630Y-2065D01*
X1622Y-2072D01*
X1615Y-2080D01*
X1611Y-2090D01*
X1611Y-2095D01*
X1645D01*
Y-2061D01*
D02*
G37*
G36*
X1245D02*
X1240Y-2061D01*
X1230Y-2065D01*
X1222Y-2072D01*
X1215Y-2080D01*
X1211Y-2090D01*
X1211Y-2095D01*
X1245D01*
Y-2061D01*
D02*
G37*
G36*
X3165Y-1926D02*
X3022D01*
Y-2095D01*
X3165D01*
Y-1926D01*
D02*
G37*
G36*
X2802Y-2105D02*
X2755D01*
Y-2131D01*
X2802D01*
Y-2105D01*
D02*
G37*
G36*
X1689D02*
X1655D01*
Y-2139D01*
X1660Y-2139D01*
X1670Y-2135D01*
X1678Y-2128D01*
X1685Y-2120D01*
X1689Y-2110D01*
X1689Y-2105D01*
D02*
G37*
G36*
X1289D02*
X1255D01*
Y-2139D01*
X1260Y-2139D01*
X1270Y-2135D01*
X1278Y-2128D01*
X1285Y-2120D01*
X1289Y-2110D01*
X1289Y-2105D01*
D02*
G37*
G36*
X1645D02*
X1611D01*
X1611Y-2110D01*
X1615Y-2120D01*
X1622Y-2128D01*
X1630Y-2135D01*
X1640Y-2139D01*
X1645Y-2139D01*
Y-2105D01*
D02*
G37*
G36*
X1245D02*
X1211D01*
X1211Y-2110D01*
X1215Y-2120D01*
X1222Y-2128D01*
X1230Y-2135D01*
X1240Y-2139D01*
X1245Y-2139D01*
Y-2105D01*
D02*
G37*
G36*
X140Y-2118D02*
Y-2158D01*
X180D01*
X179Y-2151D01*
X175Y-2140D01*
X167Y-2130D01*
X158Y-2123D01*
X147Y-2119D01*
X140Y-2118D01*
D02*
G37*
G36*
X130D02*
X123Y-2119D01*
X112Y-2123D01*
X103Y-2130D01*
X95Y-2140D01*
X91Y-2151D01*
X90Y-2158D01*
X130D01*
Y-2118D01*
D02*
G37*
G36*
X246Y-2165D02*
Y-2197D01*
X279D01*
X278Y-2192D01*
X274Y-2183D01*
X268Y-2175D01*
X260Y-2169D01*
X251Y-2165D01*
X246Y-2165D01*
D02*
G37*
G36*
X236Y-2165D02*
X231Y-2165D01*
X222Y-2169D01*
X214Y-2175D01*
X208Y-2183D01*
X205Y-2192D01*
X204Y-2197D01*
X236D01*
Y-2165D01*
D02*
G37*
G36*
X180Y-2168D02*
X140D01*
Y-2208D01*
X147Y-2207D01*
X158Y-2203D01*
X167Y-2195D01*
X175Y-2186D01*
X179Y-2175D01*
X180Y-2168D01*
D02*
G37*
G36*
X130D02*
X90D01*
X91Y-2175D01*
X95Y-2186D01*
X103Y-2195D01*
X112Y-2203D01*
X123Y-2207D01*
X130Y-2208D01*
Y-2168D01*
D02*
G37*
G36*
X2802Y-2203D02*
X2755D01*
Y-2229D01*
X2802D01*
Y-2203D01*
D02*
G37*
G36*
X2745D02*
X2697D01*
Y-2229D01*
X2745D01*
Y-2203D01*
D02*
G37*
G36*
X1478Y-2236D02*
X1455D01*
Y-2255D01*
X1478D01*
Y-2236D01*
D02*
G37*
G36*
X1078D02*
X1055D01*
Y-2255D01*
X1078D01*
Y-2236D01*
D02*
G37*
G36*
X1445D02*
X1422D01*
Y-2255D01*
X1445D01*
Y-2236D01*
D02*
G37*
G36*
X1045D02*
X1022D01*
Y-2255D01*
X1045D01*
Y-2236D01*
D02*
G37*
G36*
X2802Y-2239D02*
X2755D01*
Y-2265D01*
X2802D01*
Y-2239D01*
D02*
G37*
G36*
X2745D02*
X2697D01*
Y-2265D01*
X2745D01*
Y-2239D01*
D02*
G37*
G36*
X3318Y-2105D02*
X3175D01*
Y-2274D01*
X3318D01*
Y-2105D01*
D02*
G37*
G36*
X3165D02*
X3022D01*
Y-2274D01*
X3165D01*
Y-2105D01*
D02*
G37*
G36*
X1078Y-2265D02*
X1055D01*
Y-2283D01*
X1078D01*
Y-2265D01*
D02*
G37*
G36*
X1045D02*
X1022D01*
Y-2283D01*
X1045D01*
Y-2265D01*
D02*
G37*
G36*
X2683Y-2382D02*
X2664D01*
Y-2405D01*
X2683D01*
Y-2382D01*
D02*
G37*
G36*
X2654D02*
X2635D01*
Y-2405D01*
X2654D01*
Y-2382D01*
D02*
G37*
G36*
X130Y-2393D02*
X123Y-2394D01*
X112Y-2399D01*
X103Y-2406D01*
X95Y-2416D01*
X91Y-2427D01*
X90Y-2433D01*
X130D01*
Y-2393D01*
D02*
G37*
G36*
X2683Y-2415D02*
X2664D01*
Y-2438D01*
X2683D01*
Y-2415D01*
D02*
G37*
G36*
X2654D02*
X2635D01*
Y-2438D01*
X2654D01*
Y-2415D01*
D02*
G37*
G36*
X433Y-2421D02*
X410D01*
Y-2440D01*
X433D01*
Y-2421D01*
D02*
G37*
G36*
X400D02*
X377D01*
Y-2440D01*
X400D01*
Y-2421D01*
D02*
G37*
G36*
X563Y-2427D02*
X545D01*
Y-2450D01*
X563D01*
Y-2427D01*
D02*
G37*
G36*
X535D02*
X516D01*
Y-2450D01*
X535D01*
Y-2427D01*
D02*
G37*
G36*
X433Y-2450D02*
X410D01*
Y-2468D01*
X433D01*
Y-2450D01*
D02*
G37*
G36*
X400D02*
X377D01*
Y-2468D01*
X400D01*
Y-2450D01*
D02*
G37*
G36*
X563Y-2460D02*
X545D01*
Y-2483D01*
X563D01*
Y-2460D01*
D02*
G37*
G36*
X535D02*
X516D01*
Y-2483D01*
X535D01*
Y-2460D01*
D02*
G37*
G36*
X130Y-2443D02*
X90D01*
X91Y-2450D01*
X95Y-2461D01*
X103Y-2471D01*
X112Y-2478D01*
X123Y-2483D01*
X130Y-2484D01*
Y-2443D01*
D02*
G37*
G36*
X666Y-2490D02*
X594D01*
Y-2510D01*
X524D01*
X520Y-2507D01*
X510Y-2505D01*
X500Y-2507D01*
X492Y-2512D01*
X487Y-2520D01*
X485Y-2530D01*
X487Y-2540D01*
X492Y-2548D01*
X500Y-2553D01*
X510Y-2555D01*
X520Y-2553D01*
X524Y-2550D01*
X594D01*
Y-2571D01*
X666D01*
Y-2490D01*
D02*
G37*
G36*
X1328Y-2507D02*
X1305D01*
Y-2525D01*
X1328D01*
Y-2507D01*
D02*
G37*
G36*
X1295D02*
X1272D01*
Y-2525D01*
X1295D01*
Y-2507D01*
D02*
G37*
G36*
X1605Y-2511D02*
Y-2545D01*
X1639D01*
X1639Y-2540D01*
X1635Y-2530D01*
X1628Y-2522D01*
X1620Y-2515D01*
X1610Y-2511D01*
X1605Y-2511D01*
D02*
G37*
G36*
X1595D02*
X1590Y-2511D01*
X1580Y-2515D01*
X1572Y-2522D01*
X1565Y-2530D01*
X1561Y-2540D01*
X1561Y-2545D01*
X1595D01*
Y-2511D01*
D02*
G37*
G36*
X1328Y-2535D02*
X1305D01*
Y-2554D01*
X1328D01*
Y-2535D01*
D02*
G37*
G36*
X1295D02*
X1272D01*
Y-2554D01*
X1295D01*
Y-2535D01*
D02*
G37*
G36*
X2806Y-2543D02*
X2752D01*
Y-2572D01*
X2806D01*
Y-2543D01*
D02*
G37*
G36*
X1393Y-2571D02*
X1347D01*
Y-2577D01*
X1323D01*
Y-2571D01*
X1277D01*
Y-2608D01*
X1323D01*
Y-2602D01*
X1347D01*
Y-2608D01*
X1393D01*
Y-2571D01*
D02*
G37*
G36*
X460Y-2577D02*
X422D01*
Y-2587D01*
X381D01*
X377Y-2584D01*
X370Y-2583D01*
X363Y-2584D01*
X358Y-2588D01*
X354Y-2593D01*
X353Y-2600D01*
X354Y-2607D01*
X358Y-2612D01*
X363Y-2616D01*
X370Y-2617D01*
X377Y-2616D01*
X381Y-2613D01*
X422D01*
Y-2623D01*
X460D01*
Y-2577D01*
D02*
G37*
G36*
X1639Y-2555D02*
X1605D01*
Y-2589D01*
X1610Y-2589D01*
X1620Y-2585D01*
X1628Y-2578D01*
X1635Y-2570D01*
X1639Y-2560D01*
X1639Y-2555D01*
D02*
G37*
G36*
X1595D02*
X1561D01*
X1561Y-2560D01*
X1565Y-2570D01*
X1572Y-2578D01*
X1580Y-2585D01*
X1590Y-2589D01*
X1595Y-2589D01*
Y-2555D01*
D02*
G37*
G36*
X2806Y-2582D02*
X2752D01*
Y-2611D01*
X2806D01*
Y-2582D01*
D02*
G37*
G36*
X519Y-2577D02*
X481D01*
Y-2623D01*
X488D01*
Y-2670D01*
X466D01*
Y-2750D01*
X536D01*
Y-2670D01*
X513D01*
Y-2623D01*
X519D01*
Y-2613D01*
X899D01*
X903Y-2616D01*
X910Y-2617D01*
X917Y-2616D01*
X922Y-2612D01*
X926Y-2607D01*
X927Y-2600D01*
X926Y-2593D01*
X922Y-2588D01*
X917Y-2584D01*
X910Y-2583D01*
X903Y-2584D01*
X899Y-2587D01*
X519D01*
Y-2577D01*
D02*
G37*
G36*
X2683Y-2712D02*
X2665D01*
Y-2735D01*
X2683D01*
Y-2712D01*
D02*
G37*
G36*
X2655D02*
X2636D01*
Y-2735D01*
X2655D01*
Y-2712D01*
D02*
G37*
G36*
X1893Y-2772D02*
X1847D01*
Y-2778D01*
X1821D01*
X1817Y-2775D01*
X1810Y-2773D01*
X1803Y-2775D01*
X1798Y-2778D01*
X1794Y-2784D01*
X1793Y-2790D01*
X1794Y-2797D01*
X1798Y-2803D01*
X1803Y-2806D01*
X1810Y-2808D01*
X1817Y-2806D01*
X1821Y-2803D01*
X1847D01*
Y-2809D01*
X1893D01*
Y-2772D01*
D02*
G37*
G36*
X541Y-2765D02*
X506D01*
Y-2805D01*
X541D01*
Y-2765D01*
D02*
G37*
G36*
X496D02*
X461D01*
Y-2805D01*
X496D01*
Y-2765D01*
D02*
G37*
G36*
X2125Y-2806D02*
X2085D01*
Y-2841D01*
X2125D01*
Y-2806D01*
D02*
G37*
G36*
X2075D02*
X2035D01*
Y-2841D01*
X2075D01*
Y-2806D01*
D02*
G37*
G36*
X541Y-2815D02*
X506D01*
Y-2855D01*
X541D01*
Y-2815D01*
D02*
G37*
G36*
X496D02*
X461D01*
Y-2855D01*
X496D01*
Y-2815D01*
D02*
G37*
G36*
X1580Y-2753D02*
X1573Y-2754D01*
X1568Y-2758D01*
X1564Y-2763D01*
X1563Y-2770D01*
X1564Y-2777D01*
X1567Y-2781D01*
Y-2837D01*
X1562D01*
Y-2883D01*
X1599D01*
Y-2837D01*
X1593D01*
Y-2781D01*
X1596Y-2777D01*
X1597Y-2770D01*
X1596Y-2763D01*
X1592Y-2758D01*
X1587Y-2754D01*
X1580Y-2753D01*
D02*
G37*
G36*
X1270D02*
X1263Y-2754D01*
X1258Y-2758D01*
X1254Y-2763D01*
X1253Y-2770D01*
X1254Y-2777D01*
X1258Y-2782D01*
Y-2847D01*
X1252D01*
Y-2893D01*
X1289D01*
Y-2847D01*
X1283D01*
Y-2780D01*
X1286Y-2777D01*
X1287Y-2770D01*
X1286Y-2763D01*
X1282Y-2758D01*
X1277Y-2754D01*
X1270Y-2753D01*
D02*
G37*
G36*
X960D02*
X953Y-2754D01*
X948Y-2758D01*
X944Y-2763D01*
X943Y-2770D01*
X944Y-2777D01*
X947Y-2781D01*
Y-2847D01*
X942D01*
Y-2893D01*
X979D01*
Y-2847D01*
X973D01*
Y-2781D01*
X976Y-2777D01*
X977Y-2770D01*
X976Y-2763D01*
X972Y-2758D01*
X967Y-2754D01*
X960Y-2753D01*
D02*
G37*
G36*
X2964Y-2915D02*
X2948D01*
Y-2955D01*
X2964D01*
Y-2915D01*
D02*
G37*
G36*
X2938D02*
X2921D01*
Y-2955D01*
X2938D01*
Y-2915D01*
D02*
G37*
G36*
X964D02*
X948D01*
Y-2955D01*
X964D01*
Y-2915D01*
D02*
G37*
G36*
X938D02*
X921D01*
Y-2955D01*
X938D01*
Y-2915D01*
D02*
G37*
G36*
X3274Y-2915D02*
X3258D01*
Y-2956D01*
X3274D01*
Y-2915D01*
D02*
G37*
G36*
X3248D02*
X3231D01*
Y-2956D01*
X3248D01*
Y-2915D01*
D02*
G37*
G36*
X1274D02*
X1258D01*
Y-2956D01*
X1274D01*
Y-2915D01*
D02*
G37*
G36*
X1248D02*
X1231D01*
Y-2956D01*
X1248D01*
Y-2915D01*
D02*
G37*
G36*
X3584Y-2916D02*
X3568D01*
Y-2956D01*
X3584D01*
Y-2916D01*
D02*
G37*
G36*
X3558D02*
X3541D01*
Y-2956D01*
X3558D01*
Y-2916D01*
D02*
G37*
G36*
X1584D02*
X1568D01*
Y-2956D01*
X1584D01*
Y-2916D01*
D02*
G37*
G36*
X1558D02*
X1541D01*
Y-2956D01*
X1558D01*
Y-2916D01*
D02*
G37*
G36*
X3038Y-2847D02*
X3001D01*
Y-2893D01*
X3005D01*
Y-2920D01*
X3001D01*
Y-2991D01*
X3000Y-2996D01*
X2997Y-2998D01*
X2995Y-2998D01*
X2995Y-2998D01*
X2964D01*
Y-2965D01*
X2948D01*
Y-3005D01*
X2963D01*
Y-3079D01*
X2967D01*
Y-3104D01*
X2940D01*
Y-3174D01*
X3020D01*
Y-3104D01*
X2993D01*
Y-3079D01*
X2997D01*
Y-3062D01*
X3077D01*
Y-3068D01*
X3123D01*
Y-3031D01*
X3077D01*
Y-3037D01*
X2997D01*
Y-3008D01*
X2997Y-3003D01*
X3001Y-3000D01*
X3002Y-3000D01*
X3002Y-3000D01*
X3034D01*
Y-2920D01*
X3030D01*
Y-2893D01*
X3038D01*
Y-2847D01*
D02*
G37*
G36*
X1038D02*
X1001D01*
Y-2893D01*
X1005D01*
Y-2920D01*
X1001D01*
Y-2991D01*
X1000Y-2996D01*
X997Y-2998D01*
X995Y-2998D01*
X995Y-2998D01*
X964D01*
Y-2965D01*
X948D01*
Y-3005D01*
X963D01*
Y-3079D01*
X967D01*
Y-3104D01*
X940D01*
Y-3174D01*
X1020D01*
Y-3104D01*
X993D01*
Y-3079D01*
X997D01*
Y-3062D01*
X1077D01*
Y-3068D01*
X1123D01*
Y-3031D01*
X1077D01*
Y-3037D01*
X997D01*
Y-3008D01*
X997Y-3003D01*
X1001Y-3000D01*
X1002Y-3000D01*
X1002Y-3000D01*
X1034D01*
Y-2920D01*
X1030D01*
Y-2893D01*
X1038D01*
Y-2847D01*
D02*
G37*
G36*
X3348D02*
X3311D01*
Y-2893D01*
X3315D01*
Y-2920D01*
X3311D01*
Y-2992D01*
X3310Y-2996D01*
X3307Y-2999D01*
X3305Y-2999D01*
X3305Y-2999D01*
X3274D01*
Y-2966D01*
X3258D01*
Y-3006D01*
X3273D01*
Y-3080D01*
X3277D01*
Y-3104D01*
X3250D01*
Y-3174D01*
X3330D01*
Y-3104D01*
X3303D01*
Y-3080D01*
X3307D01*
Y-3062D01*
X3387D01*
Y-3068D01*
X3433D01*
Y-3031D01*
X3387D01*
Y-3037D01*
X3307D01*
Y-3008D01*
X3307Y-3004D01*
X3311Y-3001D01*
X3312Y-3001D01*
X3312Y-3001D01*
X3344D01*
Y-2920D01*
X3340D01*
Y-2893D01*
X3348D01*
Y-2847D01*
D02*
G37*
G36*
X1348D02*
X1311D01*
Y-2893D01*
X1315D01*
Y-2920D01*
X1311D01*
Y-2992D01*
X1310Y-2996D01*
X1307Y-2999D01*
X1305Y-2999D01*
X1305Y-2999D01*
X1274D01*
Y-2966D01*
X1258D01*
Y-3006D01*
X1273D01*
Y-3080D01*
X1277D01*
Y-3104D01*
X1250D01*
Y-3174D01*
X1330D01*
Y-3104D01*
X1303D01*
Y-3080D01*
X1307D01*
Y-3062D01*
X1387D01*
Y-3068D01*
X1433D01*
Y-3031D01*
X1387D01*
Y-3037D01*
X1307D01*
Y-3008D01*
X1307Y-3004D01*
X1311Y-3001D01*
X1312Y-3001D01*
X1312Y-3001D01*
X1344D01*
Y-2920D01*
X1340D01*
Y-2893D01*
X1348D01*
Y-2847D01*
D02*
G37*
G36*
X3658Y-2837D02*
X3621D01*
Y-2883D01*
X3625D01*
Y-2921D01*
X3621D01*
Y-2992D01*
X3620Y-2997D01*
X3617Y-3000D01*
X3615Y-3000D01*
X3615Y-3000D01*
X3584D01*
Y-2966D01*
X3568D01*
Y-3007D01*
X3583D01*
Y-3080D01*
X3587D01*
Y-3105D01*
X3560D01*
Y-3175D01*
X3640D01*
Y-3105D01*
X3613D01*
Y-3080D01*
X3617D01*
Y-3062D01*
X3697D01*
Y-3068D01*
X3743D01*
Y-3031D01*
X3697D01*
Y-3037D01*
X3617D01*
Y-3009D01*
X3617Y-3004D01*
X3621Y-3002D01*
X3622Y-3002D01*
X3622Y-3002D01*
X3654D01*
Y-2921D01*
X3650D01*
Y-2883D01*
X3658D01*
Y-2837D01*
D02*
G37*
G36*
X1658D02*
X1621D01*
Y-2883D01*
X1625D01*
Y-2921D01*
X1621D01*
Y-2992D01*
X1620Y-2997D01*
X1617Y-3000D01*
X1615Y-3000D01*
X1615Y-3000D01*
X1584D01*
Y-2966D01*
X1568D01*
Y-3007D01*
X1583D01*
Y-3080D01*
X1587D01*
Y-3105D01*
X1560D01*
Y-3175D01*
X1640D01*
Y-3105D01*
X1613D01*
Y-3080D01*
X1617D01*
Y-3062D01*
X1697D01*
Y-3068D01*
X1743D01*
Y-3031D01*
X1697D01*
Y-3037D01*
X1617D01*
Y-3009D01*
X1617Y-3004D01*
X1621Y-3002D01*
X1622Y-3002D01*
X1622Y-3002D01*
X1654D01*
Y-2921D01*
X1650D01*
Y-2883D01*
X1658D01*
Y-2837D01*
D02*
G37*
G36*
X2938Y-2965D02*
X2921D01*
Y-3005D01*
X2938D01*
Y-2965D01*
D02*
G37*
G36*
X938D02*
X921D01*
Y-3005D01*
X938D01*
Y-2965D01*
D02*
G37*
G36*
X3248Y-2966D02*
X3231D01*
Y-3006D01*
X3248D01*
Y-2966D01*
D02*
G37*
G36*
X1248D02*
X1231D01*
Y-3006D01*
X1248D01*
Y-2966D01*
D02*
G37*
G36*
X3558Y-2966D02*
X3541D01*
Y-3007D01*
X3558D01*
Y-2966D01*
D02*
G37*
G36*
X1558D02*
X1541D01*
Y-3007D01*
X1558D01*
Y-2966D01*
D02*
G37*
G36*
X3743Y-2911D02*
X3697D01*
Y-2948D01*
X3707D01*
Y-2972D01*
X3697D01*
Y-3009D01*
X3743D01*
Y-2972D01*
X3733D01*
Y-2948D01*
X3743D01*
Y-2911D01*
D02*
G37*
G36*
X3433D02*
X3387D01*
Y-2948D01*
X3397D01*
Y-2972D01*
X3387D01*
Y-3009D01*
X3433D01*
Y-2972D01*
X3423D01*
Y-2948D01*
X3433D01*
Y-2911D01*
D02*
G37*
G36*
X3123D02*
X3077D01*
Y-2948D01*
X3087D01*
Y-2972D01*
X3077D01*
Y-3009D01*
X3123D01*
Y-2972D01*
X3113D01*
Y-2948D01*
X3123D01*
Y-2911D01*
D02*
G37*
G36*
X1743D02*
X1697D01*
Y-2948D01*
X1707D01*
Y-2972D01*
X1697D01*
Y-3009D01*
X1743D01*
Y-2972D01*
X1733D01*
Y-2948D01*
X1743D01*
Y-2911D01*
D02*
G37*
G36*
X1433D02*
X1387D01*
Y-2948D01*
X1397D01*
Y-2972D01*
X1387D01*
Y-3009D01*
X1433D01*
Y-2972D01*
X1423D01*
Y-2948D01*
X1433D01*
Y-2911D01*
D02*
G37*
G36*
X1123D02*
X1077D01*
Y-2948D01*
X1087D01*
Y-2972D01*
X1077D01*
Y-3009D01*
X1123D01*
Y-2972D01*
X1113D01*
Y-2948D01*
X1123D01*
Y-2911D01*
D02*
G37*
G36*
X3740Y-3105D02*
X3660D01*
Y-3175D01*
X3740D01*
Y-3162D01*
X3787D01*
Y-3168D01*
X3833D01*
Y-3131D01*
X3787D01*
Y-3137D01*
X3740D01*
Y-3105D01*
D02*
G37*
G36*
X3430Y-3104D02*
X3350D01*
Y-3174D01*
X3430D01*
Y-3162D01*
X3477D01*
Y-3168D01*
X3523D01*
Y-3131D01*
X3477D01*
Y-3137D01*
X3430D01*
Y-3104D01*
D02*
G37*
G36*
X3120D02*
X3040D01*
Y-3174D01*
X3120D01*
Y-3162D01*
X3167D01*
Y-3168D01*
X3213D01*
Y-3131D01*
X3167D01*
Y-3137D01*
X3120D01*
Y-3104D01*
D02*
G37*
G36*
X1740Y-3105D02*
X1660D01*
Y-3175D01*
X1740D01*
Y-3162D01*
X1787D01*
Y-3168D01*
X1833D01*
Y-3131D01*
X1787D01*
Y-3137D01*
X1740D01*
Y-3105D01*
D02*
G37*
G36*
X1430Y-3104D02*
X1350D01*
Y-3174D01*
X1430D01*
Y-3162D01*
X1477D01*
Y-3168D01*
X1523D01*
Y-3131D01*
X1477D01*
Y-3137D01*
X1430D01*
Y-3104D01*
D02*
G37*
G36*
X1120D02*
X1040D01*
Y-3174D01*
X1120D01*
Y-3162D01*
X1167D01*
Y-3168D01*
X1213D01*
Y-3131D01*
X1167D01*
Y-3137D01*
X1120D01*
Y-3104D01*
D02*
G37*
%LPD*%
G36*
X1207Y-695D02*
Y-767D01*
X1202Y-768D01*
X1202Y-765D01*
X1199Y-761D01*
X1159Y-721D01*
X1155Y-718D01*
X1150Y-717D01*
X935D01*
X923Y-705D01*
X925Y-700D01*
X928D01*
X928Y-700D01*
X933D01*
X933Y-700D01*
X978D01*
Y-683D01*
X999D01*
X1003Y-686D01*
X1010Y-687D01*
X1017Y-686D01*
X1022Y-682D01*
X1026Y-677D01*
X1027Y-670D01*
X1026Y-663D01*
X1022Y-658D01*
X1017Y-654D01*
X1010Y-653D01*
X1003Y-654D01*
X999Y-657D01*
X978D01*
Y-643D01*
X933D01*
X933Y-643D01*
X928D01*
X928Y-643D01*
X883D01*
X883Y-643D01*
X878D01*
X878Y-643D01*
X868D01*
Y-630D01*
X875Y-623D01*
X1135D01*
X1207Y-695D01*
D02*
G37*
G36*
X1087Y-895D02*
Y-1020D01*
X1088Y-1025D01*
X1091Y-1029D01*
X1281Y-1219D01*
X1285Y-1222D01*
X1288Y-1222D01*
X1287Y-1227D01*
X1275D01*
X1245Y-1197D01*
X1241Y-1194D01*
X1236Y-1193D01*
X1049D01*
Y-1184D01*
X1049Y-1184D01*
Y-1179D01*
X1049Y-1179D01*
Y-1134D01*
X1049Y-1134D01*
Y-1129D01*
X1049Y-1129D01*
Y-1084D01*
X1049Y-1084D01*
Y-1079D01*
X1049Y-1079D01*
Y-1034D01*
X1049Y-1034D01*
Y-1029D01*
X1049Y-1029D01*
Y-984D01*
X1049Y-984D01*
Y-979D01*
X1049Y-979D01*
Y-934D01*
X1049Y-934D01*
Y-929D01*
X1049Y-929D01*
Y-884D01*
X1049Y-884D01*
Y-879D01*
X1049Y-879D01*
Y-869D01*
X1061D01*
X1087Y-895D01*
D02*
G37*
G36*
X2620Y-2382D02*
X2605D01*
Y-2410D01*
Y-2438D01*
X2620D01*
Y-2543D01*
X2567D01*
Y-2577D01*
Y-2611D01*
X2620D01*
Y-2712D01*
X2605D01*
Y-2740D01*
Y-2768D01*
X2620D01*
Y-2780D01*
X1930D01*
Y-2700D01*
Y-2370D01*
X2620Y-2370D01*
Y-2382D01*
D02*
G37*
%LPC*%
G36*
X2595D02*
X2576D01*
Y-2405D01*
X2595D01*
Y-2382D01*
D02*
G37*
G36*
Y-2415D02*
X2576D01*
Y-2438D01*
X2595D01*
Y-2415D01*
D02*
G37*
G36*
X2557Y-2543D02*
X2503D01*
Y-2572D01*
X2557D01*
Y-2543D01*
D02*
G37*
G36*
X2233Y-2526D02*
X2165D01*
Y-2582D01*
X2233D01*
Y-2526D01*
D02*
G37*
G36*
X2155D02*
X2087D01*
Y-2582D01*
X2155D01*
Y-2526D01*
D02*
G37*
G36*
X2557Y-2582D02*
X2503D01*
Y-2611D01*
X2557D01*
Y-2582D01*
D02*
G37*
G36*
X2233Y-2592D02*
X2165D01*
Y-2648D01*
X2233D01*
Y-2592D01*
D02*
G37*
G36*
X2155D02*
X2087D01*
Y-2648D01*
X2155D01*
Y-2592D01*
D02*
G37*
G36*
X2595Y-2712D02*
X2577D01*
Y-2735D01*
X2595D01*
Y-2712D01*
D02*
G37*
G36*
Y-2745D02*
X2577D01*
Y-2768D01*
X2595D01*
Y-2745D01*
D02*
G37*
%LPD*%
G36*
X817Y-1985D02*
Y-2195D01*
X815Y-2197D01*
X814Y-2198D01*
X810Y-2195D01*
X809Y-2192D01*
Y-2120D01*
X805D01*
Y-2053D01*
X804Y-2048D01*
X802Y-2044D01*
X779Y-2021D01*
X775Y-2018D01*
X770Y-2017D01*
X590D01*
X585Y-2018D01*
X581Y-2021D01*
X562Y-2040D01*
X558Y-2037D01*
X558Y-2035D01*
X557Y-2030D01*
X554Y-2026D01*
X489Y-1961D01*
X485Y-1958D01*
X482Y-1958D01*
X483Y-1953D01*
X785D01*
X817Y-1985D01*
D02*
G37*
G36*
X287Y-2267D02*
X295Y-2273D01*
X304Y-2275D01*
X314Y-2273D01*
X322Y-2267D01*
X325Y-2263D01*
X330Y-2265D01*
Y-2411D01*
X311Y-2430D01*
X271D01*
X269Y-2425D01*
X274Y-2418D01*
X278Y-2409D01*
X279Y-2404D01*
X241D01*
Y-2394D01*
X279D01*
X278Y-2389D01*
X274Y-2380D01*
X271Y-2376D01*
X273Y-2371D01*
X277D01*
Y-2357D01*
X240D01*
Y-2347D01*
X277D01*
Y-2333D01*
X272D01*
Y-2289D01*
Y-2262D01*
X283D01*
X287Y-2267D01*
D02*
G37*
%LPC*%
G36*
X2214Y-1796D02*
X2185D01*
Y-1864D01*
X2214D01*
Y-1796D01*
D02*
G37*
G36*
X2175D02*
X2146D01*
Y-1864D01*
X2175D01*
Y-1796D01*
D02*
G37*
G36*
X2214Y-1874D02*
X2185D01*
Y-1942D01*
X2214D01*
Y-1874D01*
D02*
G37*
G36*
X2175D02*
X2146D01*
Y-1942D01*
X2175D01*
Y-1874D01*
D02*
G37*
G36*
X2625Y-2039D02*
X2555D01*
Y-2093D01*
X2625D01*
Y-2039D01*
D02*
G37*
G36*
X2545D02*
X2475D01*
Y-2093D01*
X2545D01*
Y-2039D01*
D02*
G37*
G36*
X2233Y-2089D02*
X2165D01*
Y-2145D01*
X2233D01*
Y-2089D01*
D02*
G37*
G36*
X2155D02*
X2087D01*
Y-2145D01*
X2155D01*
Y-2089D01*
D02*
G37*
G36*
X2625Y-2103D02*
X2555D01*
Y-2157D01*
X2625D01*
Y-2103D01*
D02*
G37*
G36*
X2545D02*
X2475D01*
Y-2157D01*
X2545D01*
Y-2103D01*
D02*
G37*
G36*
X2233Y-2155D02*
X2165D01*
Y-2211D01*
X2233D01*
Y-2155D01*
D02*
G37*
G36*
X2155D02*
X2087D01*
Y-2211D01*
X2155D01*
Y-2155D01*
D02*
G37*
G36*
X2800Y-2916D02*
X2766D01*
Y-2944D01*
X2530D01*
Y-2916D01*
X2496D01*
Y-2944D01*
X2260D01*
Y-2916D01*
X2226D01*
Y-2944D01*
X2123D01*
X2118Y-2945D01*
X2114Y-2948D01*
X2071Y-2991D01*
X2068Y-2995D01*
X2067Y-3000D01*
Y-3185D01*
X2040D01*
Y-3255D01*
X2120D01*
Y-3185D01*
X2093D01*
Y-3005D01*
X2128Y-2969D01*
X2226D01*
Y-2988D01*
X2226Y-2992D01*
X2223Y-2995D01*
X2221Y-2995D01*
X2221Y-2995D01*
X2189D01*
Y-3076D01*
X2193D01*
Y-3118D01*
X2180D01*
Y-3156D01*
X2226D01*
Y-3118D01*
X2219D01*
Y-3076D01*
X2223D01*
Y-3005D01*
X2223Y-3000D01*
X2226Y-2997D01*
X2228Y-2997D01*
X2228Y-2997D01*
X2259D01*
Y-3030D01*
X2276D01*
Y-2990D01*
X2260D01*
Y-2969D01*
X2496D01*
Y-2988D01*
X2496Y-2992D01*
X2493Y-2995D01*
X2491Y-2995D01*
X2491Y-2995D01*
X2459D01*
Y-3076D01*
X2463D01*
Y-3118D01*
X2450D01*
Y-3155D01*
X2496D01*
Y-3118D01*
X2489D01*
Y-3076D01*
X2493D01*
Y-3005D01*
X2493Y-3000D01*
X2496Y-2997D01*
X2498Y-2997D01*
X2498Y-2997D01*
X2529D01*
Y-3030D01*
X2546D01*
Y-2990D01*
X2530D01*
Y-2969D01*
X2766D01*
Y-2988D01*
X2766Y-2992D01*
X2763Y-2995D01*
X2761Y-2995D01*
X2761Y-2995D01*
X2729D01*
Y-3076D01*
X2733D01*
Y-3118D01*
X2720D01*
Y-3155D01*
X2766D01*
Y-3118D01*
X2759D01*
Y-3076D01*
X2763D01*
Y-3005D01*
X2763Y-3000D01*
X2766Y-2997D01*
X2768Y-2997D01*
X2768Y-2997D01*
X2799D01*
Y-3030D01*
X2816D01*
Y-2990D01*
X2800D01*
Y-2916D01*
D02*
G37*
G36*
X2842Y-2990D02*
X2826D01*
Y-3030D01*
X2842D01*
Y-2990D01*
D02*
G37*
G36*
X2572D02*
X2556D01*
Y-3030D01*
X2572D01*
Y-2990D01*
D02*
G37*
G36*
X2302D02*
X2286D01*
Y-3030D01*
X2302D01*
Y-2990D01*
D02*
G37*
G36*
Y-3040D02*
X2281D01*
X2259D01*
Y-3081D01*
X2268D01*
Y-3112D01*
X2255D01*
Y-3131D01*
X2311D01*
Y-3112D01*
X2293D01*
Y-3081D01*
X2302D01*
Y-3040D01*
D02*
G37*
G36*
X2842D02*
X2821D01*
X2799D01*
Y-3081D01*
X2808D01*
Y-3113D01*
X2795D01*
Y-3132D01*
X2851D01*
Y-3113D01*
X2833D01*
Y-3081D01*
X2842D01*
Y-3040D01*
D02*
G37*
G36*
X2572D02*
X2551D01*
X2529D01*
Y-3081D01*
X2538D01*
Y-3113D01*
X2525D01*
Y-3132D01*
X2581D01*
Y-3113D01*
X2563D01*
Y-3081D01*
X2572D01*
Y-3040D01*
D02*
G37*
G36*
X2311Y-3141D02*
X2288D01*
Y-3160D01*
X2311D01*
Y-3141D01*
D02*
G37*
G36*
X2278D02*
X2255D01*
Y-3160D01*
X2278D01*
Y-3141D01*
D02*
G37*
G36*
X2851Y-3142D02*
X2828D01*
Y-3160D01*
X2851D01*
Y-3142D01*
D02*
G37*
G36*
X2818D02*
X2795D01*
Y-3160D01*
X2818D01*
Y-3142D01*
D02*
G37*
G36*
X2581D02*
X2558D01*
Y-3160D01*
X2581D01*
Y-3142D01*
D02*
G37*
G36*
X2548D02*
X2525D01*
Y-3160D01*
X2548D01*
Y-3142D01*
D02*
G37*
G36*
X2306Y-3176D02*
X2260D01*
Y-3182D01*
X2226D01*
Y-3177D01*
X2180D01*
Y-3215D01*
X2226D01*
Y-3208D01*
X2260D01*
Y-3214D01*
X2306D01*
Y-3208D01*
X2366D01*
X2387Y-3229D01*
Y-3368D01*
X2383Y-3370D01*
X2375Y-3375D01*
X2370Y-3383D01*
X2366Y-3391D01*
X2365Y-3400D01*
X2366Y-3409D01*
X2370Y-3417D01*
X2375Y-3425D01*
X2380Y-3428D01*
Y-3672D01*
X2375Y-3675D01*
X2370Y-3683D01*
X2366Y-3691D01*
X2365Y-3700D01*
X2366Y-3709D01*
X2370Y-3717D01*
X2375Y-3725D01*
X2383Y-3730D01*
X2391Y-3734D01*
X2400Y-3735D01*
X2409Y-3734D01*
X2417Y-3730D01*
X2425Y-3725D01*
X2430Y-3717D01*
X2434Y-3709D01*
X2435Y-3700D01*
X2434Y-3691D01*
X2430Y-3683D01*
X2425Y-3675D01*
X2420Y-3672D01*
Y-3428D01*
X2425Y-3425D01*
X2430Y-3417D01*
X2434Y-3409D01*
X2435Y-3400D01*
X2434Y-3391D01*
X2430Y-3383D01*
X2425Y-3375D01*
X2417Y-3370D01*
X2413Y-3368D01*
Y-3224D01*
X2412Y-3219D01*
X2409Y-3214D01*
X2381Y-3186D01*
X2376Y-3183D01*
X2372Y-3182D01*
X2306D01*
Y-3176D01*
D02*
G37*
G36*
X2846Y-3177D02*
X2800D01*
Y-3183D01*
X2766D01*
Y-3177D01*
X2720D01*
Y-3183D01*
X2634D01*
X2630Y-3184D01*
X2625Y-3187D01*
X2591Y-3221D01*
X2588Y-3225D01*
X2587Y-3230D01*
Y-3368D01*
X2583Y-3370D01*
X2575Y-3375D01*
X2570Y-3383D01*
X2566Y-3391D01*
X2565Y-3400D01*
X2566Y-3409D01*
X2570Y-3417D01*
X2575Y-3425D01*
X2580Y-3428D01*
Y-3672D01*
X2575Y-3675D01*
X2570Y-3683D01*
X2566Y-3691D01*
X2565Y-3700D01*
X2566Y-3709D01*
X2570Y-3717D01*
X2575Y-3725D01*
X2583Y-3730D01*
X2591Y-3734D01*
X2600Y-3735D01*
X2609Y-3734D01*
X2617Y-3730D01*
X2625Y-3725D01*
X2630Y-3717D01*
X2634Y-3709D01*
X2635Y-3700D01*
X2634Y-3691D01*
X2630Y-3683D01*
X2625Y-3675D01*
X2620Y-3672D01*
Y-3428D01*
X2625Y-3425D01*
X2630Y-3417D01*
X2634Y-3409D01*
X2635Y-3400D01*
X2634Y-3391D01*
X2630Y-3383D01*
X2625Y-3375D01*
X2617Y-3370D01*
X2613Y-3368D01*
Y-3235D01*
X2640Y-3208D01*
X2720D01*
Y-3214D01*
X2766D01*
Y-3208D01*
X2800D01*
Y-3214D01*
X2846D01*
Y-3177D01*
D02*
G37*
G36*
X2576D02*
X2530D01*
Y-3183D01*
X2496D01*
Y-3177D01*
X2450D01*
Y-3214D01*
X2460D01*
Y-3233D01*
X2461Y-3238D01*
X2464Y-3242D01*
X2487Y-3265D01*
Y-3368D01*
X2483Y-3370D01*
X2475Y-3375D01*
X2470Y-3383D01*
X2466Y-3391D01*
X2465Y-3400D01*
X2466Y-3409D01*
X2470Y-3417D01*
X2475Y-3425D01*
X2480Y-3428D01*
Y-3672D01*
X2475Y-3675D01*
X2470Y-3683D01*
X2466Y-3691D01*
X2465Y-3700D01*
X2466Y-3709D01*
X2470Y-3717D01*
X2475Y-3725D01*
X2483Y-3730D01*
X2491Y-3734D01*
X2500Y-3735D01*
X2509Y-3734D01*
X2517Y-3730D01*
X2525Y-3725D01*
X2530Y-3717D01*
X2534Y-3709D01*
X2535Y-3700D01*
X2534Y-3691D01*
X2530Y-3683D01*
X2525Y-3675D01*
X2520Y-3672D01*
Y-3428D01*
X2525Y-3425D01*
X2530Y-3417D01*
X2534Y-3409D01*
X2535Y-3400D01*
X2534Y-3391D01*
X2530Y-3383D01*
X2525Y-3375D01*
X2517Y-3370D01*
X2513Y-3368D01*
Y-3260D01*
X2512Y-3255D01*
X2509Y-3251D01*
X2486Y-3228D01*
Y-3214D01*
X2496D01*
Y-3208D01*
X2530D01*
Y-3214D01*
X2576D01*
Y-3177D01*
D02*
G37*
G36*
X2020Y-3185D02*
X1940D01*
Y-3255D01*
X1967D01*
Y-3322D01*
X1957D01*
Y-3359D01*
X2003D01*
Y-3322D01*
X1993D01*
Y-3255D01*
X2020D01*
Y-3185D01*
D02*
G37*
G36*
X2335Y-3365D02*
X2265D01*
Y-3387D01*
X2003D01*
Y-3381D01*
X1957D01*
Y-3418D01*
X2003D01*
Y-3412D01*
X2265D01*
Y-3435D01*
X2280D01*
Y-3665D01*
X2265D01*
Y-3735D01*
X2335D01*
Y-3665D01*
X2320D01*
Y-3435D01*
X2335D01*
Y-3365D01*
D02*
G37*
G36*
X2705Y-3361D02*
Y-3395D01*
X2739D01*
X2739Y-3390D01*
X2735Y-3380D01*
X2728Y-3372D01*
X2720Y-3365D01*
X2710Y-3361D01*
X2705Y-3361D01*
D02*
G37*
G36*
X2695D02*
X2690Y-3361D01*
X2680Y-3365D01*
X2672Y-3372D01*
X2665Y-3380D01*
X2661Y-3390D01*
X2661Y-3395D01*
X2695D01*
Y-3361D01*
D02*
G37*
G36*
X3830Y-3437D02*
X3620D01*
X3615Y-3438D01*
X3611Y-3440D01*
X3600Y-3451D01*
X3589Y-3440D01*
X3585Y-3438D01*
X3580Y-3437D01*
X3311D01*
X3306Y-3438D01*
X3302Y-3440D01*
X3290Y-3452D01*
X3279Y-3441D01*
X3275Y-3438D01*
X3270Y-3437D01*
X3000D01*
X2995Y-3438D01*
X2991Y-3441D01*
X2971Y-3461D01*
X2968Y-3465D01*
X2967Y-3470D01*
Y-3473D01*
X2935D01*
Y-3508D01*
X2980D01*
X3025D01*
Y-3473D01*
X3001D01*
X2999Y-3469D01*
X3005Y-3463D01*
X3265D01*
X3271Y-3469D01*
X3269Y-3473D01*
X3245D01*
Y-3508D01*
X3290D01*
X3335D01*
Y-3473D01*
X3311D01*
X3309Y-3469D01*
X3316Y-3462D01*
X3575D01*
X3582Y-3469D01*
X3580Y-3474D01*
X3555D01*
Y-3509D01*
X3600D01*
X3645D01*
Y-3474D01*
X3620D01*
X3618Y-3469D01*
X3625Y-3462D01*
X3825D01*
X3837Y-3475D01*
Y-3546D01*
X3822D01*
Y-3565D01*
X3878D01*
Y-3546D01*
X3863D01*
Y-3469D01*
X3862Y-3464D01*
X3859Y-3460D01*
X3839Y-3440D01*
X3835Y-3438D01*
X3830Y-3437D01*
D02*
G37*
G36*
X3335Y-3518D02*
X3295D01*
Y-3553D01*
X3335D01*
Y-3518D01*
D02*
G37*
G36*
X3285D02*
X3245D01*
Y-3553D01*
X3285D01*
Y-3518D01*
D02*
G37*
G36*
X3645Y-3519D02*
X3605D01*
Y-3554D01*
X3645D01*
Y-3519D01*
D02*
G37*
G36*
X3595D02*
X3555D01*
Y-3554D01*
X3595D01*
Y-3519D01*
D02*
G37*
G36*
X3740Y-3479D02*
X3660D01*
Y-3549D01*
X3740D01*
Y-3527D01*
X3769D01*
X3777Y-3535D01*
Y-3551D01*
X3767D01*
Y-3589D01*
X3813D01*
Y-3551D01*
X3803D01*
Y-3530D01*
X3802Y-3525D01*
X3799Y-3521D01*
X3783Y-3505D01*
X3779Y-3502D01*
X3774Y-3501D01*
X3740D01*
Y-3479D01*
D02*
G37*
G36*
X3878Y-3575D02*
X3855D01*
Y-3594D01*
X3878D01*
Y-3575D01*
D02*
G37*
G36*
X3845D02*
X3822D01*
Y-3594D01*
X3845D01*
Y-3575D01*
D02*
G37*
G36*
X3704Y-3590D02*
X3671D01*
Y-3661D01*
X3670Y-3666D01*
X3667Y-3668D01*
X3665Y-3668D01*
X3665Y-3668D01*
X3635Y-3668D01*
D01*
X3633Y-3668D01*
X3630Y-3666D01*
X3629Y-3661D01*
Y-3590D01*
X3596D01*
Y-3617D01*
X3420D01*
X3415Y-3618D01*
X3411Y-3621D01*
X3391Y-3641D01*
X3388Y-3645D01*
X3387Y-3650D01*
Y-3665D01*
X3365D01*
Y-3735D01*
X3435D01*
Y-3665D01*
X3413D01*
Y-3655D01*
X3425Y-3643D01*
X3596D01*
Y-3670D01*
X3628Y-3670D01*
D01*
X3629Y-3670D01*
X3633Y-3673D01*
X3633Y-3678D01*
Y-3749D01*
X3667D01*
Y-3733D01*
X3720D01*
X3725Y-3732D01*
X3729Y-3729D01*
X3755Y-3703D01*
X3772D01*
Y-3713D01*
X3809D01*
Y-3667D01*
X3772D01*
Y-3677D01*
X3750D01*
X3745Y-3678D01*
X3741Y-3681D01*
X3715Y-3707D01*
X3667D01*
Y-3678D01*
X3667Y-3673D01*
X3671Y-3670D01*
X3672Y-3670D01*
X3672Y-3670D01*
X3704D01*
Y-3643D01*
X3767D01*
Y-3648D01*
X3813D01*
Y-3610D01*
X3767D01*
Y-3617D01*
X3704D01*
Y-3590D01*
D02*
G37*
G36*
X2739Y-3405D02*
X2661D01*
X2661Y-3410D01*
X2665Y-3420D01*
X2672Y-3428D01*
X2680Y-3434D01*
Y-3666D01*
X2672Y-3672D01*
X2665Y-3680D01*
X2661Y-3690D01*
X2661Y-3695D01*
X2739D01*
X2739Y-3690D01*
X2735Y-3680D01*
X2728Y-3672D01*
X2720Y-3666D01*
Y-3434D01*
X2728Y-3428D01*
X2735Y-3420D01*
X2739Y-3410D01*
X2739Y-3405D01*
D02*
G37*
G36*
X3025Y-3518D02*
X2980D01*
X2935D01*
Y-3553D01*
X2967D01*
Y-3600D01*
X2968Y-3605D01*
X2971Y-3609D01*
X2987Y-3625D01*
Y-3662D01*
X2980Y-3665D01*
X2972Y-3672D01*
X2965Y-3680D01*
X2961Y-3690D01*
X2961Y-3695D01*
X3000D01*
X3039D01*
X3039Y-3690D01*
X3035Y-3680D01*
X3028Y-3672D01*
X3020Y-3665D01*
X3013Y-3662D01*
Y-3620D01*
X3012Y-3615D01*
X3009Y-3611D01*
X2993Y-3595D01*
Y-3553D01*
X3025D01*
Y-3518D01*
D02*
G37*
G36*
X3430Y-3478D02*
X3350D01*
Y-3548D01*
X3377D01*
Y-3565D01*
X3355Y-3587D01*
X3230D01*
X3225Y-3588D01*
X3221Y-3591D01*
X3191Y-3621D01*
X3188Y-3625D01*
X3187Y-3630D01*
Y-3668D01*
X3183Y-3670D01*
X3175Y-3675D01*
X3170Y-3683D01*
X3166Y-3691D01*
X3165Y-3700D01*
X3166Y-3709D01*
X3170Y-3717D01*
X3175Y-3725D01*
X3183Y-3730D01*
X3191Y-3734D01*
X3200Y-3735D01*
X3209Y-3734D01*
X3217Y-3730D01*
X3225Y-3725D01*
X3230Y-3717D01*
X3234Y-3709D01*
X3235Y-3700D01*
X3234Y-3691D01*
X3230Y-3683D01*
X3225Y-3675D01*
X3217Y-3670D01*
X3213Y-3668D01*
Y-3635D01*
X3235Y-3613D01*
X3360D01*
X3365Y-3612D01*
X3369Y-3609D01*
X3399Y-3579D01*
X3402Y-3575D01*
X3403Y-3570D01*
Y-3548D01*
X3430D01*
Y-3478D01*
D02*
G37*
G36*
X3120D02*
X3040D01*
Y-3548D01*
X3067D01*
Y-3590D01*
X3068Y-3595D01*
X3071Y-3599D01*
X3087Y-3615D01*
Y-3668D01*
X3083Y-3670D01*
X3075Y-3675D01*
X3070Y-3683D01*
X3066Y-3691D01*
X3065Y-3700D01*
X3066Y-3709D01*
X3070Y-3717D01*
X3075Y-3725D01*
X3083Y-3730D01*
X3091Y-3734D01*
X3100Y-3735D01*
X3109Y-3734D01*
X3117Y-3730D01*
X3125Y-3725D01*
X3130Y-3717D01*
X3134Y-3709D01*
X3135Y-3700D01*
X3134Y-3691D01*
X3130Y-3683D01*
X3125Y-3675D01*
X3117Y-3670D01*
X3113Y-3668D01*
Y-3610D01*
X3112Y-3605D01*
X3109Y-3601D01*
X3093Y-3585D01*
Y-3548D01*
X3120D01*
Y-3478D01*
D02*
G37*
G36*
X3039Y-3705D02*
X3005D01*
Y-3739D01*
X3010Y-3739D01*
X3020Y-3735D01*
X3028Y-3728D01*
X3035Y-3720D01*
X3039Y-3710D01*
X3039Y-3705D01*
D02*
G37*
G36*
X2739D02*
X2705D01*
Y-3739D01*
X2710Y-3739D01*
X2720Y-3735D01*
X2728Y-3728D01*
X2735Y-3720D01*
X2739Y-3710D01*
X2739Y-3705D01*
D02*
G37*
G36*
X2695D02*
X2661D01*
X2661Y-3710D01*
X2665Y-3720D01*
X2672Y-3728D01*
X2680Y-3735D01*
X2690Y-3739D01*
X2695Y-3739D01*
Y-3705D01*
D02*
G37*
G36*
X2995D02*
X2961D01*
X2961Y-3710D01*
X2965Y-3720D01*
X2972Y-3728D01*
X2980Y-3735D01*
X2990Y-3739D01*
X2995Y-3739D01*
Y-3705D01*
D02*
G37*
G36*
X3873Y-3610D02*
X3827D01*
Y-3648D01*
X3837D01*
Y-3667D01*
X3831D01*
Y-3713D01*
X3837D01*
Y-3735D01*
X3815Y-3757D01*
X3325D01*
X3313Y-3745D01*
Y-3732D01*
X3317Y-3730D01*
X3325Y-3725D01*
X3330Y-3717D01*
X3334Y-3709D01*
X3335Y-3700D01*
X3334Y-3691D01*
X3330Y-3683D01*
X3325Y-3675D01*
X3317Y-3670D01*
X3309Y-3666D01*
X3300Y-3665D01*
X3291Y-3666D01*
X3283Y-3670D01*
X3275Y-3675D01*
X3270Y-3683D01*
X3266Y-3691D01*
X3265Y-3700D01*
X3266Y-3709D01*
X3270Y-3717D01*
X3275Y-3725D01*
X3283Y-3730D01*
X3287Y-3732D01*
Y-3750D01*
X3288Y-3755D01*
X3291Y-3759D01*
X3311Y-3779D01*
X3315Y-3782D01*
X3320Y-3783D01*
X3820D01*
X3825Y-3782D01*
X3829Y-3779D01*
X3859Y-3749D01*
X3861Y-3745D01*
X3862Y-3740D01*
Y-3713D01*
X3868D01*
Y-3667D01*
X3863D01*
Y-3648D01*
X3873D01*
Y-3610D01*
D02*
G37*
G36*
X2067Y-3672D02*
X2054Y-3673D01*
X2041Y-3677D01*
X2029Y-3683D01*
X2019Y-3692D01*
X2010Y-3702D01*
X2004Y-3714D01*
X2000Y-3727D01*
X1999Y-3740D01*
X2000Y-3753D01*
X2004Y-3766D01*
X2010Y-3778D01*
X2019Y-3788D01*
X2029Y-3797D01*
X2041Y-3803D01*
X2054Y-3807D01*
X2067Y-3808D01*
X2080Y-3807D01*
X2093Y-3803D01*
X2105Y-3797D01*
X2115Y-3788D01*
X2124Y-3778D01*
X2130Y-3766D01*
X2134Y-3753D01*
X2135Y-3740D01*
X2134Y-3727D01*
X2130Y-3714D01*
X2124Y-3702D01*
X2115Y-3692D01*
X2105Y-3683D01*
X2093Y-3677D01*
X2080Y-3673D01*
X2067Y-3672D01*
D02*
G37*
G36*
X169Y-2577D02*
X132D01*
Y-2587D01*
X90D01*
X85Y-2588D01*
X81Y-2591D01*
X51Y-2621D01*
X48Y-2625D01*
X47Y-2630D01*
Y-3340D01*
X48Y-3345D01*
X51Y-3349D01*
X111Y-3409D01*
X115Y-3412D01*
X120Y-3413D01*
X265D01*
Y-3435D01*
X280D01*
Y-3665D01*
X265D01*
Y-3735D01*
X335D01*
Y-3665D01*
X320D01*
Y-3435D01*
X335D01*
Y-3365D01*
X265D01*
Y-3387D01*
X125D01*
X73Y-3335D01*
Y-2635D01*
X95Y-2613D01*
X132D01*
Y-2623D01*
X169D01*
Y-2577D01*
D02*
G37*
G36*
X228D02*
X191D01*
Y-2623D01*
X197D01*
Y-2675D01*
X175Y-2697D01*
X162D01*
Y-2670D01*
X92D01*
Y-2750D01*
X162D01*
Y-2723D01*
X180D01*
X185Y-2722D01*
X189Y-2719D01*
X219Y-2689D01*
X221Y-2685D01*
X222Y-2680D01*
Y-2623D01*
X228D01*
Y-2577D01*
D02*
G37*
G36*
X779Y-2993D02*
X762D01*
Y-3034D01*
X779D01*
Y-2993D01*
D02*
G37*
G36*
X509D02*
X492D01*
Y-3034D01*
X509D01*
Y-2993D01*
D02*
G37*
G36*
X239D02*
X222D01*
Y-3034D01*
X239D01*
Y-2993D01*
D02*
G37*
G36*
X162Y-2770D02*
X92D01*
Y-2850D01*
X114D01*
Y-2937D01*
X115Y-2941D01*
X118Y-2946D01*
X141Y-2969D01*
X145Y-2972D01*
X150Y-2973D01*
X163D01*
Y-2991D01*
X163Y-2996D01*
X159Y-2998D01*
X158Y-2998D01*
X158Y-2998D01*
X126D01*
Y-3079D01*
X130D01*
Y-3122D01*
X117D01*
Y-3159D01*
X163D01*
Y-3122D01*
X155D01*
Y-3079D01*
X159D01*
Y-3008D01*
X160Y-3003D01*
X163Y-3000D01*
X165Y-3000D01*
X165Y-3000D01*
X196D01*
Y-3034D01*
X212D01*
Y-2993D01*
X197D01*
Y-2973D01*
X433D01*
Y-2991D01*
X433Y-2996D01*
X429Y-2998D01*
X428Y-2998D01*
X428Y-2998D01*
X396D01*
Y-3079D01*
X400D01*
Y-3121D01*
X387D01*
Y-3159D01*
X433D01*
Y-3121D01*
X425D01*
Y-3079D01*
X429D01*
Y-3008D01*
X430Y-3003D01*
X433Y-3000D01*
X435Y-3000D01*
X435Y-3000D01*
X466D01*
Y-3034D01*
X482D01*
Y-2993D01*
X467D01*
Y-2973D01*
X703D01*
Y-2991D01*
X703Y-2996D01*
X699Y-2998D01*
X698Y-2998D01*
X698Y-2998D01*
X666D01*
Y-3079D01*
X670D01*
Y-3121D01*
X657D01*
Y-3159D01*
X703D01*
Y-3121D01*
X695D01*
Y-3079D01*
X699D01*
Y-3008D01*
X700Y-3003D01*
X703Y-3000D01*
X705Y-3000D01*
X705Y-3000D01*
X736D01*
Y-3034D01*
X752D01*
Y-2993D01*
X737D01*
Y-2920D01*
X703D01*
Y-2947D01*
X467D01*
Y-2920D01*
X433D01*
Y-2947D01*
X197D01*
Y-2920D01*
X163D01*
Y-2947D01*
X155D01*
X139Y-2931D01*
Y-2850D01*
X162D01*
Y-2770D01*
D02*
G37*
G36*
X239Y-3044D02*
X217D01*
X196D01*
Y-3084D01*
X205D01*
Y-3116D01*
X192D01*
Y-3134D01*
X248D01*
Y-3116D01*
X230D01*
Y-3084D01*
X239D01*
Y-3044D01*
D02*
G37*
G36*
X779D02*
X757D01*
X736D01*
Y-3084D01*
X745D01*
Y-3116D01*
X732D01*
Y-3135D01*
X788D01*
Y-3116D01*
X770D01*
Y-3084D01*
X779D01*
Y-3044D01*
D02*
G37*
G36*
X509D02*
X487D01*
X466D01*
Y-3084D01*
X475D01*
Y-3116D01*
X462D01*
Y-3135D01*
X518D01*
Y-3116D01*
X500D01*
Y-3084D01*
X509D01*
Y-3044D01*
D02*
G37*
G36*
X248Y-3144D02*
X225D01*
Y-3163D01*
X248D01*
Y-3144D01*
D02*
G37*
G36*
X215D02*
X192D01*
Y-3163D01*
X215D01*
Y-3144D01*
D02*
G37*
G36*
X788Y-3145D02*
X765D01*
Y-3164D01*
X788D01*
Y-3145D01*
D02*
G37*
G36*
X755D02*
X732D01*
Y-3164D01*
X755D01*
Y-3145D01*
D02*
G37*
G36*
X518D02*
X495D01*
Y-3164D01*
X518D01*
Y-3145D01*
D02*
G37*
G36*
X485D02*
X462D01*
Y-3164D01*
X485D01*
Y-3145D01*
D02*
G37*
G36*
X243Y-3180D02*
X197D01*
Y-3186D01*
X163D01*
Y-3181D01*
X117D01*
Y-3218D01*
X163D01*
Y-3211D01*
X197D01*
Y-3217D01*
X243D01*
Y-3211D01*
X303D01*
X387Y-3295D01*
Y-3368D01*
X383Y-3370D01*
X375Y-3375D01*
X370Y-3383D01*
X366Y-3391D01*
X365Y-3400D01*
X366Y-3409D01*
X370Y-3417D01*
X375Y-3425D01*
X380Y-3428D01*
Y-3672D01*
X375Y-3675D01*
X370Y-3683D01*
X366Y-3691D01*
X365Y-3700D01*
X366Y-3709D01*
X370Y-3717D01*
X375Y-3725D01*
X383Y-3730D01*
X391Y-3734D01*
X400Y-3735D01*
X409Y-3734D01*
X417Y-3730D01*
X425Y-3725D01*
X430Y-3717D01*
X434Y-3709D01*
X435Y-3700D01*
X434Y-3691D01*
X430Y-3683D01*
X425Y-3675D01*
X420Y-3672D01*
Y-3428D01*
X425Y-3425D01*
X430Y-3417D01*
X434Y-3409D01*
X435Y-3400D01*
X434Y-3391D01*
X430Y-3383D01*
X425Y-3375D01*
X417Y-3370D01*
X413Y-3368D01*
Y-3290D01*
X412Y-3285D01*
X409Y-3281D01*
X317Y-3189D01*
X313Y-3187D01*
X308Y-3186D01*
X243D01*
Y-3180D01*
D02*
G37*
G36*
X783Y-3180D02*
X737D01*
Y-3186D01*
X703D01*
Y-3180D01*
X657D01*
Y-3218D01*
X667D01*
Y-3265D01*
X591Y-3341D01*
X588Y-3345D01*
X587Y-3350D01*
Y-3368D01*
X583Y-3370D01*
X575Y-3375D01*
X570Y-3383D01*
X566Y-3391D01*
X565Y-3400D01*
X566Y-3409D01*
X570Y-3417D01*
X575Y-3425D01*
X580Y-3428D01*
Y-3672D01*
X575Y-3675D01*
X570Y-3683D01*
X566Y-3691D01*
X565Y-3700D01*
X566Y-3709D01*
X570Y-3717D01*
X575Y-3725D01*
X583Y-3730D01*
X591Y-3734D01*
X600Y-3735D01*
X609Y-3734D01*
X617Y-3730D01*
X625Y-3725D01*
X630Y-3717D01*
X634Y-3709D01*
X635Y-3700D01*
X634Y-3691D01*
X630Y-3683D01*
X625Y-3675D01*
X620Y-3672D01*
Y-3428D01*
X625Y-3425D01*
X630Y-3417D01*
X634Y-3409D01*
X635Y-3400D01*
X634Y-3391D01*
X630Y-3383D01*
X625Y-3375D01*
X617Y-3370D01*
X613Y-3368D01*
Y-3355D01*
X689Y-3279D01*
X692Y-3275D01*
X693Y-3270D01*
Y-3218D01*
X703D01*
Y-3212D01*
X737D01*
Y-3218D01*
X783D01*
Y-3180D01*
D02*
G37*
G36*
X513D02*
X467D01*
Y-3186D01*
X433D01*
Y-3180D01*
X387D01*
Y-3218D01*
X433D01*
Y-3212D01*
X467D01*
Y-3218D01*
X477D01*
Y-3280D01*
X478Y-3285D01*
X481Y-3289D01*
X487Y-3295D01*
Y-3368D01*
X483Y-3370D01*
X475Y-3375D01*
X470Y-3383D01*
X466Y-3391D01*
X465Y-3400D01*
X466Y-3409D01*
X470Y-3417D01*
X475Y-3425D01*
X480Y-3428D01*
Y-3672D01*
X475Y-3675D01*
X470Y-3683D01*
X466Y-3691D01*
X465Y-3700D01*
X466Y-3709D01*
X470Y-3717D01*
X475Y-3725D01*
X483Y-3730D01*
X491Y-3734D01*
X500Y-3735D01*
X509Y-3734D01*
X517Y-3730D01*
X525Y-3725D01*
X530Y-3717D01*
X534Y-3709D01*
X535Y-3700D01*
X534Y-3691D01*
X530Y-3683D01*
X525Y-3675D01*
X520Y-3672D01*
Y-3428D01*
X525Y-3425D01*
X530Y-3417D01*
X534Y-3409D01*
X535Y-3400D01*
X534Y-3391D01*
X530Y-3383D01*
X525Y-3375D01*
X517Y-3370D01*
X513Y-3368D01*
Y-3290D01*
X512Y-3285D01*
X509Y-3281D01*
X503Y-3275D01*
Y-3218D01*
X513D01*
Y-3180D01*
D02*
G37*
G36*
X705Y-3361D02*
Y-3395D01*
X739D01*
X739Y-3390D01*
X735Y-3380D01*
X728Y-3372D01*
X720Y-3365D01*
X710Y-3361D01*
X705Y-3361D01*
D02*
G37*
G36*
X695D02*
X690Y-3361D01*
X680Y-3365D01*
X672Y-3372D01*
X665Y-3380D01*
X661Y-3390D01*
X661Y-3395D01*
X695D01*
Y-3361D01*
D02*
G37*
G36*
X1830Y-3437D02*
X1620D01*
X1615Y-3438D01*
X1611Y-3440D01*
X1600Y-3451D01*
X1589Y-3440D01*
X1585Y-3438D01*
X1580Y-3437D01*
X1311D01*
X1306Y-3438D01*
X1302Y-3440D01*
X1290Y-3452D01*
X1279Y-3441D01*
X1275Y-3438D01*
X1270Y-3437D01*
X1000D01*
X995Y-3438D01*
X991Y-3441D01*
X971Y-3461D01*
X968Y-3465D01*
X967Y-3470D01*
Y-3473D01*
X935D01*
Y-3508D01*
X980D01*
X1025D01*
Y-3473D01*
X1001D01*
X999Y-3469D01*
X1005Y-3463D01*
X1265D01*
X1271Y-3469D01*
X1269Y-3473D01*
X1245D01*
Y-3508D01*
X1290D01*
X1335D01*
Y-3473D01*
X1311D01*
X1309Y-3469D01*
X1316Y-3462D01*
X1575D01*
X1582Y-3469D01*
X1580Y-3474D01*
X1555D01*
Y-3509D01*
X1600D01*
X1645D01*
Y-3474D01*
X1620D01*
X1618Y-3469D01*
X1625Y-3462D01*
X1825D01*
X1837Y-3475D01*
Y-3546D01*
X1822D01*
Y-3565D01*
X1878D01*
Y-3546D01*
X1863D01*
Y-3469D01*
X1862Y-3464D01*
X1859Y-3460D01*
X1839Y-3440D01*
X1835Y-3438D01*
X1830Y-3437D01*
D02*
G37*
G36*
X1335Y-3518D02*
X1295D01*
Y-3553D01*
X1335D01*
Y-3518D01*
D02*
G37*
G36*
X1285D02*
X1245D01*
Y-3553D01*
X1285D01*
Y-3518D01*
D02*
G37*
G36*
X1645Y-3519D02*
X1605D01*
Y-3554D01*
X1645D01*
Y-3519D01*
D02*
G37*
G36*
X1595D02*
X1555D01*
Y-3554D01*
X1595D01*
Y-3519D01*
D02*
G37*
G36*
X1740Y-3479D02*
X1660D01*
Y-3549D01*
X1740D01*
Y-3527D01*
X1769D01*
X1777Y-3535D01*
Y-3551D01*
X1767D01*
Y-3589D01*
X1813D01*
Y-3551D01*
X1803D01*
Y-3530D01*
X1802Y-3525D01*
X1799Y-3521D01*
X1783Y-3505D01*
X1779Y-3502D01*
X1774Y-3501D01*
X1740D01*
Y-3479D01*
D02*
G37*
G36*
X1878Y-3575D02*
X1855D01*
Y-3594D01*
X1878D01*
Y-3575D01*
D02*
G37*
G36*
X1845D02*
X1822D01*
Y-3594D01*
X1845D01*
Y-3575D01*
D02*
G37*
G36*
X1704Y-3590D02*
X1671D01*
Y-3661D01*
X1670Y-3666D01*
X1667Y-3668D01*
X1665Y-3668D01*
X1665Y-3668D01*
X1635Y-3668D01*
D01*
X1633Y-3668D01*
X1630Y-3666D01*
X1629Y-3661D01*
Y-3590D01*
X1596D01*
Y-3617D01*
X1420D01*
X1415Y-3618D01*
X1411Y-3621D01*
X1391Y-3641D01*
X1388Y-3645D01*
X1387Y-3650D01*
Y-3665D01*
X1365D01*
Y-3735D01*
X1435D01*
Y-3665D01*
X1413D01*
Y-3655D01*
X1425Y-3643D01*
X1596D01*
Y-3670D01*
X1628Y-3670D01*
D01*
X1629Y-3670D01*
X1633Y-3673D01*
X1633Y-3678D01*
Y-3749D01*
X1667D01*
Y-3733D01*
X1720D01*
X1725Y-3732D01*
X1729Y-3729D01*
X1755Y-3703D01*
X1772D01*
Y-3713D01*
X1809D01*
Y-3667D01*
X1772D01*
Y-3677D01*
X1750D01*
X1745Y-3678D01*
X1741Y-3681D01*
X1715Y-3707D01*
X1667D01*
Y-3678D01*
X1667Y-3673D01*
X1671Y-3670D01*
X1672Y-3670D01*
X1672Y-3670D01*
X1704D01*
Y-3643D01*
X1767D01*
Y-3648D01*
X1813D01*
Y-3610D01*
X1767D01*
Y-3617D01*
X1704D01*
Y-3590D01*
D02*
G37*
G36*
X739Y-3405D02*
X661D01*
X661Y-3410D01*
X665Y-3420D01*
X672Y-3428D01*
X680Y-3434D01*
Y-3666D01*
X672Y-3672D01*
X665Y-3680D01*
X661Y-3690D01*
X661Y-3695D01*
X739D01*
X739Y-3690D01*
X735Y-3680D01*
X728Y-3672D01*
X720Y-3666D01*
Y-3434D01*
X728Y-3428D01*
X735Y-3420D01*
X739Y-3410D01*
X739Y-3405D01*
D02*
G37*
G36*
X1025Y-3518D02*
X980D01*
X935D01*
Y-3553D01*
X967D01*
Y-3600D01*
X968Y-3605D01*
X971Y-3609D01*
X987Y-3625D01*
Y-3662D01*
X980Y-3665D01*
X972Y-3672D01*
X965Y-3680D01*
X961Y-3690D01*
X961Y-3695D01*
X1000D01*
X1039D01*
X1039Y-3690D01*
X1035Y-3680D01*
X1028Y-3672D01*
X1020Y-3665D01*
X1013Y-3662D01*
Y-3620D01*
X1012Y-3615D01*
X1009Y-3611D01*
X993Y-3595D01*
Y-3553D01*
X1025D01*
Y-3518D01*
D02*
G37*
G36*
X1430Y-3478D02*
X1350D01*
Y-3548D01*
X1377D01*
Y-3565D01*
X1355Y-3587D01*
X1230D01*
X1225Y-3588D01*
X1221Y-3591D01*
X1191Y-3621D01*
X1188Y-3625D01*
X1187Y-3630D01*
Y-3668D01*
X1183Y-3670D01*
X1175Y-3675D01*
X1170Y-3683D01*
X1166Y-3691D01*
X1165Y-3700D01*
X1166Y-3709D01*
X1170Y-3717D01*
X1175Y-3725D01*
X1183Y-3730D01*
X1191Y-3734D01*
X1200Y-3735D01*
X1209Y-3734D01*
X1217Y-3730D01*
X1225Y-3725D01*
X1230Y-3717D01*
X1234Y-3709D01*
X1235Y-3700D01*
X1234Y-3691D01*
X1230Y-3683D01*
X1225Y-3675D01*
X1217Y-3670D01*
X1213Y-3668D01*
Y-3635D01*
X1235Y-3613D01*
X1360D01*
X1365Y-3612D01*
X1369Y-3609D01*
X1399Y-3579D01*
X1402Y-3575D01*
X1403Y-3570D01*
Y-3548D01*
X1430D01*
Y-3478D01*
D02*
G37*
G36*
X1120D02*
X1040D01*
Y-3548D01*
X1067D01*
Y-3590D01*
X1068Y-3595D01*
X1071Y-3599D01*
X1087Y-3615D01*
Y-3668D01*
X1083Y-3670D01*
X1075Y-3675D01*
X1070Y-3683D01*
X1066Y-3691D01*
X1065Y-3700D01*
X1066Y-3709D01*
X1070Y-3717D01*
X1075Y-3725D01*
X1083Y-3730D01*
X1091Y-3734D01*
X1100Y-3735D01*
X1109Y-3734D01*
X1117Y-3730D01*
X1125Y-3725D01*
X1130Y-3717D01*
X1134Y-3709D01*
X1135Y-3700D01*
X1134Y-3691D01*
X1130Y-3683D01*
X1125Y-3675D01*
X1117Y-3670D01*
X1113Y-3668D01*
Y-3610D01*
X1112Y-3605D01*
X1109Y-3601D01*
X1093Y-3585D01*
Y-3548D01*
X1120D01*
Y-3478D01*
D02*
G37*
G36*
X1039Y-3705D02*
X1005D01*
Y-3739D01*
X1010Y-3739D01*
X1020Y-3735D01*
X1028Y-3728D01*
X1035Y-3720D01*
X1039Y-3710D01*
X1039Y-3705D01*
D02*
G37*
G36*
X739D02*
X705D01*
Y-3739D01*
X710Y-3739D01*
X720Y-3735D01*
X728Y-3728D01*
X735Y-3720D01*
X739Y-3710D01*
X739Y-3705D01*
D02*
G37*
G36*
X695D02*
X661D01*
X661Y-3710D01*
X665Y-3720D01*
X672Y-3728D01*
X680Y-3735D01*
X690Y-3739D01*
X695Y-3739D01*
Y-3705D01*
D02*
G37*
G36*
X995D02*
X961D01*
X961Y-3710D01*
X965Y-3720D01*
X972Y-3728D01*
X980Y-3735D01*
X990Y-3739D01*
X995Y-3739D01*
Y-3705D01*
D02*
G37*
G36*
X1873Y-3610D02*
X1827D01*
Y-3648D01*
X1837D01*
Y-3667D01*
X1831D01*
Y-3713D01*
X1837D01*
Y-3735D01*
X1815Y-3757D01*
X1325D01*
X1313Y-3745D01*
Y-3732D01*
X1317Y-3730D01*
X1325Y-3725D01*
X1330Y-3717D01*
X1334Y-3709D01*
X1335Y-3700D01*
X1334Y-3691D01*
X1330Y-3683D01*
X1325Y-3675D01*
X1317Y-3670D01*
X1309Y-3666D01*
X1300Y-3665D01*
X1291Y-3666D01*
X1283Y-3670D01*
X1275Y-3675D01*
X1270Y-3683D01*
X1266Y-3691D01*
X1265Y-3700D01*
X1266Y-3709D01*
X1270Y-3717D01*
X1275Y-3725D01*
X1283Y-3730D01*
X1287Y-3732D01*
Y-3750D01*
X1288Y-3755D01*
X1291Y-3759D01*
X1311Y-3779D01*
X1315Y-3782D01*
X1320Y-3783D01*
X1820D01*
X1825Y-3782D01*
X1829Y-3779D01*
X1859Y-3749D01*
X1861Y-3745D01*
X1862Y-3740D01*
Y-3713D01*
X1868D01*
Y-3667D01*
X1863D01*
Y-3648D01*
X1873D01*
Y-3610D01*
D02*
G37*
%LPD*%
D12*
X506Y-2321D02*
Y-2290D01*
X450Y-2080D02*
X471Y-2101D01*
X486D01*
X565D02*
Y-2055D01*
X441Y-2290D02*
X451Y-2281D01*
X435Y-2290D02*
X441D01*
X451Y-2281D02*
Y-2254D01*
Y-2281D02*
X460Y-2290D01*
X486D01*
X526Y-2101D02*
Y-2056D01*
X545Y-2101D02*
Y-2035D01*
X200Y-2275D02*
X240D01*
X185Y-2290D02*
X200Y-2275D01*
X185Y-2421D02*
Y-2290D01*
X375Y-2215D02*
X451D01*
X355Y-2235D02*
X375Y-2215D01*
X355Y-2421D02*
Y-2235D01*
X321Y-2455D02*
X355Y-2421D01*
X219Y-2455D02*
X321D01*
X185Y-2421D02*
X219Y-2455D01*
X200Y-2415D02*
X225Y-2440D01*
X340Y-2415D02*
Y-2225D01*
X315Y-2440D02*
X340Y-2415D01*
X225Y-2440D02*
X315D01*
X340Y-2225D02*
X370Y-2195D01*
X451D01*
X200Y-2415D02*
Y-2310D01*
X209Y-2301D01*
X240D01*
X420Y-2235D02*
X451D01*
X405Y-2250D02*
X420Y-2235D01*
D16*
X135Y-2340D02*
D03*
Y-2261D02*
D03*
D17*
X240Y-2352D02*
D03*
Y-2326D02*
D03*
Y-2301D02*
D03*
Y-2275D02*
D03*
Y-2249D02*
D03*
D18*
X356Y-580D02*
D03*
Y-521D02*
D03*
X1300Y-2590D02*
D03*
Y-2530D02*
D03*
X1370D02*
D03*
Y-2590D02*
D03*
X3330Y-570D02*
D03*
Y-630D02*
D03*
X1820Y-1030D02*
D03*
Y-1090D02*
D03*
X1900Y-1090D02*
D03*
Y-1030D02*
D03*
X1050Y-2200D02*
D03*
Y-2260D02*
D03*
X1450Y-2200D02*
D03*
Y-2260D02*
D03*
X1450Y-1800D02*
D03*
Y-1740D02*
D03*
X440Y-1680D02*
D03*
Y-1620D02*
D03*
X90Y-300D02*
D03*
Y-241D02*
D03*
X910Y-2260D02*
D03*
Y-2320D02*
D03*
X750Y-2320D02*
D03*
Y-2260D02*
D03*
X405Y-2385D02*
D03*
Y-2445D02*
D03*
X1450Y-1460D02*
D03*
Y-1400D02*
D03*
X630Y-230D02*
D03*
Y-290D02*
D03*
X630Y-170D02*
D03*
Y-110D02*
D03*
X500Y-1680D02*
D03*
Y-1620D02*
D03*
X1136Y-806D02*
D03*
Y-865D02*
D03*
X520Y-230D02*
D03*
Y-290D02*
D03*
X520Y-110D02*
D03*
Y-170D02*
D03*
X1310Y-1500D02*
D03*
Y-1560D02*
D03*
X1100Y-1659D02*
D03*
Y-1600D02*
D03*
X1850Y-3629D02*
D03*
Y-3570D02*
D03*
X1720Y-2990D02*
D03*
Y-3050D02*
D03*
X1410Y-2990D02*
D03*
Y-3050D02*
D03*
X1100Y-2990D02*
D03*
Y-3050D02*
D03*
X1810Y-3090D02*
D03*
Y-3150D02*
D03*
X1720Y-2870D02*
D03*
Y-2930D02*
D03*
X1500Y-3090D02*
D03*
Y-3150D02*
D03*
X1410Y-2870D02*
D03*
Y-2930D02*
D03*
X1190Y-3090D02*
D03*
Y-3150D02*
D03*
X1100Y-2870D02*
D03*
Y-2930D02*
D03*
X1790Y-3629D02*
D03*
Y-3570D02*
D03*
X140Y-3199D02*
D03*
Y-3140D02*
D03*
X410Y-3199D02*
D03*
Y-3140D02*
D03*
X680Y-3199D02*
D03*
Y-3140D02*
D03*
X220Y-3198D02*
D03*
Y-3139D02*
D03*
X490Y-3199D02*
D03*
Y-3140D02*
D03*
X760Y-3199D02*
D03*
Y-3140D02*
D03*
X1980Y-3400D02*
D03*
Y-3340D02*
D03*
X2823Y-3196D02*
D03*
Y-3137D02*
D03*
X2553Y-3196D02*
D03*
Y-3137D02*
D03*
X2743Y-3196D02*
D03*
Y-3137D02*
D03*
X2473Y-3196D02*
D03*
Y-3137D02*
D03*
X2283Y-3195D02*
D03*
Y-3136D02*
D03*
X2203Y-3196D02*
D03*
Y-3137D02*
D03*
X1870Y-2790D02*
D03*
Y-2850D02*
D03*
X3190Y-3090D02*
D03*
Y-3150D02*
D03*
X3100Y-2990D02*
D03*
Y-3050D02*
D03*
X3100Y-2870D02*
D03*
Y-2930D02*
D03*
X3410Y-2990D02*
D03*
Y-3050D02*
D03*
X3500Y-3090D02*
D03*
Y-3150D02*
D03*
X3410Y-2870D02*
D03*
Y-2930D02*
D03*
X3720Y-2990D02*
D03*
Y-3050D02*
D03*
X3850Y-3629D02*
D03*
Y-3570D02*
D03*
X3790Y-3629D02*
D03*
Y-3570D02*
D03*
X3720Y-2870D02*
D03*
Y-2930D02*
D03*
X3810Y-3090D02*
D03*
Y-3150D02*
D03*
X1050Y-450D02*
D03*
Y-390D02*
D03*
X980Y-450D02*
D03*
Y-390D02*
D03*
X1750Y-450D02*
D03*
Y-390D02*
D03*
X1680Y-450D02*
D03*
Y-390D02*
D03*
X2450Y-450D02*
D03*
Y-390D02*
D03*
X2380Y-450D02*
D03*
Y-390D02*
D03*
X3150Y-450D02*
D03*
Y-390D02*
D03*
X3080Y-450D02*
D03*
Y-390D02*
D03*
D19*
X2110Y-764D02*
D03*
D20*
X2201Y-996D02*
D03*
X2110D02*
D03*
X2019D02*
D03*
D21*
X3529Y-630D02*
D03*
X3400D02*
D03*
D22*
X2550Y-1830D02*
D03*
Y-2098D02*
D03*
D23*
X1200Y-1619D02*
D03*
X1163Y-1541D02*
D03*
X1237D02*
D03*
X830Y-2350D02*
D03*
X867Y-2429D02*
D03*
X793D02*
D03*
X830Y-2239D02*
D03*
X793Y-2161D02*
D03*
X867D02*
D03*
X223Y-221D02*
D03*
X260Y-300D02*
D03*
X185D02*
D03*
X400Y-220D02*
D03*
X437Y-299D02*
D03*
X363D02*
D03*
X1650Y-3709D02*
D03*
X1613Y-3630D02*
D03*
X1687D02*
D03*
X3650Y-3709D02*
D03*
X3613Y-3630D02*
D03*
X3687D02*
D03*
X1600Y-3040D02*
D03*
X1563Y-2961D02*
D03*
X1637D02*
D03*
X1290Y-3039D02*
D03*
X1253Y-2961D02*
D03*
X1327D02*
D03*
X980Y-3039D02*
D03*
X943Y-2960D02*
D03*
X1017D02*
D03*
X180D02*
D03*
X217Y-3039D02*
D03*
X143D02*
D03*
X450Y-2960D02*
D03*
X487Y-3039D02*
D03*
X413D02*
D03*
X720Y-2960D02*
D03*
X757Y-3039D02*
D03*
X683D02*
D03*
X2243Y-2957D02*
D03*
X2281Y-3035D02*
D03*
X2206D02*
D03*
X2513Y-2957D02*
D03*
X2551Y-3035D02*
D03*
X2476D02*
D03*
X2783Y-2957D02*
D03*
X2821Y-3035D02*
D03*
X2746D02*
D03*
X2980Y-3039D02*
D03*
X2943Y-2960D02*
D03*
X3017D02*
D03*
X3290Y-3039D02*
D03*
X3253Y-2961D02*
D03*
X3327D02*
D03*
X3600Y-3040D02*
D03*
X3563Y-2961D02*
D03*
X3637D02*
D03*
D24*
X2660Y-2740D02*
D03*
X2600D02*
D03*
X2659Y-2410D02*
D03*
X2600D02*
D03*
X3670Y-1460D02*
D03*
X3610D02*
D03*
X2240Y-640D02*
D03*
X2300D02*
D03*
X2110Y-640D02*
D03*
X2170D02*
D03*
X2260Y-1110D02*
D03*
X2200D02*
D03*
X1350Y-800D02*
D03*
X1290D02*
D03*
X1350Y-900D02*
D03*
X1290D02*
D03*
X1350Y-1000D02*
D03*
X1291D02*
D03*
X1480Y-800D02*
D03*
X1420D02*
D03*
X1479Y-900D02*
D03*
X1420D02*
D03*
X1480Y-1000D02*
D03*
X1420D02*
D03*
X140Y-1970D02*
D03*
X199D02*
D03*
X356Y-1530D02*
D03*
X296D02*
D03*
X480Y-2385D02*
D03*
X540D02*
D03*
X480Y-2455D02*
D03*
X540D02*
D03*
X250Y-410D02*
D03*
X190D02*
D03*
X400Y-120D02*
D03*
X460D02*
D03*
X280D02*
D03*
X340D02*
D03*
X1790Y-3690D02*
D03*
X1850D02*
D03*
X1640Y-2860D02*
D03*
X1580D02*
D03*
X1330Y-2870D02*
D03*
X1270D02*
D03*
X1020D02*
D03*
X960D02*
D03*
X150Y-2600D02*
D03*
X210D02*
D03*
X441Y-2600D02*
D03*
X500D02*
D03*
X3020Y-2870D02*
D03*
X2960D02*
D03*
X3330D02*
D03*
X3270D02*
D03*
X3790Y-3690D02*
D03*
X3850D02*
D03*
X3640Y-2860D02*
D03*
X3580D02*
D03*
D25*
X3222Y-1074D02*
D03*
Y-1369D02*
D03*
D26*
X3494Y-1165D02*
D03*
Y-984D02*
D03*
Y-1460D02*
D03*
Y-1279D02*
D03*
D27*
X2747Y-2577D02*
D03*
X2562D02*
D03*
D28*
X3669Y-1560D02*
D03*
X3591D02*
D03*
D29*
X2180Y-1869D02*
D03*
Y-1570D02*
D03*
D30*
X2750Y-2234D02*
D03*
Y-2167D02*
D03*
Y-2100D02*
D03*
Y-2033D02*
D03*
Y-1966D02*
D03*
D31*
X3170Y-2100D02*
D03*
D32*
X2160Y-2587D02*
D03*
Y-2150D02*
D03*
D33*
X630Y-2530D02*
D03*
Y-2680D02*
D03*
D34*
X233Y-1646D02*
D03*
X356D02*
D03*
D35*
X451Y-2136D02*
D03*
Y-2156D02*
D03*
Y-2176D02*
D03*
Y-2195D02*
D03*
Y-2215D02*
D03*
Y-2235D02*
D03*
Y-2254D02*
D03*
X640D02*
D03*
Y-2235D02*
D03*
Y-2215D02*
D03*
Y-2195D02*
D03*
Y-2176D02*
D03*
Y-2156D02*
D03*
Y-2136D02*
D03*
D36*
X486Y-2290D02*
D03*
X506D02*
D03*
X526D02*
D03*
X545D02*
D03*
X565D02*
D03*
X585D02*
D03*
X604D02*
D03*
Y-2101D02*
D03*
X585D02*
D03*
X565D02*
D03*
X545D02*
D03*
X526D02*
D03*
X506D02*
D03*
X486D02*
D03*
D37*
X545Y-2195D02*
D03*
D38*
X1600Y-3514D02*
D03*
X1700D02*
D03*
X1600Y-3140D02*
D03*
X1700D02*
D03*
X1290Y-3513D02*
D03*
X1390D02*
D03*
X1290Y-3139D02*
D03*
X1390D02*
D03*
X980Y-3513D02*
D03*
X1080D02*
D03*
X980Y-3139D02*
D03*
X1080D02*
D03*
X2080Y-2846D02*
D03*
X1980D02*
D03*
X2080Y-3220D02*
D03*
X1980D02*
D03*
X2980Y-3513D02*
D03*
X3080D02*
D03*
X2980Y-3139D02*
D03*
X3080D02*
D03*
X3290Y-3513D02*
D03*
X3390D02*
D03*
X3290Y-3139D02*
D03*
X3390D02*
D03*
X3600Y-3514D02*
D03*
X3700D02*
D03*
X3600Y-3140D02*
D03*
X3700D02*
D03*
D39*
X501Y-2810D02*
D03*
Y-2710D02*
D03*
X127Y-2810D02*
D03*
Y-2710D02*
D03*
D40*
X811Y-417D02*
D03*
X890Y-380D02*
D03*
Y-455D02*
D03*
X1511Y-417D02*
D03*
X1590Y-380D02*
D03*
Y-455D02*
D03*
X2211Y-417D02*
D03*
X2290Y-380D02*
D03*
Y-455D02*
D03*
X2911Y-417D02*
D03*
X2990Y-380D02*
D03*
Y-455D02*
D03*
D41*
X306Y-1391D02*
D03*
X356D02*
D03*
X406D02*
D03*
X456D02*
D03*
X506D02*
D03*
X556D02*
D03*
X606D02*
D03*
X656D02*
D03*
X706D02*
D03*
X756D02*
D03*
X806D02*
D03*
X856D02*
D03*
X906D02*
D03*
X956D02*
D03*
Y-671D02*
D03*
X906D02*
D03*
X856D02*
D03*
X806D02*
D03*
X756D02*
D03*
X706D02*
D03*
X656D02*
D03*
X606D02*
D03*
X556D02*
D03*
X506D02*
D03*
X456D02*
D03*
X406D02*
D03*
X356D02*
D03*
X306D02*
D03*
D42*
X1021Y-1256D02*
D03*
Y-1206D02*
D03*
Y-1156D02*
D03*
Y-1106D02*
D03*
Y-1056D02*
D03*
Y-1006D02*
D03*
Y-956D02*
D03*
Y-906D02*
D03*
Y-856D02*
D03*
Y-806D02*
D03*
D43*
X610Y-1020D02*
D03*
D44*
X3268Y-2100D02*
D03*
D84*
X230Y-580D02*
X356D01*
X200Y-550D02*
X230Y-580D01*
X301Y-521D02*
X356D01*
Y-671D02*
Y-580D01*
X405Y-671D02*
Y-494D01*
Y-671D02*
X406Y-671D01*
X405Y-494D02*
X406Y-494D01*
Y-446D01*
X370Y-410D02*
X406Y-446D01*
X250Y-410D02*
X370D01*
X3529Y-630D02*
X3700D01*
X1090Y-1660D02*
X1100Y-1670D01*
X1650Y-1500D02*
X1650Y-1500D01*
X1310Y-1500D02*
X1650D01*
X2634Y-3196D02*
X2743D01*
X2600Y-3230D02*
X2634Y-3196D01*
X2600Y-3400D02*
Y-3230D01*
X2500Y-3400D02*
Y-3260D01*
X2473Y-3233D02*
X2500Y-3260D01*
X2473Y-3233D02*
Y-3196D01*
X2400Y-3400D02*
Y-3224D01*
X2372Y-3195D02*
X2400Y-3224D01*
X2283Y-3195D02*
X2372D01*
X3669Y-1560D02*
X3670Y-1560D01*
Y-1460D01*
X3610Y-1460D02*
X3610Y-1460D01*
X3494Y-1460D02*
X3610D01*
X3400Y-1180D02*
X3415Y-1165D01*
X3400Y-1440D02*
Y-1180D01*
Y-1440D02*
X3420Y-1460D01*
X1390Y-1180D02*
X1900D01*
X2610Y-2780D02*
X3100D01*
X2600Y-2770D02*
X2610Y-2780D01*
X2600Y-2770D02*
Y-2740D01*
X3720Y-2870D02*
Y-2780D01*
X3670Y-2730D02*
X3720Y-2780D01*
X3460Y-2730D02*
X3670D01*
X3410Y-2870D02*
Y-2780D01*
X3460Y-2730D01*
X3360D02*
X3410Y-2780D01*
X3150Y-2730D02*
X3360D01*
X3100Y-2780D02*
X3150Y-2730D01*
X3100Y-2870D02*
Y-2780D01*
X3580Y-2860D02*
Y-2760D01*
Y-2860D02*
X3580Y-2860D01*
X3270Y-2870D02*
X3270Y-2870D01*
X3270Y-2870D02*
Y-2760D01*
X2960Y-2870D02*
X2960Y-2870D01*
X2860Y-2870D02*
X2960D01*
X1270Y-1240D02*
X1810D01*
X1236Y-1206D02*
X1270Y-1240D01*
X1021Y-1206D02*
X1236D01*
X1290Y-1210D02*
X1850D01*
X1100Y-1020D02*
X1290Y-1210D01*
X1100Y-1020D02*
Y-890D01*
X1066Y-856D02*
X1100Y-890D01*
X1021Y-856D02*
X1066D01*
X1190Y-980D02*
X1390Y-1180D01*
X1190Y-980D02*
Y-770D01*
X1270Y-950D02*
X1330D01*
X1220Y-900D02*
X1270Y-950D01*
X1330D02*
X1350Y-970D01*
X1150Y-730D02*
X1190Y-770D01*
X930Y-730D02*
X1150D01*
X906Y-706D02*
X930Y-730D01*
X906Y-706D02*
Y-671D01*
X957Y-670D02*
X1010D01*
X956Y-671D02*
X957Y-670D01*
X1220Y-900D02*
Y-690D01*
X1140Y-610D02*
X1220Y-690D01*
X1150Y-580D02*
X1250Y-680D01*
Y-830D02*
Y-680D01*
Y-830D02*
X1270Y-850D01*
X1330D01*
X1350Y-1000D02*
Y-970D01*
X2240Y-640D02*
X2240Y-640D01*
X2170Y-640D02*
X2240D01*
X2110Y-640D02*
X2110Y-640D01*
X2110Y-764D02*
Y-640D01*
X2780Y-570D02*
X3330D01*
X2750Y-600D02*
X2780Y-570D01*
X2750Y-800D02*
Y-600D01*
X3420Y-1460D02*
X3494D01*
X3340Y-530D02*
X3700D01*
X3330Y-540D02*
X3340Y-530D01*
X3330Y-570D02*
Y-540D01*
X3400Y-630D02*
X3400Y-630D01*
X3330Y-630D02*
X3400D01*
X3529Y-671D02*
Y-630D01*
X3500Y-700D02*
X3529Y-671D01*
X3500Y-800D02*
Y-700D01*
X3400Y-1149D02*
X3415Y-1165D01*
X3400Y-1149D02*
Y-630D01*
X2710Y-760D02*
X2750Y-800D01*
X1163Y-1541D02*
Y-1463D01*
X3415Y-1165D02*
X3494D01*
X1430Y-2550D02*
X1500D01*
X1410Y-2530D02*
X1430Y-2550D01*
X1370Y-2530D02*
X1410D01*
X1300Y-2590D02*
X1370D01*
X1100Y-1800D02*
Y-1670D01*
X1580Y-2860D02*
Y-2770D01*
Y-2860D02*
X1580Y-2860D01*
X956Y-1466D02*
Y-1391D01*
X1810Y-2850D02*
X1870D01*
X1810Y-3090D02*
Y-2910D01*
X1770Y-2870D02*
X1810Y-2910D01*
X1720Y-2870D02*
X1770D01*
X1810Y-2790D02*
X1870D01*
X1976Y-2850D02*
X1980Y-2846D01*
X1870Y-2850D02*
X1976D01*
X2300Y-3400D02*
X2300Y-3400D01*
X1980Y-3400D02*
X2300D01*
X1980Y-3340D02*
Y-3220D01*
X2080Y-3000D02*
X2123Y-2957D01*
X2080Y-3220D02*
Y-3000D01*
X2123Y-2957D02*
X2243D01*
X1440Y-1800D02*
X1450D01*
X1320Y-1920D02*
X1440Y-1800D01*
X1020Y-1920D02*
X1320D01*
X556Y-1456D02*
X1020Y-1920D01*
X556Y-1456D02*
Y-1391D01*
X1050Y-2010D02*
X1340D01*
X506Y-1466D02*
X1050Y-2010D01*
X506Y-1466D02*
Y-1391D01*
X1050Y-2200D02*
Y-2060D01*
X456Y-1466D02*
X1050Y-2060D01*
X456Y-1466D02*
Y-1391D01*
X656Y-671D02*
Y-356D01*
X630Y-330D02*
X656Y-356D01*
X630Y-330D02*
Y-290D01*
X501Y-2600D02*
X910D01*
X500D02*
X501D01*
Y-2710D02*
Y-2600D01*
X1100Y-290D02*
Y-200D01*
X1050Y-340D02*
X1100Y-290D01*
X1050Y-390D02*
Y-340D01*
X1350Y-900D02*
Y-870D01*
X1330Y-850D02*
X1350Y-870D01*
Y-800D02*
Y-740D01*
X1160Y-550D02*
X1350Y-740D01*
X790Y-550D02*
X1160D01*
X830Y-580D02*
X1150D01*
X806Y-604D02*
X830Y-580D01*
X806Y-671D02*
Y-604D01*
X756Y-584D02*
X790Y-550D01*
X756Y-671D02*
Y-584D01*
X870Y-610D02*
X1140D01*
X856Y-624D02*
X870Y-610D01*
X856Y-671D02*
Y-624D01*
X1021Y-806D02*
X1136D01*
X1270Y-2770D02*
X1270Y-2770D01*
Y-2870D02*
Y-2770D01*
X960Y-2870D02*
X960Y-2870D01*
X960Y-2870D02*
Y-2770D01*
X906Y-1464D02*
Y-1391D01*
X856Y-1466D02*
Y-1391D01*
X806Y-1466D02*
Y-1391D01*
X756Y-1466D02*
Y-1391D01*
X790Y-2290D02*
X830Y-2330D01*
Y-2350D02*
Y-2330D01*
X1380Y-1330D02*
X1450Y-1400D01*
Y-1400D02*
Y-1400D01*
X1450Y-1400D02*
X1650D01*
X1450Y-1800D02*
X1650D01*
X630Y-1330D02*
X1380D01*
X606Y-1354D02*
X630Y-1330D01*
X606Y-1391D02*
Y-1354D01*
X1450Y-2200D02*
Y-2120D01*
X1340Y-2010D02*
X1450Y-2120D01*
X790Y-1940D02*
X830Y-1980D01*
X430Y-1940D02*
X790D01*
X400Y-1910D02*
X430Y-1940D01*
X440Y-1620D02*
Y-1560D01*
X406Y-1526D02*
X440Y-1560D01*
X406Y-1526D02*
Y-1391D01*
X500Y-1620D02*
Y-1560D01*
X440Y-1680D02*
X500D01*
X370D02*
X440D01*
X356Y-1666D02*
X370Y-1680D01*
X356Y-1666D02*
Y-1646D01*
X1450Y-2200D02*
X1650D01*
X1050D02*
X1250D01*
X570Y-130D02*
X590Y-110D01*
X570Y-340D02*
Y-130D01*
X556Y-354D02*
X570Y-340D01*
X556Y-671D02*
Y-354D01*
X90Y-300D02*
X185D01*
X1650Y-800D02*
X1650Y-800D01*
X1480Y-800D02*
X1650D01*
X1479Y-900D02*
X1650D01*
X1650Y-1000D02*
X1650Y-1000D01*
X1480Y-1000D02*
X1650D01*
X1350Y-1000D02*
X1350Y-1000D01*
X1420D01*
X1420Y-900D02*
X1420Y-900D01*
X1350Y-900D02*
X1420D01*
X1350Y-800D02*
X1420D01*
X370Y-2600D02*
X441D01*
X506Y-2321D02*
X540Y-2355D01*
X793Y-2161D02*
Y-2053D01*
X770Y-2030D02*
X793Y-2053D01*
X590Y-2030D02*
X770D01*
X565Y-2055D02*
X590Y-2030D01*
X120Y-1970D02*
X140D01*
X100Y-1950D02*
X120Y-1970D01*
X100Y-1950D02*
Y-1850D01*
X200Y-1970D02*
Y-1850D01*
Y-1970D02*
X480D01*
X3420Y-3630D02*
X3613D01*
X3400Y-3700D02*
Y-3650D01*
X3420Y-3630D01*
X3610Y-3050D02*
X3720D01*
X3600Y-3040D02*
X3610Y-3050D01*
X3250Y-2940D02*
X3253Y-2943D01*
Y-2961D02*
X3253Y-2960D01*
X3300Y-3050D02*
X3410D01*
X3290Y-3039D02*
X3300Y-3050D01*
X3017Y-2960D02*
X3020Y-2957D01*
X2991Y-3050D02*
X3100D01*
X2980Y-3039D02*
X2991Y-3050D01*
X2243Y-2957D02*
X2513D01*
X2783D01*
X3720Y-2990D02*
Y-2930D01*
Y-2990D02*
X3720Y-2990D01*
X3770Y-2870D02*
X3810Y-2910D01*
X3720Y-2870D02*
X3770D01*
X3810Y-3090D02*
Y-2910D01*
X3410Y-2930D02*
X3410Y-2930D01*
Y-2990D02*
Y-2930D01*
X3410Y-2870D02*
X3460D01*
X3500Y-2910D01*
Y-3090D02*
Y-2910D01*
X3100Y-2930D02*
X3100Y-2930D01*
Y-2990D02*
Y-2930D01*
X3100Y-2870D02*
X3150D01*
X3190Y-2910D01*
Y-3090D02*
Y-2910D01*
X3789Y-3630D02*
X3790Y-3629D01*
X3687Y-3630D02*
X3789D01*
X3850Y-3690D02*
Y-3629D01*
X3850Y-3690D02*
X3850Y-3690D01*
X3850Y-3740D02*
Y-3690D01*
X3820Y-3770D02*
X3850Y-3740D01*
X3300Y-3750D02*
Y-3700D01*
X3320Y-3770D02*
X3820D01*
X3300Y-3750D02*
X3320Y-3770D01*
X3750Y-3690D02*
X3790D01*
X3720Y-3720D02*
X3750Y-3690D01*
X3661Y-3720D02*
X3720D01*
X3650Y-3709D02*
X3661Y-3720D01*
X3637Y-2862D02*
X3640Y-2860D01*
X3637Y-2961D02*
Y-2862D01*
X3327Y-2872D02*
X3330Y-2870D01*
X3327Y-2961D02*
Y-2872D01*
X3017D02*
X3020Y-2870D01*
X3017Y-2960D02*
Y-2872D01*
X2206Y-3134D02*
Y-3035D01*
X2203Y-3137D02*
X2206Y-3134D01*
X2476Y-3134D02*
Y-3035D01*
X2473Y-3137D02*
X2476Y-3134D01*
X2746D02*
Y-3035D01*
X2743Y-3137D02*
X2746Y-3134D01*
X2281Y-3133D02*
X2283Y-3136D01*
X2281Y-3133D02*
Y-3035D01*
X2204Y-3195D02*
X2283D01*
X2203Y-3196D02*
X2204Y-3195D01*
X2551Y-3134D02*
X2553Y-3137D01*
X2551Y-3134D02*
Y-3035D01*
X2473Y-3196D02*
X2553D01*
X2821Y-3134D02*
Y-3035D01*
Y-3134D02*
X2823Y-3137D01*
X2743Y-3196D02*
X2823D01*
X3710Y-3150D02*
X3810D01*
X3700Y-3140D02*
X3710Y-3150D01*
X3600Y-3140D02*
Y-3040D01*
X3790Y-3570D02*
Y-3530D01*
X3774Y-3514D02*
X3790Y-3530D01*
X3700Y-3514D02*
X3774D01*
X3400Y-3150D02*
X3500D01*
X3390Y-3139D02*
X3400Y-3150D01*
X3290Y-3139D02*
Y-3039D01*
X3390Y-3570D02*
Y-3513D01*
X3360Y-3600D02*
X3390Y-3570D01*
X3230Y-3600D02*
X3360D01*
X3200Y-3630D02*
X3230Y-3600D01*
X3200Y-3700D02*
Y-3630D01*
X3090Y-3150D02*
X3190D01*
X3080Y-3139D02*
X3090Y-3150D01*
X2980Y-3139D02*
Y-3039D01*
X3080Y-3590D02*
X3100Y-3610D01*
X3080Y-3590D02*
Y-3513D01*
X3100Y-3700D02*
Y-3610D01*
X3580Y-3449D02*
X3600Y-3469D01*
X3620Y-3449D01*
X3311D02*
X3580D01*
X3830D02*
X3850Y-3469D01*
X3620Y-3449D02*
X3830D01*
X3290Y-3470D02*
X3311Y-3449D01*
X3270Y-3450D02*
X3290Y-3470D01*
X3000Y-3450D02*
X3270D01*
X2980Y-3513D02*
Y-3470D01*
X3600Y-3514D02*
Y-3469D01*
X3850Y-3570D02*
Y-3469D01*
X3290Y-3513D02*
Y-3470D01*
X2980Y-3600D02*
Y-3513D01*
X3000Y-3700D02*
Y-3620D01*
X2980Y-3600D02*
X3000Y-3620D01*
X2980Y-3470D02*
X3000Y-3450D01*
X1720Y-2990D02*
X1720Y-2990D01*
X1720Y-2990D02*
Y-2930D01*
X1637Y-2862D02*
X1640Y-2860D01*
X1637Y-2961D02*
Y-2862D01*
X1500Y-3090D02*
Y-2910D01*
X1460Y-2870D02*
X1500Y-2910D01*
X1410Y-2870D02*
X1460D01*
X1327Y-2872D02*
X1330Y-2870D01*
X1327Y-2961D02*
Y-2872D01*
X1410Y-2930D02*
X1410Y-2930D01*
Y-2990D02*
Y-2930D01*
X1190Y-3090D02*
Y-2910D01*
X1150Y-2870D02*
X1190Y-2910D01*
X1100Y-2870D02*
X1150D01*
X1100Y-2930D02*
X1100Y-2930D01*
Y-2990D02*
Y-2930D01*
X1017Y-2872D02*
X1020Y-2870D01*
X1017Y-2960D02*
Y-2872D01*
X830Y-2239D02*
Y-1980D01*
X400Y-1910D02*
Y-1850D01*
X470Y-2000D02*
X526Y-2056D01*
X300Y-2000D02*
X470D01*
X880Y-2260D02*
X900D01*
X867Y-2247D02*
X880Y-2260D01*
X867Y-2247D02*
Y-2161D01*
X880Y-2320D02*
X900D01*
X867Y-2333D02*
X880Y-2320D01*
X867Y-2429D02*
Y-2333D01*
X793Y-2247D02*
Y-2161D01*
X780Y-2260D02*
X793Y-2247D01*
X750Y-2260D02*
X780D01*
X750Y-2320D02*
X780D01*
X793Y-2333D01*
Y-2429D02*
Y-2333D01*
X480Y-1970D02*
X545Y-2035D01*
X540Y-2385D02*
Y-2355D01*
X405Y-2385D02*
Y-2250D01*
X240Y-2249D02*
X304D01*
X506Y-736D02*
Y-671D01*
X456Y-736D02*
Y-671D01*
X590Y-110D02*
X630D01*
X680Y-200D02*
Y-190D01*
X660Y-170D02*
X680Y-190D01*
X630Y-170D02*
X660D01*
X680Y-210D02*
Y-200D01*
X660Y-230D02*
X680Y-210D01*
X630Y-230D02*
X660D01*
X520Y-230D02*
X520Y-230D01*
X520Y-230D02*
Y-170D01*
X630Y-110D02*
X680D01*
X710Y-290D02*
X800Y-200D01*
X630Y-290D02*
X710D01*
X185Y-395D02*
Y-300D01*
Y-395D02*
X190Y-400D01*
X363Y-299D02*
Y-213D01*
X340Y-190D02*
X363Y-213D01*
X340Y-190D02*
Y-120D01*
X223Y-221D02*
Y-147D01*
X250Y-120D01*
X280D01*
X400Y-220D02*
X400Y-220D01*
X1090Y-1600D02*
X1200D01*
Y-1619D02*
Y-1600D01*
X1237Y-1557D02*
Y-1541D01*
Y-1557D02*
X1240Y-1560D01*
X1310D01*
X1200Y-1800D02*
Y-1619D01*
X980Y-450D02*
X1050D01*
X945D02*
X980D01*
X940Y-455D02*
X945Y-450D01*
X890Y-455D02*
X940D01*
X900Y-270D02*
Y-200D01*
X811Y-359D02*
X900Y-270D01*
X811Y-417D02*
Y-359D01*
X1680Y-450D02*
X1750D01*
X1645D02*
X1680D01*
X1640Y-455D02*
X1645Y-450D01*
X1590Y-455D02*
X1640D01*
X1600Y-270D02*
Y-200D01*
X1511Y-359D02*
X1600Y-270D01*
X1511Y-417D02*
Y-359D01*
X1800Y-280D02*
Y-200D01*
X1750Y-330D02*
X1800Y-280D01*
X1750Y-390D02*
Y-330D01*
X2380Y-450D02*
X2450D01*
X2345D02*
X2380D01*
X2340Y-455D02*
X2345Y-450D01*
X2290Y-455D02*
X2340D01*
X2300Y-270D02*
Y-200D01*
X2211Y-359D02*
X2300Y-270D01*
X2211Y-417D02*
Y-359D01*
X2500Y-280D02*
Y-200D01*
X2450Y-330D02*
X2500Y-280D01*
X2450Y-390D02*
Y-330D01*
X3080Y-450D02*
X3150D01*
X3045D02*
X3080D01*
X3040Y-455D02*
X3045Y-450D01*
X2990Y-455D02*
X3040D01*
X3000Y-270D02*
Y-200D01*
X2911Y-359D02*
X3000Y-270D01*
X2911Y-417D02*
Y-359D01*
X3200Y-280D02*
Y-200D01*
X3150Y-330D02*
X3200Y-280D01*
X3150Y-390D02*
Y-330D01*
X1420Y-3630D02*
X1613D01*
X1400Y-3650D02*
X1420Y-3630D01*
X1400Y-3700D02*
Y-3650D01*
X1610Y-3050D02*
X1720D01*
X1600Y-3040D02*
X1610Y-3050D01*
X1250Y-2940D02*
X1253Y-2943D01*
Y-2961D02*
X1253Y-2960D01*
X1300Y-3050D02*
X1410D01*
X1290Y-3039D02*
X1300Y-3050D01*
X991D02*
X1100D01*
X980Y-3039D02*
X991Y-3050D01*
X180Y-2960D02*
X450D01*
X720D01*
X1789Y-3630D02*
X1790Y-3629D01*
X1687Y-3630D02*
X1789D01*
X1850Y-3690D02*
Y-3629D01*
X1850Y-3690D02*
X1850Y-3690D01*
X1850Y-3740D02*
Y-3690D01*
X1300Y-3750D02*
X1320Y-3770D01*
X1300Y-3750D02*
Y-3700D01*
X1820Y-3770D02*
X1850Y-3740D01*
X1320Y-3770D02*
X1820D01*
X1750Y-3690D02*
X1790D01*
X1720Y-3720D02*
X1750Y-3690D01*
X1661Y-3720D02*
X1720D01*
X1650Y-3709D02*
X1661Y-3720D01*
X1017Y-2960D02*
X1020Y-2957D01*
X120Y-3400D02*
X300D01*
X90Y-2600D02*
X150D01*
X60Y-2630D02*
X90Y-2600D01*
X60Y-3340D02*
X120Y-3400D01*
X60Y-3340D02*
Y-2630D01*
X143Y-3138D02*
Y-3039D01*
X140Y-3140D02*
X143Y-3138D01*
X413Y-3137D02*
Y-3039D01*
X410Y-3140D02*
X413Y-3137D01*
X680Y-3270D02*
Y-3199D01*
X600Y-3400D02*
Y-3350D01*
X680Y-3270D01*
X683Y-3137D02*
Y-3039D01*
X680Y-3140D02*
X683Y-3137D01*
X400Y-3400D02*
Y-3290D01*
X308Y-3198D02*
X400Y-3290D01*
X141Y-3198D02*
X220D01*
X308D01*
X140Y-3199D02*
X141Y-3198D01*
X217Y-3137D02*
Y-3039D01*
Y-3137D02*
X220Y-3139D01*
X490Y-3280D02*
X500Y-3290D01*
X490Y-3280D02*
Y-3199D01*
X500Y-3400D02*
Y-3290D01*
X410Y-3199D02*
X490D01*
X487Y-3137D02*
Y-3039D01*
Y-3137D02*
X490Y-3140D01*
X680Y-3199D02*
X760D01*
X757Y-3137D02*
Y-3039D01*
Y-3137D02*
X760Y-3140D01*
X1710Y-3150D02*
X1810D01*
X1700Y-3140D02*
X1710Y-3150D01*
X1600Y-3140D02*
Y-3040D01*
X1790Y-3570D02*
Y-3530D01*
X1774Y-3514D02*
X1790Y-3530D01*
X1700Y-3514D02*
X1774D01*
X1390Y-3570D02*
Y-3513D01*
X1360Y-3600D02*
X1390Y-3570D01*
X1230Y-3600D02*
X1360D01*
X1200Y-3630D02*
X1230Y-3600D01*
X1200Y-3700D02*
Y-3630D01*
X1290Y-3139D02*
Y-3039D01*
X1400Y-3150D02*
X1500D01*
X1390Y-3139D02*
X1400Y-3150D01*
X1620Y-3449D02*
X1830D01*
X1600Y-3469D02*
X1620Y-3449D01*
X1830D02*
X1850Y-3469D01*
X1311Y-3449D02*
X1580D01*
X1290Y-3470D02*
X1311Y-3449D01*
X1580D02*
X1600Y-3469D01*
X1850Y-3570D02*
Y-3469D01*
X1600Y-3514D02*
Y-3469D01*
X1290Y-3513D02*
Y-3470D01*
X1270Y-3450D02*
X1290Y-3470D01*
X1000Y-3450D02*
X1270D01*
X980Y-3470D02*
X1000Y-3450D01*
X980Y-3513D02*
Y-3470D01*
Y-3600D02*
X1000Y-3620D01*
X980Y-3600D02*
Y-3513D01*
X1000Y-3700D02*
Y-3620D01*
X1080Y-3590D02*
X1100Y-3610D01*
X1080Y-3590D02*
Y-3513D01*
X1100Y-3700D02*
Y-3610D01*
X980Y-3139D02*
Y-3039D01*
X1090Y-3150D02*
X1190D01*
X1080Y-3139D02*
X1090Y-3150D01*
X127Y-2937D02*
Y-2810D01*
X150Y-2960D02*
X180D01*
X127Y-2937D02*
X150Y-2960D01*
X210Y-2680D02*
Y-2600D01*
X180Y-2710D02*
X210Y-2680D01*
X127Y-2710D02*
X180D01*
D85*
X1570Y-2440D02*
X1960D01*
D86*
X1770Y-1140D02*
X1946D01*
X1730Y-1100D02*
X1770Y-1140D01*
X1650Y-1100D02*
X1730D01*
X1946Y-1140D02*
X1986Y-1180D01*
X1790Y-1376D02*
X1986Y-1180D01*
X2160D02*
X2200Y-1140D01*
X1986Y-1180D02*
X2160D01*
X1790Y-2230D02*
X1970Y-2410D01*
X1790Y-2230D02*
Y-1376D01*
X2200Y-1140D02*
Y-1110D01*
X1880Y-2590D02*
X1970D01*
X1720Y-2750D02*
X1880Y-2590D01*
X1884Y-764D02*
X1994D01*
X1850Y-730D02*
X1884Y-764D01*
X1850Y-730D02*
Y-600D01*
Y-550D01*
X1810Y-510D02*
X1850Y-550D01*
X730Y-510D02*
X1810D01*
X356Y-1391D02*
Y-1324D01*
X1994Y-764D02*
X2110D01*
X1410Y-2750D02*
X1500Y-2660D01*
X1630D02*
X1720Y-2750D01*
X1500Y-2660D02*
X1630D01*
X1500D02*
Y-2550D01*
X2643Y-2033D02*
X2750D01*
X510Y-2530D02*
X630D01*
X1720Y-2870D02*
Y-2750D01*
X1410Y-2870D02*
Y-2750D01*
X1340Y-2680D02*
X1410Y-2750D01*
X1170Y-2680D02*
X1340D01*
X1100Y-2750D02*
X1170Y-2680D01*
X1100Y-2870D02*
Y-2750D01*
X1030Y-2680D02*
X1100Y-2750D01*
X630Y-2680D02*
X1030D01*
X356Y-1714D02*
Y-1666D01*
X320Y-1750D02*
X356Y-1714D01*
X130Y-1750D02*
X320D01*
X100Y-1780D02*
X130Y-1750D01*
X100Y-1850D02*
Y-1780D01*
X2700Y-3700D02*
Y-3400D01*
X2600Y-3700D02*
Y-3400D01*
X2500Y-3700D02*
Y-3400D01*
X2400Y-3700D02*
Y-3400D01*
X2300Y-3700D02*
Y-3400D01*
X437Y-233D02*
X470Y-200D01*
X550Y-50D02*
X950D01*
X520Y-80D02*
X550Y-50D01*
X490D02*
X520Y-80D01*
X430Y-50D02*
X490D01*
X950D02*
X1100Y-200D01*
X400Y-80D02*
X430Y-50D01*
X1720Y-120D02*
X1800Y-200D01*
X1180Y-120D02*
X1720D01*
X3120D02*
X3200Y-200D01*
X2580Y-120D02*
X3120D01*
X2500Y-200D02*
X2580Y-120D01*
X2420D02*
X2500Y-200D01*
X1880Y-120D02*
X2420D01*
X1800Y-200D02*
X1880Y-120D01*
X1100Y-200D02*
X1180Y-120D01*
X300Y-3700D02*
Y-3400D01*
X400Y-3700D02*
Y-3400D01*
X500Y-3700D02*
Y-3400D01*
X600Y-3700D02*
Y-3400D01*
X700Y-3700D02*
Y-3400D01*
D87*
X1820Y-1090D02*
X2090D01*
X437Y-507D02*
Y-299D01*
X2693Y-2167D02*
X2750D01*
X2600Y-2260D02*
X2693Y-2167D01*
X2600Y-2410D02*
Y-2260D01*
X1980Y-3220D02*
X1980Y-3220D01*
X2110Y-1070D02*
Y-996D01*
X2090Y-1090D02*
X2110Y-1070D01*
X1650Y-2300D02*
X1710D01*
X1740Y-2270D01*
X1650Y-1900D02*
X1710D01*
X1740Y-2270D02*
Y-1930D01*
X1650Y-1500D02*
X1710D01*
Y-1900D02*
X1740Y-1930D01*
X1710Y-1900D02*
X1740Y-1870D01*
Y-1530D01*
X1710Y-1500D02*
X1740Y-1530D01*
X3036Y-2234D02*
X3170Y-2100D01*
X2750Y-2234D02*
X3036D01*
X2750Y-2100D02*
X3170D01*
X2110Y-996D02*
Y-764D01*
X1250Y-2300D02*
X1650D01*
X356Y-1530D02*
Y-1391D01*
Y-1646D02*
Y-1530D01*
X437Y-299D02*
Y-233D01*
X630Y-170D02*
X630Y-170D01*
X520Y-120D02*
Y-80D01*
X400Y-120D02*
Y-80D01*
X400Y-120D02*
X400Y-120D01*
X400Y-220D02*
Y-120D01*
D88*
X2200Y-996D02*
X2201Y-996D01*
X2200Y-1110D02*
Y-996D01*
X2432Y-2577D02*
X2435Y-2580D01*
X480Y-2385D02*
Y-2360D01*
X435Y-2315D02*
X480Y-2360D01*
X435Y-2315D02*
Y-2290D01*
X480Y-2455D02*
Y-2385D01*
D89*
X135Y-2421D02*
D03*
Y-2181D02*
D03*
D90*
X135Y-2438D02*
D03*
Y-2163D02*
D03*
D91*
X241Y-2399D02*
D03*
Y-2202D02*
D03*
D92*
X200Y-550D02*
D03*
X1850Y-600D02*
D03*
X1100Y-1800D02*
D03*
X100Y-1850D02*
D03*
X1500Y-2550D02*
D03*
X2300Y-3400D02*
D03*
Y-3700D02*
D03*
X3400D02*
D03*
X1400D02*
D03*
X300Y-3400D02*
D03*
Y-3700D02*
D03*
X1200Y-200D02*
D03*
X1900D02*
D03*
X2600D02*
D03*
X3300D02*
D03*
D93*
X100Y-550D02*
D03*
X1950Y-600D02*
D03*
X1300Y-1800D02*
D03*
X1200D02*
D03*
X3700Y-630D02*
D03*
X1250Y-2100D02*
D03*
Y-2200D02*
D03*
X1650Y-2100D02*
D03*
Y-2200D02*
D03*
Y-1700D02*
D03*
Y-1800D02*
D03*
Y-1000D02*
D03*
Y-900D02*
D03*
Y-800D02*
D03*
Y-700D02*
D03*
Y-1400D02*
D03*
Y-1300D02*
D03*
X200Y-1850D02*
D03*
X300D02*
D03*
X400D02*
D03*
X500D02*
D03*
X600D02*
D03*
X1600Y-2550D02*
D03*
X2400Y-3400D02*
D03*
X2500D02*
D03*
X2600D02*
D03*
X2700D02*
D03*
X2400Y-3700D02*
D03*
X2500D02*
D03*
X2600D02*
D03*
X2700D02*
D03*
X3300D02*
D03*
X3200D02*
D03*
X3100D02*
D03*
X3000D02*
D03*
X1300D02*
D03*
X1200D02*
D03*
X1100D02*
D03*
X1000D02*
D03*
X400Y-3400D02*
D03*
X500D02*
D03*
X600D02*
D03*
X700D02*
D03*
X400Y-3700D02*
D03*
X500D02*
D03*
X600D02*
D03*
X700D02*
D03*
X1100Y-200D02*
D03*
X1000D02*
D03*
X900D02*
D03*
X800D02*
D03*
X1800D02*
D03*
X1700D02*
D03*
X1600D02*
D03*
X1500D02*
D03*
X2500D02*
D03*
X2400D02*
D03*
X2300D02*
D03*
X2200D02*
D03*
X3200D02*
D03*
X3100D02*
D03*
X3000D02*
D03*
X2900D02*
D03*
D94*
X3300Y-800D02*
D03*
X3500D02*
D03*
X2950Y-1400D02*
D03*
X2750D02*
D03*
X2950Y-1100D02*
D03*
X2750D02*
D03*
X2950Y-800D02*
D03*
X2750D02*
D03*
D95*
X3700Y-530D02*
D03*
X1250Y-2300D02*
D03*
X1650D02*
D03*
Y-1900D02*
D03*
Y-1100D02*
D03*
Y-1500D02*
D03*
D96*
X100Y-3900D02*
D03*
X3860Y-60D02*
D03*
X3780D02*
D03*
X3880Y-120D02*
D03*
X3800D02*
D03*
X3287Y-354D02*
D03*
X3209Y-2402D02*
D03*
X2146Y-1693D02*
D03*
X3799Y-2008D02*
D03*
X3130Y-512D02*
D03*
X3051Y-3189D02*
D03*
X2539Y-2323D02*
D03*
X3563Y-2008D02*
D03*
X2106Y-197D02*
D03*
X2067Y-433D02*
D03*
X925Y-3189D02*
D03*
X217Y-1457D02*
D03*
X2421Y-669D02*
D03*
X2303Y-1535D02*
D03*
X3642Y-118D02*
D03*
X1713Y-2559D02*
D03*
X1516Y-3268D02*
D03*
X1437Y-591D02*
D03*
X1280Y-3268D02*
D03*
X886D02*
D03*
X1673D02*
D03*
X3642Y-591D02*
D03*
X3563D02*
D03*
X3445Y-2559D02*
D03*
X3642Y-1850D02*
D03*
X295Y-827D02*
D03*
X3445Y-2402D02*
D03*
X3366Y-3189D02*
D03*
X2972Y-1614D02*
D03*
X571Y-748D02*
D03*
X2185Y-354D02*
D03*
X3327Y-433D02*
D03*
X3799Y-1850D02*
D03*
X3524Y-2244D02*
D03*
X1870Y-827D02*
D03*
X1437Y-433D02*
D03*
X3287Y-2559D02*
D03*
X1161Y-669D02*
D03*
X2028Y-1142D02*
D03*
X3445Y-2087D02*
D03*
X768Y-2717D02*
D03*
X3720Y-1693D02*
D03*
X3681Y-2559D02*
D03*
X2579Y-1614D02*
D03*
X2657Y-512D02*
D03*
X1516Y-1535D02*
D03*
X1004Y-1772D02*
D03*
X886Y-3110D02*
D03*
X3681Y-2244D02*
D03*
X3720Y-1535D02*
D03*
X3051Y-1772D02*
D03*
X1358Y-1378D02*
D03*
X807Y-2638D02*
D03*
X3602Y-669D02*
D03*
X1555Y-2087D02*
D03*
X3524Y-2874D02*
D03*
X374Y-354D02*
D03*
X1043Y-2795D02*
D03*
X1752Y-748D02*
D03*
X3760Y-2402D02*
D03*
X2894Y-1929D02*
D03*
X1752Y-3268D02*
D03*
X1161Y-1772D02*
D03*
X1004Y-2087D02*
D03*
X846Y-984D02*
D03*
X3563Y-2480D02*
D03*
X3051Y-2874D02*
D03*
X650Y-2795D02*
D03*
X335Y-2480D02*
D03*
X1476Y-1299D02*
D03*
X3602Y-354D02*
D03*
X2933Y-2008D02*
D03*
X3799Y-2638D02*
D03*
X689Y-2717D02*
D03*
X2972Y-2244D02*
D03*
X1516Y-1693D02*
D03*
X374Y-2559D02*
D03*
X2854Y-2323D02*
D03*
X1555Y-2244D02*
D03*
X1319Y-2402D02*
D03*
X2618Y-1693D02*
D03*
X3602Y-1772D02*
D03*
X1752Y-906D02*
D03*
X3602Y-2244D02*
D03*
X1516Y-2008D02*
D03*
X2657Y-1614D02*
D03*
X3681Y-2087D02*
D03*
X3720Y-433D02*
D03*
X1713Y-3189D02*
D03*
X886Y-2795D02*
D03*
X3445Y-1772D02*
D03*
X1240Y-354D02*
D03*
X1713Y-827D02*
D03*
X2028Y-197D02*
D03*
X217Y-2087D02*
D03*
X3169Y-2638D02*
D03*
X3602Y-2402D02*
D03*
X3406Y-118D02*
D03*
X2933Y-2480D02*
D03*
X1083Y-3189D02*
D03*
X413Y-2795D02*
D03*
X3720Y-2323D02*
D03*
X2815Y-1772D02*
D03*
X2894Y-2402D02*
D03*
X1240Y-1299D02*
D03*
X1083Y-354D02*
D03*
X3366Y-669D02*
D03*
X2421Y-512D02*
D03*
X2343Y-1614D02*
D03*
X2224Y-2323D02*
D03*
X1280Y-591D02*
D03*
X1161Y-1299D02*
D03*
X728Y-2165D02*
D03*
X3484Y-2008D02*
D03*
X1358Y-1535D02*
D03*
X3169Y-1693D02*
D03*
X807Y-276D02*
D03*
X2264Y-827D02*
D03*
X1043Y-1850D02*
D03*
X3366Y-2874D02*
D03*
X1161Y-3189D02*
D03*
X2815Y-512D02*
D03*
X1673Y-2953D02*
D03*
X2106Y-354D02*
D03*
X1240Y-3189D02*
D03*
X1516Y-1850D02*
D03*
X138Y-1614D02*
D03*
X3169Y-2480D02*
D03*
X3209Y-3189D02*
D03*
X3091Y-2323D02*
D03*
X2106Y-1772D02*
D03*
X374Y-2717D02*
D03*
X768Y-354D02*
D03*
X2697Y-1693D02*
D03*
X2657Y-354D02*
D03*
X1437Y-748D02*
D03*
X925Y-1142D02*
D03*
X295Y-2087D02*
D03*
X3839Y-1772D02*
D03*
X3642Y-2480D02*
D03*
X2264Y-1614D02*
D03*
X3642Y-2638D02*
D03*
X1358Y-1063D02*
D03*
X2106Y-512D02*
D03*
X886Y-2638D02*
D03*
X3878Y-591D02*
D03*
X2894Y-3189D02*
D03*
X3839D02*
D03*
X2894Y-512D02*
D03*
X3524Y-1929D02*
D03*
X2264Y-512D02*
D03*
X3839D02*
D03*
X3406Y-2480D02*
D03*
X1280Y-1378D02*
D03*
X1870Y-3189D02*
D03*
X1201Y-1378D02*
D03*
X2697Y-2480D02*
D03*
X3524Y-1772D02*
D03*
X1004Y-2402D02*
D03*
X413Y-2638D02*
D03*
X1555Y-669D02*
D03*
X3642Y-276D02*
D03*
X1122Y-2165D02*
D03*
X2264Y-1772D02*
D03*
X1083Y-2087D02*
D03*
X728Y-748D02*
D03*
X1476Y-1614D02*
D03*
X3406Y-3268D02*
D03*
X3051Y-2402D02*
D03*
X3169Y-276D02*
D03*
X1791Y-3189D02*
D03*
X1516Y-2480D02*
D03*
X98Y-1535D02*
D03*
X3484Y-276D02*
D03*
X1240Y-2717D02*
D03*
X3169Y-2323D02*
D03*
X1555Y-1457D02*
D03*
X2972Y-3189D02*
D03*
X2776Y-1535D02*
D03*
X3760Y-1929D02*
D03*
X2028Y-669D02*
D03*
X1752Y-2323D02*
D03*
X3563Y-2638D02*
D03*
X2933D02*
D03*
X3642Y-2008D02*
D03*
X1358Y-1693D02*
D03*
X1122Y-3268D02*
D03*
X965Y-906D02*
D03*
X492Y-433D02*
D03*
X98Y-118D02*
D03*
X3681Y-2874D02*
D03*
X2854Y-1850D02*
D03*
X3484Y-433D02*
D03*
X3406D02*
D03*
X3445Y-669D02*
D03*
X3760Y-3031D02*
D03*
X3327Y-118D02*
D03*
X3878Y-2008D02*
D03*
X3366Y-197D02*
D03*
Y-1614D02*
D03*
X2067Y-1693D02*
D03*
X1358Y-2165D02*
D03*
X1240Y-1614D02*
D03*
X3878Y-2323D02*
D03*
X3760Y-354D02*
D03*
X1437Y-1850D02*
D03*
X1594Y-1535D02*
D03*
X1555Y-1299D02*
D03*
X1358Y-2953D02*
D03*
X3484Y-1535D02*
D03*
X3878Y-1850D02*
D03*
X3839Y-197D02*
D03*
X3878Y-276D02*
D03*
X2697Y-1850D02*
D03*
X2421Y-1772D02*
D03*
X2067Y-2323D02*
D03*
X1988D02*
D03*
X3563Y-3268D02*
D03*
X2854Y-1693D02*
D03*
X1870Y-3031D02*
D03*
X1594Y-591D02*
D03*
X1634Y-2244D02*
D03*
X1555Y-1614D02*
D03*
X1476Y-1142D02*
D03*
X1043Y-2638D02*
D03*
X295Y-1142D02*
D03*
X3209Y-1614D02*
D03*
X177Y-1535D02*
D03*
X3799Y-3268D02*
D03*
X1516Y-1063D02*
D03*
X3563Y-2165D02*
D03*
X3760Y-512D02*
D03*
X1398Y-1929D02*
D03*
X3760Y-1457D02*
D03*
X925Y-2717D02*
D03*
X492Y-591D02*
D03*
X3484Y-1693D02*
D03*
Y-3268D02*
D03*
X2736Y-1614D02*
D03*
X3799Y-2165D02*
D03*
X3760Y-3189D02*
D03*
X3406Y-1850D02*
D03*
X3327Y-3268D02*
D03*
X2736Y-354D02*
D03*
X1437Y-1535D02*
D03*
X2815Y-669D02*
D03*
X3327Y-1693D02*
D03*
X3130Y-1772D02*
D03*
X2461Y-2323D02*
D03*
X3720Y-2008D02*
D03*
X3248Y-1693D02*
D03*
X728Y-591D02*
D03*
X3130Y-3189D02*
D03*
X413Y-906D02*
D03*
X3563Y-1693D02*
D03*
X3484Y-2323D02*
D03*
X3878Y-2638D02*
D03*
X3799Y-2480D02*
D03*
X2461Y-1535D02*
D03*
X3366Y-2402D02*
D03*
X2382Y-1535D02*
D03*
X3878Y-2165D02*
D03*
X1437Y-3268D02*
D03*
X1004Y-3189D02*
D03*
X2736Y-197D02*
D03*
X3839Y-2717D02*
D03*
X1240Y-1457D02*
D03*
X2461Y-591D02*
D03*
X965Y-1063D02*
D03*
X3484Y-2795D02*
D03*
X1713Y-984D02*
D03*
X1201Y-433D02*
D03*
X3091Y-3268D02*
D03*
X3209Y-512D02*
D03*
X3839Y-1457D02*
D03*
X3720Y-3268D02*
D03*
X3327Y-276D02*
D03*
X3130Y-2559D02*
D03*
X2894Y-2244D02*
D03*
X1949Y-354D02*
D03*
X1004Y-1614D02*
D03*
X3209Y-1772D02*
D03*
X846Y-2559D02*
D03*
X256Y-2008D02*
D03*
X2894Y-1614D02*
D03*
X1476Y-1929D02*
D03*
X1870Y-512D02*
D03*
X3406Y-2165D02*
D03*
X2146Y-433D02*
D03*
X3248Y-1850D02*
D03*
X3799Y-276D02*
D03*
X3642Y-1693D02*
D03*
X1437Y-2480D02*
D03*
X1594Y-1063D02*
D03*
X1201Y-2795D02*
D03*
X689Y-2402D02*
D03*
X3563Y-2323D02*
D03*
X650Y-748D02*
D03*
X2972Y-2559D02*
D03*
X3130Y-2402D02*
D03*
X2815Y-197D02*
D03*
X728Y-1535D02*
D03*
X1201D02*
D03*
X2500Y-512D02*
D03*
X3878Y-2795D02*
D03*
X3681Y-3189D02*
D03*
X3327Y-2638D02*
D03*
X728Y-906D02*
D03*
X2854Y-2638D02*
D03*
X846Y-1299D02*
D03*
X2185Y-1772D02*
D03*
X3799Y-591D02*
D03*
X1752D02*
D03*
X1555Y-1929D02*
D03*
X1083Y-669D02*
D03*
X2854Y-2165D02*
D03*
X3878Y-3110D02*
D03*
X3209Y-354D02*
D03*
X2736Y-512D02*
D03*
X1870Y-354D02*
D03*
X3524Y-2559D02*
D03*
X1319Y-669D02*
D03*
X413Y-1063D02*
D03*
X2736Y-1772D02*
D03*
X3091Y-2480D02*
D03*
X2539Y-433D02*
D03*
X1004Y-2559D02*
D03*
X1398Y-1142D02*
D03*
X98Y-1693D02*
D03*
X3445Y-2244D02*
D03*
X1398Y-1614D02*
D03*
X3248Y-433D02*
D03*
X2224Y-748D02*
D03*
X650Y-2323D02*
D03*
X2776Y-1850D02*
D03*
X2382Y-591D02*
D03*
X3563Y-1850D02*
D03*
X3091D02*
D03*
X1398Y-3189D02*
D03*
X2500Y-669D02*
D03*
X1201Y-1063D02*
D03*
X3524Y-3189D02*
D03*
X3287Y-2402D02*
D03*
X531Y-827D02*
D03*
X3091Y-2638D02*
D03*
X1358Y-2795D02*
D03*
X846Y-2717D02*
D03*
X2933Y-1693D02*
D03*
X2854Y-1535D02*
D03*
X2815Y-1614D02*
D03*
X1555Y-1772D02*
D03*
X3839Y-1614D02*
D03*
Y-2087D02*
D03*
X1043Y-2480D02*
D03*
X413Y-748D02*
D03*
X2894Y-3031D02*
D03*
X2618Y-591D02*
D03*
X2539D02*
D03*
X3248Y-2638D02*
D03*
X1634Y-3189D02*
D03*
X3366Y-354D02*
D03*
X2106Y-1142D02*
D03*
X1161Y-2244D02*
D03*
X2421Y-1614D02*
D03*
X453Y-2717D02*
D03*
X1476Y-2087D02*
D03*
X2894Y-1772D02*
D03*
X1398Y-669D02*
D03*
X2972Y-1772D02*
D03*
X728Y-2480D02*
D03*
X335Y-2795D02*
D03*
X3406Y-2008D02*
D03*
X2972Y-2087D02*
D03*
X807Y-2795D02*
D03*
X1555Y-3189D02*
D03*
X3091Y-1693D02*
D03*
X886Y-906D02*
D03*
X571Y-1693D02*
D03*
X374Y-1772D02*
D03*
X3799Y-2795D02*
D03*
X1280Y-433D02*
D03*
X3484Y-118D02*
D03*
Y-2165D02*
D03*
X3130Y-1614D02*
D03*
X3760Y-2087D02*
D03*
X3445Y-354D02*
D03*
X2815D02*
D03*
X2028Y-512D02*
D03*
X1752Y-2638D02*
D03*
X1791Y-669D02*
D03*
X1437Y-1063D02*
D03*
X1122Y-2480D02*
D03*
X413Y-1220D02*
D03*
X728Y-433D02*
D03*
Y-2638D02*
D03*
X3602Y-2559D02*
D03*
X2854Y-433D02*
D03*
X177Y-118D02*
D03*
X3642Y-2165D02*
D03*
X1831Y-3268D02*
D03*
X2067Y-1535D02*
D03*
X1594Y-1850D02*
D03*
X256Y-2480D02*
D03*
X3012Y-3268D02*
D03*
X3642D02*
D03*
X3839Y-354D02*
D03*
X1673Y-1850D02*
D03*
X3799Y-2323D02*
D03*
X3445Y-3031D02*
D03*
X3012Y-1535D02*
D03*
Y-2323D02*
D03*
X2933Y-276D02*
D03*
X1201Y-2638D02*
D03*
X3760Y-1772D02*
D03*
X3366Y-2244D02*
D03*
X3209Y-2874D02*
D03*
X2894Y-984D02*
D03*
X3760Y-669D02*
D03*
X3051Y-1614D02*
D03*
X689Y-1772D02*
D03*
X3878Y-2953D02*
D03*
X3839Y-2244D02*
D03*
X2224Y-591D02*
D03*
X3878Y-433D02*
D03*
X2303Y-1693D02*
D03*
X2343Y-1772D02*
D03*
X3524Y-354D02*
D03*
X2146Y-2323D02*
D03*
X1319Y-1614D02*
D03*
X1161Y-2087D02*
D03*
X3760Y-1614D02*
D03*
X3406Y-2638D02*
D03*
X1043Y-1535D02*
D03*
X2224Y-906D02*
D03*
X1161Y-354D02*
D03*
X650Y-1220D02*
D03*
X689Y-2244D02*
D03*
X3445Y-197D02*
D03*
Y-1614D02*
D03*
X3406Y-276D02*
D03*
X3287Y-1614D02*
D03*
X2657Y-669D02*
D03*
X2854Y-2480D02*
D03*
X2028Y-354D02*
D03*
X1634Y-1614D02*
D03*
X2933Y-3268D02*
D03*
X846Y-827D02*
D03*
X3878Y-1693D02*
D03*
X335Y-2638D02*
D03*
X610Y-827D02*
D03*
X1831Y-433D02*
D03*
X335Y-2165D02*
D03*
X1083Y-1142D02*
D03*
X2657Y-197D02*
D03*
X2382Y-2323D02*
D03*
X2264Y-984D02*
D03*
X2972Y-512D02*
D03*
X1988Y-433D02*
D03*
X1476Y-354D02*
D03*
X3012Y-1850D02*
D03*
X2224Y-1693D02*
D03*
X1004Y-1457D02*
D03*
X1949Y-512D02*
D03*
X3839Y-1929D02*
D03*
X3327Y-2795D02*
D03*
X453Y-2559D02*
D03*
X3484Y-1850D02*
D03*
X3602Y-197D02*
D03*
X1398D02*
D03*
X1043Y-1693D02*
D03*
X3681Y-354D02*
D03*
X2933Y-1220D02*
D03*
X3248Y-276D02*
D03*
X1358Y-2638D02*
D03*
X3169Y-3268D02*
D03*
X1122Y-1378D02*
D03*
X3484Y-591D02*
D03*
X3406Y-1535D02*
D03*
X1516Y-2795D02*
D03*
X1319Y-197D02*
D03*
X3169Y-1850D02*
D03*
X3327Y-2323D02*
D03*
X2854Y-2008D02*
D03*
X1319Y-1457D02*
D03*
X1398Y-2402D02*
D03*
X689Y-2559D02*
D03*
X1201Y-3268D02*
D03*
X2972Y-1929D02*
D03*
X2933Y-2323D02*
D03*
X2894Y-2559D02*
D03*
X1713Y-1142D02*
D03*
X1122Y-2638D02*
D03*
X3720Y-2165D02*
D03*
X846Y-1142D02*
D03*
X3720Y-2480D02*
D03*
X689Y-354D02*
D03*
X2343Y-512D02*
D03*
X610Y-1457D02*
D03*
X1398Y-354D02*
D03*
X98Y-433D02*
D03*
X138Y-1929D02*
D03*
X3484Y-2638D02*
D03*
X2146Y-1063D02*
D03*
X3799Y-1693D02*
D03*
X3681Y-1772D02*
D03*
X3839Y-2874D02*
D03*
X3681Y-1614D02*
D03*
X2776Y-2480D02*
D03*
X2697Y-433D02*
D03*
X3484Y-2480D02*
D03*
X3524Y-2402D02*
D03*
X3602Y-1929D02*
D03*
X1791Y-827D02*
D03*
X1673Y-591D02*
D03*
X3406Y-2323D02*
D03*
X295Y-197D02*
D03*
X2579Y-354D02*
D03*
X2894Y-2087D02*
D03*
X1161Y-2559D02*
D03*
X374Y-1929D02*
D03*
X3878Y-3268D02*
D03*
X3012Y-2480D02*
D03*
X531Y-1772D02*
D03*
X3799Y-433D02*
D03*
X2303Y-2323D02*
D03*
X3445Y-1929D02*
D03*
X807Y-1220D02*
D03*
X3642Y-2323D02*
D03*
X3445Y-3189D02*
D03*
X3248Y-2480D02*
D03*
X453Y-1772D02*
D03*
X1476Y-3189D02*
D03*
X3839Y-2559D02*
D03*
X728Y-2795D02*
D03*
X1594Y-3268D02*
D03*
X768Y-1299D02*
D03*
X3012Y-1693D02*
D03*
X295Y-2559D02*
D03*
X689Y-827D02*
D03*
X3366Y-2559D02*
D03*
X3563Y-433D02*
D03*
X2618Y-1535D02*
D03*
X689Y-1457D02*
D03*
X2697Y-591D02*
D03*
X3563Y-118D02*
D03*
X3051Y-512D02*
D03*
X2815Y-1929D02*
D03*
X1319Y-354D02*
D03*
X1122Y-1535D02*
D03*
X1043Y-3268D02*
D03*
X571Y-1220D02*
D03*
X177Y-2008D02*
D03*
X3051Y-2559D02*
D03*
X1161Y-3031D02*
D03*
X2500Y-1614D02*
D03*
X2579Y-669D02*
D03*
Y-512D02*
D03*
X2972Y-2402D02*
D03*
X3287Y-1772D02*
D03*
X2539Y-1535D02*
D03*
X689Y-2087D02*
D03*
X2697Y-2323D02*
D03*
X1673Y-2795D02*
D03*
X3878Y-2480D02*
D03*
X1476Y-669D02*
D03*
X768Y-2559D02*
D03*
X3248Y-3268D02*
D03*
X1594Y-2165D02*
D03*
X1516Y-276D02*
D03*
X2185Y-512D02*
D03*
X1949Y-197D02*
D03*
X1122Y-433D02*
D03*
X3760Y-2244D02*
D03*
X1358Y-3268D02*
D03*
X3720Y-2638D02*
D03*
X138Y-1457D02*
D03*
X3839Y-2402D02*
D03*
X3209Y-2559D02*
D03*
X3366Y-1929D02*
D03*
X1161Y-1142D02*
D03*
X2776Y-1693D02*
D03*
X886Y-1063D02*
D03*
X3327Y-2480D02*
D03*
X3839Y-669D02*
D03*
X3524Y-197D02*
D03*
X1909Y-906D02*
D03*
X1319Y-2244D02*
D03*
X1398Y-1299D02*
D03*
X1516Y-591D02*
D03*
X3602Y-2087D02*
D03*
X3642Y-2795D02*
D03*
X1280Y-1693D02*
D03*
X1358Y-433D02*
D03*
X2382Y-1693D02*
D03*
X3681Y-2402D02*
D03*
X3602Y-3189D02*
D03*
X3366Y-2087D02*
D03*
X2933Y-2165D02*
D03*
X2736Y-2402D02*
D03*
X3287Y-512D02*
D03*
X2500Y-354D02*
D03*
X2067Y-591D02*
D03*
X1319Y-1299D02*
D03*
X965Y-3268D02*
D03*
X728Y-1850D02*
D03*
X295Y-984D02*
D03*
X2539Y-1693D02*
D03*
X3406D02*
D03*
X98Y-2008D02*
D03*
X3760Y-2559D02*
D03*
X295Y-1299D02*
D03*
X138Y-354D02*
D03*
X3642Y-433D02*
D03*
X571Y-2638D02*
D03*
X1516Y-748D02*
D03*
X531Y-1299D02*
D03*
X1594Y-2008D02*
D03*
X2697Y-1535D02*
D03*
X3287Y-3189D02*
D03*
X1555Y-827D02*
D03*
Y-1142D02*
D03*
X2815Y-2402D02*
D03*
X3169Y-2795D02*
D03*
X2933Y-1535D02*
D03*
X3012Y-2638D02*
D03*
X3720Y-1850D02*
D03*
X3012Y-1220D02*
D03*
X2146Y-906D02*
D03*
X1319Y-3189D02*
D03*
X3248Y-2323D02*
D03*
X610Y-354D02*
D03*
X2776Y-433D02*
D03*
X886Y-748D02*
D03*
X2461Y-1693D02*
D03*
X3878Y-1535D02*
D03*
X3366Y-1772D02*
D03*
X3799Y-1535D02*
D03*
X2933Y-1850D02*
D03*
X1437Y-2008D02*
D03*
X2224Y-276D02*
D03*
X1201Y-2165D02*
D03*
X610Y-2402D02*
D03*
X3681Y-1929D02*
D03*
X571Y-2008D02*
D03*
X2776Y-2323D02*
D03*
X2028Y-827D02*
D03*
X2618Y-433D02*
D03*
X3839Y-3031D02*
D03*
X925Y-984D02*
D03*
X1083Y-2559D02*
D03*
X1358Y-591D02*
D03*
X2146D02*
D03*
X1909Y-433D02*
D03*
X925Y-827D02*
D03*
X3327Y-1850D02*
D03*
X3524Y-2087D02*
D03*
X1791Y-354D02*
D03*
X689Y-1299D02*
D03*
X295Y-2717D02*
D03*
X3563Y-276D02*
D03*
X1673Y-2008D02*
D03*
X1161Y-984D02*
D03*
X374Y-2087D02*
D03*
X571Y-2165D02*
D03*
X512Y-2185D02*
D03*
X551Y-2224D02*
D03*
X512D02*
D03*
X3701Y-59D02*
D03*
X3622D02*
D03*
X3543D02*
D03*
X3465D02*
D03*
X3386D02*
D03*
X3307D02*
D03*
X3228D02*
D03*
X3150D02*
D03*
X2992D02*
D03*
X3071D02*
D03*
X2913D02*
D03*
X2835D02*
D03*
X2756D02*
D03*
X2677D02*
D03*
X2598D02*
D03*
X2520D02*
D03*
X2441D02*
D03*
X2362D02*
D03*
X2283D02*
D03*
X2205D02*
D03*
X2126D02*
D03*
X2047D02*
D03*
X1969D02*
D03*
X1890D02*
D03*
X1811D02*
D03*
X1732D02*
D03*
X1654D02*
D03*
X1575D02*
D03*
X1496D02*
D03*
X1417D02*
D03*
X1339D02*
D03*
X1260D02*
D03*
X1181D02*
D03*
X1102D02*
D03*
X1024D02*
D03*
X1160Y-1960D02*
D03*
X1070D02*
D03*
X2756Y-2835D02*
D03*
X2677D02*
D03*
X2598D02*
D03*
X2520D02*
D03*
X2441D02*
D03*
X2362D02*
D03*
X2283D02*
D03*
X2205D02*
D03*
X3878Y-3425D02*
D03*
Y-3740D02*
D03*
Y-3898D02*
D03*
X3839Y-3346D02*
D03*
X3799Y-3740D02*
D03*
X3839Y-3819D02*
D03*
X3799Y-3898D02*
D03*
X3760Y-3346D02*
D03*
X3720Y-3583D02*
D03*
X3760Y-3661D02*
D03*
Y-3819D02*
D03*
X3720Y-3898D02*
D03*
X3681Y-3346D02*
D03*
Y-3819D02*
D03*
X3642Y-3898D02*
D03*
X3602Y-3346D02*
D03*
X3563Y-3740D02*
D03*
X3602Y-3819D02*
D03*
X3563Y-3898D02*
D03*
X3524Y-3346D02*
D03*
X3484Y-3583D02*
D03*
X3524Y-3661D02*
D03*
X3484Y-3740D02*
D03*
X3524Y-3819D02*
D03*
X3484Y-3898D02*
D03*
X3445Y-3346D02*
D03*
Y-3504D02*
D03*
Y-3819D02*
D03*
X3406Y-3898D02*
D03*
X3366Y-3346D02*
D03*
X3327Y-3740D02*
D03*
X3366Y-3819D02*
D03*
X3327Y-3898D02*
D03*
X3287Y-3346D02*
D03*
X3248Y-3425D02*
D03*
Y-3740D02*
D03*
X3287Y-3819D02*
D03*
X3248Y-3898D02*
D03*
X3209Y-3346D02*
D03*
X3169Y-3425D02*
D03*
Y-3583D02*
D03*
Y-3740D02*
D03*
X3209Y-3819D02*
D03*
X3169Y-3898D02*
D03*
X3130Y-3346D02*
D03*
X3091Y-3425D02*
D03*
X3130Y-3661D02*
D03*
Y-3819D02*
D03*
X3091Y-3898D02*
D03*
X3051Y-3346D02*
D03*
X3012Y-3425D02*
D03*
X3051Y-3819D02*
D03*
X3012Y-3898D02*
D03*
X2972Y-3346D02*
D03*
X2933Y-3425D02*
D03*
X2972Y-3819D02*
D03*
X2933Y-3898D02*
D03*
X2894Y-3346D02*
D03*
X2854Y-3425D02*
D03*
X2894Y-3504D02*
D03*
X2854Y-3583D02*
D03*
X2894Y-3661D02*
D03*
X2854Y-3740D02*
D03*
X2894Y-3819D02*
D03*
X2854Y-3898D02*
D03*
X2776Y-3268D02*
D03*
X2815Y-3346D02*
D03*
Y-3504D02*
D03*
X2776Y-3583D02*
D03*
X2815Y-3661D02*
D03*
X2776Y-3740D02*
D03*
X2815Y-3819D02*
D03*
X2776Y-3898D02*
D03*
X2697Y-3110D02*
D03*
Y-3268D02*
D03*
X2736Y-3504D02*
D03*
Y-3819D02*
D03*
X2697Y-3898D02*
D03*
X2657Y-3031D02*
D03*
Y-3504D02*
D03*
Y-3819D02*
D03*
X2618Y-3898D02*
D03*
X2539Y-3268D02*
D03*
Y-3425D02*
D03*
Y-3583D02*
D03*
Y-3740D02*
D03*
X2579Y-3819D02*
D03*
X2539Y-3898D02*
D03*
X2461Y-3268D02*
D03*
Y-3425D02*
D03*
Y-3583D02*
D03*
Y-3740D02*
D03*
X2500Y-3819D02*
D03*
X2461Y-3898D02*
D03*
X2421Y-3031D02*
D03*
X2382Y-3110D02*
D03*
X2421Y-3189D02*
D03*
Y-3819D02*
D03*
X2382Y-3898D02*
D03*
X2303Y-3268D02*
D03*
X2343Y-3346D02*
D03*
Y-3504D02*
D03*
Y-3819D02*
D03*
X2303Y-3898D02*
D03*
X2224Y-3268D02*
D03*
X2264Y-3346D02*
D03*
X2224Y-3425D02*
D03*
X2264Y-3504D02*
D03*
X2224Y-3583D02*
D03*
Y-3740D02*
D03*
X2264Y-3819D02*
D03*
X2224Y-3898D02*
D03*
X2146Y-3110D02*
D03*
Y-3268D02*
D03*
X2185Y-3346D02*
D03*
X2146Y-3425D02*
D03*
X2185Y-3504D02*
D03*
X2146Y-3583D02*
D03*
X2185Y-3661D02*
D03*
Y-3819D02*
D03*
X2146Y-3898D02*
D03*
X2067Y-2953D02*
D03*
X2106Y-3031D02*
D03*
X2067Y-3268D02*
D03*
X2106Y-3346D02*
D03*
X2067Y-3425D02*
D03*
X2106Y-3504D02*
D03*
X2067Y-3583D02*
D03*
Y-3898D02*
D03*
X1988Y-2953D02*
D03*
X2028Y-3031D02*
D03*
X1988Y-3110D02*
D03*
X2028Y-3346D02*
D03*
Y-3504D02*
D03*
X1988Y-3583D02*
D03*
Y-3898D02*
D03*
X1870Y-3346D02*
D03*
Y-3819D02*
D03*
X1831Y-3898D02*
D03*
X1791Y-3346D02*
D03*
X1752Y-3583D02*
D03*
Y-3740D02*
D03*
X1791Y-3819D02*
D03*
X1752Y-3898D02*
D03*
X1713Y-3346D02*
D03*
Y-3819D02*
D03*
X1673Y-3898D02*
D03*
X1634Y-3346D02*
D03*
X1594Y-3425D02*
D03*
Y-3740D02*
D03*
X1634Y-3819D02*
D03*
X1594Y-3898D02*
D03*
X1555Y-3346D02*
D03*
X1516Y-3583D02*
D03*
X1555Y-3661D02*
D03*
X1516Y-3740D02*
D03*
X1555Y-3819D02*
D03*
X1516Y-3898D02*
D03*
X1476Y-3346D02*
D03*
Y-3504D02*
D03*
X1437Y-3583D02*
D03*
X1476Y-3661D02*
D03*
Y-3819D02*
D03*
X1437Y-3898D02*
D03*
X1398Y-3346D02*
D03*
Y-3819D02*
D03*
X1358Y-3898D02*
D03*
X1319Y-3346D02*
D03*
X1280Y-3425D02*
D03*
X1319Y-3819D02*
D03*
X1280Y-3898D02*
D03*
X1240Y-3346D02*
D03*
X1201Y-3425D02*
D03*
Y-3583D02*
D03*
X1240Y-3661D02*
D03*
Y-3819D02*
D03*
X1201Y-3898D02*
D03*
X1161Y-3346D02*
D03*
X1122Y-3425D02*
D03*
X1161Y-3504D02*
D03*
X1122Y-3583D02*
D03*
X1161Y-3661D02*
D03*
Y-3819D02*
D03*
X1122Y-3898D02*
D03*
X1083Y-3346D02*
D03*
X1043Y-3425D02*
D03*
X1083Y-3819D02*
D03*
X1043Y-3898D02*
D03*
X1004Y-3346D02*
D03*
X965Y-3425D02*
D03*
X1004Y-3819D02*
D03*
X965Y-3898D02*
D03*
X925Y-3346D02*
D03*
X886Y-3425D02*
D03*
Y-3583D02*
D03*
X925Y-3661D02*
D03*
X886Y-3740D02*
D03*
X925Y-3819D02*
D03*
X886Y-3898D02*
D03*
X807Y-2953D02*
D03*
X846Y-3031D02*
D03*
Y-3189D02*
D03*
X807Y-3268D02*
D03*
X846Y-3346D02*
D03*
X807Y-3425D02*
D03*
X846Y-3504D02*
D03*
X807Y-3583D02*
D03*
X846Y-3661D02*
D03*
X807Y-3740D02*
D03*
X846Y-3819D02*
D03*
X807Y-3898D02*
D03*
X728Y-3268D02*
D03*
X768Y-3346D02*
D03*
Y-3504D02*
D03*
Y-3819D02*
D03*
X728Y-3898D02*
D03*
X650Y-3110D02*
D03*
Y-3583D02*
D03*
X689Y-3819D02*
D03*
X650Y-3898D02*
D03*
X610Y-3031D02*
D03*
X571Y-3110D02*
D03*
X610Y-3189D02*
D03*
X571Y-3268D02*
D03*
Y-3740D02*
D03*
X610Y-3819D02*
D03*
X571Y-3898D02*
D03*
X531Y-3346D02*
D03*
Y-3819D02*
D03*
X492Y-3898D02*
D03*
X413Y-3268D02*
D03*
X453Y-3346D02*
D03*
Y-3504D02*
D03*
Y-3661D02*
D03*
Y-3819D02*
D03*
X413Y-3898D02*
D03*
X374Y-3031D02*
D03*
X335Y-3110D02*
D03*
X374Y-3189D02*
D03*
X335Y-3268D02*
D03*
X374Y-3346D02*
D03*
X335Y-3583D02*
D03*
X374Y-3819D02*
D03*
X335Y-3898D02*
D03*
X256Y-2638D02*
D03*
Y-2795D02*
D03*
X295Y-3031D02*
D03*
X256Y-3268D02*
D03*
X295Y-3346D02*
D03*
X256Y-3583D02*
D03*
X295Y-3819D02*
D03*
X256Y-3898D02*
D03*
X217Y-2559D02*
D03*
X177Y-2638D02*
D03*
X217Y-2717D02*
D03*
X177Y-2795D02*
D03*
X217Y-2874D02*
D03*
X177Y-3268D02*
D03*
X217Y-3346D02*
D03*
X177Y-3425D02*
D03*
X217Y-3504D02*
D03*
X177Y-3583D02*
D03*
X217Y-3661D02*
D03*
X177Y-3740D02*
D03*
X217Y-3819D02*
D03*
X177Y-3898D02*
D03*
X138Y-2559D02*
D03*
X98Y-2638D02*
D03*
Y-2953D02*
D03*
Y-3110D02*
D03*
Y-3268D02*
D03*
X138Y-3346D02*
D03*
X98Y-3425D02*
D03*
X138Y-3504D02*
D03*
X98Y-3583D02*
D03*
X138Y-3661D02*
D03*
X98Y-3740D02*
D03*
X138Y-3819D02*
D03*
X301Y-521D02*
D03*
X1900Y-1180D02*
D03*
X3580Y-2760D02*
D03*
X3270D02*
D03*
X2860Y-2870D02*
D03*
X1850Y-1210D02*
D03*
X1810Y-1240D02*
D03*
X1010Y-670D02*
D03*
X3900Y-1350D02*
D03*
Y-1400D02*
D03*
Y-1300D02*
D03*
Y-1250D02*
D03*
Y-1200D02*
D03*
Y-1150D02*
D03*
Y-1100D02*
D03*
Y-1050D02*
D03*
Y-950D02*
D03*
Y-1000D02*
D03*
Y-900D02*
D03*
Y-850D02*
D03*
Y-800D02*
D03*
Y-750D02*
D03*
X3450Y-900D02*
D03*
X3500D02*
D03*
X3550D02*
D03*
X3600D02*
D03*
Y-950D02*
D03*
Y-1000D02*
D03*
Y-1050D02*
D03*
X3550D02*
D03*
X3500D02*
D03*
X3450D02*
D03*
X3600Y-1200D02*
D03*
Y-1250D02*
D03*
Y-1300D02*
D03*
Y-1350D02*
D03*
X3550D02*
D03*
X3500D02*
D03*
X3450D02*
D03*
X1163Y-1463D02*
D03*
X1580Y-2770D02*
D03*
X956Y-1466D02*
D03*
X1810Y-2850D02*
D03*
X1810Y-2790D02*
D03*
X1270Y-2770D02*
D03*
X960D02*
D03*
X910Y-2600D02*
D03*
X906Y-1464D02*
D03*
X856Y-1466D02*
D03*
X806D02*
D03*
X756D02*
D03*
X790Y-2290D02*
D03*
X440Y-1560D02*
D03*
X500Y-1560D02*
D03*
X370Y-2600D02*
D03*
X867Y-2333D02*
D03*
X450Y-2080D02*
D03*
X300Y-2000D02*
D03*
X435Y-2290D02*
D03*
X506Y-736D02*
D03*
X456D02*
D03*
X680Y-200D02*
D03*
X680Y-110D02*
D03*
D97*
X1570Y-2440D02*
D03*
X356Y-1324D02*
D03*
X437Y-507D02*
D03*
X1994Y-764D02*
D03*
X730Y-510D02*
D03*
X510Y-2530D02*
D03*
X304Y-2249D02*
D03*
X470Y-200D02*
D03*
M02*
