G04*
G04 #@! TF.GenerationSoftware,Altium Limited,Altium Designer,18.0.7 (293)*
G04*
G04 Layer_Color=16711935*
%FSLAX23Y23*%
%MOIN*%
G70*
G01*
G75*
%ADD75C,0.079*%
%ADD76C,0.063*%
%ADD77C,0.008*%
%ADD78R,0.067X0.067*%
%ADD79C,0.067*%
%ADD80C,0.146*%
%ADD81R,0.067X0.067*%
%ADD82C,0.032*%
%ADD83C,0.047*%
%ADD98R,0.540X0.800*%
G36*
X3420Y-710D02*
X3920D01*
Y-1420D01*
X3420D01*
Y-710D01*
D02*
G37*
D75*
X135Y-2438D02*
D03*
Y-2163D02*
D03*
D76*
X241Y-2399D02*
D03*
Y-2202D02*
D03*
D77*
X3740Y-197D02*
D03*
X2067Y-3740D02*
D03*
D78*
X200Y-550D02*
D03*
X1850Y-600D02*
D03*
X1100Y-1800D02*
D03*
X100Y-1850D02*
D03*
X1500Y-2550D02*
D03*
X2300Y-3400D02*
D03*
Y-3700D02*
D03*
X3400D02*
D03*
X1400D02*
D03*
X300Y-3400D02*
D03*
Y-3700D02*
D03*
X1200Y-200D02*
D03*
X1900D02*
D03*
X2600D02*
D03*
X3300D02*
D03*
D79*
X100Y-550D02*
D03*
X1950Y-600D02*
D03*
X1300Y-1800D02*
D03*
X1200D02*
D03*
X3700Y-630D02*
D03*
X1250Y-2100D02*
D03*
Y-2200D02*
D03*
X1650Y-2100D02*
D03*
Y-2200D02*
D03*
Y-1700D02*
D03*
Y-1800D02*
D03*
Y-1000D02*
D03*
Y-900D02*
D03*
Y-800D02*
D03*
Y-700D02*
D03*
Y-1400D02*
D03*
Y-1300D02*
D03*
X200Y-1850D02*
D03*
X300D02*
D03*
X400D02*
D03*
X500D02*
D03*
X600D02*
D03*
X1600Y-2550D02*
D03*
X2400Y-3400D02*
D03*
X2500D02*
D03*
X2600D02*
D03*
X2700D02*
D03*
X2400Y-3700D02*
D03*
X2500D02*
D03*
X2600D02*
D03*
X2700D02*
D03*
X3300D02*
D03*
X3200D02*
D03*
X3100D02*
D03*
X3000D02*
D03*
X1300D02*
D03*
X1200D02*
D03*
X1100D02*
D03*
X1000D02*
D03*
X400Y-3400D02*
D03*
X500D02*
D03*
X600D02*
D03*
X700D02*
D03*
X400Y-3700D02*
D03*
X500D02*
D03*
X600D02*
D03*
X700D02*
D03*
X1100Y-200D02*
D03*
X1000D02*
D03*
X900D02*
D03*
X800D02*
D03*
X1800D02*
D03*
X1700D02*
D03*
X1600D02*
D03*
X1500D02*
D03*
X2500D02*
D03*
X2400D02*
D03*
X2300D02*
D03*
X2200D02*
D03*
X3200D02*
D03*
X3100D02*
D03*
X3000D02*
D03*
X2900D02*
D03*
D80*
X3300Y-800D02*
D03*
X3500D02*
D03*
X2950Y-1400D02*
D03*
X2750D02*
D03*
X2950Y-1100D02*
D03*
X2750D02*
D03*
X2950Y-800D02*
D03*
X2750D02*
D03*
D81*
X3700Y-530D02*
D03*
X1250Y-2300D02*
D03*
X1650D02*
D03*
Y-1900D02*
D03*
Y-1100D02*
D03*
Y-1500D02*
D03*
D82*
X571Y-2165D02*
D03*
X512Y-2185D02*
D03*
X551Y-2224D02*
D03*
X512D02*
D03*
X1160Y-1960D02*
D03*
X1070D02*
D03*
X301Y-521D02*
D03*
X1900Y-1180D02*
D03*
X3580Y-2760D02*
D03*
X3270D02*
D03*
X2860Y-2870D02*
D03*
X1850Y-1210D02*
D03*
X1810Y-1240D02*
D03*
X1010Y-670D02*
D03*
X3900Y-1350D02*
D03*
Y-1400D02*
D03*
Y-1300D02*
D03*
Y-1250D02*
D03*
Y-1200D02*
D03*
Y-1150D02*
D03*
Y-1100D02*
D03*
Y-1050D02*
D03*
Y-950D02*
D03*
Y-1000D02*
D03*
Y-900D02*
D03*
Y-850D02*
D03*
Y-800D02*
D03*
Y-750D02*
D03*
X3450Y-900D02*
D03*
X3500D02*
D03*
X3550D02*
D03*
X3600D02*
D03*
Y-950D02*
D03*
Y-1000D02*
D03*
Y-1050D02*
D03*
X3550D02*
D03*
X3500D02*
D03*
X3450D02*
D03*
X3600Y-1200D02*
D03*
Y-1250D02*
D03*
Y-1300D02*
D03*
Y-1350D02*
D03*
X3550D02*
D03*
X3500D02*
D03*
X3450D02*
D03*
X1163Y-1463D02*
D03*
X1580Y-2770D02*
D03*
X956Y-1466D02*
D03*
X1810Y-2850D02*
D03*
X1810Y-2790D02*
D03*
X1270Y-2770D02*
D03*
X960D02*
D03*
X910Y-2600D02*
D03*
X906Y-1464D02*
D03*
X856Y-1466D02*
D03*
X806D02*
D03*
X756D02*
D03*
X790Y-2290D02*
D03*
X440Y-1560D02*
D03*
X500Y-1560D02*
D03*
X370Y-2600D02*
D03*
X867Y-2333D02*
D03*
X450Y-2080D02*
D03*
X300Y-2000D02*
D03*
X435Y-2290D02*
D03*
X506Y-736D02*
D03*
X456D02*
D03*
X680Y-200D02*
D03*
X680Y-110D02*
D03*
D83*
X1570Y-2440D02*
D03*
X356Y-1324D02*
D03*
X437Y-507D02*
D03*
X1994Y-764D02*
D03*
X730Y-510D02*
D03*
X510Y-2530D02*
D03*
X304Y-2249D02*
D03*
X470Y-200D02*
D03*
D98*
X2570Y-1100D02*
D03*
M02*
