M48
;Layer_Color=9474304
;FILE_FORMAT=2:3
INCH,LZ
;TYPE=PLATED
T1F00S00C0.012
T2F00S00C0.024
T3F00S00C0.035
T4F00S00C0.047
T5F00S00C0.079
T6F00S00C0.126
%
T01
X001Y-039
X00177Y-03898
X00256
X00335
X00413
X00453Y-03819
X00374
X00295
X00217
X00138
X00177Y-0374
X00098
X00138Y-03661
X00217
X00256Y-03583
X00335
X00177
X00098
X00138Y-03504
X00217
X00177Y-03425
X00098
X00453Y-03504
Y-03661
X00571Y-0374
X0061Y-03819
X00689
X00768
X00846
X00925
X01004
X01083
X01161
X0124
X01319
X01398
X01476
X01555
X01634
X01713
X01791
X0187
X01831Y-03898
X01752
X01673
X01594
X01516
X01437
X01358
X0128
X01201
X01122
X01043
X00965
X00886
X00807
X00728
X0065
X00571
X00492
X00531Y-03819
X00807Y-0374
X00886
X00925Y-03661
X00846
X00886Y-03583
X00807
X00846Y-03504
X00768
X00807Y-03425
X00886
X00965
X01043
X01122
X01201
X0128
X01161Y-03504
X01201Y-03583
X01122
X01161Y-03661
X0124
X01476
X01555
X01594Y-0374
X01516
Y-03583
X01437
X01476Y-03504
X01594Y-03425
X01752Y-03583
Y-0374
X01988Y-03583
X02028Y-03504
X01988Y-03898
X0065Y-03583
X02067
X02146
X02224
X02264Y-03504
X02343
X02185
X02106
X02146Y-03425
X02224
X02067
X02185Y-03661
X02224Y-0374
X02264Y-03819
X02343
X02421
X025
X02579
X02657
X02736
X02815
X02894
X02972
X03051
X0313
X03209
X03287
X03366
X03445
X03524
X03602
X03563Y-0374
X03484
X03524Y-03661
X03484Y-03583
X03445Y-03504
X03248Y-03425
X03169
X03091
X03012
X02933
X02854
X02894Y-03504
X02815
X02736
X02657
X02776Y-03583
X02854
X02894Y-03661
X02815
X02854Y-0374
X02776
Y-03898
X02854
X02933
X03012
X03091
X03169
X03248
X03327
X03406
X03484
X03563
X03327Y-0374
X03248
X03169
X0313Y-03661
X03169Y-03583
X02539
X02461
Y-03425
X02539
Y-0374
X02461
Y-03898
X02539
X02618
X02697
X02382
X02303
X02224
X02146
X02067
X02185Y-03819
X03681
X0376
X03839
X03878Y-0374
X03799
X0376Y-03661
X0372Y-03583
X03878Y-03425
Y-03898
X03799
X0372
X03642
X03681Y-03346
X0376
X03839
X03799Y-03268
X0372
X03642
X03681Y-03189
X0376
X03839
X03878Y-0311
X03839Y-03031
X0376
X03878Y-02953
X03839Y-02874
X03878Y-02795
X03799
X03839Y-02717
X03799Y-02638
X03878
X03839Y-02559
X0376
X03681
X03642Y-0248
X0372
X03799
X03878
X03839Y-02402
X0376
X03681
X0372Y-02323
X03799
X03878
X03839Y-02244
X0376
X03681
X03642Y-02165
X0372
X03799
X03878
X03839Y-02087
X0376
X03681
X03642Y-02008
X0372
X03799
X03878
X03839Y-01929
X0376
X03681
X03642Y-0185
X0372
X03799
X03878
X03642Y-02323
Y-02638
X0372
X03642Y-02795
X03681Y-02874
X03878Y-03268
X03563
X03484
X03406
X03327
X03248
X03169
X03091
X03012
X02933
X02894Y-03189
X02972
X03051
X0313
X03209
X03287
X03366
X03445
X03524
X03602
Y-03346
X03524
X03445
X03366
X03287
X03209
X0313
X03051
X02972
X02894
X02815
X02776Y-03268
X02697
Y-0311
X02657Y-03031
X02677Y-02835
X02756
X0286Y-0287
X03051Y-02874
X03209
X03169Y-02795
X0327Y-0276
X03327Y-02795
X03366Y-02874
X03524
X03484Y-02795
X0358Y-0276
X03563Y-02638
X03484
X03406
X03327
X03248
X03169
X03091
X03012
X02933
X02854
X02894Y-02559
X02972
X03051
X0313
X03209
X03287
X03366
X03445
X03524
X03602
X03563Y-0248
X03484
X03406
X03327
X03248
X03169
X03091
X03012
X02933
X02854
X02776
X02697
X02736Y-02402
X02815
X02894
X02972
X03051
X0313
X03209
X03287
X03366
X03445
X03524
X03602
X03563Y-02323
X03484
X03406
X03327
X03248
X03169
X03091
X03012
X02933
X02854
X02776
X02697
X02539
X02461
X02382
X02303
X02224
X02146
X02067
Y-02953
X02106Y-03031
X02146Y-0311
Y-03268
X02224
X02303
X02343Y-03346
X02264
X02185
X02106
X02067Y-03268
X02461
X02539
X02421Y-03189
X02382Y-0311
X02421Y-03031
X02441Y-02835
X0252
X02598
X02362
X02283
X02205
X02894Y-03031
X03445
Y-02244
X03524
X03602
X03563Y-02165
X03484
X03406
X03445Y-02087
X03366
X03406Y-02008
X03484
X03563
X03524Y-01929
X03602
X03563Y-0185
X03484
X03406
X03327
X03248
X03169
X03091
X03012
X02933
X02854
X02776
X02697
X02815Y-01929
X02894
X02972
X02933Y-02008
X02854
X02894Y-02087
X02972
X02933Y-02165
X02854
X02894Y-02244
X02972
X03366
Y-01929
X03445
X03524Y-02087
X03602
X01988Y-02323
X01752
X01634Y-02244
X01555
X01594Y-02165
X01555Y-02087
X01476
X01516Y-02008
X01594
X01673
Y-0185
X01594
X01516
X01437
X01398Y-01929
X01476
X01555
X01437Y-02008
X01358Y-02165
X01319Y-02244
Y-02402
X01398
X01437Y-0248
X01516
X01713Y-02559
X01752Y-02638
X0181Y-0279
X0181Y-0285
X01673Y-02795
X0158Y-0277
X01516Y-02795
X01358
X0127Y-0277
X0124Y-02717
X01201Y-02795
X01043
X0096Y-0277
X00925Y-02717
X00846
X00768
X00689
X0065Y-02795
X00728
X00807
X00886
Y-02638
X0091Y-026
X00846Y-02559
X00768
X00689
X00728Y-0248
X00689Y-02402
X0061
X0065Y-02323
X00689Y-02244
X00728Y-02165
X00689Y-02087
X00571Y-02008
X00571Y-02165
X00551Y-02224
X00512
Y-02185
X0079Y-0229
X00867Y-02333
X01004Y-02402
X01043Y-0248
X01122
X01161Y-02559
X01083
X01004
X01043Y-02638
X01122
X01201
X01358
Y-02953
X01398Y-03189
X01476
X01555
X01634
X01713
X01791
X0187
X01831Y-03268
X01752
X01673
X01594
X01516
X01437
X01358
X0128
X01201
X01122
X01043
X00965
X00886
X00807
X00728
X00768Y-03346
X00846
X00925
X01004
X01083
X01161
X0124
X01319
X01398
X01476
X01555
X01634
X01713
X01791
X0187
X02028
X01988Y-0311
X02028Y-03031
X01988Y-02953
X0187Y-03031
X01673Y-02953
X01161Y-03031
Y-03189
X01083
X01004
X00925
X00846
X00886Y-0311
X00846Y-03031
X00807Y-02953
X0061Y-03031
X0065Y-0311
X00571
X0061Y-03189
X00571Y-03268
X00531Y-03346
X00571Y-02638
X00728
X00807
X01004Y-02087
X01083
X01161
X01122Y-02165
X01201
X01161Y-02244
X0116Y-0196
X0107
X01043Y-0185
X00728
X0124Y-03189
X01319
X00374
X00413Y-03268
X00335
X00256
X00177
X00098
X00138Y-03346
X00217
X00295
X00374
X00453
X00335Y-0311
X00374Y-03031
X00295
X00217Y-02874
X00256Y-02795
X00335
X00413
X00374Y-02717
X00453
X00413Y-02638
X00335
X0037Y-026
X00374Y-02559
X00453
X00295
X00217
X00138
X00177Y-02638
X00256
X00295Y-02717
X00217
X00177Y-02795
X00098Y-02638
X00256Y-0248
X00335
X00435Y-0229
X0045Y-0208
X00374Y-02087
X00295
X00217
X00256Y-02008
X003Y-02
X00177Y-02008
X00098
X00138Y-01929
X00374
X00335Y-02165
X00098Y-02953
Y-0311
Y-01693
X00138Y-01614
X00098Y-01535
X00177
X00217Y-01457
X00138
X00295Y-01299
Y-01142
Y-00984
Y-00827
X00413Y-00906
Y-01063
Y-0122
X0044Y-0156
X00453Y-01772
X00374
X00413Y-00748
X00456Y-00736
X00301Y-00521
X00374Y-00354
X00138
X00098Y-00433
X00492
Y-00591
X00506Y-00736
X00571Y-00748
X0065
X00728
X00689Y-00827
X0061
X00531
X00728Y-00906
X00886
X00965
X00925Y-00984
X00846
X00886Y-01063
X00965
X00925Y-01142
X00846
X00807Y-0122
X00846Y-01299
X00768
X00689
X0065Y-0122
X00571
X00531Y-01299
X0061Y-01457
X00689
X00756Y-01466
X00806
X00856
X00906Y-01464
X00956Y-01466
X01004Y-01457
X01043Y-01535
X01122
X01201
X01163Y-01463
X0124Y-01457
X01319
X01358Y-01378
X0128
X01201
X01122
X01161Y-01299
X0124
X01319
X01398
X01476
X01555
Y-01457
X01516Y-01535
X01594
X01555Y-01614
X01476
X01398
X01319
X0124
X0128Y-01693
X01358
X01516
X01555Y-01772
X01634Y-01614
X01437Y-01535
X01358
X01161Y-01772
X01004
X01043Y-01693
X01004Y-01614
X00728Y-01535
X005Y-0156
X00571Y-01693
X00531Y-01772
X00689
X01083Y-01142
X01161
X01201Y-01063
X01161Y-00984
X01358Y-01063
X01437
X01516
X01594
X01555Y-01142
X01476
X01398
X01713
Y-00984
X01752Y-00906
X01713Y-00827
X01791
X0187
X01909Y-00906
X02028Y-00827
Y-00669
Y-00512
X01949
X0187
X01831Y-00433
X01909
X01988
X01949Y-00354
X0187
X01791
X02028
X01752Y-00591
X01673
X01594
X01516
X01437
X01358
X0128
X01319Y-00669
X01398
X01476
X01555
X01516Y-00748
X01437
X01555Y-00827
X01752Y-00748
X01791Y-00669
X0181Y-0124
X0185Y-0121
X019Y-0118
X02028Y-01142
X01437Y-00433
X01358
X0128
X01201
X01122
X01083Y-00354
X01161
X0124
X01319
X01398
X01476
X01516Y-00276
X00807
X00768Y-00354
X00689
X0061
X00728Y-00433
Y-00591
X00886Y-00748
X00846Y-00827
X00925
X0101Y-0067
X01083Y-00669
X01161
X02067Y-00591
X02146
X02224
X02264Y-00512
X02343
X02421
X025
X02579
X02657
X02736
X02815
X02894
X02972
X03051
X0313
X03209
X03287
X03327Y-00433
X03406
X03484
X03563
X03602Y-00354
X03524
X03445
X03366
X03287
X03209
X03169Y-00276
X03248
X03327
X03406
X03484
X03563
Y-00591
X03484
X03445Y-00669
X03366
X03602
X036Y-009
X0355
X035
X0345
Y-0105
X035
X0355
X036
Y-01
Y-0095
Y-012
Y-0125
Y-013
Y-0135
X0355
X035
X0345
X03484Y-01535
X03406
X03366Y-01614
X03445
X03484Y-01693
X03563
X03602Y-01772
X03524
X03445
X03366
X03287
X03209
X0313
X03051
X02972
X02894
X02815
X02736
X02697Y-01693
X02618
X02539
X02461
X02382
X02303
X02224
X02146
X02067
X02106Y-01772
X02185
X02264
X02343
X02421
Y-01614
X02343
X02264
X02303Y-01535
X02382
X02461
X02539
X02618
X02697
X02776
X02854
X02933
X03012
X02972Y-01614
X02894
X02815
X02736
X02657
X02579
X025
X02776Y-01693
X02854
X02933
X03012
X03091
X03169
X03248
X03327
X03406
X03287Y-01614
X03209
X0313
X03051
X03012Y-0122
X02933
X02894Y-00984
X02815Y-00669
X02657
X02579
X025
X02421
X02461Y-00591
X02382
X02539
X02618
X02697
Y-00433
X02776
X02854
X02815Y-00354
X02736
X02657
X02579
X025
X02539Y-00433
X02618
X02146
X02067
X02106Y-00354
X02185
X02224Y-00276
X02185Y-00512
X02106
X02224Y-00748
X02264Y-00827
X02224Y-00906
X02146
Y-01063
X02106Y-01142
X02264Y-00984
X02067Y-01535
X02933Y-00276
X03248Y-00433
X03642
X0372
X03799
X03878
X03839Y-00512
X0376
X03799Y-00591
X03878
X03839Y-00669
X0376
X03642Y-00591
X03681Y-00354
X0376
X03839
X03878Y-00276
X03799
X03642
X039Y-0075
Y-008
Y-0085
Y-009
Y-0095
Y-01
Y-0105
Y-011
Y-0115
Y-012
Y-0125
Y-013
Y-0135
Y-014
X03839Y-01457
X0376
X0372Y-01535
X03799
X03878
X03839Y-01614
X0376
X03681
X0372Y-01693
X03642
X03681Y-01772
X0376
X03839
X03878Y-01693
X03799
X03839Y-00197
X038Y-0012
X0378Y-0006
X0386
X0388Y-0012
X03701Y-00059
X03622
X03642Y-00118
X03563
X03543Y-00059
X03465
X03484Y-00118
X03406
X03386Y-00059
X03307
X03327Y-00118
X03366Y-00197
X03445
X03524
X03602
X03228Y-00059
X0315
X03071
X02992
X02913
X02835
X02756
X02677
X02598
X0252
X02441
X02362
X02283
X02205
X02126
X02047
X02106Y-00197
X02657
X02736
X02815
X02028
X01949
X01969Y-00059
X0189
X01811
X01732
X01654
X01575
X01496
X01417
X01339
X0126
X01181
X01102
X01024
X0068Y-0011
X0068Y-002
X01319Y-00197
X01398
X00295
X00177Y-00118
X00098
T02
X0051Y-0253
X0157Y-0244
X00304Y-02249
X00356Y-01324
X00437Y-00507
X0073Y-0051
X01994Y-00764
X0047Y-002
T03
X003Y-037
X004
Y-034
X003
X005
X006
X007
Y-037
X006
X005
X01
X011
X012
X013
X014
X023
X024
X025
X026
X027
Y-034
X026
X025
X024
X023
X03Y-037
X031
X032
X033
X034
X016Y-0255
X015
X0165Y-023
Y-022
Y-021
Y-019
Y-018
X013
X012
X011
X0125Y-021
Y-022
Y-023
X006Y-0185
X005
X004
X003
X002
X001
X00241Y-02202
Y-02399
X002Y-0055
X001
X0165Y-007
Y-008
Y-009
Y-01
Y-011
Y-013
Y-014
Y-015
Y-017
X0185Y-006
X0195
X037Y-0063
Y-0053
X033Y-002
X032
X031
X03
X029
X026
X025
X024
X023
X022
X019
X018
X017
X016
X015
X012
X011
X01
X009
X008
T04
X00135Y-02438
Y-02163
T05
X0275Y-014
X0295
Y-011
X0275
Y-008
X0295
X033
X035
T06
X02067Y-0374
X0374Y-00197
M30
