G04*
G04 #@! TF.GenerationSoftware,Altium Limited,Altium Designer,18.0.7 (293)*
G04*
G04 Layer_Color=8388736*
%FSLAX23Y23*%
%MOIN*%
G70*
G01*
G75*
%ADD45R,0.069X0.067*%
%ADD46R,0.061X0.026*%
%ADD47R,0.043X0.036*%
%ADD48R,0.138X0.114*%
%ADD49R,0.047X0.114*%
%ADD50R,0.044X0.056*%
%ADD51R,0.138X0.106*%
%ADD52R,0.032X0.079*%
%ADD53R,0.036X0.043*%
%ADD54R,0.284X0.284*%
%ADD55R,0.106X0.067*%
%ADD56R,0.106X0.055*%
%ADD57R,0.063X0.067*%
%ADD58R,0.055X0.134*%
%ADD59R,0.093X0.050*%
%ADD60R,0.283X0.336*%
%ADD61R,0.134X0.110*%
%ADD62R,0.071X0.079*%
%ADD63R,0.067X0.118*%
%ADD64R,0.045X0.020*%
%ADD65R,0.020X0.045*%
%ADD66R,0.132X0.132*%
%ADD67R,0.078X0.068*%
%ADD68R,0.068X0.078*%
%ADD69R,0.079X0.032*%
%ADD70R,0.043X0.055*%
%ADD71R,0.055X0.043*%
%ADD72R,0.165X0.165*%
%ADD73R,0.068X0.068*%
%ADD74R,0.087X0.433*%
%ADD75C,0.079*%
%ADD76C,0.063*%
%ADD77C,0.008*%
%ADD78R,0.067X0.067*%
%ADD79C,0.067*%
%ADD80C,0.146*%
%ADD81R,0.067X0.067*%
%ADD82C,0.032*%
%ADD83C,0.047*%
D45*
X135Y-2340D02*
D03*
Y-2261D02*
D03*
D46*
X240Y-2352D02*
D03*
Y-2326D02*
D03*
Y-2301D02*
D03*
Y-2275D02*
D03*
Y-2249D02*
D03*
D47*
X356Y-580D02*
D03*
Y-521D02*
D03*
X1300Y-2590D02*
D03*
Y-2530D02*
D03*
X1370D02*
D03*
Y-2590D02*
D03*
X3330Y-570D02*
D03*
Y-630D02*
D03*
X1820Y-1030D02*
D03*
Y-1090D02*
D03*
X1900Y-1090D02*
D03*
Y-1030D02*
D03*
X1050Y-2200D02*
D03*
Y-2260D02*
D03*
X1450Y-2200D02*
D03*
Y-2260D02*
D03*
X1450Y-1800D02*
D03*
Y-1740D02*
D03*
X440Y-1680D02*
D03*
Y-1620D02*
D03*
X90Y-300D02*
D03*
Y-241D02*
D03*
X910Y-2260D02*
D03*
Y-2320D02*
D03*
X750Y-2320D02*
D03*
Y-2260D02*
D03*
X405Y-2385D02*
D03*
Y-2445D02*
D03*
X1450Y-1460D02*
D03*
Y-1400D02*
D03*
X630Y-230D02*
D03*
Y-290D02*
D03*
X630Y-170D02*
D03*
Y-110D02*
D03*
X500Y-1680D02*
D03*
Y-1620D02*
D03*
X1136Y-806D02*
D03*
Y-865D02*
D03*
X520Y-230D02*
D03*
Y-290D02*
D03*
X520Y-110D02*
D03*
Y-170D02*
D03*
X1310Y-1500D02*
D03*
Y-1560D02*
D03*
X1100Y-1659D02*
D03*
Y-1600D02*
D03*
X1850Y-3629D02*
D03*
Y-3570D02*
D03*
X1720Y-2990D02*
D03*
Y-3050D02*
D03*
X1410Y-2990D02*
D03*
Y-3050D02*
D03*
X1100Y-2990D02*
D03*
Y-3050D02*
D03*
X1810Y-3090D02*
D03*
Y-3150D02*
D03*
X1720Y-2870D02*
D03*
Y-2930D02*
D03*
X1500Y-3090D02*
D03*
Y-3150D02*
D03*
X1410Y-2870D02*
D03*
Y-2930D02*
D03*
X1190Y-3090D02*
D03*
Y-3150D02*
D03*
X1100Y-2870D02*
D03*
Y-2930D02*
D03*
X1790Y-3629D02*
D03*
Y-3570D02*
D03*
X140Y-3199D02*
D03*
Y-3140D02*
D03*
X410Y-3199D02*
D03*
Y-3140D02*
D03*
X680Y-3199D02*
D03*
Y-3140D02*
D03*
X220Y-3198D02*
D03*
Y-3139D02*
D03*
X490Y-3199D02*
D03*
Y-3140D02*
D03*
X760Y-3199D02*
D03*
Y-3140D02*
D03*
X1980Y-3400D02*
D03*
Y-3340D02*
D03*
X2823Y-3196D02*
D03*
Y-3137D02*
D03*
X2553Y-3196D02*
D03*
Y-3137D02*
D03*
X2743Y-3196D02*
D03*
Y-3137D02*
D03*
X2473Y-3196D02*
D03*
Y-3137D02*
D03*
X2283Y-3195D02*
D03*
Y-3136D02*
D03*
X2203Y-3196D02*
D03*
Y-3137D02*
D03*
X1870Y-2790D02*
D03*
Y-2850D02*
D03*
X3190Y-3090D02*
D03*
Y-3150D02*
D03*
X3100Y-2990D02*
D03*
Y-3050D02*
D03*
X3100Y-2870D02*
D03*
Y-2930D02*
D03*
X3410Y-2990D02*
D03*
Y-3050D02*
D03*
X3500Y-3090D02*
D03*
Y-3150D02*
D03*
X3410Y-2870D02*
D03*
Y-2930D02*
D03*
X3720Y-2990D02*
D03*
Y-3050D02*
D03*
X3850Y-3629D02*
D03*
Y-3570D02*
D03*
X3790Y-3629D02*
D03*
Y-3570D02*
D03*
X3720Y-2870D02*
D03*
Y-2930D02*
D03*
X3810Y-3090D02*
D03*
Y-3150D02*
D03*
X1050Y-450D02*
D03*
Y-390D02*
D03*
X980Y-450D02*
D03*
Y-390D02*
D03*
X1750Y-450D02*
D03*
Y-390D02*
D03*
X1680Y-450D02*
D03*
Y-390D02*
D03*
X2450Y-450D02*
D03*
Y-390D02*
D03*
X2380Y-450D02*
D03*
Y-390D02*
D03*
X3150Y-450D02*
D03*
Y-390D02*
D03*
X3080Y-450D02*
D03*
Y-390D02*
D03*
D48*
X2110Y-764D02*
D03*
D49*
X2201Y-996D02*
D03*
X2110D02*
D03*
X2019D02*
D03*
D50*
X3529Y-630D02*
D03*
X3400D02*
D03*
D51*
X2550Y-1830D02*
D03*
Y-2098D02*
D03*
D52*
X1200Y-1619D02*
D03*
X1163Y-1541D02*
D03*
X1237D02*
D03*
X830Y-2350D02*
D03*
X867Y-2429D02*
D03*
X793D02*
D03*
X830Y-2239D02*
D03*
X793Y-2161D02*
D03*
X867D02*
D03*
X223Y-221D02*
D03*
X260Y-300D02*
D03*
X185D02*
D03*
X400Y-220D02*
D03*
X437Y-299D02*
D03*
X363D02*
D03*
X1650Y-3709D02*
D03*
X1613Y-3630D02*
D03*
X1687D02*
D03*
X3650Y-3709D02*
D03*
X3613Y-3630D02*
D03*
X3687D02*
D03*
X1600Y-3040D02*
D03*
X1563Y-2961D02*
D03*
X1637D02*
D03*
X1290Y-3039D02*
D03*
X1253Y-2961D02*
D03*
X1327D02*
D03*
X980Y-3039D02*
D03*
X943Y-2960D02*
D03*
X1017D02*
D03*
X180D02*
D03*
X217Y-3039D02*
D03*
X143D02*
D03*
X450Y-2960D02*
D03*
X487Y-3039D02*
D03*
X413D02*
D03*
X720Y-2960D02*
D03*
X757Y-3039D02*
D03*
X683D02*
D03*
X2243Y-2957D02*
D03*
X2281Y-3035D02*
D03*
X2206D02*
D03*
X2513Y-2957D02*
D03*
X2551Y-3035D02*
D03*
X2476D02*
D03*
X2783Y-2957D02*
D03*
X2821Y-3035D02*
D03*
X2746D02*
D03*
X2980Y-3039D02*
D03*
X2943Y-2960D02*
D03*
X3017D02*
D03*
X3290Y-3039D02*
D03*
X3253Y-2961D02*
D03*
X3327D02*
D03*
X3600Y-3040D02*
D03*
X3563Y-2961D02*
D03*
X3637D02*
D03*
D53*
X2660Y-2740D02*
D03*
X2600D02*
D03*
X2659Y-2410D02*
D03*
X2600D02*
D03*
X3670Y-1460D02*
D03*
X3610D02*
D03*
X2240Y-640D02*
D03*
X2300D02*
D03*
X2110Y-640D02*
D03*
X2170D02*
D03*
X2260Y-1110D02*
D03*
X2200D02*
D03*
X1350Y-800D02*
D03*
X1290D02*
D03*
X1350Y-900D02*
D03*
X1290D02*
D03*
X1350Y-1000D02*
D03*
X1291D02*
D03*
X1480Y-800D02*
D03*
X1420D02*
D03*
X1479Y-900D02*
D03*
X1420D02*
D03*
X1480Y-1000D02*
D03*
X1420D02*
D03*
X140Y-1970D02*
D03*
X199D02*
D03*
X356Y-1530D02*
D03*
X296D02*
D03*
X480Y-2385D02*
D03*
X540D02*
D03*
X480Y-2455D02*
D03*
X540D02*
D03*
X250Y-410D02*
D03*
X190D02*
D03*
X400Y-120D02*
D03*
X460D02*
D03*
X280D02*
D03*
X340D02*
D03*
X1790Y-3690D02*
D03*
X1850D02*
D03*
X1640Y-2860D02*
D03*
X1580D02*
D03*
X1330Y-2870D02*
D03*
X1270D02*
D03*
X1020D02*
D03*
X960D02*
D03*
X150Y-2600D02*
D03*
X210D02*
D03*
X441Y-2600D02*
D03*
X500D02*
D03*
X3020Y-2870D02*
D03*
X2960D02*
D03*
X3330D02*
D03*
X3270D02*
D03*
X3790Y-3690D02*
D03*
X3850D02*
D03*
X3640Y-2860D02*
D03*
X3580D02*
D03*
D54*
X3222Y-1074D02*
D03*
Y-1369D02*
D03*
D55*
X3494Y-1165D02*
D03*
Y-984D02*
D03*
Y-1460D02*
D03*
Y-1279D02*
D03*
D56*
X2747Y-2577D02*
D03*
X2562D02*
D03*
D57*
X3669Y-1560D02*
D03*
X3591D02*
D03*
D58*
X2180Y-1869D02*
D03*
Y-1570D02*
D03*
D59*
X2750Y-2234D02*
D03*
Y-2167D02*
D03*
Y-2100D02*
D03*
Y-2033D02*
D03*
Y-1966D02*
D03*
D60*
X3170Y-2100D02*
D03*
D61*
X2160Y-2587D02*
D03*
Y-2150D02*
D03*
D62*
X630Y-2530D02*
D03*
Y-2680D02*
D03*
D63*
X233Y-1646D02*
D03*
X356D02*
D03*
D64*
X451Y-2136D02*
D03*
Y-2156D02*
D03*
Y-2176D02*
D03*
Y-2195D02*
D03*
Y-2215D02*
D03*
Y-2235D02*
D03*
Y-2254D02*
D03*
X640D02*
D03*
Y-2235D02*
D03*
Y-2215D02*
D03*
Y-2195D02*
D03*
Y-2176D02*
D03*
Y-2156D02*
D03*
Y-2136D02*
D03*
D65*
X486Y-2290D02*
D03*
X506D02*
D03*
X526D02*
D03*
X545D02*
D03*
X565D02*
D03*
X585D02*
D03*
X604D02*
D03*
Y-2101D02*
D03*
X585D02*
D03*
X565D02*
D03*
X545D02*
D03*
X526D02*
D03*
X506D02*
D03*
X486D02*
D03*
D66*
X545Y-2195D02*
D03*
D67*
X1600Y-3514D02*
D03*
X1700D02*
D03*
X1600Y-3140D02*
D03*
X1700D02*
D03*
X1290Y-3513D02*
D03*
X1390D02*
D03*
X1290Y-3139D02*
D03*
X1390D02*
D03*
X980Y-3513D02*
D03*
X1080D02*
D03*
X980Y-3139D02*
D03*
X1080D02*
D03*
X2080Y-2846D02*
D03*
X1980D02*
D03*
X2080Y-3220D02*
D03*
X1980D02*
D03*
X2980Y-3513D02*
D03*
X3080D02*
D03*
X2980Y-3139D02*
D03*
X3080D02*
D03*
X3290Y-3513D02*
D03*
X3390D02*
D03*
X3290Y-3139D02*
D03*
X3390D02*
D03*
X3600Y-3514D02*
D03*
X3700D02*
D03*
X3600Y-3140D02*
D03*
X3700D02*
D03*
D68*
X501Y-2810D02*
D03*
Y-2710D02*
D03*
X127Y-2810D02*
D03*
Y-2710D02*
D03*
D69*
X811Y-417D02*
D03*
X890Y-380D02*
D03*
Y-455D02*
D03*
X1511Y-417D02*
D03*
X1590Y-380D02*
D03*
Y-455D02*
D03*
X2211Y-417D02*
D03*
X2290Y-380D02*
D03*
Y-455D02*
D03*
X2911Y-417D02*
D03*
X2990Y-380D02*
D03*
Y-455D02*
D03*
D70*
X306Y-1391D02*
D03*
X356D02*
D03*
X406D02*
D03*
X456D02*
D03*
X506D02*
D03*
X556D02*
D03*
X606D02*
D03*
X656D02*
D03*
X706D02*
D03*
X756D02*
D03*
X806D02*
D03*
X856D02*
D03*
X906D02*
D03*
X956D02*
D03*
Y-671D02*
D03*
X906D02*
D03*
X856D02*
D03*
X806D02*
D03*
X756D02*
D03*
X706D02*
D03*
X656D02*
D03*
X606D02*
D03*
X556D02*
D03*
X506D02*
D03*
X456D02*
D03*
X406D02*
D03*
X356D02*
D03*
X306D02*
D03*
D71*
X1021Y-1256D02*
D03*
Y-1206D02*
D03*
Y-1156D02*
D03*
Y-1106D02*
D03*
Y-1056D02*
D03*
Y-1006D02*
D03*
Y-956D02*
D03*
Y-906D02*
D03*
Y-856D02*
D03*
Y-806D02*
D03*
D72*
X610Y-1020D02*
D03*
D73*
X135Y-2421D02*
D03*
Y-2181D02*
D03*
D74*
X3268Y-2100D02*
D03*
D75*
X135Y-2438D02*
D03*
Y-2163D02*
D03*
D76*
X241Y-2399D02*
D03*
Y-2202D02*
D03*
D77*
X3740Y-197D02*
D03*
X2067Y-3740D02*
D03*
D78*
X200Y-550D02*
D03*
X1850Y-600D02*
D03*
X1100Y-1800D02*
D03*
X100Y-1850D02*
D03*
X1500Y-2550D02*
D03*
X2300Y-3400D02*
D03*
Y-3700D02*
D03*
X3400D02*
D03*
X1400D02*
D03*
X300Y-3400D02*
D03*
Y-3700D02*
D03*
X1200Y-200D02*
D03*
X1900D02*
D03*
X2600D02*
D03*
X3300D02*
D03*
D79*
X100Y-550D02*
D03*
X1950Y-600D02*
D03*
X1300Y-1800D02*
D03*
X1200D02*
D03*
X3700Y-630D02*
D03*
X1250Y-2100D02*
D03*
Y-2200D02*
D03*
X1650Y-2100D02*
D03*
Y-2200D02*
D03*
Y-1700D02*
D03*
Y-1800D02*
D03*
Y-1000D02*
D03*
Y-900D02*
D03*
Y-800D02*
D03*
Y-700D02*
D03*
Y-1400D02*
D03*
Y-1300D02*
D03*
X200Y-1850D02*
D03*
X300D02*
D03*
X400D02*
D03*
X500D02*
D03*
X600D02*
D03*
X1600Y-2550D02*
D03*
X2400Y-3400D02*
D03*
X2500D02*
D03*
X2600D02*
D03*
X2700D02*
D03*
X2400Y-3700D02*
D03*
X2500D02*
D03*
X2600D02*
D03*
X2700D02*
D03*
X3300D02*
D03*
X3200D02*
D03*
X3100D02*
D03*
X3000D02*
D03*
X1300D02*
D03*
X1200D02*
D03*
X1100D02*
D03*
X1000D02*
D03*
X400Y-3400D02*
D03*
X500D02*
D03*
X600D02*
D03*
X700D02*
D03*
X400Y-3700D02*
D03*
X500D02*
D03*
X600D02*
D03*
X700D02*
D03*
X1100Y-200D02*
D03*
X1000D02*
D03*
X900D02*
D03*
X800D02*
D03*
X1800D02*
D03*
X1700D02*
D03*
X1600D02*
D03*
X1500D02*
D03*
X2500D02*
D03*
X2400D02*
D03*
X2300D02*
D03*
X2200D02*
D03*
X3200D02*
D03*
X3100D02*
D03*
X3000D02*
D03*
X2900D02*
D03*
D80*
X3300Y-800D02*
D03*
X3500D02*
D03*
X2950Y-1400D02*
D03*
X2750D02*
D03*
X2950Y-1100D02*
D03*
X2750D02*
D03*
X2950Y-800D02*
D03*
X2750D02*
D03*
D81*
X3700Y-530D02*
D03*
X1250Y-2300D02*
D03*
X1650D02*
D03*
Y-1900D02*
D03*
Y-1100D02*
D03*
Y-1500D02*
D03*
D82*
X571Y-2165D02*
D03*
X512Y-2185D02*
D03*
X551Y-2224D02*
D03*
X512D02*
D03*
X1160Y-1960D02*
D03*
X1070D02*
D03*
X301Y-521D02*
D03*
X1900Y-1180D02*
D03*
X3580Y-2760D02*
D03*
X3270D02*
D03*
X2860Y-2870D02*
D03*
X1850Y-1210D02*
D03*
X1810Y-1240D02*
D03*
X1010Y-670D02*
D03*
X1163Y-1463D02*
D03*
X1580Y-2770D02*
D03*
X956Y-1466D02*
D03*
X1810Y-2850D02*
D03*
X1810Y-2790D02*
D03*
X1270Y-2770D02*
D03*
X960D02*
D03*
X910Y-2600D02*
D03*
X906Y-1464D02*
D03*
X856Y-1466D02*
D03*
X806D02*
D03*
X756D02*
D03*
X790Y-2290D02*
D03*
X440Y-1560D02*
D03*
X500Y-1560D02*
D03*
X370Y-2600D02*
D03*
X867Y-2333D02*
D03*
X450Y-2080D02*
D03*
X300Y-2000D02*
D03*
X435Y-2290D02*
D03*
X506Y-736D02*
D03*
X456D02*
D03*
X680Y-200D02*
D03*
X680Y-110D02*
D03*
D83*
X1570Y-2440D02*
D03*
X356Y-1324D02*
D03*
X437Y-507D02*
D03*
X1994Y-764D02*
D03*
X730Y-510D02*
D03*
X510Y-2530D02*
D03*
X304Y-2249D02*
D03*
X470Y-200D02*
D03*
M02*
