G04*
G04 #@! TF.GenerationSoftware,Altium Limited,Altium Designer,18.0.7 (293)*
G04*
G04 Layer_Physical_Order=1*
G04 Layer_Color=255*
%FSLAX25Y25*%
%MOIN*%
G70*
G01*
G75*
%ADD13R,0.03543X0.06693*%
%ADD14O,0.03543X0.06693*%
%ADD15R,0.02756X0.03543*%
%ADD22C,0.01000*%
%ADD23R,0.05906X0.05906*%
%ADD24C,0.05906*%
%ADD25C,0.02362*%
D13*
X16087Y-11465D02*
D03*
Y-28000D02*
D03*
X9000D02*
D03*
D14*
Y-11465D02*
D03*
D15*
X52047Y-5000D02*
D03*
X57953D02*
D03*
X52047Y-33000D02*
D03*
X57953D02*
D03*
D22*
X11000Y-5000D02*
X52047D01*
X57000D02*
X62000D01*
X64000Y-30000D02*
X70000D01*
X61000Y-33000D02*
X64000Y-30000D01*
X57953Y-33000D02*
X61000D01*
X62094Y-20000D02*
X70000D01*
X52047Y-30047D02*
X62094Y-20000D01*
X63000Y-10000D02*
X70000D01*
X61535Y-11465D02*
X63000Y-10000D01*
X16087Y-11465D02*
X61535D01*
X9000Y-7000D02*
X11000Y-5000D01*
X9000Y-11465D02*
Y-7000D01*
X52047Y-33000D02*
Y-30047D01*
X50000Y-28000D02*
X52047Y-30047D01*
X16087Y-28000D02*
X50000D01*
X16087Y-15913D02*
Y-11465D01*
X9000Y-23000D02*
X16087Y-15913D01*
X9000Y-28000D02*
Y-23000D01*
D23*
X70000Y-30000D02*
D03*
D24*
Y-20000D02*
D03*
Y-10000D02*
D03*
D25*
X62000Y-5000D02*
D03*
M02*
