G04*
G04 #@! TF.GenerationSoftware,Altium Limited,Altium Designer,18.0.7 (293)*
G04*
G04 Layer_Color=65535*
%FSLAX25Y25*%
%MOIN*%
G70*
G01*
G75*
%ADD10C,0.00984*%
%ADD11C,0.00600*%
%ADD12C,0.00787*%
D10*
X5535Y-14732D02*
G03*
X5535Y-14732I-492J0D01*
G01*
D11*
X52748Y-20000D02*
G03*
X52748Y-20000I-15748J0D01*
G01*
X9133Y-34334D02*
X8600Y-33801D01*
X7533D01*
X7000Y-34334D01*
Y-34867D01*
X7533Y-35401D01*
X8600D01*
X9133Y-35934D01*
Y-36467D01*
X8600Y-37000D01*
X7533D01*
X7000Y-36467D01*
X10199Y-37000D02*
X11265D01*
X10732D01*
Y-33801D01*
X10199Y-34334D01*
X54000Y-12000D02*
Y-8801D01*
X55599D01*
X56133Y-9334D01*
Y-10401D01*
X55599Y-10934D01*
X54000D01*
X55066D02*
X56133Y-12000D01*
X57199D02*
X58265D01*
X57732D01*
Y-8801D01*
X57199Y-9334D01*
X54000Y-29000D02*
Y-25801D01*
X55599D01*
X56133Y-26334D01*
Y-27400D01*
X55599Y-27934D01*
X54000D01*
X55066D02*
X56133Y-29000D01*
X59332D02*
X57199D01*
X59332Y-26867D01*
Y-26334D01*
X58798Y-25801D01*
X57732D01*
X57199Y-26334D01*
X58000Y-21000D02*
Y-17801D01*
X59600D01*
X60133Y-18334D01*
Y-19400D01*
X59600Y-19934D01*
X58000D01*
X61199Y-21000D02*
X62265D01*
X61732D01*
Y-17801D01*
X61199Y-18334D01*
D12*
X6244Y-16386D02*
X18843D01*
X6244Y-23079D02*
X18843D01*
Y-16386D01*
X6244Y-23079D02*
Y-16386D01*
X54213Y-3622D02*
X55787D01*
X54213Y-6378D02*
X55787D01*
X54213Y-31622D02*
X55787D01*
X54213Y-34378D02*
X55787D01*
X75000Y-35000D02*
Y-5000D01*
X65000D02*
X75000D01*
X65000Y-35000D02*
Y-5000D01*
Y-35000D02*
X75000D01*
M02*
